ISO-10303-21;
HEADER;
/* Generated by software containing ST-Developer
 * from STEP Tools, Inc. (www.steptools.com) 
 */
/* OPTION: using custom renumber hook */

FILE_DESCRIPTION(
/* description */ ('STEP AP242 Edition 2',
'CAx-IF Rec.Pracs.---Representation and Presentation of Product Manufa
cturing Information (PMI)---4.0---2014-10-13',
'CAx-IF Rec.Pracs.---3D Tessellated Geometry---0.4---2014-09-14','2;1',
'CAx-IF Rec.Pracs.---User Defined Attributes---1.5---2016-08-15'),
/* implementation_level */ '2;1');

FILE_NAME(
/* name */ '694da62b6c221c266c0161d2',
/* time_stamp */ '2025-12-25T21:01:32Z',
/* author */ (''),
/* organization */ (''),
/* preprocessor_version */ 'ST-DEVELOPER v20',
/* originating_system */ 'ONSHAPE BY PTC INC, 1.208',
/* authorisation */ '  ');

FILE_SCHEMA (('AP242_MANAGED_MODEL_BASED_3D_ENGINEERING_MIM_LF { 1 0 10303 442 3 1 4 }'));
ENDSEC;

DATA;
#10=SHAPE_REPRESENTATION_RELATIONSHIP('','',#1030,#11);
#11=ADVANCED_BREP_SHAPE_REPRESENTATION('',(#1028),#1632);
#12=ORIENTED_EDGE('',*,*,#286,.F.);
#13=ORIENTED_EDGE('',*,*,#287,.F.);
#14=ORIENTED_EDGE('',*,*,#288,.F.);
#15=ORIENTED_EDGE('',*,*,#289,.T.);
#16=ORIENTED_EDGE('',*,*,#290,.F.);
#17=ORIENTED_EDGE('',*,*,#291,.T.);
#18=ORIENTED_EDGE('',*,*,#292,.F.);
#19=ORIENTED_EDGE('',*,*,#293,.T.);
#20=ORIENTED_EDGE('',*,*,#294,.T.);
#21=ORIENTED_EDGE('',*,*,#295,.T.);
#22=ORIENTED_EDGE('',*,*,#296,.F.);
#23=ORIENTED_EDGE('',*,*,#297,.F.);
#24=ORIENTED_EDGE('',*,*,#298,.T.);
#25=ORIENTED_EDGE('',*,*,#299,.T.);
#26=ORIENTED_EDGE('',*,*,#300,.T.);
#27=ORIENTED_EDGE('',*,*,#290,.T.);
#28=ORIENTED_EDGE('',*,*,#301,.T.);
#29=ORIENTED_EDGE('',*,*,#302,.T.);
#30=ORIENTED_EDGE('',*,*,#303,.T.);
#31=ORIENTED_EDGE('',*,*,#304,.T.);
#32=ORIENTED_EDGE('',*,*,#305,.T.);
#33=ORIENTED_EDGE('',*,*,#306,.T.);
#34=ORIENTED_EDGE('',*,*,#307,.T.);
#35=ORIENTED_EDGE('',*,*,#308,.T.);
#36=ORIENTED_EDGE('',*,*,#309,.T.);
#37=ORIENTED_EDGE('',*,*,#310,.T.);
#38=ORIENTED_EDGE('',*,*,#311,.T.);
#39=ORIENTED_EDGE('',*,*,#312,.T.);
#40=ORIENTED_EDGE('',*,*,#313,.T.);
#41=ORIENTED_EDGE('',*,*,#314,.T.);
#42=ORIENTED_EDGE('',*,*,#315,.T.);
#43=ORIENTED_EDGE('',*,*,#316,.T.);
#44=ORIENTED_EDGE('',*,*,#317,.T.);
#45=ORIENTED_EDGE('',*,*,#318,.T.);
#46=ORIENTED_EDGE('',*,*,#319,.T.);
#47=ORIENTED_EDGE('',*,*,#294,.F.);
#48=ORIENTED_EDGE('',*,*,#320,.T.);
#49=ORIENTED_EDGE('',*,*,#321,.T.);
#50=ORIENTED_EDGE('',*,*,#322,.T.);
#51=ORIENTED_EDGE('',*,*,#323,.T.);
#52=ORIENTED_EDGE('',*,*,#324,.F.);
#53=ORIENTED_EDGE('',*,*,#325,.T.);
#54=ORIENTED_EDGE('',*,*,#326,.F.);
#55=ORIENTED_EDGE('',*,*,#327,.T.);
#56=ORIENTED_EDGE('',*,*,#328,.F.);
#57=ORIENTED_EDGE('',*,*,#329,.T.);
#58=ORIENTED_EDGE('',*,*,#330,.T.);
#59=ORIENTED_EDGE('',*,*,#331,.T.);
#60=ORIENTED_EDGE('',*,*,#332,.T.);
#61=ORIENTED_EDGE('',*,*,#333,.T.);
#62=ORIENTED_EDGE('',*,*,#326,.T.);
#63=ORIENTED_EDGE('',*,*,#334,.T.);
#64=ORIENTED_EDGE('',*,*,#332,.F.);
#65=ORIENTED_EDGE('',*,*,#335,.T.);
#66=ORIENTED_EDGE('',*,*,#336,.T.);
#67=ORIENTED_EDGE('',*,*,#337,.T.);
#68=ORIENTED_EDGE('',*,*,#338,.T.);
#69=ORIENTED_EDGE('',*,*,#339,.T.);
#70=ORIENTED_EDGE('',*,*,#340,.T.);
#71=ORIENTED_EDGE('',*,*,#341,.T.);
#72=ORIENTED_EDGE('',*,*,#342,.T.);
#73=ORIENTED_EDGE('',*,*,#343,.T.);
#74=ORIENTED_EDGE('',*,*,#344,.F.);
#75=ORIENTED_EDGE('',*,*,#345,.T.);
#76=ORIENTED_EDGE('',*,*,#292,.T.);
#77=ORIENTED_EDGE('',*,*,#346,.F.);
#78=ORIENTED_EDGE('',*,*,#286,.T.);
#79=ORIENTED_EDGE('',*,*,#347,.T.);
#80=ORIENTED_EDGE('',*,*,#348,.F.);
#81=ORIENTED_EDGE('',*,*,#349,.T.);
#82=ORIENTED_EDGE('',*,*,#287,.T.);
#83=ORIENTED_EDGE('',*,*,#349,.F.);
#84=ORIENTED_EDGE('',*,*,#350,.F.);
#85=ORIENTED_EDGE('',*,*,#351,.T.);
#86=ORIENTED_EDGE('',*,*,#352,.F.);
#87=ORIENTED_EDGE('',*,*,#353,.T.);
#88=ORIENTED_EDGE('',*,*,#288,.T.);
#89=ORIENTED_EDGE('',*,*,#351,.F.);
#90=ORIENTED_EDGE('',*,*,#296,.T.);
#91=ORIENTED_EDGE('',*,*,#354,.T.);
#92=ORIENTED_EDGE('',*,*,#355,.F.);
#93=ORIENTED_EDGE('',*,*,#356,.T.);
#94=ORIENTED_EDGE('',*,*,#297,.T.);
#95=ORIENTED_EDGE('',*,*,#356,.F.);
#96=ORIENTED_EDGE('',*,*,#357,.F.);
#97=ORIENTED_EDGE('',*,*,#346,.T.);
#98=ORIENTED_EDGE('',*,*,#324,.T.);
#99=ORIENTED_EDGE('',*,*,#358,.T.);
#100=ORIENTED_EDGE('',*,*,#359,.T.);
#101=ORIENTED_EDGE('',*,*,#360,.T.);
#102=ORIENTED_EDGE('',*,*,#344,.T.);
#103=ORIENTED_EDGE('',*,*,#357,.T.);
#104=ORIENTED_EDGE('',*,*,#355,.T.);
#105=ORIENTED_EDGE('',*,*,#361,.T.);
#106=ORIENTED_EDGE('',*,*,#362,.T.);
#107=ORIENTED_EDGE('',*,*,#363,.T.);
#108=ORIENTED_EDGE('',*,*,#364,.T.);
#109=ORIENTED_EDGE('',*,*,#365,.T.);
#110=ORIENTED_EDGE('',*,*,#366,.T.);
#111=ORIENTED_EDGE('',*,*,#367,.T.);
#112=ORIENTED_EDGE('',*,*,#352,.T.);
#113=ORIENTED_EDGE('',*,*,#350,.T.);
#114=ORIENTED_EDGE('',*,*,#348,.T.);
#115=ORIENTED_EDGE('',*,*,#368,.T.);
#116=ORIENTED_EDGE('',*,*,#369,.T.);
#117=ORIENTED_EDGE('',*,*,#370,.T.);
#118=ORIENTED_EDGE('',*,*,#328,.T.);
#119=ORIENTED_EDGE('',*,*,#371,.T.);
#120=ORIENTED_EDGE('',*,*,#319,.F.);
#121=ORIENTED_EDGE('',*,*,#372,.T.);
#122=ORIENTED_EDGE('',*,*,#373,.T.);
#123=ORIENTED_EDGE('',*,*,#374,.T.);
#124=ORIENTED_EDGE('',*,*,#359,.F.);
#125=ORIENTED_EDGE('',*,*,#375,.T.);
#126=ORIENTED_EDGE('',*,*,#320,.F.);
#127=ORIENTED_EDGE('',*,*,#376,.T.);
#128=ORIENTED_EDGE('',*,*,#300,.F.);
#129=ORIENTED_EDGE('',*,*,#377,.T.);
#130=ORIENTED_EDGE('',*,*,#378,.T.);
#131=ORIENTED_EDGE('',*,*,#379,.T.);
#132=ORIENTED_EDGE('',*,*,#380,.T.);
#133=ORIENTED_EDGE('',*,*,#381,.T.);
#134=ORIENTED_EDGE('',*,*,#301,.F.);
#135=ORIENTED_EDGE('',*,*,#382,.T.);
#136=ORIENTED_EDGE('',*,*,#291,.F.);
#137=ORIENTED_EDGE('',*,*,#379,.F.);
#138=ORIENTED_EDGE('',*,*,#383,.F.);
#139=ORIENTED_EDGE('',*,*,#368,.F.);
#140=ORIENTED_EDGE('',*,*,#347,.F.);
#141=ORIENTED_EDGE('',*,*,#383,.T.);
#142=ORIENTED_EDGE('',*,*,#378,.F.);
#143=ORIENTED_EDGE('',*,*,#384,.F.);
#144=ORIENTED_EDGE('',*,*,#369,.F.);
#145=ORIENTED_EDGE('',*,*,#384,.T.);
#146=ORIENTED_EDGE('',*,*,#377,.F.);
#147=ORIENTED_EDGE('',*,*,#385,.F.);
#148=ORIENTED_EDGE('',*,*,#329,.F.);
#149=ORIENTED_EDGE('',*,*,#370,.F.);
#150=ORIENTED_EDGE('',*,*,#385,.T.);
#151=ORIENTED_EDGE('',*,*,#299,.F.);
#152=ORIENTED_EDGE('',*,*,#386,.F.);
#153=ORIENTED_EDGE('',*,*,#330,.F.);
#154=ORIENTED_EDGE('',*,*,#387,.F.);
#155=ORIENTED_EDGE('',*,*,#331,.F.);
#156=ORIENTED_EDGE('',*,*,#388,.F.);
#157=ORIENTED_EDGE('',*,*,#341,.F.);
#158=ORIENTED_EDGE('',*,*,#388,.T.);
#159=ORIENTED_EDGE('',*,*,#386,.T.);
#160=ORIENTED_EDGE('',*,*,#389,.F.);
#161=ORIENTED_EDGE('',*,*,#387,.T.);
#162=ORIENTED_EDGE('',*,*,#340,.F.);
#163=ORIENTED_EDGE('',*,*,#390,.F.);
#164=ORIENTED_EDGE('',*,*,#335,.F.);
#165=ORIENTED_EDGE('',*,*,#358,.F.);
#166=ORIENTED_EDGE('',*,*,#323,.F.);
#167=ORIENTED_EDGE('',*,*,#391,.F.);
#168=ORIENTED_EDGE('',*,*,#375,.F.);
#169=ORIENTED_EDGE('',*,*,#389,.T.);
#170=ORIENTED_EDGE('',*,*,#298,.F.);
#171=ORIENTED_EDGE('',*,*,#392,.F.);
#172=ORIENTED_EDGE('',*,*,#342,.F.);
#173=ORIENTED_EDGE('',*,*,#390,.T.);
#174=ORIENTED_EDGE('',*,*,#339,.F.);
#175=ORIENTED_EDGE('',*,*,#393,.F.);
#176=ORIENTED_EDGE('',*,*,#327,.F.);
#177=ORIENTED_EDGE('',*,*,#391,.T.);
#178=ORIENTED_EDGE('',*,*,#322,.F.);
#179=ORIENTED_EDGE('',*,*,#394,.F.);
#180=ORIENTED_EDGE('',*,*,#321,.F.);
#181=ORIENTED_EDGE('',*,*,#353,.F.);
#182=ORIENTED_EDGE('',*,*,#367,.F.);
#183=ORIENTED_EDGE('',*,*,#395,.F.);
#184=ORIENTED_EDGE('',*,*,#382,.F.);
#185=ORIENTED_EDGE('',*,*,#289,.F.);
#186=ORIENTED_EDGE('',*,*,#396,.F.);
#187=ORIENTED_EDGE('',*,*,#302,.F.);
#188=ORIENTED_EDGE('',*,*,#397,.F.);
#189=ORIENTED_EDGE('',*,*,#307,.F.);
#190=ORIENTED_EDGE('',*,*,#392,.T.);
#191=ORIENTED_EDGE('',*,*,#396,.T.);
#192=ORIENTED_EDGE('',*,*,#398,.F.);
#193=ORIENTED_EDGE('',*,*,#394,.T.);
#194=ORIENTED_EDGE('',*,*,#393,.T.);
#195=ORIENTED_EDGE('',*,*,#399,.F.);
#196=ORIENTED_EDGE('',*,*,#395,.T.);
#197=ORIENTED_EDGE('',*,*,#366,.F.);
#198=ORIENTED_EDGE('',*,*,#400,.F.);
#199=ORIENTED_EDGE('',*,*,#380,.F.);
#200=ORIENTED_EDGE('',*,*,#397,.T.);
#201=ORIENTED_EDGE('',*,*,#381,.F.);
#202=ORIENTED_EDGE('',*,*,#401,.F.);
#203=ORIENTED_EDGE('',*,*,#303,.F.);
#204=ORIENTED_EDGE('',*,*,#398,.T.);
#205=ORIENTED_EDGE('',*,*,#306,.F.);
#206=ORIENTED_EDGE('',*,*,#402,.F.);
#207=ORIENTED_EDGE('',*,*,#343,.F.);
#208=ORIENTED_EDGE('',*,*,#399,.T.);
#209=ORIENTED_EDGE('',*,*,#338,.F.);
#210=ORIENTED_EDGE('',*,*,#403,.F.);
#211=ORIENTED_EDGE('',*,*,#317,.F.);
#212=ORIENTED_EDGE('',*,*,#401,.T.);
#213=ORIENTED_EDGE('',*,*,#400,.T.);
#214=ORIENTED_EDGE('',*,*,#404,.F.);
#215=ORIENTED_EDGE('',*,*,#405,.F.);
#216=ORIENTED_EDGE('',*,*,#402,.T.);
#217=ORIENTED_EDGE('',*,*,#406,.F.);
#218=ORIENTED_EDGE('',*,*,#407,.F.);
#219=ORIENTED_EDGE('',*,*,#403,.T.);
#220=ORIENTED_EDGE('',*,*,#408,.F.);
#221=ORIENTED_EDGE('',*,*,#404,.T.);
#222=ORIENTED_EDGE('',*,*,#365,.F.);
#223=ORIENTED_EDGE('',*,*,#409,.F.);
#224=ORIENTED_EDGE('',*,*,#304,.F.);
#225=ORIENTED_EDGE('',*,*,#406,.T.);
#226=ORIENTED_EDGE('',*,*,#305,.F.);
#227=ORIENTED_EDGE('',*,*,#410,.F.);
#228=ORIENTED_EDGE('',*,*,#308,.F.);
#229=ORIENTED_EDGE('',*,*,#405,.T.);
#230=ORIENTED_EDGE('',*,*,#311,.F.);
#231=ORIENTED_EDGE('',*,*,#411,.F.);
#232=ORIENTED_EDGE('',*,*,#336,.F.);
#233=ORIENTED_EDGE('',*,*,#408,.T.);
#234=ORIENTED_EDGE('',*,*,#337,.F.);
#235=ORIENTED_EDGE('',*,*,#412,.F.);
#236=ORIENTED_EDGE('',*,*,#315,.F.);
#237=ORIENTED_EDGE('',*,*,#407,.T.);
#238=ORIENTED_EDGE('',*,*,#314,.F.);
#239=ORIENTED_EDGE('',*,*,#413,.F.);
#240=ORIENTED_EDGE('',*,*,#318,.F.);
#241=ORIENTED_EDGE('',*,*,#295,.F.);
#242=ORIENTED_EDGE('',*,*,#374,.F.);
#243=ORIENTED_EDGE('',*,*,#414,.F.);
#244=ORIENTED_EDGE('',*,*,#361,.F.);
#245=ORIENTED_EDGE('',*,*,#354,.F.);
#246=ORIENTED_EDGE('',*,*,#410,.T.);
#247=ORIENTED_EDGE('',*,*,#409,.T.);
#248=ORIENTED_EDGE('',*,*,#415,.F.);
#249=ORIENTED_EDGE('',*,*,#412,.T.);
#250=ORIENTED_EDGE('',*,*,#411,.T.);
#251=ORIENTED_EDGE('',*,*,#416,.F.);
#252=ORIENTED_EDGE('',*,*,#413,.T.);
#253=ORIENTED_EDGE('',*,*,#313,.F.);
#254=ORIENTED_EDGE('',*,*,#417,.F.);
#255=ORIENTED_EDGE('',*,*,#372,.F.);
#256=ORIENTED_EDGE('',*,*,#414,.T.);
#257=ORIENTED_EDGE('',*,*,#373,.F.);
#258=ORIENTED_EDGE('',*,*,#418,.F.);
#259=ORIENTED_EDGE('',*,*,#362,.F.);
#260=ORIENTED_EDGE('',*,*,#415,.T.);
#261=ORIENTED_EDGE('',*,*,#364,.F.);
#262=ORIENTED_EDGE('',*,*,#419,.F.);
#263=ORIENTED_EDGE('',*,*,#309,.F.);
#264=ORIENTED_EDGE('',*,*,#416,.T.);
#265=ORIENTED_EDGE('',*,*,#310,.F.);
#266=ORIENTED_EDGE('',*,*,#420,.F.);
#267=ORIENTED_EDGE('',*,*,#316,.F.);
#268=ORIENTED_EDGE('',*,*,#418,.T.);
#269=ORIENTED_EDGE('',*,*,#417,.T.);
#270=ORIENTED_EDGE('',*,*,#421,.F.);
#271=ORIENTED_EDGE('',*,*,#420,.T.);
#272=ORIENTED_EDGE('',*,*,#419,.T.);
#273=ORIENTED_EDGE('',*,*,#422,.F.);
#274=ORIENTED_EDGE('',*,*,#421,.T.);
#275=ORIENTED_EDGE('',*,*,#312,.F.);
#276=ORIENTED_EDGE('',*,*,#422,.T.);
#277=ORIENTED_EDGE('',*,*,#363,.F.);
#278=ORIENTED_EDGE('',*,*,#360,.F.);
#279=ORIENTED_EDGE('',*,*,#376,.F.);
#280=ORIENTED_EDGE('',*,*,#293,.F.);
#281=ORIENTED_EDGE('',*,*,#345,.F.);
#282=ORIENTED_EDGE('',*,*,#333,.F.);
#283=ORIENTED_EDGE('',*,*,#334,.F.);
#284=ORIENTED_EDGE('',*,*,#325,.F.);
#285=ORIENTED_EDGE('',*,*,#371,.F.);
#286=EDGE_CURVE('',#423,#424,#501,.T.);
#287=EDGE_CURVE('',#425,#423,#502,.T.);
#288=EDGE_CURVE('',#426,#425,#503,.T.);
#289=EDGE_CURVE('',#426,#427,#504,.F.);
#290=EDGE_CURVE('',#428,#427,#505,.T.);
#291=EDGE_CURVE('',#428,#424,#506,.F.);
#292=EDGE_CURVE('',#429,#430,#507,.T.);
#293=EDGE_CURVE('',#429,#431,#508,.T.);
#294=EDGE_CURVE('',#431,#432,#509,.T.);
#295=EDGE_CURVE('',#432,#433,#510,.T.);
#296=EDGE_CURVE('',#434,#433,#511,.T.);
#297=EDGE_CURVE('',#430,#434,#512,.T.);
#298=EDGE_CURVE('',#435,#436,#513,.T.);
#299=EDGE_CURVE('',#436,#437,#514,.T.);
#300=EDGE_CURVE('',#437,#428,#515,.T.);
#301=EDGE_CURVE('',#427,#438,#516,.T.);
#302=EDGE_CURVE('',#438,#435,#517,.T.);
#303=EDGE_CURVE('',#439,#440,#518,.T.);
#304=EDGE_CURVE('',#440,#441,#519,.T.);
#305=EDGE_CURVE('',#441,#442,#520,.T.);
#306=EDGE_CURVE('',#442,#443,#521,.T.);
#307=EDGE_CURVE('',#443,#439,#522,.T.);
#308=EDGE_CURVE('',#444,#445,#523,.T.);
#309=EDGE_CURVE('',#445,#446,#524,.T.);
#310=EDGE_CURVE('',#446,#447,#525,.T.);
#311=EDGE_CURVE('',#447,#444,#526,.T.);
#312=EDGE_CURVE('',#448,#449,#527,.T.);
#313=EDGE_CURVE('',#449,#450,#528,.T.);
#314=EDGE_CURVE('',#450,#451,#529,.T.);
#315=EDGE_CURVE('',#451,#452,#530,.T.);
#316=EDGE_CURVE('',#452,#448,#531,.T.);
#317=EDGE_CURVE('',#453,#454,#532,.T.);
#318=EDGE_CURVE('',#454,#455,#533,.T.);
#319=EDGE_CURVE('',#455,#432,#534,.T.);
#320=EDGE_CURVE('',#431,#456,#535,.T.);
#321=EDGE_CURVE('',#456,#453,#536,.T.);
#322=EDGE_CURVE('',#457,#458,#537,.T.);
#323=EDGE_CURVE('',#458,#459,#538,.T.);
#324=EDGE_CURVE('',#460,#459,#539,.T.);
#325=EDGE_CURVE('',#460,#461,#540,.T.);
#326=EDGE_CURVE('',#462,#461,#541,.T.);
#327=EDGE_CURVE('',#462,#457,#542,.T.);
#328=EDGE_CURVE('',#463,#464,#543,.T.);
#329=EDGE_CURVE('',#463,#465,#544,.T.);
#330=EDGE_CURVE('',#465,#466,#545,.T.);
#331=EDGE_CURVE('',#466,#467,#546,.T.);
#332=EDGE_CURVE('',#467,#468,#547,.T.);
#333=EDGE_CURVE('',#468,#464,#548,.T.);
#334=EDGE_CURVE('',#461,#468,#549,.T.);
#335=EDGE_CURVE('',#467,#462,#550,.T.);
#336=EDGE_CURVE('',#469,#470,#551,.T.);
#337=EDGE_CURVE('',#470,#471,#552,.T.);
#338=EDGE_CURVE('',#471,#472,#553,.T.);
#339=EDGE_CURVE('',#472,#473,#554,.T.);
#340=EDGE_CURVE('',#473,#474,#555,.T.);
#341=EDGE_CURVE('',#474,#475,#556,.T.);
#342=EDGE_CURVE('',#475,#476,#557,.T.);
#343=EDGE_CURVE('',#476,#469,#558,.T.);
#344=EDGE_CURVE('',#477,#478,#559,.T.);
#345=EDGE_CURVE('',#477,#429,#560,.T.);
#346=EDGE_CURVE('',#478,#430,#561,.T.);
#347=EDGE_CURVE('',#424,#479,#562,.T.);
#348=EDGE_CURVE('',#480,#479,#563,.T.);
#349=EDGE_CURVE('',#480,#423,#564,.T.);
#350=EDGE_CURVE('',#481,#480,#565,.T.);
#351=EDGE_CURVE('',#481,#425,#566,.T.);
#352=EDGE_CURVE('',#482,#481,#567,.T.);
#353=EDGE_CURVE('',#482,#426,#568,.T.);
#354=EDGE_CURVE('',#433,#483,#569,.T.);
#355=EDGE_CURVE('',#484,#483,#570,.T.);
#356=EDGE_CURVE('',#484,#434,#571,.T.);
#357=EDGE_CURVE('',#478,#484,#572,.T.);
#358=EDGE_CURVE('',#459,#485,#573,.F.);
#359=EDGE_CURVE('',#485,#486,#574,.T.);
#360=EDGE_CURVE('',#486,#477,#575,.T.);
#361=EDGE_CURVE('',#483,#487,#576,.T.);
#362=EDGE_CURVE('',#487,#488,#577,.T.);
#363=EDGE_CURVE('',#488,#489,#578,.T.);
#364=EDGE_CURVE('',#489,#490,#579,.T.);
#365=EDGE_CURVE('',#490,#491,#580,.T.);
#366=EDGE_CURVE('',#491,#492,#581,.T.);
#367=EDGE_CURVE('',#492,#482,#582,.F.);
#368=EDGE_CURVE('',#479,#493,#583,.F.);
#369=EDGE_CURVE('',#493,#494,#584,.T.);
#370=EDGE_CURVE('',#494,#463,#585,.T.);
#371=EDGE_CURVE('',#464,#460,#586,.T.);
#372=EDGE_CURVE('',#455,#495,#587,.T.);
#373=EDGE_CURVE('',#495,#496,#588,.T.);
#374=EDGE_CURVE('',#496,#432,#589,.T.);
#375=EDGE_CURVE('',#485,#456,#590,.T.);
#376=EDGE_CURVE('',#431,#486,#591,.T.);
#377=EDGE_CURVE('',#437,#497,#592,.F.);
#378=EDGE_CURVE('',#497,#498,#593,.F.);
#379=EDGE_CURVE('',#498,#428,#594,.F.);
#380=EDGE_CURVE('',#499,#500,#595,.F.);
#381=EDGE_CURVE('',#500,#438,#596,.F.);
#382=EDGE_CURVE('',#427,#499,#597,.F.);
#383=EDGE_CURVE('',#493,#498,#598,.F.);
#384=EDGE_CURVE('',#494,#497,#599,.T.);
#385=EDGE_CURVE('',#465,#437,#600,.F.);
#386=EDGE_CURVE('',#466,#436,#601,.T.);
#387=EDGE_CURVE('',#467,#474,#602,.F.);
#388=EDGE_CURVE('',#475,#466,#603,.F.);
#389=EDGE_CURVE('',#475,#436,#604,.F.);
#390=EDGE_CURVE('',#462,#473,#605,.F.);
#391=EDGE_CURVE('',#456,#458,#606,.T.);
#392=EDGE_CURVE('',#476,#435,#607,.T.);
#393=EDGE_CURVE('',#457,#472,#608,.F.);
#394=EDGE_CURVE('',#453,#457,#609,.F.);
#395=EDGE_CURVE('',#499,#492,#610,.T.);
#396=EDGE_CURVE('',#435,#443,#611,.T.);
#397=EDGE_CURVE('',#439,#438,#612,.F.);
#398=EDGE_CURVE('',#476,#443,#613,.T.);
#399=EDGE_CURVE('',#453,#472,#614,.T.);
#400=EDGE_CURVE('',#500,#491,#615,.F.);
#401=EDGE_CURVE('',#440,#500,#616,.T.);
#402=EDGE_CURVE('',#469,#442,#617,.F.);
#403=EDGE_CURVE('',#454,#471,#618,.F.);
#404=EDGE_CURVE('',#440,#491,#619,.F.);
#405=EDGE_CURVE('',#469,#444,#620,.T.);
#406=EDGE_CURVE('',#444,#442,#621,.T.);
#407=EDGE_CURVE('',#454,#451,#622,.T.);
#408=EDGE_CURVE('',#451,#471,#623,.T.);
#409=EDGE_CURVE('',#441,#490,#624,.T.);
#410=EDGE_CURVE('',#445,#441,#625,.F.);
#411=EDGE_CURVE('',#470,#447,#626,.F.);
#412=EDGE_CURVE('',#452,#470,#627,.F.);
#413=EDGE_CURVE('',#455,#450,#628,.T.);
#414=EDGE_CURVE('',#487,#496,#629,.F.);
#415=EDGE_CURVE('',#445,#490,#630,.F.);
#416=EDGE_CURVE('',#452,#447,#631,.T.);
#417=EDGE_CURVE('',#495,#449,#632,.F.);
#418=EDGE_CURVE('',#488,#495,#633,.T.);
#419=EDGE_CURVE('',#446,#489,#634,.T.);
#420=EDGE_CURVE('',#448,#446,#635,.F.);
#421=EDGE_CURVE('',#488,#449,#636,.F.);
#422=EDGE_CURVE('',#448,#489,#637,.F.);
#423=VERTEX_POINT('',#1357);
#424=VERTEX_POINT('',#1358);
#425=VERTEX_POINT('',#1360);
#426=VERTEX_POINT('',#1362);
#427=VERTEX_POINT('',#1364);
#428=VERTEX_POINT('',#1366);
#429=VERTEX_POINT('',#1370);
#430=VERTEX_POINT('',#1371);
#431=VERTEX_POINT('',#1373);
#432=VERTEX_POINT('',#1375);
#433=VERTEX_POINT('',#1377);
#434=VERTEX_POINT('',#1379);
#435=VERTEX_POINT('',#1383);
#436=VERTEX_POINT('',#1384);
#437=VERTEX_POINT('',#1386);
#438=VERTEX_POINT('',#1389);
#439=VERTEX_POINT('',#1393);
#440=VERTEX_POINT('',#1394);
#441=VERTEX_POINT('',#1396);
#442=VERTEX_POINT('',#1398);
#443=VERTEX_POINT('',#1400);
#444=VERTEX_POINT('',#1404);
#445=VERTEX_POINT('',#1405);
#446=VERTEX_POINT('',#1407);
#447=VERTEX_POINT('',#1409);
#448=VERTEX_POINT('',#1413);
#449=VERTEX_POINT('',#1414);
#450=VERTEX_POINT('',#1416);
#451=VERTEX_POINT('',#1418);
#452=VERTEX_POINT('',#1420);
#453=VERTEX_POINT('',#1424);
#454=VERTEX_POINT('',#1425);
#455=VERTEX_POINT('',#1427);
#456=VERTEX_POINT('',#1430);
#457=VERTEX_POINT('',#1434);
#458=VERTEX_POINT('',#1435);
#459=VERTEX_POINT('',#1437);
#460=VERTEX_POINT('',#1439);
#461=VERTEX_POINT('',#1441);
#462=VERTEX_POINT('',#1443);
#463=VERTEX_POINT('',#1447);
#464=VERTEX_POINT('',#1448);
#465=VERTEX_POINT('',#1450);
#466=VERTEX_POINT('',#1452);
#467=VERTEX_POINT('',#1454);
#468=VERTEX_POINT('',#1456);
#469=VERTEX_POINT('',#1463);
#470=VERTEX_POINT('',#1464);
#471=VERTEX_POINT('',#1466);
#472=VERTEX_POINT('',#1468);
#473=VERTEX_POINT('',#1470);
#474=VERTEX_POINT('',#1472);
#475=VERTEX_POINT('',#1474);
#476=VERTEX_POINT('',#1476);
#477=VERTEX_POINT('',#1480);
#478=VERTEX_POINT('',#1481);
#479=VERTEX_POINT('',#1486);
#480=VERTEX_POINT('',#1488);
#481=VERTEX_POINT('',#1492);
#482=VERTEX_POINT('',#1496);
#483=VERTEX_POINT('',#1500);
#484=VERTEX_POINT('',#1502);
#485=VERTEX_POINT('',#1508);
#486=VERTEX_POINT('',#1510);
#487=VERTEX_POINT('',#1513);
#488=VERTEX_POINT('',#1515);
#489=VERTEX_POINT('',#1517);
#490=VERTEX_POINT('',#1519);
#491=VERTEX_POINT('',#1521);
#492=VERTEX_POINT('',#1523);
#493=VERTEX_POINT('',#1526);
#494=VERTEX_POINT('',#1528);
#495=VERTEX_POINT('',#1533);
#496=VERTEX_POINT('',#1535);
#497=VERTEX_POINT('',#1542);
#498=VERTEX_POINT('',#1544);
#499=VERTEX_POINT('',#1548);
#500=VERTEX_POINT('',#1549);
#501=LINE('',#1356,#638);
#502=LINE('',#1359,#639);
#503=LINE('',#1361,#640);
#504=LINE('',#1363,#641);
#505=LINE('',#1365,#642);
#506=LINE('',#1367,#643);
#507=LINE('',#1369,#644);
#508=LINE('',#1372,#645);
#509=LINE('',#1374,#646);
#510=LINE('',#1376,#647);
#511=LINE('',#1378,#648);
#512=LINE('',#1380,#649);
#513=LINE('',#1382,#650);
#514=LINE('',#1385,#651);
#515=LINE('',#1387,#652);
#516=LINE('',#1388,#653);
#517=LINE('',#1390,#654);
#518=LINE('',#1392,#655);
#519=LINE('',#1395,#656);
#520=LINE('',#1397,#657);
#521=LINE('',#1399,#658);
#522=LINE('',#1401,#659);
#523=LINE('',#1403,#660);
#524=LINE('',#1406,#661);
#525=LINE('',#1408,#662);
#526=LINE('',#1410,#663);
#527=LINE('',#1412,#664);
#528=LINE('',#1415,#665);
#529=LINE('',#1417,#666);
#530=LINE('',#1419,#667);
#531=LINE('',#1421,#668);
#532=LINE('',#1423,#669);
#533=LINE('',#1426,#670);
#534=LINE('',#1428,#671);
#535=LINE('',#1429,#672);
#536=LINE('',#1431,#673);
#537=LINE('',#1433,#674);
#538=LINE('',#1436,#675);
#539=LINE('',#1438,#676);
#540=LINE('',#1440,#677);
#541=LINE('',#1442,#678);
#542=LINE('',#1444,#679);
#543=LINE('',#1446,#680);
#544=LINE('',#1449,#681);
#545=LINE('',#1451,#682);
#546=LINE('',#1453,#683);
#547=LINE('',#1455,#684);
#548=LINE('',#1457,#685);
#549=LINE('',#1459,#686);
#550=LINE('',#1460,#687);
#551=LINE('',#1462,#688);
#552=LINE('',#1465,#689);
#553=LINE('',#1467,#690);
#554=LINE('',#1469,#691);
#555=LINE('',#1471,#692);
#556=LINE('',#1473,#693);
#557=LINE('',#1475,#694);
#558=LINE('',#1477,#695);
#559=LINE('',#1479,#696);
#560=LINE('',#1482,#697);
#561=LINE('',#1483,#698);
#562=LINE('',#1485,#699);
#563=LINE('',#1487,#700);
#564=LINE('',#1489,#701);
#565=LINE('',#1491,#702);
#566=LINE('',#1493,#703);
#567=LINE('',#1495,#704);
#568=LINE('',#1497,#705);
#569=LINE('',#1499,#706);
#570=LINE('',#1501,#707);
#571=LINE('',#1503,#708);
#572=LINE('',#1505,#709);
#573=LINE('',#1507,#710);
#574=LINE('',#1509,#711);
#575=LINE('',#1511,#712);
#576=LINE('',#1512,#713);
#577=LINE('',#1514,#714);
#578=LINE('',#1516,#715);
#579=LINE('',#1518,#716);
#580=LINE('',#1520,#717);
#581=LINE('',#1522,#718);
#582=LINE('',#1524,#719);
#583=LINE('',#1525,#720);
#584=LINE('',#1527,#721);
#585=LINE('',#1529,#722);
#586=LINE('',#1530,#723);
#587=LINE('',#1532,#724);
#588=LINE('',#1534,#725);
#589=LINE('',#1536,#726);
#590=LINE('',#1538,#727);
#591=LINE('',#1539,#728);
#592=LINE('',#1541,#729);
#593=LINE('',#1543,#730);
#594=LINE('',#1545,#731);
#595=LINE('',#1547,#732);
#596=LINE('',#1550,#733);
#597=LINE('',#1551,#734);
#598=LINE('',#1553,#735);
#599=LINE('',#1555,#736);
#600=LINE('',#1557,#737);
#601=LINE('',#1559,#738);
#602=LINE('',#1561,#739);
#603=LINE('',#1562,#740);
#604=LINE('',#1564,#741);
#605=LINE('',#1566,#742);
#606=LINE('',#1568,#743);
#607=LINE('',#1570,#744);
#608=LINE('',#1572,#745);
#609=LINE('',#1574,#746);
#610=LINE('',#1576,#747);
#611=LINE('',#1578,#748);
#612=LINE('',#1579,#749);
#613=LINE('',#1581,#750);
#614=LINE('',#1583,#751);
#615=LINE('',#1585,#752);
#616=LINE('',#1587,#753);
#617=LINE('',#1589,#754);
#618=LINE('',#1591,#755);
#619=LINE('',#1593,#756);
#620=LINE('',#1595,#757);
#621=LINE('',#1596,#758);
#622=LINE('',#1598,#759);
#623=LINE('',#1599,#760);
#624=LINE('',#1601,#761);
#625=LINE('',#1603,#762);
#626=LINE('',#1605,#763);
#627=LINE('',#1607,#764);
#628=LINE('',#1609,#765);
#629=LINE('',#1611,#766);
#630=LINE('',#1613,#767);
#631=LINE('',#1615,#768);
#632=LINE('',#1617,#769);
#633=LINE('',#1619,#770);
#634=LINE('',#1621,#771);
#635=LINE('',#1623,#772);
#636=LINE('',#1625,#773);
#637=LINE('',#1627,#774);
#638=VECTOR('',#1097,1.);
#639=VECTOR('',#1098,1.);
#640=VECTOR('',#1099,1.);
#641=VECTOR('',#1100,1.);
#642=VECTOR('',#1101,1.);
#643=VECTOR('',#1102,1.);
#644=VECTOR('',#1105,1.);
#645=VECTOR('',#1106,1.);
#646=VECTOR('',#1107,1.);
#647=VECTOR('',#1108,1.);
#648=VECTOR('',#1109,1.);
#649=VECTOR('',#1110,1.);
#650=VECTOR('',#1113,1.);
#651=VECTOR('',#1114,1.);
#652=VECTOR('',#1115,1.);
#653=VECTOR('',#1116,1.);
#654=VECTOR('',#1117,1.);
#655=VECTOR('',#1120,1.);
#656=VECTOR('',#1121,1.);
#657=VECTOR('',#1122,1.);
#658=VECTOR('',#1123,1.);
#659=VECTOR('',#1124,1.);
#660=VECTOR('',#1127,1.);
#661=VECTOR('',#1128,1.);
#662=VECTOR('',#1129,1.);
#663=VECTOR('',#1130,1.);
#664=VECTOR('',#1133,1.);
#665=VECTOR('',#1134,1.);
#666=VECTOR('',#1135,1.);
#667=VECTOR('',#1136,1.);
#668=VECTOR('',#1137,1.);
#669=VECTOR('',#1140,1.);
#670=VECTOR('',#1141,1.);
#671=VECTOR('',#1142,1.);
#672=VECTOR('',#1143,1.);
#673=VECTOR('',#1144,1.);
#674=VECTOR('',#1147,1.);
#675=VECTOR('',#1148,1.);
#676=VECTOR('',#1149,1.);
#677=VECTOR('',#1150,1.);
#678=VECTOR('',#1151,1.);
#679=VECTOR('',#1152,1.);
#680=VECTOR('',#1155,1.);
#681=VECTOR('',#1156,1.);
#682=VECTOR('',#1157,1.);
#683=VECTOR('',#1158,1.);
#684=VECTOR('',#1159,1.);
#685=VECTOR('',#1160,1.);
#686=VECTOR('',#1163,1.);
#687=VECTOR('',#1164,1.);
#688=VECTOR('',#1167,1.);
#689=VECTOR('',#1168,1.);
#690=VECTOR('',#1169,1.);
#691=VECTOR('',#1170,1.);
#692=VECTOR('',#1171,1.);
#693=VECTOR('',#1172,1.);
#694=VECTOR('',#1173,1.);
#695=VECTOR('',#1174,1.);
#696=VECTOR('',#1177,1.);
#697=VECTOR('',#1178,1.);
#698=VECTOR('',#1179,1.);
#699=VECTOR('',#1182,1.);
#700=VECTOR('',#1183,1.);
#701=VECTOR('',#1184,1.);
#702=VECTOR('',#1187,1.);
#703=VECTOR('',#1188,1.);
#704=VECTOR('',#1191,1.);
#705=VECTOR('',#1192,1.);
#706=VECTOR('',#1195,1.);
#707=VECTOR('',#1196,1.);
#708=VECTOR('',#1197,1.);
#709=VECTOR('',#1200,1.);
#710=VECTOR('',#1203,1.);
#711=VECTOR('',#1204,1.);
#712=VECTOR('',#1205,1.);
#713=VECTOR('',#1206,1.);
#714=VECTOR('',#1207,1.);
#715=VECTOR('',#1208,1.);
#716=VECTOR('',#1209,1.);
#717=VECTOR('',#1210,1.);
#718=VECTOR('',#1211,1.);
#719=VECTOR('',#1212,1.);
#720=VECTOR('',#1213,1.);
#721=VECTOR('',#1214,1.);
#722=VECTOR('',#1215,1.);
#723=VECTOR('',#1216,1.);
#724=VECTOR('',#1219,1.);
#725=VECTOR('',#1220,1.);
#726=VECTOR('',#1221,1.);
#727=VECTOR('',#1224,1.);
#728=VECTOR('',#1225,1.);
#729=VECTOR('',#1228,1.);
#730=VECTOR('',#1229,1.);
#731=VECTOR('',#1230,1.);
#732=VECTOR('',#1233,1.);
#733=VECTOR('',#1234,1.);
#734=VECTOR('',#1235,1.);
#735=VECTOR('',#1238,1.);
#736=VECTOR('',#1241,1.);
#737=VECTOR('',#1244,1.);
#738=VECTOR('',#1247,1.);
#739=VECTOR('',#1250,1.);
#740=VECTOR('',#1251,1.);
#741=VECTOR('',#1254,1.);
#742=VECTOR('',#1257,1.);
#743=VECTOR('',#1260,1.);
#744=VECTOR('',#1263,1.);
#745=VECTOR('',#1266,1.);
#746=VECTOR('',#1269,1.);
#747=VECTOR('',#1272,1.);
#748=VECTOR('',#1275,1.);
#749=VECTOR('',#1276,1.);
#750=VECTOR('',#1279,1.);
#751=VECTOR('',#1282,1.);
#752=VECTOR('',#1285,1.);
#753=VECTOR('',#1288,1.);
#754=VECTOR('',#1291,1.);
#755=VECTOR('',#1294,1.);
#756=VECTOR('',#1297,1.);
#757=VECTOR('',#1300,1.);
#758=VECTOR('',#1301,1.);
#759=VECTOR('',#1304,1.);
#760=VECTOR('',#1305,1.);
#761=VECTOR('',#1308,1.);
#762=VECTOR('',#1311,1.);
#763=VECTOR('',#1314,1.);
#764=VECTOR('',#1317,1.);
#765=VECTOR('',#1320,1.);
#766=VECTOR('',#1323,1.);
#767=VECTOR('',#1326,1.);
#768=VECTOR('',#1329,1.);
#769=VECTOR('',#1332,1.);
#770=VECTOR('',#1335,1.);
#771=VECTOR('',#1338,1.);
#772=VECTOR('',#1341,1.);
#773=VECTOR('',#1344,1.);
#774=VECTOR('',#1347,1.);
#775=EDGE_LOOP('',(#12,#13,#14,#15,#16,#17));
#776=EDGE_LOOP('',(#18,#19,#20,#21,#22,#23));
#777=EDGE_LOOP('',(#24,#25,#26,#27,#28,#29));
#778=EDGE_LOOP('',(#30,#31,#32,#33,#34));
#779=EDGE_LOOP('',(#35,#36,#37,#38));
#780=EDGE_LOOP('',(#39,#40,#41,#42,#43));
#781=EDGE_LOOP('',(#44,#45,#46,#47,#48,#49));
#782=EDGE_LOOP('',(#50,#51,#52,#53,#54,#55));
#783=EDGE_LOOP('',(#56,#57,#58,#59,#60,#61));
#784=EDGE_LOOP('',(#62,#63,#64,#65));
#785=EDGE_LOOP('',(#66,#67,#68,#69,#70,#71,#72,#73));
#786=EDGE_LOOP('',(#74,#75,#76,#77));
#787=EDGE_LOOP('',(#78,#79,#80,#81));
#788=EDGE_LOOP('',(#82,#83,#84,#85));
#789=EDGE_LOOP('',(#86,#87,#88,#89));
#790=EDGE_LOOP('',(#90,#91,#92,#93));
#791=EDGE_LOOP('',(#94,#95,#96,#97));
#792=EDGE_LOOP('',(#98,#99,#100,#101,#102,#103,#104,#105,#106,#107,#108,
#109,#110,#111,#112,#113,#114,#115,#116,#117,#118,#119));
#793=EDGE_LOOP('',(#120,#121,#122,#123));
#794=EDGE_LOOP('',(#124,#125,#126,#127));
#795=EDGE_LOOP('',(#128,#129,#130,#131));
#796=EDGE_LOOP('',(#132,#133,#134,#135));
#797=EDGE_LOOP('',(#136,#137,#138,#139,#140));
#798=EDGE_LOOP('',(#141,#142,#143,#144));
#799=EDGE_LOOP('',(#145,#146,#147,#148,#149));
#800=EDGE_LOOP('',(#150,#151,#152,#153));
#801=EDGE_LOOP('',(#154,#155,#156,#157));
#802=EDGE_LOOP('',(#158,#159,#160));
#803=EDGE_LOOP('',(#161,#162,#163,#164));
#804=EDGE_LOOP('',(#165,#166,#167,#168));
#805=EDGE_LOOP('',(#169,#170,#171,#172));
#806=EDGE_LOOP('',(#173,#174,#175,#176));
#807=EDGE_LOOP('',(#177,#178,#179,#180));
#808=EDGE_LOOP('',(#181,#182,#183,#184,#185));
#809=EDGE_LOOP('',(#186,#187,#188,#189));
#810=EDGE_LOOP('',(#190,#191,#192));
#811=EDGE_LOOP('',(#193,#194,#195));
#812=EDGE_LOOP('',(#196,#197,#198,#199));
#813=EDGE_LOOP('',(#200,#201,#202,#203));
#814=EDGE_LOOP('',(#204,#205,#206,#207));
#815=EDGE_LOOP('',(#208,#209,#210,#211));
#816=EDGE_LOOP('',(#212,#213,#214));
#817=EDGE_LOOP('',(#215,#216,#217));
#818=EDGE_LOOP('',(#218,#219,#220));
#819=EDGE_LOOP('',(#221,#222,#223,#224));
#820=EDGE_LOOP('',(#225,#226,#227,#228));
#821=EDGE_LOOP('',(#229,#230,#231,#232));
#822=EDGE_LOOP('',(#233,#234,#235,#236));
#823=EDGE_LOOP('',(#237,#238,#239,#240));
#824=EDGE_LOOP('',(#241,#242,#243,#244,#245));
#825=EDGE_LOOP('',(#246,#247,#248));
#826=EDGE_LOOP('',(#249,#250,#251));
#827=EDGE_LOOP('',(#252,#253,#254,#255));
#828=EDGE_LOOP('',(#256,#257,#258,#259));
#829=EDGE_LOOP('',(#260,#261,#262,#263));
#830=EDGE_LOOP('',(#264,#265,#266,#267));
#831=EDGE_LOOP('',(#268,#269,#270));
#832=EDGE_LOOP('',(#271,#272,#273));
#833=EDGE_LOOP('',(#274,#275,#276,#277));
#834=EDGE_LOOP('',(#278,#279,#280,#281));
#835=EDGE_LOOP('',(#282,#283,#284,#285));
#836=FACE_BOUND('',#775,.T.);
#837=FACE_BOUND('',#776,.T.);
#838=FACE_BOUND('',#777,.T.);
#839=FACE_BOUND('',#778,.T.);
#840=FACE_BOUND('',#779,.T.);
#841=FACE_BOUND('',#780,.T.);
#842=FACE_BOUND('',#781,.T.);
#843=FACE_BOUND('',#782,.T.);
#844=FACE_BOUND('',#783,.T.);
#845=FACE_BOUND('',#784,.T.);
#846=FACE_BOUND('',#785,.T.);
#847=FACE_BOUND('',#786,.T.);
#848=FACE_BOUND('',#787,.T.);
#849=FACE_BOUND('',#788,.T.);
#850=FACE_BOUND('',#789,.T.);
#851=FACE_BOUND('',#790,.T.);
#852=FACE_BOUND('',#791,.T.);
#853=FACE_BOUND('',#792,.T.);
#854=FACE_BOUND('',#793,.T.);
#855=FACE_BOUND('',#794,.T.);
#856=FACE_BOUND('',#795,.T.);
#857=FACE_BOUND('',#796,.T.);
#858=FACE_BOUND('',#797,.T.);
#859=FACE_BOUND('',#798,.T.);
#860=FACE_BOUND('',#799,.T.);
#861=FACE_BOUND('',#800,.T.);
#862=FACE_BOUND('',#801,.T.);
#863=FACE_BOUND('',#802,.T.);
#864=FACE_BOUND('',#803,.T.);
#865=FACE_BOUND('',#804,.T.);
#866=FACE_BOUND('',#805,.T.);
#867=FACE_BOUND('',#806,.T.);
#868=FACE_BOUND('',#807,.T.);
#869=FACE_BOUND('',#808,.T.);
#870=FACE_BOUND('',#809,.T.);
#871=FACE_BOUND('',#810,.T.);
#872=FACE_BOUND('',#811,.T.);
#873=FACE_BOUND('',#812,.T.);
#874=FACE_BOUND('',#813,.T.);
#875=FACE_BOUND('',#814,.T.);
#876=FACE_BOUND('',#815,.T.);
#877=FACE_BOUND('',#816,.T.);
#878=FACE_BOUND('',#817,.T.);
#879=FACE_BOUND('',#818,.T.);
#880=FACE_BOUND('',#819,.T.);
#881=FACE_BOUND('',#820,.T.);
#882=FACE_BOUND('',#821,.T.);
#883=FACE_BOUND('',#822,.T.);
#884=FACE_BOUND('',#823,.T.);
#885=FACE_BOUND('',#824,.T.);
#886=FACE_BOUND('',#825,.T.);
#887=FACE_BOUND('',#826,.T.);
#888=FACE_BOUND('',#827,.T.);
#889=FACE_BOUND('',#828,.T.);
#890=FACE_BOUND('',#829,.T.);
#891=FACE_BOUND('',#830,.T.);
#892=FACE_BOUND('',#831,.T.);
#893=FACE_BOUND('',#832,.T.);
#894=FACE_BOUND('',#833,.T.);
#895=FACE_BOUND('',#834,.T.);
#896=FACE_BOUND('',#835,.T.);
#897=PLANE('',#1032);
#898=PLANE('',#1033);
#899=PLANE('',#1034);
#900=PLANE('',#1035);
#901=PLANE('',#1036);
#902=PLANE('',#1037);
#903=PLANE('',#1038);
#904=PLANE('',#1039);
#905=PLANE('',#1040);
#906=PLANE('',#1041);
#907=PLANE('',#1042);
#908=PLANE('',#1043);
#909=PLANE('',#1044);
#910=PLANE('',#1045);
#911=PLANE('',#1046);
#912=PLANE('',#1047);
#913=PLANE('',#1048);
#914=PLANE('',#1049);
#915=PLANE('',#1050);
#916=PLANE('',#1051);
#917=PLANE('',#1052);
#918=PLANE('',#1053);
#919=PLANE('',#1054);
#920=PLANE('',#1055);
#921=PLANE('',#1056);
#922=PLANE('',#1057);
#923=PLANE('',#1058);
#924=PLANE('',#1059);
#925=PLANE('',#1060);
#926=PLANE('',#1061);
#927=PLANE('',#1062);
#928=PLANE('',#1063);
#929=PLANE('',#1064);
#930=PLANE('',#1065);
#931=PLANE('',#1066);
#932=PLANE('',#1067);
#933=PLANE('',#1068);
#934=PLANE('',#1069);
#935=PLANE('',#1070);
#936=PLANE('',#1071);
#937=PLANE('',#1072);
#938=PLANE('',#1073);
#939=PLANE('',#1074);
#940=PLANE('',#1075);
#941=PLANE('',#1076);
#942=PLANE('',#1077);
#943=PLANE('',#1078);
#944=PLANE('',#1079);
#945=PLANE('',#1080);
#946=PLANE('',#1081);
#947=PLANE('',#1082);
#948=PLANE('',#1083);
#949=PLANE('',#1084);
#950=PLANE('',#1085);
#951=PLANE('',#1086);
#952=PLANE('',#1087);
#953=PLANE('',#1088);
#954=PLANE('',#1089);
#955=PLANE('',#1090);
#956=PLANE('',#1091);
#957=PLANE('',#1092);
#958=ADVANCED_FACE('',(#836),#897,.F.);
#959=ADVANCED_FACE('',(#837),#898,.F.);
#960=ADVANCED_FACE('',(#838),#899,.F.);
#961=ADVANCED_FACE('',(#839),#900,.T.);
#962=ADVANCED_FACE('',(#840),#901,.T.);
#963=ADVANCED_FACE('',(#841),#902,.T.);
#964=ADVANCED_FACE('',(#842),#903,.T.);
#965=ADVANCED_FACE('',(#843),#904,.T.);
#966=ADVANCED_FACE('',(#844),#905,.T.);
#967=ADVANCED_FACE('',(#845),#906,.T.);
#968=ADVANCED_FACE('',(#846),#907,.T.);
#969=ADVANCED_FACE('',(#847),#908,.F.);
#970=ADVANCED_FACE('',(#848),#909,.F.);
#971=ADVANCED_FACE('',(#849),#910,.F.);
#972=ADVANCED_FACE('',(#850),#911,.F.);
#973=ADVANCED_FACE('',(#851),#912,.F.);
#974=ADVANCED_FACE('',(#852),#913,.F.);
#975=ADVANCED_FACE('',(#853),#914,.F.);
#976=ADVANCED_FACE('',(#854),#915,.T.);
#977=ADVANCED_FACE('',(#855),#916,.T.);
#978=ADVANCED_FACE('',(#856),#917,.F.);
#979=ADVANCED_FACE('',(#857),#918,.F.);
#980=ADVANCED_FACE('',(#858),#919,.F.);
#981=ADVANCED_FACE('',(#859),#920,.F.);
#982=ADVANCED_FACE('',(#860),#921,.T.);
#983=ADVANCED_FACE('',(#861),#922,.T.);
#984=ADVANCED_FACE('',(#862),#923,.F.);
#985=ADVANCED_FACE('',(#863),#924,.T.);
#986=ADVANCED_FACE('',(#864),#925,.F.);
#987=ADVANCED_FACE('',(#865),#926,.F.);
#988=ADVANCED_FACE('',(#866),#927,.T.);
#989=ADVANCED_FACE('',(#867),#928,.F.);
#990=ADVANCED_FACE('',(#868),#929,.F.);
#991=ADVANCED_FACE('',(#869),#930,.F.);
#992=ADVANCED_FACE('',(#870),#931,.T.);
#993=ADVANCED_FACE('',(#871),#932,.T.);
#994=ADVANCED_FACE('',(#872),#933,.T.);
#995=ADVANCED_FACE('',(#873),#934,.F.);
#996=ADVANCED_FACE('',(#874),#935,.T.);
#997=ADVANCED_FACE('',(#875),#936,.F.);
#998=ADVANCED_FACE('',(#876),#937,.F.);
#999=ADVANCED_FACE('',(#877),#938,.T.);
#1000=ADVANCED_FACE('',(#878),#939,.T.);
#1001=ADVANCED_FACE('',(#879),#940,.T.);
#1002=ADVANCED_FACE('',(#880),#941,.T.);
#1003=ADVANCED_FACE('',(#881),#942,.F.);
#1004=ADVANCED_FACE('',(#882),#943,.F.);
#1005=ADVANCED_FACE('',(#883),#944,.F.);
#1006=ADVANCED_FACE('',(#884),#945,.F.);
#1007=ADVANCED_FACE('',(#885),#946,.T.);
#1008=ADVANCED_FACE('',(#886),#947,.T.);
#1009=ADVANCED_FACE('',(#887),#948,.T.);
#1010=ADVANCED_FACE('',(#888),#949,.F.);
#1011=ADVANCED_FACE('',(#889),#950,.T.);
#1012=ADVANCED_FACE('',(#890),#951,.T.);
#1013=ADVANCED_FACE('',(#891),#952,.F.);
#1014=ADVANCED_FACE('',(#892),#953,.T.);
#1015=ADVANCED_FACE('',(#893),#954,.T.);
#1016=ADVANCED_FACE('',(#894),#955,.T.);
#1017=ADVANCED_FACE('',(#895),#956,.T.);
#1018=ADVANCED_FACE('',(#896),#957,.T.);
#1019=CLOSED_SHELL('',(#958,#959,#960,#961,#962,#963,#964,#965,#966,#967,
#968,#969,#970,#971,#972,#973,#974,#975,#976,#977,#978,#979,#980,#981,#982,
#983,#984,#985,#986,#987,#988,#989,#990,#991,#992,#993,#994,#995,#996,#997,
#998,#999,#1000,#1001,#1002,#1003,#1004,#1005,#1006,#1007,#1008,#1009,#1010,
#1011,#1012,#1013,#1014,#1015,#1016,#1017,#1018));
#1020=STYLED_ITEM('',(#1021),#1028);
#1021=PRESENTATION_STYLE_ASSIGNMENT((#1022));
#1022=SURFACE_STYLE_USAGE(.BOTH.,#1023);
#1023=SURFACE_SIDE_STYLE('',(#1024));
#1024=SURFACE_STYLE_FILL_AREA(#1025);
#1025=FILL_AREA_STYLE('',(#1026));
#1026=FILL_AREA_STYLE_COLOUR('',#1027);
#1027=COLOUR_RGB('',0.768627450980392,0.886274509803922,0.952941176470588);
#1028=MANIFOLD_SOLID_BREP('Foot',#1019);
#1029=SHAPE_DEFINITION_REPRESENTATION(#1637,#1030);
#1030=SHAPE_REPRESENTATION('Foot',(#1031),#1632);
#1031=AXIS2_PLACEMENT_3D('',#1354,#1093,#1094);
#1032=AXIS2_PLACEMENT_3D('',#1355,#1095,#1096);
#1033=AXIS2_PLACEMENT_3D('',#1368,#1103,#1104);
#1034=AXIS2_PLACEMENT_3D('',#1381,#1111,#1112);
#1035=AXIS2_PLACEMENT_3D('',#1391,#1118,#1119);
#1036=AXIS2_PLACEMENT_3D('',#1402,#1125,#1126);
#1037=AXIS2_PLACEMENT_3D('',#1411,#1131,#1132);
#1038=AXIS2_PLACEMENT_3D('',#1422,#1138,#1139);
#1039=AXIS2_PLACEMENT_3D('',#1432,#1145,#1146);
#1040=AXIS2_PLACEMENT_3D('',#1445,#1153,#1154);
#1041=AXIS2_PLACEMENT_3D('',#1458,#1161,#1162);
#1042=AXIS2_PLACEMENT_3D('',#1461,#1165,#1166);
#1043=AXIS2_PLACEMENT_3D('',#1478,#1175,#1176);
#1044=AXIS2_PLACEMENT_3D('',#1484,#1180,#1181);
#1045=AXIS2_PLACEMENT_3D('',#1490,#1185,#1186);
#1046=AXIS2_PLACEMENT_3D('',#1494,#1189,#1190);
#1047=AXIS2_PLACEMENT_3D('',#1498,#1193,#1194);
#1048=AXIS2_PLACEMENT_3D('',#1504,#1198,#1199);
#1049=AXIS2_PLACEMENT_3D('',#1506,#1201,#1202);
#1050=AXIS2_PLACEMENT_3D('',#1531,#1217,#1218);
#1051=AXIS2_PLACEMENT_3D('',#1537,#1222,#1223);
#1052=AXIS2_PLACEMENT_3D('',#1540,#1226,#1227);
#1053=AXIS2_PLACEMENT_3D('',#1546,#1231,#1232);
#1054=AXIS2_PLACEMENT_3D('',#1552,#1236,#1237);
#1055=AXIS2_PLACEMENT_3D('',#1554,#1239,#1240);
#1056=AXIS2_PLACEMENT_3D('',#1556,#1242,#1243);
#1057=AXIS2_PLACEMENT_3D('',#1558,#1245,#1246);
#1058=AXIS2_PLACEMENT_3D('',#1560,#1248,#1249);
#1059=AXIS2_PLACEMENT_3D('',#1563,#1252,#1253);
#1060=AXIS2_PLACEMENT_3D('',#1565,#1255,#1256);
#1061=AXIS2_PLACEMENT_3D('',#1567,#1258,#1259);
#1062=AXIS2_PLACEMENT_3D('',#1569,#1261,#1262);
#1063=AXIS2_PLACEMENT_3D('',#1571,#1264,#1265);
#1064=AXIS2_PLACEMENT_3D('',#1573,#1267,#1268);
#1065=AXIS2_PLACEMENT_3D('',#1575,#1270,#1271);
#1066=AXIS2_PLACEMENT_3D('',#1577,#1273,#1274);
#1067=AXIS2_PLACEMENT_3D('',#1580,#1277,#1278);
#1068=AXIS2_PLACEMENT_3D('',#1582,#1280,#1281);
#1069=AXIS2_PLACEMENT_3D('',#1584,#1283,#1284);
#1070=AXIS2_PLACEMENT_3D('',#1586,#1286,#1287);
#1071=AXIS2_PLACEMENT_3D('',#1588,#1289,#1290);
#1072=AXIS2_PLACEMENT_3D('',#1590,#1292,#1293);
#1073=AXIS2_PLACEMENT_3D('',#1592,#1295,#1296);
#1074=AXIS2_PLACEMENT_3D('',#1594,#1298,#1299);
#1075=AXIS2_PLACEMENT_3D('',#1597,#1302,#1303);
#1076=AXIS2_PLACEMENT_3D('',#1600,#1306,#1307);
#1077=AXIS2_PLACEMENT_3D('',#1602,#1309,#1310);
#1078=AXIS2_PLACEMENT_3D('',#1604,#1312,#1313);
#1079=AXIS2_PLACEMENT_3D('',#1606,#1315,#1316);
#1080=AXIS2_PLACEMENT_3D('',#1608,#1318,#1319);
#1081=AXIS2_PLACEMENT_3D('',#1610,#1321,#1322);
#1082=AXIS2_PLACEMENT_3D('',#1612,#1324,#1325);
#1083=AXIS2_PLACEMENT_3D('',#1614,#1327,#1328);
#1084=AXIS2_PLACEMENT_3D('',#1616,#1330,#1331);
#1085=AXIS2_PLACEMENT_3D('',#1618,#1333,#1334);
#1086=AXIS2_PLACEMENT_3D('',#1620,#1336,#1337);
#1087=AXIS2_PLACEMENT_3D('',#1622,#1339,#1340);
#1088=AXIS2_PLACEMENT_3D('',#1624,#1342,#1343);
#1089=AXIS2_PLACEMENT_3D('',#1626,#1345,#1346);
#1090=AXIS2_PLACEMENT_3D('',#1628,#1348,#1349);
#1091=AXIS2_PLACEMENT_3D('',#1629,#1350,#1351);
#1092=AXIS2_PLACEMENT_3D('',#1630,#1352,#1353);
#1093=DIRECTION('',(0.,0.,1.));
#1094=DIRECTION('',(1.,0.,0.));
#1095=DIRECTION('',(1.62023172656236E-15,4.31252256127834E-15,-1.));
#1096=DIRECTION('',(1.,-6.98728587529912E-30,1.62023172656236E-15));
#1097=DIRECTION('',(1.38777878078144E-15,1.,4.31252256127835E-15));
#1098=DIRECTION('',(-1.,5.10212787052002E-16,-1.62023172656236E-15));
#1099=DIRECTION('',(2.41716245082751E-31,-1.,-4.31252256127834E-15));
#1100=DIRECTION('',(-0.577350269189622,-0.816496580927729,-4.46417909617709E-15));
#1101=DIRECTION('',(1.,-2.04085114820802E-15,1.62023172656235E-15));
#1102=DIRECTION('',(-0.577350269189629,0.816496580927724,2.58027658936066E-15));
#1103=DIRECTION('',(1.62023172656236E-15,4.31252256127834E-15,-1.));
#1104=DIRECTION('',(1.,-6.98728587529912E-30,1.62023172656236E-15));
#1105=DIRECTION('',(-1.38777878078144E-15,-1.,-4.31252256127835E-15));
#1106=DIRECTION('',(0.577350269189625,0.816496580927726,4.4321297180707E-15));
#1107=DIRECTION('',(-1.,1.44560289664733E-16,-1.62023172656236E-15));
#1108=DIRECTION('',(0.577350269189624,-0.816496580927728,-2.58027658936068E-15));
#1109=DIRECTION('',(1.38777878078145E-15,1.,4.31252256127835E-15));
#1110=DIRECTION('',(-1.,5.10212787052003E-16,-1.62023172656236E-15));
#1111=DIRECTION('',(-2.040851148208E-15,-1.,-4.31252256127835E-15));
#1112=DIRECTION('',(0.,4.31252256127835E-15,-1.));
#1113=DIRECTION('',(-1.,2.040851148208E-15,0.));
#1114=DIRECTION('',(-1.62023172656236E-15,-4.31252256127834E-15,1.));
#1115=DIRECTION('',(1.,-2.04085114820802E-15,1.62023172656235E-15));
#1116=DIRECTION('',(1.,-2.04085114820802E-15,1.62023172656235E-15));
#1117=DIRECTION('',(1.62023172656236E-15,4.31252256127834E-15,-1.));
#1118=DIRECTION('',(1.,-6.91853295406807E-30,1.62023172656236E-15));
#1119=DIRECTION('',(1.62023172656236E-15,0.,-1.));
#1120=DIRECTION('',(-1.14567684094583E-15,-0.70710678118655,0.707106781186545));
#1121=DIRECTION('',(6.87529212310495E-32,-1.,-4.31252256127834E-15));
#1122=DIRECTION('',(1.62023172656236E-15,4.31252256127834E-15,-1.));
#1123=DIRECTION('',(6.91853295406807E-30,1.,0.));
#1124=DIRECTION('',(-1.62023172656236E-15,-4.31252256127834E-15,1.));
#1125=DIRECTION('',(7.00565068817447E-30,-1.,-4.31252256127834E-15));
#1126=DIRECTION('',(0.,4.31252256127834E-15,-1.));
#1127=DIRECTION('',(-1.62023172656236E-15,-4.31252256127834E-15,1.));
#1128=DIRECTION('',(-1.,-1.83648128753486E-32,-1.62023172656236E-15));
#1129=DIRECTION('',(1.62023172656236E-15,4.31252256127834E-15,-1.));
#1130=DIRECTION('',(1.,7.00565068817447E-30,0.));
#1131=DIRECTION('',(-1.,6.91853295406807E-30,-1.62023172656236E-15));
#1132=DIRECTION('',(-1.62023172656236E-15,0.,1.));
#1133=DIRECTION('',(-6.87529212310439E-32,1.,4.31252256127834E-15));
#1134=DIRECTION('',(1.14567684094583E-15,0.707106781186551,-0.707106781186545));
#1135=DIRECTION('',(1.62023172656236E-15,4.31252256127834E-15,-1.));
#1136=DIRECTION('',(-6.91853295406807E-30,-1.,0.));
#1137=DIRECTION('',(-1.62023172656236E-15,-4.31252256127834E-15,1.));
#1138=DIRECTION('',(1.44560289664726E-16,1.,4.31252256127834E-15));
#1139=DIRECTION('',(0.,-4.31252256127834E-15,1.));
#1140=DIRECTION('',(-1.,1.44560289664726E-16,0.));
#1141=DIRECTION('',(-1.62023172656236E-15,-4.31252256127834E-15,1.));
#1142=DIRECTION('',(1.,-1.44560289664733E-16,1.62023172656236E-15));
#1143=DIRECTION('',(1.,-1.44560289664733E-16,1.62023172656236E-15));
#1144=DIRECTION('',(1.62023172656236E-15,4.31252256127834E-15,-1.));
#1145=DIRECTION('',(1.,-7.02663503147538E-30,1.62023172656236E-15));
#1146=DIRECTION('',(1.62023172656236E-15,0.,-1.));
#1147=DIRECTION('',(-1.62023172656236E-15,-4.31252256127834E-15,1.));
#1148=DIRECTION('',(-1.14567684094583E-15,-0.70710678118655,0.707106781186545));
#1149=DIRECTION('',(3.93491561762647E-32,1.,4.31252256127834E-15));
#1150=DIRECTION('',(1.14567684094585E-15,0.707106781186538,-0.707106781186557));
#1151=DIRECTION('',(-1.62023172656236E-15,-4.31252256127834E-15,1.));
#1152=DIRECTION('',(7.02663503147538E-30,1.,0.));
#1153=DIRECTION('',(-1.,1.38777878078145E-15,-1.62023172656235E-15));
#1154=DIRECTION('',(-1.62023172656235E-15,0.,1.));
#1155=DIRECTION('',(-1.38777878078144E-15,-1.,-4.31252256127835E-15));
#1156=DIRECTION('',(2.12698462762319E-15,0.70710678118655,-0.707106781186545));
#1157=DIRECTION('',(1.62023172656236E-15,4.31252256127834E-15,-1.));
#1158=DIRECTION('',(-1.38777878078145E-15,-1.,0.));
#1159=DIRECTION('',(-1.62023172656236E-15,-4.31252256127834E-15,1.));
#1160=DIRECTION('',(-2.12698462762319E-15,-0.707106781186538,0.707106781186557));
#1161=DIRECTION('',(1.26930986047076E-16,1.,4.31252256127834E-15));
#1162=DIRECTION('',(0.,-4.31252256127834E-15,1.));
#1163=DIRECTION('',(1.,-1.26930986047083E-16,1.62023172656236E-15));
#1164=DIRECTION('',(-1.,1.26930986047076E-16,0.));
#1165=DIRECTION('',(0.,0.,-1.));
#1166=DIRECTION('',(-1.,1.33226762955019E-15,0.));
#1167=DIRECTION('',(-1.,-7.00565068817447E-30,0.));
#1168=DIRECTION('',(6.91853295406807E-30,1.,0.));
#1169=DIRECTION('',(1.,-1.44560289664726E-16,0.));
#1170=DIRECTION('',(-7.02663503147538E-30,-1.,0.));
#1171=DIRECTION('',(1.,-1.26930986047076E-16,0.));
#1172=DIRECTION('',(1.38777878078145E-15,1.,0.));
#1173=DIRECTION('',(1.,-2.040851148208E-15,0.));
#1174=DIRECTION('',(-6.91853295406807E-30,-1.,0.));
#1175=DIRECTION('',(1.,-1.38777878078145E-15,1.62023172656235E-15));
#1176=DIRECTION('',(1.62023172656235E-15,0.,-1.));
#1177=DIRECTION('',(-1.38777878078144E-15,-1.,-4.31252256127835E-15));
#1178=DIRECTION('',(2.12698462762319E-15,0.70710678118655,-0.707106781186545));
#1179=DIRECTION('',(1.62023172656236E-15,4.31252256127834E-15,-1.));
#1180=DIRECTION('',(-1.,1.38777878078145E-15,-1.62023172656235E-15));
#1181=DIRECTION('',(-1.62023172656235E-15,0.,1.));
#1182=DIRECTION('',(-2.12698462762319E-15,-0.70710678118655,0.707106781186545));
#1183=DIRECTION('',(1.38777878078144E-15,1.,4.31252256127835E-15));
#1184=DIRECTION('',(1.62023172656236E-15,4.31252256127834E-15,-1.));
#1185=DIRECTION('',(-5.10212787051995E-16,-1.,-4.31252256127834E-15));
#1186=DIRECTION('',(0.,4.31252256127834E-15,-1.));
#1187=DIRECTION('',(-1.,5.10212787052002E-16,-1.62023172656236E-15));
#1188=DIRECTION('',(1.62023172656236E-15,4.31252256127834E-15,-1.));
#1189=DIRECTION('',(1.,-6.74556963021637E-30,1.62023172656236E-15));
#1190=DIRECTION('',(1.62023172656236E-15,0.,-1.));
#1191=DIRECTION('',(2.41716245082751E-31,-1.,-4.31252256127834E-15));
#1192=DIRECTION('',(1.14567684094583E-15,0.70710678118655,-0.707106781186545));
#1193=DIRECTION('',(-1.,1.38777878078145E-15,-1.62023172656235E-15));
#1194=DIRECTION('',(-1.62023172656235E-15,0.,1.));
#1195=DIRECTION('',(-2.12698462762319E-15,-0.707106781186551,0.707106781186545));
#1196=DIRECTION('',(1.38777878078145E-15,1.,4.31252256127835E-15));
#1197=DIRECTION('',(1.62023172656236E-15,4.31252256127834E-15,-1.));
#1198=DIRECTION('',(-5.10212787051996E-16,-1.,-4.31252256127834E-15));
#1199=DIRECTION('',(0.,4.31252256127834E-15,-1.));
#1200=DIRECTION('',(-1.,5.10212787052003E-16,-1.62023172656236E-15));
#1201=DIRECTION('',(1.62023172656236E-15,4.31252256127834E-15,-1.));
#1202=DIRECTION('',(1.,-6.98728587529912E-30,1.62023172656236E-15));
#1203=DIRECTION('',(0.577350269189621,-0.81649658092773,-2.58571870297712E-15));
#1204=DIRECTION('',(-1.,1.44560289664733E-16,-1.62023172656236E-15));
#1205=DIRECTION('',(-0.577350269189625,-0.816496580927726,-4.4566011499378E-15));
#1206=DIRECTION('',(-0.577350269189624,0.816496580927728,2.58571870297711E-15));
#1207=DIRECTION('',(-1.,1.44560289664733E-16,-1.62023172656236E-15));
#1208=DIRECTION('',(6.87529212310439E-32,-1.,-4.31252256127834E-15));
#1209=DIRECTION('',(1.,1.83648128753486E-32,1.62023172656236E-15));
#1210=DIRECTION('',(-6.87529212310495E-32,1.,4.31252256127834E-15));
#1211=DIRECTION('',(-1.,2.04085114820802E-15,-1.62023172656235E-15));
#1212=DIRECTION('',(0.577350269189622,0.816496580927729,4.4566011499378E-15));
#1213=DIRECTION('',(0.577350269189629,-0.816496580927724,-2.58571870297708E-15));
#1214=DIRECTION('',(-1.,2.04085114820802E-15,-1.62023172656235E-15));
#1215=DIRECTION('',(-0.577350269189638,-0.816496580927718,-4.45660114993778E-15));
#1216=DIRECTION('',(-1.,1.26930986047083E-16,-1.62023172656236E-15));
#1217=DIRECTION('',(-1.04345727983361E-15,0.707106781186545,0.707106781186551));
#1218=DIRECTION('',(1.,-1.44560289664733E-16,1.62023172656236E-15));
#1219=DIRECTION('',(-1.14567684094583E-15,-0.707106781186551,0.707106781186545));
#1220=DIRECTION('',(1.,-1.44560289664733E-16,1.62023172656236E-15));
#1221=DIRECTION('',(2.12698462762319E-15,0.707106781186551,-0.707106781186545));
#1222=DIRECTION('',(-1.04345727983361E-15,0.707106781186545,0.707106781186551));
#1223=DIRECTION('',(1.,-1.44560289664733E-16,1.62023172656236E-15));
#1224=DIRECTION('',(1.14567684094583E-15,0.707106781186551,-0.707106781186545));
#1225=DIRECTION('',(-2.12698462762319E-15,-0.707106781186551,0.707106781186545));
#1226=DIRECTION('',(-2.97422845344405E-16,-0.707106781186545,-0.70710678118655));
#1227=DIRECTION('',(-1.,2.04085114820802E-15,-1.62023172656235E-15));
#1228=DIRECTION('',(2.12698462762319E-15,0.70710678118655,-0.707106781186545));
#1229=DIRECTION('',(-1.,2.04085114820802E-15,-1.62023172656235E-15));
#1230=DIRECTION('',(-2.12698462762319E-15,-0.70710678118655,0.707106781186545));
#1231=DIRECTION('',(-2.97422845344405E-16,-0.707106781186545,-0.70710678118655));
#1232=DIRECTION('',(-1.,2.04085114820802E-15,-1.62023172656235E-15));
#1233=DIRECTION('',(-1.,2.04085114820802E-15,-1.62023172656235E-15));
#1234=DIRECTION('',(-1.14567684094583E-15,-0.70710678118655,0.707106781186545));
#1235=DIRECTION('',(1.14567684094583E-15,0.70710678118655,-0.707106781186545));
#1236=DIRECTION('',(-0.707106781186543,-0.5,-0.500000000000006));
#1237=DIRECTION('',(-2.12698462762319E-15,-0.70710678118655,0.707106781186545));
#1238=DIRECTION('',(0.357406744336566,-0.862856209461014,0.357406744336628));
#1239=DIRECTION('',(7.15899007753811E-16,-0.382683432365122,-0.923879532511273));
#1240=DIRECTION('',(-1.,2.04085114820802E-15,-1.62023172656235E-15));
#1241=DIRECTION('',(0.357406744336574,0.862856209461011,-0.357406744336626));
#1242=DIRECTION('',(-0.707106781186538,0.500000000000006,0.500000000000008));
#1243=DIRECTION('',(-2.12698462762319E-15,-0.70710678118655,0.707106781186545));
#1244=DIRECTION('',(-0.678598344545857,-0.678598344545838,-0.281084637714817));
#1245=DIRECTION('',(-0.707106781186538,0.707106781186557,1.90373710615412E-15));
#1246=DIRECTION('',(1.62023172656236E-15,4.31252256127834E-15,-1.));
#1247=DIRECTION('',(0.707106781186557,0.707106781186538,-3.1977264040316E-15));
#1248=DIRECTION('',(0.707106781186563,-9.81307786677384E-16,0.707106781186533));
#1249=DIRECTION('',(-1.38777878078145E-15,-1.,0.));
#1250=DIRECTION('',(-0.577350269189605,0.577350269189643,0.57735026918963));
#1251=DIRECTION('',(0.707106781186533,8.6533320887258E-16,-0.707106781186563));
#1252=DIRECTION('',(-0.57735026918963,0.577350269189642,-0.577350269189605));
#1253=DIRECTION('',(-0.707106781186555,-0.70710678118654,0.));
#1254=DIRECTION('',(-2.49301223642826E-14,-0.707106781186537,-0.707106781186558));
#1255=DIRECTION('',(-8.97537609765817E-17,-0.70710678118654,0.707106781186556));
#1256=DIRECTION('',(-1.,1.26930986047076E-16,0.));
#1257=DIRECTION('',(0.577350269189618,0.577350269189636,0.577350269189623));
#1258=DIRECTION('',(-0.707106781186552,-0.5,-0.5));
#1259=DIRECTION('',(-1.14567684094583E-15,-0.707106781186551,0.707106781186545));
#1260=DIRECTION('',(0.678598344545845,-0.678598344545843,-0.281084637714834));
#1261=DIRECTION('',(1.44309968629025E-15,0.707106781186558,-0.707106781186537));
#1262=DIRECTION('',(-1.,2.040851148208E-15,0.));
#1263=DIRECTION('',(3.71131798472034E-14,0.707106781186537,0.707106781186558));
#1264=DIRECTION('',(-0.707106781186551,4.96858127967922E-30,0.707106781186544));
#1265=DIRECTION('',(7.02663503147538E-30,1.,0.));
#1266=DIRECTION('',(0.707106781186544,-9.99940596919447E-15,0.707106781186551));
#1267=DIRECTION('',(-0.707106781186548,-0.707106781186548,-4.19509078804573E-15));
#1268=DIRECTION('',(-1.62023172656236E-15,-4.31252256127834E-15,1.));
#1269=DIRECTION('',(-0.707106781186548,0.707106781186548,-1.52518046048591E-15));
#1270=DIRECTION('',(0.707106781186552,-0.5,-0.5));
#1271=DIRECTION('',(1.14567684094583E-15,0.70710678118655,-0.707106781186545));
#1272=DIRECTION('',(-0.357406744336584,-0.862856209461018,0.357406744336599));
#1273=DIRECTION('',(0.707106781186545,0.70710678118655,4.19509078804573E-15));
#1274=DIRECTION('',(1.62023172656236E-15,4.31252256127834E-15,-1.));
#1275=DIRECTION('',(0.70710678118655,-0.707106781186545,-2.10406202707194E-15));
#1276=DIRECTION('',(0.678598344545842,-0.678598344545836,-0.281084637714861));
#1277=DIRECTION('',(0.577350269189618,0.577350269189623,-0.577350269189636));
#1278=DIRECTION('',(0.,0.707106781186556,0.70710678118654));
#1279=DIRECTION('',(0.707106781186564,-9.99940596919458E-15,0.707106781186531));
#1280=DIRECTION('',(0.577350269189631,0.57735026918963,-0.577350269189617));
#1281=DIRECTION('',(-0.707106781186547,0.707106781186548,0.));
#1282=DIRECTION('',(-5.76888805915064E-16,-0.70710678118654,-0.707106781186556));
#1283=DIRECTION('',(7.15899007753885E-16,-0.382683432365095,-0.923879532511285));
#1284=DIRECTION('',(-1.,2.04085114820802E-15,-1.62023172656235E-15));
#1285=DIRECTION('',(5.47537366691375E-14,0.923879532511285,-0.382683432365095));
#1286=DIRECTION('',(0.70710678118656,0.499999999999989,0.499999999999994));
#1287=DIRECTION('',(1.14567684094583E-15,0.70710678118655,-0.707106781186545));
#1288=DIRECTION('',(-0.707106781186535,0.50000000000002,0.5));
#1289=DIRECTION('',(-0.707106781186531,4.89214156768401E-30,0.707106781186564));
#1290=DIRECTION('',(6.91853295406807E-30,1.,0.));
#1291=DIRECTION('',(-0.707106781186564,1.39692350518969E-14,-0.707106781186531));
#1292=DIRECTION('',(-1.02219561112221E-16,-0.707106781186556,0.70710678118654));
#1293=DIRECTION('',(-1.,1.44560289664726E-16,0.));
#1294=DIRECTION('',(3.62478466383291E-14,0.70710678118654,0.707106781186556));
#1295=DIRECTION('',(0.67859834454585,0.281084637714789,0.678598344545857));
#1296=DIRECTION('',(0.707106781186551,0.,-0.707106781186544));
#1297=DIRECTION('',(0.707106781186547,2.33037134243346E-14,-0.707106781186549));
#1298=DIRECTION('',(0.577350269189617,-0.577350269189606,-0.577350269189655));
#1299=DIRECTION('',(-0.707106781186571,0.,-0.707106781186524));
#1300=DIRECTION('',(4.00937720110979E-14,-0.707106781186557,0.707106781186538));
#1301=DIRECTION('',(0.707106781186545,0.707106781186551,6.91882322341731E-15));
#1302=DIRECTION('',(-0.577350269189643,0.577350269189639,-0.577350269189596));
#1303=DIRECTION('',(-0.707106781186545,-0.70710678118655,0.));
#1304=DIRECTION('',(-0.707106781186546,-0.707106781186549,2.2236719345162E-15));
#1305=DIRECTION('',(0.707106781186526,1.53559459154525E-14,-0.707106781186569));
#1306=DIRECTION('',(0.707106781186549,-3.04941394709989E-15,0.707106781186547));
#1307=DIRECTION('',(6.87529212310495E-32,-1.,-4.31252256127834E-15));
#1308=DIRECTION('',(-0.707106781186546,2.04795526099854E-14,0.707106781186549));
#1309=DIRECTION('',(-0.707106781186551,0.707106781186545,1.90373710615404E-15));
#1310=DIRECTION('',(-1.62023172656236E-15,-4.31252256127834E-15,1.));
#1311=DIRECTION('',(-0.707106781186545,-0.707106781186551,0.));
#1312=DIRECTION('',(-4.9537431082323E-30,0.707106781186538,0.707106781186558));
#1313=DIRECTION('',(1.,7.00565068817447E-30,0.));
#1314=DIRECTION('',(-3.39125358390537E-14,0.707106781186558,-0.707106781186538));
#1315=DIRECTION('',(0.707106781186569,-4.89214156768428E-30,0.707106781186527));
#1316=DIRECTION('',(-6.91853295406807E-30,-1.,0.));
#1317=DIRECTION('',(-0.707106781186526,-1.67704123546249E-14,0.707106781186569));
#1318=DIRECTION('',(0.707106781186549,-0.707106781186546,-1.90373710615406E-15));
#1319=DIRECTION('',(-1.62023172656236E-15,-4.31252256127834E-15,1.));
#1320=DIRECTION('',(-0.678598344545849,-0.678598344545851,-0.281084637714807));
#1321=DIRECTION('',(0.707106781186549,0.5,0.5));
#1322=DIRECTION('',(2.12698462762319E-15,0.707106781186551,-0.707106781186545));
#1323=DIRECTION('',(0.357406744336606,-0.862856209461021,0.357406744336571));
#1324=DIRECTION('',(0.577350269189622,-0.577350269189617,0.577350269189637));
#1325=DIRECTION('',(0.707106781186557,0.,-0.707106781186538));
#1326=DIRECTION('',(1.83365380793475E-14,-0.707106781186551,-0.707106781186545));
#1327=DIRECTION('',(-0.577350269189636,-0.577350269189627,-0.577350269189615));
#1328=DIRECTION('',(0.707106781186542,-0.707106781186553,0.));
#1329=DIRECTION('',(0.707106781186544,-0.707106781186551,-5.30178843110361E-15));
#1330=DIRECTION('',(0.707106781186543,-0.5,-0.5));
#1331=DIRECTION('',(1.14567684094583E-15,0.707106781186551,-0.707106781186545));
#1332=DIRECTION('',(0.707106781186553,0.499999999999977,0.500000000000016));
#1333=DIRECTION('',(-1.44157810226381E-15,0.382683432365067,0.923879532511296));
#1334=DIRECTION('',(1.,-1.44560289664733E-16,1.62023172656236E-15));
#1335=DIRECTION('',(3.33754862274395E-14,0.923879532511296,-0.382683432365067));
#1336=DIRECTION('',(-1.14567684094583E-15,-0.707106781186545,0.707106781186551));
#1337=DIRECTION('',(-1.,-1.83648128753486E-32,-1.62023172656236E-15));
#1338=DIRECTION('',(-6.05733246210824E-15,0.707106781186551,0.707106781186545));
#1339=DIRECTION('',(0.707106781186551,0.707106781186545,4.19509078804572E-15));
#1340=DIRECTION('',(-1.62023172656236E-15,-4.31252256127834E-15,1.));
#1341=DIRECTION('',(-0.707106781186545,0.707106781186551,6.06437866134636E-15));
#1342=DIRECTION('',(-0.678598344545849,0.281084637714825,0.678598344545844));
#1343=DIRECTION('',(0.707106781186545,0.,0.70710678118655));
#1344=DIRECTION('',(0.707106781186534,-5.13471651722562E-14,0.707106781186561));
#1345=DIRECTION('',(-0.577350269189626,-0.577350269189626,0.577350269189626));
#1346=DIRECTION('',(0.707106781186548,0.,0.707106781186548));
#1347=DIRECTION('',(-0.707106781186534,-2.67291813407316E-14,-0.707106781186561));
#1348=DIRECTION('',(-0.707106781186561,-3.04941394709983E-15,0.707106781186534));
#1349=DIRECTION('',(-6.87529212310439E-32,1.,4.31252256127834E-15));
#1350=DIRECTION('',(-0.707106781186549,0.5,0.5));
#1351=DIRECTION('',(-2.12698462762319E-15,-0.707106781186551,0.707106781186545));
#1352=DIRECTION('',(-1.05592307996922E-15,0.707106781186557,0.707106781186538));
#1353=DIRECTION('',(1.,-1.26930986047083E-16,1.62023172656236E-15));
#1354=CARTESIAN_POINT('',(0.,0.,0.));
#1355=CARTESIAN_POINT('',(-7.15330145443704E-5,0.0380092541032349,0.00803353388530133));
#1356=CARTESIAN_POINT('',(0.0234284669854556,-0.00299199589676516,0.00803353388530119));
#1357=CARTESIAN_POINT('',(0.0234284669854556,-0.00799199589676517,0.00803353388530117));
#1358=CARTESIAN_POINT('',(0.0234284669854556,0.00172516139076022,0.00803353388530121));
#1359=CARTESIAN_POINT('',(0.0251284669854556,-0.00799199589676517,0.00803353388530117));
#1360=CARTESIAN_POINT('',(0.0268284669854556,-0.00799199589676517,0.00803353388530117));
#1361=CARTESIAN_POINT('',(0.0268284669854556,-0.00299199589676517,0.00803353388530119));
#1362=CARTESIAN_POINT('',(0.0268284669854556,0.00172516139076021,0.00803353388530121));
#1363=CARTESIAN_POINT('',(0.0349662856562505,0.0132337749231314,0.00803353388530128));
#1364=CARTESIAN_POINT('',(0.0270284669854556,0.00200800410323483,0.00803353388530121));
#1365=CARTESIAN_POINT('',(0.0251284669854556,0.00200800410323484,0.00803353388530121));
#1366=CARTESIAN_POINT('',(0.0232284669854557,0.00200800410323484,0.00803353388530121));
#1367=CARTESIAN_POINT('',(-0.0015093516853393,0.0369925627709991,0.00803353388530132));
#1368=CARTESIAN_POINT('',(-7.15330145443704E-5,0.0380092541032349,0.00803353388530133));
#1369=CARTESIAN_POINT('',(-0.0235715330145444,-0.00299199589676516,0.00803353388530111));
#1370=CARTESIAN_POINT('',(-0.0235715330145444,0.00172516139076022,0.00803353388530113));
#1371=CARTESIAN_POINT('',(-0.0235715330145444,-0.00799199589676517,0.00803353388530109));
#1372=CARTESIAN_POINT('',(0.00136628565625039,0.0369925627709993,0.00803353388530132));
#1373=CARTESIAN_POINT('',(-0.0233715330145444,0.00200800410323484,0.00803353388530113));
#1374=CARTESIAN_POINT('',(-0.0220715330145444,0.00200800410323484,0.00803353388530114));
#1375=CARTESIAN_POINT('',(-0.0271715330145444,0.00200800410323484,0.00803353388530113));
#1376=CARTESIAN_POINT('',(-0.0351093516853392,0.0132337749231313,0.00803353388530116));
#1377=CARTESIAN_POINT('',(-0.0269715330145444,0.00172516139076022,0.00803353388530113));
#1378=CARTESIAN_POINT('',(-0.0269715330145444,-0.00299199589676517,0.00803353388530111));
#1379=CARTESIAN_POINT('',(-0.0269715330145444,-0.00799199589676516,0.00803353388530109));
#1380=CARTESIAN_POINT('',(-0.0252715330145444,-0.00799199589676516,0.00803353388530109));
#1381=CARTESIAN_POINT('',(0.0251284669854556,0.00200800410323488,-0.00196846611469909));
#1382=CARTESIAN_POINT('',(0.0204284669854557,0.00200800410323488,-0.00176646611469846));
#1383=CARTESIAN_POINT('',(0.0296284669854557,0.00200800410323487,-0.00176646611469846));
#1384=CARTESIAN_POINT('',(0.0206284669854556,0.00200800410323488,-0.00176646611469846));
#1385=CARTESIAN_POINT('',(0.0206284669854556,0.00200800410323485,0.0080335338853012));
#1386=CARTESIAN_POINT('',(0.0206284669854556,0.00200800410323485,0.00803353388530121));
#1387=CARTESIAN_POINT('',(0.0251284669854556,0.00200800410323484,0.00803353388530121));
#1388=CARTESIAN_POINT('',(0.0251284669854556,0.00200800410323484,0.00803353388530121));
#1389=CARTESIAN_POINT('',(0.0296284669854557,0.00200800410323483,0.00803353388530122));
#1390=CARTESIAN_POINT('',(0.0296284669854557,0.00200800410323487,-0.00196646611469846));
#1391=CARTESIAN_POINT('',(0.0298284669854556,-0.00449199589676512,-0.00196846611469911));
#1392=CARTESIAN_POINT('',(0.0298284669854556,0.00361758274699768,0.00614111252906375));
#1393=CARTESIAN_POINT('',(0.0298284669854556,0.00180800410323483,0.00795069117282659));
#1394=CARTESIAN_POINT('',(0.0298284669854556,-0.00607483860923982,0.0158335338853012));
#1395=CARTESIAN_POINT('',(0.0298284669854556,-0.0109919958967652,0.0158335338853011));
#1396=CARTESIAN_POINT('',(0.0298284669854556,-0.0107919958967652,0.0158335338853011));
#1397=CARTESIAN_POINT('',(0.0298284669854556,-0.0107919958967651,-0.00196846611469915));
#1398=CARTESIAN_POINT('',(0.0298284669854556,-0.0107919958967651,-0.00176646611469846));
#1399=CARTESIAN_POINT('',(0.0298284669854556,-0.00449199589676512,-0.00176646611469846));
#1400=CARTESIAN_POINT('',(0.0298284669854556,0.00180800410323487,-0.00176646611469846));
#1401=CARTESIAN_POINT('',(0.0298284669854556,0.00180800410323483,0.00803353388530122));
#1402=CARTESIAN_POINT('',(-7.15330145443551E-5,-0.0109919958967651,-0.00196846611469919));
#1403=CARTESIAN_POINT('',(0.0296284669854557,-0.0109919958967651,-0.00196846611469915));
#1404=CARTESIAN_POINT('',(0.0296284669854557,-0.0109919958967651,-0.00176646611469846));
#1405=CARTESIAN_POINT('',(0.0296284669854557,-0.0109919958967652,0.0158335338853011));
#1406=CARTESIAN_POINT('',(-0.0299715330145444,-0.0109919958967652,0.0158335338853011));
#1407=CARTESIAN_POINT('',(-0.0297715330145444,-0.0109919958967652,0.0158335338853011));
#1408=CARTESIAN_POINT('',(-0.0297715330145443,-0.0109919958967651,-0.00196846611469924));
#1409=CARTESIAN_POINT('',(-0.0297715330145443,-0.0109919958967651,-0.00176646611469846));
#1410=CARTESIAN_POINT('',(-7.15330145443551E-5,-0.0109919958967651,-0.00176646611469846));
#1411=CARTESIAN_POINT('',(-0.0299715330145443,-0.00449199589676513,-0.00196846611469921));
#1412=CARTESIAN_POINT('',(-0.0299715330145444,-0.00599199589676519,0.0158335338853011));
#1413=CARTESIAN_POINT('',(-0.0299715330145444,-0.0107919958967652,0.0158335338853011));
#1414=CARTESIAN_POINT('',(-0.0299715330145444,-0.00607483860923981,0.0158335338853011));
#1415=CARTESIAN_POINT('',(-0.0299715330145444,0.00361758274699768,0.00614111252906367));
#1416=CARTESIAN_POINT('',(-0.0299715330145444,0.00180800410323484,0.0079506911728265));
#1417=CARTESIAN_POINT('',(-0.0299715330145443,0.00180800410323488,-0.00196846611469918));
#1418=CARTESIAN_POINT('',(-0.0299715330145443,0.00180800410323488,-0.00176646611469846));
#1419=CARTESIAN_POINT('',(-0.0299715330145443,-0.00449199589676513,-0.00176646611469846));
#1420=CARTESIAN_POINT('',(-0.0299715330145443,-0.0107919958967651,-0.00176646611469846));
#1421=CARTESIAN_POINT('',(-0.0299715330145443,-0.0107919958967651,-0.00196846611469924));
#1422=CARTESIAN_POINT('',(-0.0220715330145443,0.00200800410323488,-0.00196846611469917));
#1423=CARTESIAN_POINT('',(-0.0220715330145443,0.00200800410323488,-0.00176646611469846));
#1424=CARTESIAN_POINT('',(-0.0207715330145444,0.00200800410323488,-0.00176646611469846));
#1425=CARTESIAN_POINT('',(-0.0297715330145443,0.00200800410323488,-0.00176646611469846));
#1426=CARTESIAN_POINT('',(-0.0297715330145443,0.00200800410323488,-0.00196846611469918));
#1427=CARTESIAN_POINT('',(-0.0297715330145444,0.00200800410323484,0.00803353388530113));
#1428=CARTESIAN_POINT('',(-0.0269715330145444,0.00200800410323484,0.00803353388530113));
#1429=CARTESIAN_POINT('',(-0.0205715330145444,0.00200800410323484,0.00803353388530114));
#1430=CARTESIAN_POINT('',(-0.0207715330145444,0.00200800410323484,0.00803353388530114));
#1431=CARTESIAN_POINT('',(-0.0207715330145444,0.00200800410323488,-0.00196846611469917));
#1432=CARTESIAN_POINT('',(-0.0205715330145444,-0.00299199589676512,-0.00196846611469919));
#1433=CARTESIAN_POINT('',(-0.0205715330145444,0.00180800410323488,-0.00196846611469917));
#1434=CARTESIAN_POINT('',(-0.0205715330145444,0.00180800410323488,-0.00176646611469846));
#1435=CARTESIAN_POINT('',(-0.0205715330145444,0.00180800410323484,0.00795069117282652));
#1436=CARTESIAN_POINT('',(-0.0205715330145444,0.00436758274699769,0.00539111252906368));
#1437=CARTESIAN_POINT('',(-0.0205715330145444,-0.00627483860923981,0.0160335338853011));
#1438=CARTESIAN_POINT('',(-0.0205715330145444,-0.0029919958967652,0.0160335338853011));
#1439=CARTESIAN_POINT('',(-0.0205715330145444,-0.00819199589676519,0.0160335338853011));
#1440=CARTESIAN_POINT('',(-0.0205715330145444,-0.0081919958967652,0.0160335338853011));
#1441=CARTESIAN_POINT('',(-0.0205715330145444,-0.0079919958967652,0.0158335338853011));
#1442=CARTESIAN_POINT('',(-0.0205715330145444,-0.00799199589676512,-0.00196846611469921));
#1443=CARTESIAN_POINT('',(-0.0205715330145444,-0.00799199589676512,-0.00176646611469846));
#1444=CARTESIAN_POINT('',(-0.0205715330145444,-0.00299199589676512,-0.00176646611469846));
#1445=CARTESIAN_POINT('',(0.0204284669854557,-0.00299199589676511,-0.00196846611469912));
#1446=CARTESIAN_POINT('',(0.0204284669854557,-0.00299199589676519,0.0160335338853012));
#1447=CARTESIAN_POINT('',(0.0204284669854557,-0.00627483860923979,0.0160335338853011));
#1448=CARTESIAN_POINT('',(0.0204284669854557,-0.0081919958967652,0.0160335338853011));
#1449=CARTESIAN_POINT('',(0.0204284669854557,0.0043675827469977,0.00539111252906375));
#1450=CARTESIAN_POINT('',(0.0204284669854557,0.00180800410323485,0.00795069117282658));
#1451=CARTESIAN_POINT('',(0.0204284669854557,0.0018080041032349,-0.00196646611469846));
#1452=CARTESIAN_POINT('',(0.0204284669854557,0.0018080041032349,-0.00176646611469846));
#1453=CARTESIAN_POINT('',(0.0204284669854557,-0.00299199589676511,-0.00176646611469846));
#1454=CARTESIAN_POINT('',(0.0204284669854557,-0.00799199589676513,-0.00176646611469846));
#1455=CARTESIAN_POINT('',(0.0204284669854557,-0.00799199589676513,-0.00196846611469915));
#1456=CARTESIAN_POINT('',(0.0204284669854557,-0.0079919958967652,0.0158335338853011));
#1457=CARTESIAN_POINT('',(0.0204284669854557,-0.00819199589676521,0.0160335338853012));
#1458=CARTESIAN_POINT('',(-7.15330145443585E-5,-0.00799199589676512,-0.00196846611469918));
#1459=CARTESIAN_POINT('',(0.0204284669854557,-0.0079919958967652,0.0158335338853011));
#1460=CARTESIAN_POINT('',(-7.15330145443585E-5,-0.00799199589676513,-0.00176646611469846));
#1461=CARTESIAN_POINT('',(0.189328466985457,0.0870080041032342,-0.00196646611469846));
#1462=CARTESIAN_POINT('',(0.189328466985457,-0.0107919958967651,-0.00196646611469846));
#1463=CARTESIAN_POINT('',(0.0296284669854557,-0.0107919958967651,-0.00196646611469846));
#1464=CARTESIAN_POINT('',(-0.0297715330145444,-0.0107919958967651,-0.00196646611469846));
#1465=CARTESIAN_POINT('',(-0.0297715330145444,0.0870080041032342,-0.00196646611469846));
#1466=CARTESIAN_POINT('',(-0.0297715330145444,0.00180800410323489,-0.00196646611469846));
#1467=CARTESIAN_POINT('',(0.189328466985457,0.00180800410323486,-0.00196646611469846));
#1468=CARTESIAN_POINT('',(-0.0207715330145444,0.00180800410323489,-0.00196646611469846));
#1469=CARTESIAN_POINT('',(-0.0207715330145444,0.0870080041032342,-0.00196646611469846));
#1470=CARTESIAN_POINT('',(-0.0207715330145444,-0.00819199589676513,-0.00196646611469846));
#1471=CARTESIAN_POINT('',(0.189328466985457,-0.00819199589676517,-0.00196646611469846));
#1472=CARTESIAN_POINT('',(0.0206284669854556,-0.00819199589676514,-0.00196646611469846));
#1473=CARTESIAN_POINT('',(0.0206284669854558,0.0870080041032344,-0.00196646611469846));
#1474=CARTESIAN_POINT('',(0.0206284669854556,0.00180800410323489,-0.00196646611469846));
#1475=CARTESIAN_POINT('',(0.0298284669854556,0.00180800410323488,-0.00196646611469846));
#1476=CARTESIAN_POINT('',(0.0296284669854557,0.00180800410323488,-0.00196646611469846));
#1477=CARTESIAN_POINT('',(0.0296284669854557,0.0870080041032342,-0.00196646611469846));
#1478=CARTESIAN_POINT('',(-0.0235715330145444,-0.0029919958967652,0.0160335338853011));
#1479=CARTESIAN_POINT('',(-0.0235715330145444,-0.0029919958967652,0.0160335338853011));
#1480=CARTESIAN_POINT('',(-0.0235715330145444,-0.00627483860923981,0.0160335338853011));
#1481=CARTESIAN_POINT('',(-0.0235715330145444,-0.0079919958967652,0.0160335338853011));
#1482=CARTESIAN_POINT('',(-0.0235715330145444,0.00186658274699753,0.00789211252906382));
#1483=CARTESIAN_POINT('',(-0.0235715330145444,-0.0079919958967652,0.0160335338853011));
#1484=CARTESIAN_POINT('',(0.0234284669854556,-0.0029919958967652,0.0160335338853012));
#1485=CARTESIAN_POINT('',(0.0234284669854556,-0.00613341725300249,0.0158921125290639));
#1486=CARTESIAN_POINT('',(0.0234284669854556,-0.0062748386092398,0.0160335338853012));
#1487=CARTESIAN_POINT('',(0.0234284669854556,-0.0029919958967652,0.0160335338853012));
#1488=CARTESIAN_POINT('',(0.0234284669854556,-0.0079919958967652,0.0160335338853011));
#1489=CARTESIAN_POINT('',(0.0234284669854556,-0.0079919958967652,0.0160335338853011));
#1490=CARTESIAN_POINT('',(0.0251284669854556,-0.0079919958967652,0.0160335338853011));
#1491=CARTESIAN_POINT('',(0.0251284669854556,-0.0079919958967652,0.0160335338853011));
#1492=CARTESIAN_POINT('',(0.0268284669854556,-0.0079919958967652,0.0160335338853011));
#1493=CARTESIAN_POINT('',(0.0268284669854556,-0.0079919958967652,0.0160335338853011));
#1494=CARTESIAN_POINT('',(0.0268284669854556,-0.0029919958967652,0.0160335338853012));
#1495=CARTESIAN_POINT('',(0.0268284669854556,-0.0029919958967652,0.0160335338853012));
#1496=CARTESIAN_POINT('',(0.0268284669854556,-0.00627483860923981,0.0160335338853012));
#1497=CARTESIAN_POINT('',(0.0268284669854556,0.00186658274699752,0.0078921125290639));
#1498=CARTESIAN_POINT('',(-0.0269715330145444,-0.0029919958967652,0.0160335338853011));
#1499=CARTESIAN_POINT('',(-0.0269715330145444,-0.0061334172530025,0.0158921125290638));
#1500=CARTESIAN_POINT('',(-0.0269715330145444,-0.00627483860923981,0.0160335338853011));
#1501=CARTESIAN_POINT('',(-0.0269715330145444,-0.0029919958967652,0.0160335338853011));
#1502=CARTESIAN_POINT('',(-0.0269715330145444,-0.0079919958967652,0.0160335338853011));
#1503=CARTESIAN_POINT('',(-0.0269715330145444,-0.0079919958967652,0.0160335338853011));
#1504=CARTESIAN_POINT('',(-0.0252715330145444,-0.0079919958967652,0.0160335338853011));
#1505=CARTESIAN_POINT('',(-0.0252715330145444,-0.0079919958967652,0.0160335338853011));
#1506=CARTESIAN_POINT('',(-7.15330145443834E-5,0.0380092541032348,0.0160335338853013));
#1507=CARTESIAN_POINT('',(-0.0255884185540378,0.000820108961585225,0.0160335338853011));
#1508=CARTESIAN_POINT('',(-0.0207715330145444,-0.00599199589676519,0.0160335338853011));
#1509=CARTESIAN_POINT('',(-0.0235715330145444,-0.00599199589676519,0.0160335338853011));
#1510=CARTESIAN_POINT('',(-0.0233715330145444,-0.00599199589676519,0.0160335338853011));
#1511=CARTESIAN_POINT('',(-0.0227977595666912,-0.00518055770508161,0.0160335338853011));
#1512=CARTESIAN_POINT('',(-0.0277453064623976,-0.00518055770508161,0.0160335338853011));
#1513=CARTESIAN_POINT('',(-0.0271129543707817,-0.00607483860923982,0.0160335338853011));
#1514=CARTESIAN_POINT('',(-0.0299715330145444,-0.00607483860923982,0.0160335338853011));
#1515=CARTESIAN_POINT('',(-0.0297715330145444,-0.00607483860923982,0.0160335338853011));
#1516=CARTESIAN_POINT('',(-0.0297715330145444,-0.0109919958967652,0.0160335338853011));
#1517=CARTESIAN_POINT('',(-0.0297715330145444,-0.0107919958967652,0.0160335338853011));
#1518=CARTESIAN_POINT('',(0.0298284669854556,-0.0107919958967652,0.0160335338853011));
#1519=CARTESIAN_POINT('',(0.0296284669854557,-0.0107919958967652,0.0160335338853011));
#1520=CARTESIAN_POINT('',(0.0296284669854557,-0.00599199589676521,0.0160335338853012));
#1521=CARTESIAN_POINT('',(0.0296284669854557,-0.00607483860923982,0.0160335338853012));
#1522=CARTESIAN_POINT('',(0.0268284669854556,-0.00607483860923982,0.0160335338853012));
#1523=CARTESIAN_POINT('',(0.026969888341693,-0.00607483860923982,0.0160335338853012));
#1524=CARTESIAN_POINT('',(0.0276022404333088,-0.00518055770508161,0.0160335338853012));
#1525=CARTESIAN_POINT('',(0.0226546935376024,-0.00518055770508161,0.0160335338853012));
#1526=CARTESIAN_POINT('',(0.0232870456292184,-0.0060748386092398,0.0160335338853012));
#1527=CARTESIAN_POINT('',(0.0204284669854557,-0.0060748386092398,0.0160335338853011));
#1528=CARTESIAN_POINT('',(0.0205698883416929,-0.0060748386092398,0.0160335338853011));
#1529=CARTESIAN_POINT('',(0.0254453525249491,0.00082010896158503,0.0160335338853012));
#1530=CARTESIAN_POINT('',(-0.0205715330145444,-0.00819199589676519,0.0160335338853011));
#1531=CARTESIAN_POINT('',(-7.15330145443897E-5,-0.0059919958967652,0.0160335338853011));
#1532=CARTESIAN_POINT('',(-0.0297715330145444,-0.0059919958967652,0.0160335338853011));
#1533=CARTESIAN_POINT('',(-0.0297715330145444,-0.0059334172530025,0.0159749552415384));
#1534=CARTESIAN_POINT('',(-0.0269715330145444,-0.0059334172530025,0.0159749552415384));
#1535=CARTESIAN_POINT('',(-0.0271715330145444,-0.0059334172530025,0.0159749552415384));
#1536=CARTESIAN_POINT('',(-0.0271715330145444,0.00200800410323484,0.00803353388530113));
#1537=CARTESIAN_POINT('',(-7.15330145443897E-5,-0.0059919958967652,0.0160335338853011));
#1538=CARTESIAN_POINT('',(-0.0207715330145444,-0.0059919958967652,0.0160335338853011));
#1539=CARTESIAN_POINT('',(-0.0233715330145444,-0.00599199589676519,0.0160335338853011));
#1540=CARTESIAN_POINT('',(-7.15330145444732E-5,-0.00599199589676514,0.0160335338853011));
#1541=CARTESIAN_POINT('',(0.0206284669854556,-0.00599199589676518,0.0160335338853011));
#1542=CARTESIAN_POINT('',(0.0206284669854556,-0.00593341725300249,0.0159749552415385));
#1543=CARTESIAN_POINT('',(0.0234284669854556,-0.00593341725300249,0.0159749552415385));
#1544=CARTESIAN_POINT('',(0.0232284669854557,-0.00593341725300249,0.0159749552415385));
#1545=CARTESIAN_POINT('',(0.0232284669854557,0.00200800410323484,0.00803353388530121));
#1546=CARTESIAN_POINT('',(-7.15330145444732E-5,-0.00599199589676514,0.0160335338853011));
#1547=CARTESIAN_POINT('',(0.0298284669854556,-0.00593341725300251,0.0159749552415385));
#1548=CARTESIAN_POINT('',(0.0270284669854556,-0.0059334172530025,0.0159749552415385));
#1549=CARTESIAN_POINT('',(0.0296284669854557,-0.00593341725300251,0.0159749552415385));
#1550=CARTESIAN_POINT('',(0.0296284669854557,-0.00599199589676517,0.0160335338853011));
#1551=CARTESIAN_POINT('',(0.0270284669854556,-0.0059919958967652,0.0160335338853012));
#1552=CARTESIAN_POINT('',(0.0234284669854556,-0.0046334172530025,0.0143921125290639));
#1553=CARTESIAN_POINT('',(0.022650915419667,-0.00453908442990564,0.0153974036757498));
#1554=CARTESIAN_POINT('',(-7.15330145444733E-5,-0.00607483860923976,0.0160335338853011));
#1555=CARTESIAN_POINT('',(0.0179331618285233,-0.0124404595176031,0.0186702603984713));
#1556=CARTESIAN_POINT('',(0.0204284669854557,0.00436758274699771,0.00539111252906375));
#1557=CARTESIAN_POINT('',(0.0211189188107855,0.00249845592856467,0.00823668568304345));
#1558=CARTESIAN_POINT('',(0.0206284669854556,0.00200800410323488,-0.0019684661146991));
#1559=CARTESIAN_POINT('',(0.0204284669854557,0.0018080041032349,-0.00176646611469846));
#1560=CARTESIAN_POINT('',(0.0204284669854557,-0.00299199589676511,-0.00176646611469846));
#1561=CARTESIAN_POINT('',(0.0135951336521228,-0.00115866256343184,0.00506686721863468));
#1562=CARTESIAN_POINT('',(0.0204284669854557,0.00180800410323489,-0.00176646611469846));
#1563=CARTESIAN_POINT('',(0.0204284669854557,0.0018080041032349,-0.00176646611469846));
#1564=CARTESIAN_POINT('',(0.0206284669854556,0.00190800410323489,-0.00186646611469846));
#1565=CARTESIAN_POINT('',(-7.15330145443585E-5,-0.00799199589676513,-0.00176646611469846));
#1566=CARTESIAN_POINT('',(-0.0189048663478777,-0.0063253292300984,-9.9799448031768E-5));
#1567=CARTESIAN_POINT('',(-0.0205715330145444,0.00436758274699769,0.00539111252906368));
#1568=CARTESIAN_POINT('',(-0.018679517543811,-8.40113674985584E-5,0.00716699270462899));
#1569=CARTESIAN_POINT('',(0.189328466985457,0.00180800410323455,-0.00196646611469846));
#1570=CARTESIAN_POINT('',(0.0296284669854557,0.00200800410323487,-0.00176646611469846));
#1571=CARTESIAN_POINT('',(-0.0205715330145444,-0.00299199589676512,-0.00176646611469846));
#1572=CARTESIAN_POINT('',(-0.0206715330145444,0.00180800410323488,-0.00186646611469846));
#1573=CARTESIAN_POINT('',(-0.0205715330145444,0.00180800410323488,-0.00196846611469917));
#1574=CARTESIAN_POINT('',(-0.0207715330145444,0.00200800410323488,-0.00176646611469846));
#1575=CARTESIAN_POINT('',(0.0268284669854556,-0.0046334172530025,0.0143921125290639));
#1576=CARTESIAN_POINT('',(0.0235156285107806,-0.0144141595409894,0.0194877937162137));
#1577=CARTESIAN_POINT('',(0.0298284669854556,0.00180800410323487,-0.00196846611469909));
#1578=CARTESIAN_POINT('',(0.0296284669854557,0.00200800410323487,-0.00176646611469846));
#1579=CARTESIAN_POINT('',(0.0317204824561892,-8.40113674987226E-5,0.00716699270462892));
#1580=CARTESIAN_POINT('',(0.0296284669854557,0.00200800410323487,-0.00176646611469846));
#1581=CARTESIAN_POINT('',(0.0297284669854556,0.00180800410323487,-0.00186646611469846));
#1582=CARTESIAN_POINT('',(-0.0207715330145444,0.00200800410323488,-0.00176646611469846));
#1583=CARTESIAN_POINT('',(-0.0207715330145444,0.00200800410323488,-0.00176646611469846));
#1584=CARTESIAN_POINT('',(-7.15330145444733E-5,-0.00607483860923976,0.0160335338853011));
#1585=CARTESIAN_POINT('',(0.0296284669854557,-0.00607483860923982,0.0160335338853012));
#1586=CARTESIAN_POINT('',(0.0298284669854556,0.00361758274699768,0.00614111252906375));
#1587=CARTESIAN_POINT('',(0.029657756307337,-0.00595412793112116,0.0159542445634199));
#1588=CARTESIAN_POINT('',(0.0298284669854556,-0.00449199589676512,-0.00176646611469846));
#1589=CARTESIAN_POINT('',(0.0298284669854556,-0.0107919958967651,-0.00176646611469846));
#1590=CARTESIAN_POINT('',(-0.0220715330145443,0.00200800410323488,-0.00176646611469846));
#1591=CARTESIAN_POINT('',(-0.0297715330145444,0.00190800410323488,-0.00186646611469846));
#1592=CARTESIAN_POINT('',(0.0296284669854557,-0.00607483860923982,0.0160335338853012));
#1593=CARTESIAN_POINT('',(0.0296284669854557,-0.00607483860923983,0.0160335338853012));
#1594=CARTESIAN_POINT('',(0.0298284669854556,-0.0107919958967651,-0.00176646611469846));
#1595=CARTESIAN_POINT('',(0.0296284669854557,-0.0108919958967651,-0.00186646611469845));
#1596=CARTESIAN_POINT('',(0.0298284669854556,-0.0107919958967651,-0.00176646611469846));
#1597=CARTESIAN_POINT('',(-0.0299715330145443,0.00180800410323488,-0.00176646611469846));
#1598=CARTESIAN_POINT('',(-0.0299715330145443,0.00180800410323488,-0.00176646611469846));
#1599=CARTESIAN_POINT('',(-0.0299715330145443,0.00180800410323488,-0.00176646611469846));
#1600=CARTESIAN_POINT('',(0.0296284669854557,0.0380092541032348,0.0160335338853014));
#1601=CARTESIAN_POINT('',(0.0298284669854556,-0.0107919958967652,0.0158335338853011));
#1602=CARTESIAN_POINT('',(0.0296284669854557,-0.0109919958967651,-0.00196846611469915));
#1603=CARTESIAN_POINT('',(0.0298284669854556,-0.0107919958967652,0.0158335338853011));
#1604=CARTESIAN_POINT('',(-7.15330145443551E-5,-0.0109919958967651,-0.00176646611469846));
#1605=CARTESIAN_POINT('',(-0.0297715330145443,-0.0109919958967651,-0.00176646611469846));
#1606=CARTESIAN_POINT('',(-0.0299715330145443,-0.00449199589676513,-0.00176646611469846));
#1607=CARTESIAN_POINT('',(-0.0298715330145444,-0.0107919958967651,-0.00186646611469845));
#1608=CARTESIAN_POINT('',(-0.0297715330145443,0.00200800410323488,-0.00196846611469918));
#1609=CARTESIAN_POINT('',(-0.0294833952967569,0.00229614182102233,0.00815288443583993));
#1610=CARTESIAN_POINT('',(-0.0269715330145444,-0.0046334172530025,0.0143921125290638));
#1611=CARTESIAN_POINT('',(-0.0277490845803331,-0.00453908442990571,0.0153974036757498));
#1612=CARTESIAN_POINT('',(0.0298284669854556,-0.0107919958967652,0.0158335338853011));
#1613=CARTESIAN_POINT('',(0.0296284669854557,-0.0108919958967652,0.0159335338853011));
#1614=CARTESIAN_POINT('',(-0.0297715330145443,-0.0109919958967651,-0.00176646611469846));
#1615=CARTESIAN_POINT('',(-0.0297715330145443,-0.0109919958967651,-0.00176646611469846));
#1616=CARTESIAN_POINT('',(-0.0299715330145444,0.00361758274699768,0.00614111252906367));
#1617=CARTESIAN_POINT('',(-0.0299715330145444,-0.00607483860923981,0.0158335338853011));
#1618=CARTESIAN_POINT('',(-7.15330145443897E-5,-0.00607483860923982,0.0160335338853011));
#1619=CARTESIAN_POINT('',(-0.0297715330145444,-0.00600412793112116,0.0160042445634197));
#1620=CARTESIAN_POINT('',(-7.15330145443834E-5,-0.0107919958967652,0.0160335338853011));
#1621=CARTESIAN_POINT('',(-0.0297715330145444,-0.0107919958967652,0.0160335338853011));
#1622=CARTESIAN_POINT('',(-0.0299715330145443,-0.0107919958967651,-0.00196846611469924));
#1623=CARTESIAN_POINT('',(-0.0298715330145444,-0.0108919958967652,0.0158335338853011));
#1624=CARTESIAN_POINT('',(-0.0299715330145444,-0.00607483860923981,0.0158335338853011));
#1625=CARTESIAN_POINT('',(-0.0299715330145444,-0.00607483860923981,0.0158335338853011));
#1626=CARTESIAN_POINT('',(-0.0297715330145444,-0.0107919958967652,0.0160335338853011));
#1627=CARTESIAN_POINT('',(-0.0297715330145444,-0.0107919958967652,0.0160335338853011));
#1628=CARTESIAN_POINT('',(-0.0297715330145444,0.0380092541032348,0.0160335338853013));
#1629=CARTESIAN_POINT('',(-0.0235715330145444,-0.0046334172530025,0.0143921125290638));
#1630=CARTESIAN_POINT('',(-7.15330145443892E-5,-0.0081919958967652,0.0160335338853011));
#1631=MECHANICAL_DESIGN_GEOMETRIC_PRESENTATION_REPRESENTATION('',(#1020),
#1632);
#1632=(
GEOMETRIC_REPRESENTATION_CONTEXT(3)
GLOBAL_UNCERTAINTY_ASSIGNED_CONTEXT((#1633))
GLOBAL_UNIT_ASSIGNED_CONTEXT((#1636,#1635,#1634))
REPRESENTATION_CONTEXT('Foot','TOP_LEVEL_ASSEMBLY_PART')
);
#1633=UNCERTAINTY_MEASURE_WITH_UNIT(LENGTH_MEASURE(1.E-8),#1636,
'DISTANCE_ACCURACY_VALUE','Maximum Tolerance applied to model');
#1634=(
NAMED_UNIT(*)
SI_UNIT($,.STERADIAN.)
SOLID_ANGLE_UNIT()
);
#1635=(
NAMED_UNIT(*)
PLANE_ANGLE_UNIT()
SI_UNIT($,.RADIAN.)
);
#1636=(
LENGTH_UNIT()
NAMED_UNIT(*)
SI_UNIT($,.METRE.)
);
#1637=PRODUCT_DEFINITION_SHAPE('','',#1638);
#1638=PRODUCT_DEFINITION('','',#1640,#1639);
#1639=PRODUCT_DEFINITION_CONTEXT('',#1646,'design');
#1640=PRODUCT_DEFINITION_FORMATION_WITH_SPECIFIED_SOURCE('','',#1642,
 .NOT_KNOWN.);
#1641=PRODUCT_RELATED_PRODUCT_CATEGORY('','',(#1642));
#1642=PRODUCT('Foot','Foot','Foot',(#1644));
#1643=PRODUCT_CATEGORY('','');
#1644=PRODUCT_CONTEXT('',#1646,'mechanical');
#1645=APPLICATION_PROTOCOL_DEFINITION('international standard',
'ap242_managed_model_based_3d_engineering',2020,#1646);
#1646=APPLICATION_CONTEXT('managed model based 3d engineering');
ENDSEC;
END-ISO-10303-21;
