G04 Layer: BottomSilkLayer*
G04 EasyEDA v6.4.19.5, 2021-06-14T13:18:40+02:00*
G04 9e6975c7382942e3b78031909667385b,1658352ba3c644ceb65f55418ae09dd8,10*
G04 Gerber Generator version 0.2*
G04 Scale: 100 percent, Rotated: No, Reflected: No *
G04 Dimensions in millimeters *
G04 leading zeros omitted , absolute positions ,4 integer and 5 decimal *
%FSLAX45Y45*%
%MOMM*%

%ADD10C,0.2540*%
%ADD34C,0.2032*%
%ADD35C,0.1524*%
%ADD36C,0.2000*%

%LPD*%
G36*
X820978Y-6296914D02*
G01*
X820978Y-6351270D01*
X915771Y-6351371D01*
X923036Y-6351828D01*
X928522Y-6352794D01*
X932434Y-6354419D01*
X935024Y-6356858D01*
X936548Y-6360261D01*
X937310Y-6364833D01*
X937666Y-6376212D01*
X938326Y-6380632D01*
X939647Y-6384036D01*
X941730Y-6386525D01*
X944778Y-6388252D01*
X948842Y-6389370D01*
X954125Y-6389928D01*
X960780Y-6390081D01*
X967435Y-6389928D01*
X972718Y-6389370D01*
X976782Y-6388252D01*
X979830Y-6386525D01*
X981913Y-6384036D01*
X983183Y-6380632D01*
X983894Y-6376212D01*
X984250Y-6364986D01*
X984961Y-6360515D01*
X986383Y-6357112D01*
X988669Y-6354622D01*
X992073Y-6352946D01*
X996746Y-6351930D01*
X1002893Y-6351371D01*
X1010716Y-6351270D01*
X1018133Y-6351422D01*
X1024128Y-6351981D01*
X1028953Y-6353048D01*
X1032662Y-6354673D01*
X1035456Y-6356959D01*
X1037488Y-6360007D01*
X1038910Y-6363868D01*
X1040790Y-6373368D01*
X1042263Y-6377228D01*
X1044346Y-6380429D01*
X1047191Y-6383020D01*
X1050798Y-6385052D01*
X1055370Y-6386626D01*
X1060907Y-6387795D01*
X1067562Y-6388658D01*
X1075131Y-6389268D01*
X1081024Y-6389319D01*
X1085494Y-6388760D01*
X1088644Y-6387388D01*
X1090777Y-6385102D01*
X1092047Y-6381699D01*
X1092657Y-6377127D01*
X1093012Y-6365290D01*
X1093673Y-6360617D01*
X1095095Y-6357162D01*
X1097432Y-6354622D01*
X1100836Y-6352946D01*
X1105611Y-6351879D01*
X1111961Y-6351371D01*
X1128014Y-6351371D01*
X1134313Y-6351879D01*
X1139088Y-6352895D01*
X1142542Y-6354572D01*
X1144879Y-6357061D01*
X1146302Y-6360464D01*
X1147013Y-6364935D01*
X1147368Y-6376212D01*
X1148080Y-6380632D01*
X1149350Y-6384036D01*
X1151432Y-6386525D01*
X1154480Y-6388252D01*
X1158544Y-6389370D01*
X1163828Y-6389928D01*
X1170482Y-6390081D01*
X1177137Y-6389928D01*
X1182420Y-6389370D01*
X1186484Y-6388252D01*
X1189532Y-6386525D01*
X1191615Y-6384036D01*
X1192936Y-6380632D01*
X1193596Y-6376212D01*
X1194003Y-6364935D01*
X1194663Y-6360464D01*
X1196086Y-6357061D01*
X1198422Y-6354572D01*
X1201928Y-6352895D01*
X1206652Y-6351879D01*
X1212951Y-6351371D01*
X1229055Y-6351371D01*
X1235354Y-6351879D01*
X1240129Y-6352946D01*
X1243584Y-6354622D01*
X1245870Y-6357162D01*
X1247292Y-6360617D01*
X1247952Y-6365290D01*
X1248308Y-6377127D01*
X1248918Y-6381699D01*
X1250188Y-6385102D01*
X1252321Y-6387388D01*
X1255522Y-6388760D01*
X1259941Y-6389319D01*
X1265834Y-6389268D01*
X1273403Y-6388658D01*
X1280058Y-6387795D01*
X1285646Y-6386626D01*
X1290167Y-6385052D01*
X1293825Y-6383020D01*
X1296619Y-6380429D01*
X1298702Y-6377228D01*
X1300175Y-6373368D01*
X1301140Y-6368745D01*
X1303375Y-6360312D01*
X1307744Y-6354927D01*
X1315008Y-6352082D01*
X1325829Y-6351270D01*
X1336649Y-6352082D01*
X1343863Y-6354927D01*
X1348282Y-6360312D01*
X1350518Y-6368745D01*
X1351432Y-6373418D01*
X1352804Y-6377228D01*
X1354734Y-6380276D01*
X1357325Y-6382613D01*
X1360627Y-6384290D01*
X1364843Y-6385407D01*
X1370025Y-6386017D01*
X1376324Y-6386220D01*
X1382572Y-6386017D01*
X1387754Y-6385407D01*
X1391970Y-6384290D01*
X1395323Y-6382613D01*
X1397914Y-6380276D01*
X1399794Y-6377228D01*
X1401165Y-6373418D01*
X1403045Y-6363766D01*
X1404518Y-6359804D01*
X1406652Y-6356705D01*
X1409750Y-6354470D01*
X1413916Y-6352895D01*
X1419402Y-6351930D01*
X1426362Y-6351422D01*
X1465630Y-6351270D01*
X1465630Y-6553200D01*
X1387957Y-6553200D01*
X1387957Y-6436715D01*
X953008Y-6436715D01*
X953008Y-6491071D01*
X1333601Y-6491071D01*
X1333601Y-6646418D01*
X1007364Y-6646418D01*
X1007364Y-6491071D01*
X953008Y-6491071D01*
X953008Y-6553200D01*
X875334Y-6553200D01*
X875334Y-6351270D01*
X820978Y-6351270D01*
X821182Y-6501282D01*
X821486Y-6520688D01*
X822045Y-6536385D01*
X822909Y-6548932D01*
X824128Y-6558788D01*
X825753Y-6566509D01*
X826719Y-6569709D01*
X829106Y-6575196D01*
X832103Y-6579819D01*
X835710Y-6584086D01*
X843940Y-6592265D01*
X847750Y-6595465D01*
X851560Y-6598259D01*
X855522Y-6600596D01*
X859688Y-6602475D01*
X864260Y-6604050D01*
X869289Y-6605270D01*
X874928Y-6606184D01*
X881329Y-6606844D01*
X896772Y-6607505D01*
X953008Y-6607556D01*
X953008Y-6633311D01*
X953262Y-6639001D01*
X954074Y-6644640D01*
X955344Y-6650177D01*
X957122Y-6655511D01*
X959358Y-6660692D01*
X961999Y-6665671D01*
X965047Y-6670395D01*
X968502Y-6674866D01*
X972312Y-6679082D01*
X976477Y-6682943D01*
X980948Y-6686448D01*
X985723Y-6689648D01*
X990752Y-6692392D01*
X996035Y-6694728D01*
X1001521Y-6696608D01*
X1013307Y-6699503D01*
X1018336Y-6701383D01*
X1022451Y-6703771D01*
X1025855Y-6706819D01*
X1027393Y-6709054D01*
X1085037Y-6709054D01*
X1085392Y-6708089D01*
X1086459Y-6707174D01*
X1088186Y-6706311D01*
X1093724Y-6704736D01*
X1101953Y-6703466D01*
X1112774Y-6702399D01*
X1126185Y-6701637D01*
X1142085Y-6701078D01*
X1182776Y-6700774D01*
X1203960Y-6701028D01*
X1220825Y-6701536D01*
X1233830Y-6702399D01*
X1243431Y-6703618D01*
X1247038Y-6704431D01*
X1249984Y-6705346D01*
X1252270Y-6706362D01*
X1253947Y-6707530D01*
X1255064Y-6708800D01*
X1255725Y-6710273D01*
X1255928Y-6711848D01*
X1255725Y-6715709D01*
X1255217Y-6719265D01*
X1254302Y-6722618D01*
X1253032Y-6725716D01*
X1251305Y-6728561D01*
X1249172Y-6731203D01*
X1246632Y-6733590D01*
X1243584Y-6735775D01*
X1240129Y-6737756D01*
X1236167Y-6739534D01*
X1231646Y-6741109D01*
X1226667Y-6742480D01*
X1221181Y-6743700D01*
X1215085Y-6744716D01*
X1201267Y-6746240D01*
X1185062Y-6747103D01*
X1166317Y-6747357D01*
X1141780Y-6747154D01*
X1123746Y-6746392D01*
X1116838Y-6745681D01*
X1111148Y-6744766D01*
X1106424Y-6743547D01*
X1102614Y-6742023D01*
X1099515Y-6740194D01*
X1097026Y-6738010D01*
X1094892Y-6735368D01*
X1093063Y-6732371D01*
X1089964Y-6725869D01*
X1087424Y-6719316D01*
X1085697Y-6713474D01*
X1085037Y-6709054D01*
X1027393Y-6709054D01*
X1028547Y-6710730D01*
X1030782Y-6715556D01*
X1032611Y-6721551D01*
X1035761Y-6735114D01*
X1038047Y-6741414D01*
X1041095Y-6747662D01*
X1044752Y-6753758D01*
X1049121Y-6759752D01*
X1054100Y-6765544D01*
X1059738Y-6771131D01*
X1076960Y-6785559D01*
X1081074Y-6789572D01*
X1084427Y-6793534D01*
X1087069Y-6797649D01*
X1089101Y-6802170D01*
X1090574Y-6807301D01*
X1091590Y-6813296D01*
X1092250Y-6820357D01*
X1092609Y-6828942D01*
X1147165Y-6828942D01*
X1147318Y-6820560D01*
X1147826Y-6814108D01*
X1148892Y-6809333D01*
X1150772Y-6805930D01*
X1153668Y-6803745D01*
X1157782Y-6802475D01*
X1163320Y-6801866D01*
X1177645Y-6801866D01*
X1183182Y-6802475D01*
X1187297Y-6803745D01*
X1190193Y-6805930D01*
X1192072Y-6809333D01*
X1193139Y-6814108D01*
X1193647Y-6820560D01*
X1193800Y-6828942D01*
X1193647Y-6837273D01*
X1193139Y-6843725D01*
X1192072Y-6848551D01*
X1190193Y-6851903D01*
X1187297Y-6854088D01*
X1183182Y-6855409D01*
X1177645Y-6855968D01*
X1170482Y-6856120D01*
X1163320Y-6855968D01*
X1157782Y-6855409D01*
X1153668Y-6854088D01*
X1150772Y-6851903D01*
X1148892Y-6848551D01*
X1147826Y-6843725D01*
X1147318Y-6837273D01*
X1147165Y-6828942D01*
X1092609Y-6828942D01*
X1092809Y-6850278D01*
X1092809Y-6902703D01*
X1115669Y-6902703D01*
X1122019Y-6902907D01*
X1127607Y-6903567D01*
X1132382Y-6904634D01*
X1136446Y-6906158D01*
X1139748Y-6908190D01*
X1142339Y-6910730D01*
X1144270Y-6913829D01*
X1145438Y-6917436D01*
X1145997Y-6921703D01*
X1145946Y-6926529D01*
X1145184Y-6931964D01*
X1143863Y-6938111D01*
X1139139Y-6957059D01*
X773176Y-6957059D01*
X750468Y-6979767D01*
X745439Y-6985152D01*
X741070Y-6990638D01*
X737311Y-6996226D01*
X734212Y-7001865D01*
X731723Y-7007555D01*
X729894Y-7013295D01*
X728675Y-7019036D01*
X728116Y-7024878D01*
X728167Y-7030720D01*
X728878Y-7036562D01*
X730199Y-7042403D01*
X732180Y-7048195D01*
X734822Y-7054037D01*
X738073Y-7059777D01*
X741984Y-7065518D01*
X746506Y-7071207D01*
X765251Y-7093000D01*
X1515770Y-7096150D01*
X1604518Y-7096759D01*
X1673098Y-7097522D01*
X1724202Y-7098487D01*
X1760321Y-7099808D01*
X1773631Y-7100620D01*
X1784146Y-7101535D01*
X1792224Y-7102602D01*
X1798167Y-7103770D01*
X1802282Y-7105091D01*
X1804974Y-7106564D01*
X1806498Y-7108190D01*
X1807210Y-7110018D01*
X1807362Y-7112609D01*
X1807210Y-7115860D01*
X1806651Y-7118654D01*
X1805482Y-7120991D01*
X1803450Y-7122871D01*
X1800402Y-7124446D01*
X1796186Y-7125614D01*
X1790496Y-7126478D01*
X1783232Y-7127138D01*
X1763014Y-7127798D01*
X1707083Y-7128154D01*
X1687118Y-7128916D01*
X1679346Y-7129576D01*
X1672843Y-7130440D01*
X1667510Y-7131558D01*
X1663192Y-7132878D01*
X1659737Y-7134555D01*
X1656994Y-7136485D01*
X1654810Y-7138720D01*
X1653082Y-7141362D01*
X1650390Y-7147966D01*
X1649475Y-7154824D01*
X1650339Y-7161784D01*
X1652981Y-7168540D01*
X1654251Y-7170623D01*
X1655724Y-7172502D01*
X1657451Y-7174179D01*
X1659534Y-7175652D01*
X1662074Y-7176973D01*
X1665071Y-7178090D01*
X1668627Y-7179056D01*
X1672843Y-7179868D01*
X1683359Y-7181088D01*
X1697228Y-7181850D01*
X1714957Y-7182205D01*
X1749806Y-7182307D01*
X1771040Y-7182053D01*
X1787652Y-7181443D01*
X1800555Y-7180173D01*
X1805939Y-7179259D01*
X1810715Y-7178141D01*
X1815033Y-7176770D01*
X1819046Y-7175144D01*
X1822805Y-7173214D01*
X1826412Y-7171029D01*
X1833829Y-7165543D01*
X1837842Y-7162241D01*
X1842414Y-7158075D01*
X1846478Y-7153757D01*
X1850136Y-7149236D01*
X1853285Y-7144562D01*
X1856028Y-7139686D01*
X1858264Y-7134758D01*
X1860092Y-7129678D01*
X1861464Y-7124547D01*
X1862328Y-7119366D01*
X1862785Y-7114133D01*
X1862785Y-7108901D01*
X1862277Y-7103668D01*
X1861362Y-7098487D01*
X1859940Y-7093407D01*
X1858060Y-7088378D01*
X1855724Y-7083450D01*
X1852930Y-7078624D01*
X1849628Y-7074001D01*
X1845919Y-7069531D01*
X1841703Y-7065213D01*
X1821688Y-7046417D01*
X1074674Y-7043267D01*
X986536Y-7042658D01*
X918108Y-7041896D01*
X866952Y-7040930D01*
X830580Y-7039609D01*
X817118Y-7038848D01*
X806399Y-7037933D01*
X798118Y-7036917D01*
X791972Y-7035749D01*
X787654Y-7034479D01*
X784809Y-7033056D01*
X783132Y-7031431D01*
X782370Y-7029703D01*
X782167Y-7025894D01*
X782472Y-7023557D01*
X783386Y-7021423D01*
X785012Y-7019594D01*
X787704Y-7018020D01*
X791667Y-7016648D01*
X797102Y-7015480D01*
X804316Y-7014464D01*
X813460Y-7013600D01*
X838708Y-7012279D01*
X874674Y-7011314D01*
X923290Y-7010501D01*
X1156309Y-7007555D01*
X1175054Y-6985762D01*
X1179576Y-6980072D01*
X1183436Y-6974230D01*
X1186688Y-6968134D01*
X1189278Y-6961835D01*
X1191260Y-6955281D01*
X1192682Y-6948373D01*
X1193495Y-6941058D01*
X1193800Y-6933336D01*
X1193850Y-6923481D01*
X1194308Y-6915962D01*
X1195425Y-6910527D01*
X1197457Y-6906869D01*
X1200759Y-6904532D01*
X1205534Y-6903313D01*
X1212189Y-6902805D01*
X1248156Y-6902703D01*
X1248206Y-6838289D01*
X1248714Y-6820204D01*
X1249324Y-6813194D01*
X1250238Y-6807250D01*
X1251559Y-6802221D01*
X1253337Y-6797903D01*
X1255623Y-6794093D01*
X1258468Y-6790588D01*
X1261973Y-6787184D01*
X1266139Y-6783679D01*
X1271168Y-6779920D01*
X1276146Y-6775703D01*
X1281125Y-6770776D01*
X1285849Y-6765137D01*
X1290320Y-6758940D01*
X1294384Y-6752386D01*
X1297990Y-6745630D01*
X1301038Y-6738721D01*
X1305966Y-6724142D01*
X1308557Y-6717588D01*
X1311198Y-6712254D01*
X1314043Y-6707987D01*
X1317040Y-6704736D01*
X1320292Y-6702501D01*
X1323848Y-6701180D01*
X1332280Y-6700316D01*
X1337106Y-6698945D01*
X1342085Y-6696709D01*
X1347165Y-6693814D01*
X1352245Y-6690258D01*
X1357274Y-6686092D01*
X1362151Y-6681470D01*
X1366774Y-6676440D01*
X1371142Y-6671106D01*
X1375206Y-6665468D01*
X1378813Y-6659727D01*
X1381912Y-6653885D01*
X1384452Y-6648094D01*
X1386332Y-6642353D01*
X1387551Y-6636766D01*
X1387957Y-6631482D01*
X1388160Y-6621424D01*
X1388668Y-6617665D01*
X1389583Y-6614668D01*
X1391107Y-6612331D01*
X1393393Y-6610603D01*
X1396593Y-6609334D01*
X1400810Y-6608470D01*
X1406245Y-6607962D01*
X1421282Y-6607606D01*
X1436624Y-6607556D01*
X1446885Y-6607302D01*
X1456232Y-6606794D01*
X1464767Y-6605828D01*
X1472539Y-6604457D01*
X1479499Y-6602526D01*
X1485798Y-6599936D01*
X1488694Y-6598412D01*
X1493977Y-6594754D01*
X1496364Y-6592620D01*
X1500733Y-6587642D01*
X1504543Y-6581800D01*
X1507794Y-6574891D01*
X1510588Y-6566865D01*
X1512925Y-6557619D01*
X1514856Y-6547154D01*
X1516380Y-6535318D01*
X1517599Y-6522059D01*
X1518513Y-6507276D01*
X1519174Y-6490919D01*
X1519885Y-6453124D01*
X1519986Y-6296914D01*
G37*
G36*
X1086256Y-6545427D02*
G01*
X1079703Y-6546342D01*
X1072946Y-6548831D01*
X1066647Y-6552539D01*
X1061770Y-6557060D01*
X1059230Y-6560870D01*
X1057808Y-6564782D01*
X1057300Y-6568744D01*
X1057706Y-6572656D01*
X1058976Y-6576466D01*
X1061008Y-6580073D01*
X1063802Y-6583324D01*
X1067206Y-6586220D01*
X1071270Y-6588607D01*
X1075791Y-6590487D01*
X1080820Y-6591604D01*
X1086256Y-6592011D01*
X1092098Y-6591249D01*
X1097229Y-6589064D01*
X1101445Y-6585661D01*
X1104646Y-6581190D01*
X1106779Y-6575907D01*
X1107744Y-6570014D01*
X1107338Y-6563664D01*
X1105560Y-6557060D01*
X1102614Y-6552539D01*
X1098042Y-6548831D01*
X1092352Y-6546342D01*
G37*
G36*
X1302512Y-6762902D02*
G01*
X1302512Y-6927189D01*
X1341374Y-6927189D01*
X1341526Y-6918401D01*
X1341932Y-6910171D01*
X1342593Y-6902653D01*
X1343558Y-6895795D01*
X1344777Y-6889648D01*
X1346200Y-6884162D01*
X1347825Y-6879488D01*
X1349705Y-6875525D01*
X1351788Y-6872325D01*
X1354023Y-6869938D01*
X1356512Y-6868363D01*
X1359103Y-6867601D01*
X1361897Y-6867753D01*
X1364792Y-6868718D01*
X1367891Y-6870598D01*
X1371041Y-6873392D01*
X1372920Y-6876084D01*
X1374597Y-6879996D01*
X1376070Y-6885025D01*
X1377289Y-6891020D01*
X1378254Y-6897725D01*
X1379575Y-6912711D01*
X1379880Y-6928612D01*
X1379677Y-6936486D01*
X1379220Y-6944055D01*
X1378508Y-6951218D01*
X1377543Y-6957720D01*
X1376324Y-6963460D01*
X1374851Y-6968185D01*
X1373073Y-6971792D01*
X1369466Y-6975652D01*
X1364589Y-6978040D01*
X1359154Y-6978853D01*
X1353769Y-6977888D01*
X1350568Y-6976109D01*
X1347876Y-6973316D01*
X1345692Y-6969455D01*
X1344015Y-6964273D01*
X1342796Y-6957618D01*
X1341983Y-6949338D01*
X1341526Y-6939280D01*
X1341374Y-6927189D01*
X1302512Y-6927189D01*
X1302512Y-7011924D01*
X1333144Y-7010958D01*
X1344523Y-7011416D01*
X1355547Y-7012482D01*
X1364894Y-7014108D01*
X1373073Y-7016292D01*
X1377289Y-7017054D01*
X1381252Y-7017359D01*
X1385011Y-7017105D01*
X1388465Y-7016394D01*
X1391716Y-7015175D01*
X1394764Y-7013397D01*
X1397558Y-7011111D01*
X1400098Y-7008266D01*
X1402486Y-7004862D01*
X1404620Y-7000900D01*
X1406601Y-6996328D01*
X1408379Y-6991146D01*
X1410004Y-6985355D01*
X1411427Y-6978954D01*
X1412697Y-6971944D01*
X1414729Y-6955942D01*
X1416202Y-6937298D01*
X1417066Y-6918604D01*
X1417269Y-6902145D01*
X1416761Y-6887921D01*
X1415491Y-6875729D01*
X1414526Y-6870395D01*
X1413357Y-6865518D01*
X1411935Y-6861098D01*
X1410309Y-6857085D01*
X1408430Y-6853529D01*
X1406296Y-6850329D01*
X1403959Y-6847586D01*
X1401318Y-6845147D01*
X1398422Y-6843115D01*
X1395272Y-6841439D01*
X1391818Y-6840067D01*
X1388059Y-6839000D01*
X1384046Y-6838238D01*
X1379677Y-6837730D01*
X1375054Y-6837527D01*
X1341374Y-6838492D01*
X1341272Y-6788962D01*
X1340866Y-6779971D01*
X1339951Y-6773316D01*
X1338427Y-6768642D01*
X1336040Y-6765594D01*
X1332585Y-6763867D01*
X1327962Y-6763105D01*
X1321968Y-6762902D01*
G37*
G36*
X1461770Y-6762902D02*
G01*
X1452727Y-6763715D01*
X1446682Y-6766407D01*
X1443380Y-6771233D01*
X1442313Y-6778447D01*
X1443380Y-6785660D01*
X1446682Y-6790486D01*
X1452727Y-6793128D01*
X1461770Y-6793992D01*
X1470812Y-6793128D01*
X1476806Y-6790486D01*
X1480108Y-6785660D01*
X1481175Y-6778447D01*
X1480108Y-6771233D01*
X1476806Y-6766407D01*
X1470812Y-6763715D01*
G37*
G36*
X1842871Y-6762902D02*
G01*
X1826920Y-6763207D01*
X1820418Y-6763613D01*
X1814728Y-6764274D01*
X1809750Y-6765239D01*
X1805381Y-6766509D01*
X1801418Y-6768185D01*
X1797862Y-6770217D01*
X1794510Y-6772757D01*
X1791258Y-6775754D01*
X1788007Y-6779259D01*
X1782165Y-6786676D01*
X1779930Y-6789978D01*
X1777949Y-6793382D01*
X1776222Y-6796938D01*
X1774698Y-6800748D01*
X1773377Y-6804964D01*
X1772259Y-6809638D01*
X1771345Y-6814820D01*
X1769922Y-6827316D01*
X1769110Y-6843115D01*
X1768690Y-6860438D01*
X1808530Y-6860438D01*
X1808632Y-6843725D01*
X1809140Y-6830110D01*
X1810054Y-6819341D01*
X1810664Y-6814921D01*
X1812239Y-6807962D01*
X1813204Y-6805320D01*
X1814271Y-6803237D01*
X1815490Y-6801662D01*
X1816811Y-6800545D01*
X1822348Y-6797497D01*
X1827733Y-6795516D01*
X1832864Y-6794500D01*
X1837639Y-6794500D01*
X1841906Y-6795465D01*
X1845564Y-6797446D01*
X1848510Y-6800342D01*
X1850643Y-6804202D01*
X1851355Y-6807911D01*
X1851964Y-6814566D01*
X1852726Y-6835241D01*
X1852879Y-6863181D01*
X1852320Y-6895490D01*
X1851558Y-6922109D01*
X1850745Y-6942175D01*
X1850237Y-6949998D01*
X1848866Y-6961936D01*
X1847900Y-6966254D01*
X1846783Y-6969607D01*
X1845462Y-6972147D01*
X1843836Y-6973976D01*
X1841906Y-6975195D01*
X1839671Y-6975957D01*
X1834083Y-6976465D01*
X1824278Y-6976313D01*
X1821688Y-6975906D01*
X1819452Y-6975144D01*
X1817522Y-6973874D01*
X1815896Y-6971995D01*
X1814525Y-6969353D01*
X1813407Y-6965848D01*
X1812493Y-6961378D01*
X1811731Y-6955739D01*
X1810613Y-6940651D01*
X1809800Y-6919671D01*
X1808581Y-6869988D01*
X1808530Y-6860438D01*
X1768690Y-6860438D01*
X1768551Y-6874764D01*
X1768652Y-6913321D01*
X1769059Y-6933539D01*
X1769922Y-6949287D01*
X1770532Y-6955790D01*
X1771345Y-6961479D01*
X1772361Y-6966508D01*
X1773529Y-6970979D01*
X1774952Y-6974941D01*
X1776628Y-6978599D01*
X1778558Y-6982002D01*
X1783232Y-6988505D01*
X1789328Y-6995414D01*
X1792782Y-6998665D01*
X1796338Y-7001560D01*
X1800148Y-7004151D01*
X1804212Y-7006488D01*
X1808581Y-7008571D01*
X1813356Y-7010400D01*
X1818487Y-7011974D01*
X1824126Y-7013397D01*
X1836978Y-7015683D01*
X1885035Y-7021372D01*
X1885035Y-6762902D01*
G37*
G36*
X1509369Y-6832701D02*
G01*
X1504645Y-6832904D01*
X1502816Y-6833311D01*
X1501292Y-6834022D01*
X1500174Y-6835190D01*
X1499362Y-6836816D01*
X1498955Y-6839000D01*
X1498904Y-6841896D01*
X1499209Y-6845503D01*
X1500987Y-6855358D01*
X1504238Y-6869226D01*
X1515414Y-6911797D01*
X1528724Y-6960920D01*
X1533753Y-6977583D01*
X1538173Y-6989775D01*
X1540256Y-6994448D01*
X1542237Y-6998208D01*
X1544269Y-7001205D01*
X1546352Y-7003491D01*
X1548485Y-7005167D01*
X1550771Y-7006336D01*
X1553210Y-7007098D01*
X1555851Y-7007453D01*
X1561642Y-7007453D01*
X1564284Y-7007098D01*
X1566722Y-7006336D01*
X1569008Y-7005167D01*
X1571142Y-7003491D01*
X1573225Y-7001154D01*
X1575257Y-6998157D01*
X1577289Y-6994398D01*
X1579372Y-6989775D01*
X1581556Y-6984187D01*
X1586280Y-6969810D01*
X1591868Y-6950659D01*
X1603044Y-6909511D01*
X1616913Y-6855866D01*
X1620774Y-6838645D01*
X1619402Y-6836359D01*
X1615440Y-6834530D01*
X1609598Y-6833260D01*
X1602384Y-6832803D01*
X1598523Y-6832955D01*
X1595120Y-6833412D01*
X1592173Y-6834327D01*
X1589582Y-6835851D01*
X1587296Y-6838035D01*
X1585214Y-6841083D01*
X1583334Y-6845046D01*
X1581505Y-6850075D01*
X1579727Y-6856323D01*
X1575917Y-6872782D01*
X1571650Y-6893458D01*
X1569415Y-6902907D01*
X1564843Y-6918959D01*
X1562658Y-6925106D01*
X1560677Y-6929780D01*
X1558899Y-6932777D01*
X1557426Y-6933793D01*
X1554937Y-6932879D01*
X1552956Y-6930491D01*
X1551584Y-6926884D01*
X1550873Y-6919468D01*
X1549603Y-6909511D01*
X1547368Y-6895846D01*
X1544370Y-6880148D01*
X1540052Y-6860590D01*
X1537614Y-6851548D01*
X1535125Y-6844690D01*
X1532432Y-6839661D01*
X1529283Y-6836257D01*
X1525574Y-6834174D01*
X1521002Y-6833108D01*
G37*
G36*
X1442313Y-6832803D02*
G01*
X1442313Y-7011466D01*
X1481175Y-7011466D01*
X1481175Y-6832803D01*
G37*
G36*
X1684528Y-6833006D02*
G01*
X1679549Y-6833311D01*
X1674622Y-6834124D01*
X1669846Y-6835394D01*
X1665173Y-6837172D01*
X1660702Y-6839407D01*
X1656384Y-6842150D01*
X1652320Y-6845401D01*
X1648460Y-6849109D01*
X1644853Y-6853275D01*
X1640230Y-6859676D01*
X1638300Y-6862978D01*
X1635099Y-6869988D01*
X1633778Y-6873849D01*
X1631696Y-6882688D01*
X1630273Y-6893509D01*
X1629359Y-6906717D01*
X1628851Y-6923024D01*
X1628749Y-6956450D01*
X1667560Y-6956450D01*
X1668170Y-6948373D01*
X1669897Y-6942023D01*
X1672589Y-6937451D01*
X1676196Y-6934708D01*
X1680565Y-6933844D01*
X1685543Y-6934911D01*
X1691132Y-6938009D01*
X1697075Y-6943090D01*
X1701088Y-6948119D01*
X1703882Y-6953707D01*
X1705559Y-6959650D01*
X1706067Y-6965543D01*
X1705457Y-6971131D01*
X1703679Y-6975957D01*
X1700733Y-6979818D01*
X1696720Y-6982307D01*
X1690268Y-6984034D01*
X1684528Y-6984238D01*
X1679549Y-6983018D01*
X1675333Y-6980377D01*
X1672031Y-6976364D01*
X1669592Y-6970979D01*
X1668068Y-6964324D01*
X1667560Y-6956450D01*
X1628749Y-6956450D01*
X1628749Y-7011924D01*
X1659382Y-7010958D01*
X1670710Y-7011416D01*
X1681784Y-7012482D01*
X1691132Y-7014108D01*
X1699514Y-7016242D01*
X1704136Y-7016750D01*
X1708607Y-7016597D01*
X1712874Y-7015835D01*
X1716887Y-7014514D01*
X1720697Y-7012584D01*
X1724253Y-7010095D01*
X1727555Y-7007047D01*
X1730502Y-7003542D01*
X1733143Y-6999528D01*
X1735480Y-6995058D01*
X1737410Y-6990130D01*
X1738934Y-6984796D01*
X1740052Y-6979107D01*
X1740763Y-6973011D01*
X1741017Y-6966610D01*
X1740865Y-6959447D01*
X1740357Y-6952843D01*
X1739493Y-6946798D01*
X1738274Y-6941210D01*
X1736750Y-6936130D01*
X1734820Y-6931507D01*
X1732534Y-6927392D01*
X1729841Y-6923735D01*
X1726793Y-6920585D01*
X1723288Y-6917842D01*
X1719427Y-6915556D01*
X1715160Y-6913727D01*
X1710486Y-6912305D01*
X1705356Y-6911289D01*
X1699818Y-6910679D01*
X1686153Y-6910324D01*
X1680108Y-6909816D01*
X1675485Y-6908800D01*
X1672132Y-6907123D01*
X1669846Y-6904634D01*
X1668475Y-6901230D01*
X1667764Y-6896760D01*
X1667560Y-6891070D01*
X1668373Y-6882130D01*
X1671015Y-6876084D01*
X1675688Y-6872731D01*
X1682648Y-6871665D01*
X1688896Y-6872274D01*
X1694688Y-6873951D01*
X1699463Y-6876389D01*
X1705559Y-6882434D01*
X1710334Y-6884873D01*
X1716176Y-6886549D01*
X1722424Y-6887159D01*
X1727149Y-6886651D01*
X1731010Y-6885127D01*
X1733956Y-6882688D01*
X1735988Y-6879590D01*
X1737106Y-6875881D01*
X1737309Y-6871766D01*
X1736648Y-6867296D01*
X1735074Y-6862622D01*
X1732686Y-6857949D01*
X1729384Y-6853326D01*
X1725218Y-6848906D01*
X1720189Y-6844893D01*
X1715211Y-6841693D01*
X1710131Y-6838950D01*
X1705000Y-6836765D01*
X1699869Y-6835089D01*
X1694738Y-6833870D01*
X1689607Y-6833209D01*
G37*
G36*
X1177137Y-7121499D02*
G01*
X1174343Y-7122414D01*
X1172464Y-7124598D01*
X1171295Y-7128154D01*
X1170635Y-7133132D01*
X1170482Y-7139584D01*
X1171295Y-7148626D01*
X1173988Y-7154672D01*
X1178763Y-7157974D01*
X1186027Y-7159040D01*
X1191920Y-7157872D01*
X1196594Y-7154672D01*
X1199845Y-7150100D01*
X1201572Y-7144664D01*
X1201775Y-7138873D01*
X1200251Y-7133386D01*
X1197000Y-7128662D01*
X1191869Y-7125360D01*
X1185722Y-7123074D01*
X1180846Y-7121753D01*
G37*
G36*
X1514195Y-7127951D02*
G01*
X1507388Y-7128306D01*
X1501851Y-7129170D01*
X1498092Y-7130491D01*
X1496720Y-7132066D01*
X1497177Y-7133793D01*
X1500632Y-7142175D01*
X1506880Y-7155586D01*
X1515110Y-7172502D01*
X1542745Y-7227366D01*
X1510233Y-7307935D01*
X1501241Y-7330948D01*
X1494993Y-7348270D01*
X1492859Y-7355027D01*
X1491437Y-7360666D01*
X1490624Y-7365238D01*
X1490421Y-7368844D01*
X1490878Y-7371588D01*
X1491945Y-7373569D01*
X1493621Y-7374839D01*
X1495856Y-7375550D01*
X1498701Y-7375753D01*
X1502105Y-7375601D01*
X1506067Y-7375093D01*
X1509318Y-7374381D01*
X1512366Y-7373162D01*
X1515313Y-7371435D01*
X1518158Y-7368997D01*
X1521002Y-7365949D01*
X1523796Y-7362139D01*
X1526692Y-7357516D01*
X1529638Y-7352030D01*
X1535938Y-7338263D01*
X1550924Y-7300061D01*
X1554073Y-7292492D01*
X1556816Y-7286498D01*
X1559204Y-7281925D01*
X1561338Y-7278776D01*
X1563268Y-7276846D01*
X1565046Y-7276134D01*
X1566824Y-7276490D01*
X1568602Y-7277862D01*
X1570482Y-7280148D01*
X1572564Y-7283297D01*
X1574495Y-7287158D01*
X1576273Y-7292289D01*
X1577898Y-7298537D01*
X1579321Y-7305548D01*
X1580489Y-7313218D01*
X1581404Y-7321245D01*
X1581962Y-7329424D01*
X1582216Y-7349693D01*
X1582623Y-7358989D01*
X1583486Y-7365847D01*
X1585061Y-7370673D01*
X1587449Y-7373772D01*
X1590852Y-7375550D01*
X1595526Y-7376312D01*
X1601571Y-7376515D01*
X1620977Y-7376515D01*
X1620977Y-7127951D01*
X1597253Y-7128002D01*
X1593596Y-7128306D01*
X1590598Y-7129018D01*
X1588160Y-7130338D01*
X1586230Y-7132320D01*
X1584706Y-7135215D01*
X1583588Y-7139178D01*
X1582775Y-7144308D01*
X1582216Y-7150862D01*
X1581607Y-7168743D01*
X1580642Y-7232802D01*
X1551482Y-7170572D01*
X1543304Y-7154519D01*
X1536293Y-7142886D01*
X1533042Y-7138466D01*
X1529943Y-7134961D01*
X1526895Y-7132269D01*
X1523898Y-7130288D01*
X1520799Y-7128967D01*
X1517548Y-7128205D01*
G37*
G36*
X1395730Y-7135723D02*
G01*
X1388922Y-7136688D01*
X1384096Y-7139584D01*
X1381150Y-7144461D01*
X1380185Y-7151268D01*
X1381150Y-7158075D01*
X1384096Y-7162901D01*
X1388922Y-7165797D01*
X1395730Y-7166813D01*
X1402537Y-7165797D01*
X1407363Y-7162901D01*
X1410309Y-7158075D01*
X1411274Y-7151268D01*
X1410309Y-7144461D01*
X1407363Y-7139584D01*
X1402537Y-7136688D01*
G37*
G36*
X1453997Y-7135723D02*
G01*
X1444955Y-7136536D01*
X1438910Y-7139228D01*
X1435608Y-7144003D01*
X1434541Y-7151268D01*
X1435608Y-7158481D01*
X1438910Y-7163308D01*
X1444955Y-7165949D01*
X1453997Y-7166813D01*
X1463040Y-7165949D01*
X1469034Y-7163308D01*
X1472387Y-7158481D01*
X1473403Y-7151268D01*
X1472387Y-7144003D01*
X1469034Y-7139228D01*
X1463040Y-7136536D01*
G37*
G36*
X611276Y-7190079D02*
G01*
X607618Y-7190486D01*
X603453Y-7191603D01*
X598932Y-7193381D01*
X594207Y-7195667D01*
X589381Y-7198512D01*
X584657Y-7201763D01*
X580136Y-7205319D01*
X572871Y-7212330D01*
X567690Y-7218425D01*
X565607Y-7221474D01*
X563778Y-7224775D01*
X562203Y-7228281D01*
X560933Y-7232192D01*
X559866Y-7236561D01*
X558292Y-7247178D01*
X557428Y-7260945D01*
X556971Y-7278624D01*
X556920Y-7310678D01*
X596747Y-7310678D01*
X598017Y-7304024D01*
X601065Y-7300112D01*
X605891Y-7298842D01*
X611835Y-7299706D01*
X617321Y-7302093D01*
X622147Y-7305700D01*
X626160Y-7310323D01*
X629107Y-7315657D01*
X630834Y-7321448D01*
X631139Y-7327392D01*
X629818Y-7333183D01*
X627634Y-7337602D01*
X624941Y-7340803D01*
X621893Y-7342987D01*
X618591Y-7344054D01*
X615137Y-7344105D01*
X611682Y-7343190D01*
X608330Y-7341362D01*
X605180Y-7338669D01*
X602335Y-7335164D01*
X599998Y-7330846D01*
X598220Y-7325817D01*
X597154Y-7320127D01*
X596747Y-7310678D01*
X556920Y-7310678D01*
X556920Y-7373975D01*
X613054Y-7374432D01*
X621487Y-7374178D01*
X628954Y-7373620D01*
X635609Y-7372705D01*
X641400Y-7371435D01*
X646480Y-7369708D01*
X650798Y-7367524D01*
X654456Y-7364831D01*
X657453Y-7361580D01*
X659942Y-7357719D01*
X661873Y-7353198D01*
X663397Y-7347966D01*
X664413Y-7341971D01*
X665124Y-7335266D01*
X665530Y-7327646D01*
X665632Y-7319213D01*
X665378Y-7313625D01*
X664667Y-7308291D01*
X663448Y-7303211D01*
X661771Y-7298385D01*
X659688Y-7293864D01*
X657199Y-7289596D01*
X654304Y-7285685D01*
X651052Y-7282129D01*
X647446Y-7278928D01*
X643432Y-7276033D01*
X639165Y-7273594D01*
X634542Y-7271562D01*
X629666Y-7269937D01*
X624484Y-7268718D01*
X619048Y-7268006D01*
X613410Y-7267752D01*
X604875Y-7266838D01*
X599440Y-7263688D01*
X596544Y-7257694D01*
X595731Y-7248347D01*
X596493Y-7241590D01*
X598627Y-7236104D01*
X601827Y-7232040D01*
X605739Y-7229398D01*
X610108Y-7228433D01*
X614629Y-7229246D01*
X618998Y-7231989D01*
X622909Y-7236714D01*
X626567Y-7240066D01*
X632256Y-7242454D01*
X639216Y-7243825D01*
X646684Y-7244283D01*
X653796Y-7243724D01*
X659841Y-7242200D01*
X664057Y-7239762D01*
X665632Y-7236358D01*
X664108Y-7231684D01*
X660044Y-7225030D01*
X653948Y-7217206D01*
X646582Y-7209180D01*
X642416Y-7205319D01*
X637895Y-7201763D01*
X633120Y-7198512D01*
X628345Y-7195718D01*
X623570Y-7193381D01*
X619048Y-7191603D01*
X614934Y-7190486D01*
G37*
G36*
X370992Y-7190282D02*
G01*
X364998Y-7190384D01*
X359867Y-7191603D01*
X356311Y-7194042D01*
X354939Y-7197699D01*
X353669Y-7200290D01*
X350062Y-7201052D01*
X344220Y-7199884D01*
X327101Y-7193483D01*
X318516Y-7192416D01*
X310184Y-7193686D01*
X301548Y-7197344D01*
X296468Y-7200493D01*
X294335Y-7202271D01*
X292506Y-7204405D01*
X290931Y-7206894D01*
X289610Y-7209891D01*
X288493Y-7213498D01*
X287578Y-7217816D01*
X286816Y-7222998D01*
X285800Y-7236206D01*
X285242Y-7254087D01*
X285038Y-7305497D01*
X285242Y-7328916D01*
X285699Y-7346543D01*
X286664Y-7359192D01*
X287324Y-7363917D01*
X288188Y-7367676D01*
X289255Y-7370622D01*
X290525Y-7372858D01*
X291998Y-7374432D01*
X293725Y-7375499D01*
X295706Y-7376109D01*
X300583Y-7376515D01*
X303885Y-7376363D01*
X306679Y-7375855D01*
X309016Y-7374788D01*
X310946Y-7372959D01*
X312521Y-7370267D01*
X313740Y-7366558D01*
X314655Y-7361580D01*
X315315Y-7355179D01*
X315772Y-7347254D01*
X316179Y-7326071D01*
X316331Y-7300112D01*
X317042Y-7278776D01*
X317601Y-7269683D01*
X318414Y-7261656D01*
X319430Y-7254595D01*
X320598Y-7248499D01*
X322021Y-7243318D01*
X323697Y-7239050D01*
X325577Y-7235596D01*
X327710Y-7233005D01*
X330098Y-7231227D01*
X332790Y-7230211D01*
X335737Y-7229906D01*
X338988Y-7230364D01*
X342544Y-7231430D01*
X344881Y-7232650D01*
X346964Y-7234377D01*
X348742Y-7236764D01*
X350266Y-7239914D01*
X351485Y-7243978D01*
X352552Y-7249007D01*
X353364Y-7255154D01*
X354431Y-7271308D01*
X354888Y-7293356D01*
X355295Y-7346950D01*
X355701Y-7355738D01*
X356362Y-7362596D01*
X357327Y-7367727D01*
X358597Y-7371384D01*
X360324Y-7373772D01*
X362508Y-7375144D01*
X365201Y-7375652D01*
X368503Y-7375601D01*
X375361Y-7374636D01*
X377952Y-7374026D01*
X380238Y-7373162D01*
X382219Y-7371943D01*
X383946Y-7370267D01*
X385419Y-7368031D01*
X386689Y-7365136D01*
X387756Y-7361478D01*
X389382Y-7351369D01*
X390499Y-7336942D01*
X391363Y-7317282D01*
X392480Y-7275118D01*
X392684Y-7244588D01*
X392226Y-7219950D01*
X391769Y-7210704D01*
X391160Y-7204049D01*
X390448Y-7200341D01*
X387604Y-7196378D01*
X382981Y-7193330D01*
X377240Y-7191298D01*
G37*
G36*
X805027Y-7190435D02*
G01*
X800760Y-7190486D01*
X796442Y-7191400D01*
X792124Y-7193178D01*
X787908Y-7195769D01*
X783894Y-7199223D01*
X778560Y-7203135D01*
X772363Y-7204354D01*
X764540Y-7202982D01*
X747725Y-7196328D01*
X741375Y-7194499D01*
X735279Y-7193483D01*
X729437Y-7193280D01*
X723900Y-7193788D01*
X718718Y-7195108D01*
X713892Y-7197140D01*
X709472Y-7199985D01*
X705459Y-7203490D01*
X701903Y-7207758D01*
X698804Y-7212736D01*
X696264Y-7218425D01*
X694791Y-7223709D01*
X693420Y-7231380D01*
X692150Y-7241082D01*
X691083Y-7252411D01*
X690168Y-7265060D01*
X689508Y-7278624D01*
X689102Y-7292746D01*
X688949Y-7322921D01*
X689254Y-7347000D01*
X689660Y-7355687D01*
X690372Y-7362494D01*
X691438Y-7367625D01*
X692861Y-7371334D01*
X694740Y-7373823D01*
X697179Y-7375347D01*
X700227Y-7376159D01*
X703935Y-7376464D01*
X714705Y-7376363D01*
X717296Y-7376007D01*
X719531Y-7375347D01*
X721410Y-7374280D01*
X722985Y-7372654D01*
X724255Y-7370470D01*
X725271Y-7367524D01*
X726084Y-7363815D01*
X727151Y-7353503D01*
X727608Y-7338669D01*
X727811Y-7292949D01*
X728268Y-7271105D01*
X728726Y-7262368D01*
X729386Y-7255052D01*
X730199Y-7248906D01*
X731215Y-7243927D01*
X732485Y-7239863D01*
X734009Y-7236764D01*
X735787Y-7234377D01*
X737819Y-7232650D01*
X740206Y-7231430D01*
X743762Y-7230364D01*
X746963Y-7229906D01*
X749960Y-7230211D01*
X752602Y-7231227D01*
X754989Y-7233005D01*
X757174Y-7235596D01*
X759053Y-7239050D01*
X760679Y-7243318D01*
X762101Y-7248499D01*
X763320Y-7254595D01*
X764286Y-7261656D01*
X765098Y-7269683D01*
X765708Y-7278776D01*
X766368Y-7300112D01*
X766521Y-7326071D01*
X766978Y-7347254D01*
X767435Y-7355179D01*
X768096Y-7361580D01*
X769010Y-7366558D01*
X770229Y-7370267D01*
X771753Y-7372959D01*
X773684Y-7374788D01*
X776020Y-7375855D01*
X778814Y-7376363D01*
X782116Y-7376515D01*
X785418Y-7376363D01*
X788263Y-7375855D01*
X790600Y-7374788D01*
X792530Y-7372959D01*
X794054Y-7370267D01*
X795274Y-7366558D01*
X796188Y-7361580D01*
X796848Y-7355179D01*
X797306Y-7347254D01*
X797712Y-7326071D01*
X797864Y-7300112D01*
X798576Y-7278776D01*
X799947Y-7261656D01*
X800963Y-7254595D01*
X802182Y-7248499D01*
X803605Y-7243318D01*
X805230Y-7239050D01*
X807110Y-7235596D01*
X809244Y-7233005D01*
X811682Y-7231227D01*
X814324Y-7230211D01*
X817270Y-7229906D01*
X820521Y-7230364D01*
X824077Y-7231430D01*
X826465Y-7232650D01*
X828497Y-7234377D01*
X830275Y-7236764D01*
X831799Y-7239863D01*
X833069Y-7243927D01*
X834085Y-7248906D01*
X834898Y-7255052D01*
X835558Y-7262368D01*
X836269Y-7281214D01*
X836828Y-7346696D01*
X837590Y-7359142D01*
X838200Y-7363815D01*
X838962Y-7367524D01*
X840028Y-7370470D01*
X841298Y-7372654D01*
X842873Y-7374280D01*
X844753Y-7375347D01*
X846988Y-7376007D01*
X849579Y-7376363D01*
X875334Y-7376515D01*
X875334Y-7197394D01*
X848410Y-7199172D01*
X837539Y-7199477D01*
X827836Y-7198868D01*
X820318Y-7197496D01*
X816051Y-7195566D01*
X812749Y-7192924D01*
X809040Y-7191248D01*
G37*
G36*
X460857Y-7190486D02*
G01*
X456539Y-7191197D01*
X451612Y-7192721D01*
X446125Y-7195007D01*
X437489Y-7199528D01*
X435356Y-7201103D01*
X433476Y-7202881D01*
X431850Y-7205014D01*
X430428Y-7207605D01*
X429209Y-7210704D01*
X428193Y-7214412D01*
X427329Y-7218832D01*
X426618Y-7224064D01*
X425653Y-7237374D01*
X425094Y-7255052D01*
X424891Y-7305497D01*
X425043Y-7328916D01*
X425500Y-7346543D01*
X426466Y-7359192D01*
X427177Y-7363917D01*
X427990Y-7367676D01*
X429056Y-7370622D01*
X430326Y-7372858D01*
X431800Y-7374432D01*
X433527Y-7375499D01*
X435559Y-7376109D01*
X440385Y-7376515D01*
X443687Y-7376363D01*
X446481Y-7375855D01*
X448818Y-7374788D01*
X450748Y-7372959D01*
X452323Y-7370267D01*
X453542Y-7366558D01*
X454456Y-7361580D01*
X455117Y-7355179D01*
X455574Y-7347254D01*
X455980Y-7326071D01*
X456133Y-7300112D01*
X456844Y-7278776D01*
X457403Y-7269683D01*
X458216Y-7261656D01*
X459232Y-7254595D01*
X460400Y-7248499D01*
X461822Y-7243318D01*
X463499Y-7239050D01*
X465378Y-7235596D01*
X467512Y-7233005D01*
X469900Y-7231227D01*
X472592Y-7230211D01*
X475538Y-7229906D01*
X478790Y-7230364D01*
X482346Y-7231430D01*
X484682Y-7232650D01*
X486765Y-7234377D01*
X488543Y-7236764D01*
X490067Y-7239914D01*
X491337Y-7243978D01*
X492353Y-7249007D01*
X493166Y-7255154D01*
X494233Y-7271308D01*
X494690Y-7293356D01*
X495096Y-7346950D01*
X495503Y-7355738D01*
X496163Y-7362596D01*
X497128Y-7367727D01*
X498398Y-7371384D01*
X500126Y-7373772D01*
X502310Y-7375144D01*
X505002Y-7375652D01*
X508304Y-7375601D01*
X515213Y-7374636D01*
X517804Y-7373975D01*
X520090Y-7373112D01*
X522071Y-7371842D01*
X523798Y-7370114D01*
X525272Y-7367727D01*
X526542Y-7364628D01*
X527558Y-7360716D01*
X528472Y-7355840D01*
X529793Y-7342733D01*
X530758Y-7324344D01*
X534111Y-7197344D01*
X506933Y-7199172D01*
X495960Y-7199426D01*
X486156Y-7198868D01*
X478586Y-7197496D01*
X474319Y-7195566D01*
X471424Y-7193127D01*
X468223Y-7191451D01*
X464769Y-7190587D01*
G37*
G36*
X949452Y-7195870D02*
G01*
X943965Y-7196429D01*
X938428Y-7197598D01*
X932891Y-7199223D01*
X927506Y-7201357D01*
X922375Y-7203897D01*
X917498Y-7206792D01*
X912977Y-7210044D01*
X908964Y-7213600D01*
X905459Y-7217359D01*
X902614Y-7221321D01*
X900480Y-7225487D01*
X899109Y-7229703D01*
X898652Y-7234021D01*
X900226Y-7238288D01*
X904392Y-7241438D01*
X910386Y-7243470D01*
X917346Y-7244283D01*
X924509Y-7243876D01*
X931113Y-7242302D01*
X936294Y-7239457D01*
X941679Y-7231735D01*
X945540Y-7230008D01*
X950315Y-7229957D01*
X955446Y-7231380D01*
X960374Y-7234021D01*
X964539Y-7237679D01*
X967435Y-7242149D01*
X968552Y-7247178D01*
X966673Y-7252208D01*
X961491Y-7257796D01*
X953871Y-7263333D01*
X944575Y-7268057D01*
X936396Y-7271664D01*
X929132Y-7275271D01*
X922731Y-7279030D01*
X917244Y-7282942D01*
X912520Y-7287056D01*
X908558Y-7291374D01*
X905357Y-7296099D01*
X902817Y-7301128D01*
X900937Y-7306614D01*
X899617Y-7312558D01*
X898906Y-7319060D01*
X898652Y-7326122D01*
X898956Y-7332065D01*
X899871Y-7337755D01*
X901344Y-7343038D01*
X903376Y-7348016D01*
X905865Y-7352690D01*
X908812Y-7356957D01*
X912114Y-7360818D01*
X915822Y-7364323D01*
X919835Y-7367422D01*
X924153Y-7370064D01*
X928674Y-7372299D01*
X933399Y-7374077D01*
X938326Y-7375448D01*
X943356Y-7376312D01*
X948436Y-7376668D01*
X953566Y-7376566D01*
X958697Y-7375956D01*
X963777Y-7374788D01*
X968806Y-7373112D01*
X973683Y-7370876D01*
X978408Y-7368082D01*
X982929Y-7364679D01*
X987196Y-7360716D01*
X991158Y-7356144D01*
X997051Y-7347712D01*
X1001217Y-7339787D01*
X1003300Y-7333234D01*
X1002944Y-7328966D01*
X999744Y-7325461D01*
X995476Y-7323277D01*
X990498Y-7322312D01*
X985012Y-7322616D01*
X979424Y-7324090D01*
X973988Y-7326680D01*
X968959Y-7330338D01*
X961491Y-7338568D01*
X957884Y-7341108D01*
X954024Y-7342784D01*
X950010Y-7343597D01*
X945997Y-7343546D01*
X942136Y-7342784D01*
X938631Y-7341311D01*
X935634Y-7339126D01*
X933196Y-7336332D01*
X931519Y-7332929D01*
X930757Y-7329017D01*
X931062Y-7324598D01*
X932230Y-7321651D01*
X934516Y-7318248D01*
X937818Y-7314539D01*
X941984Y-7310628D01*
X946912Y-7306665D01*
X952398Y-7302703D01*
X958392Y-7298944D01*
X973328Y-7290714D01*
X980389Y-7286345D01*
X985926Y-7281976D01*
X990244Y-7277506D01*
X993394Y-7272680D01*
X995680Y-7267244D01*
X997203Y-7260945D01*
X998219Y-7253630D01*
X998575Y-7246874D01*
X998372Y-7240473D01*
X997610Y-7234478D01*
X996289Y-7228890D01*
X994410Y-7223658D01*
X991920Y-7218832D01*
X988821Y-7214412D01*
X985215Y-7210348D01*
X980998Y-7206691D01*
X976223Y-7203389D01*
X970889Y-7200493D01*
X964946Y-7198004D01*
X960018Y-7196632D01*
X954836Y-7195921D01*
G37*
G36*
X1186027Y-7197852D02*
G01*
X1182776Y-7198004D01*
X1179982Y-7198461D01*
X1177696Y-7199426D01*
X1175766Y-7201001D01*
X1174191Y-7203287D01*
X1172972Y-7206437D01*
X1172057Y-7210653D01*
X1171397Y-7215936D01*
X1170940Y-7222540D01*
X1170533Y-7239965D01*
X1170279Y-7268565D01*
X1169009Y-7299350D01*
X1167485Y-7322261D01*
X1165555Y-7340447D01*
X1164031Y-7352080D01*
X1163167Y-7360869D01*
X1163116Y-7367270D01*
X1164082Y-7371588D01*
X1166164Y-7374331D01*
X1169568Y-7375804D01*
X1174496Y-7376363D01*
X1201572Y-7376515D01*
X1201369Y-7247686D01*
X1200912Y-7229195D01*
X1199946Y-7215886D01*
X1199286Y-7210958D01*
X1198422Y-7206996D01*
X1197356Y-7203948D01*
X1196086Y-7201611D01*
X1194612Y-7199985D01*
X1192885Y-7198868D01*
X1190904Y-7198258D01*
G37*
G36*
X1427124Y-7198106D02*
G01*
X1420469Y-7198512D01*
X1413865Y-7199375D01*
X1407414Y-7200747D01*
X1401318Y-7202627D01*
X1395730Y-7204862D01*
X1390751Y-7207605D01*
X1386636Y-7210704D01*
X1384503Y-7213041D01*
X1382572Y-7216089D01*
X1380794Y-7219746D01*
X1379118Y-7224014D01*
X1376273Y-7234072D01*
X1374089Y-7245807D01*
X1372463Y-7258862D01*
X1371498Y-7272731D01*
X1371103Y-7286193D01*
X1403604Y-7286193D01*
X1403807Y-7276693D01*
X1404416Y-7268057D01*
X1405483Y-7260336D01*
X1406906Y-7253579D01*
X1408785Y-7247737D01*
X1411071Y-7242860D01*
X1413713Y-7238949D01*
X1416761Y-7236053D01*
X1420164Y-7234123D01*
X1423974Y-7233208D01*
X1428140Y-7233361D01*
X1432610Y-7234478D01*
X1434795Y-7236002D01*
X1436776Y-7238746D01*
X1438402Y-7242556D01*
X1439824Y-7247331D01*
X1440992Y-7252919D01*
X1441907Y-7259218D01*
X1442923Y-7273340D01*
X1443126Y-7280859D01*
X1442720Y-7296200D01*
X1441399Y-7311034D01*
X1440434Y-7317892D01*
X1439214Y-7324191D01*
X1437741Y-7329830D01*
X1436116Y-7334656D01*
X1434236Y-7338568D01*
X1432153Y-7341362D01*
X1429918Y-7342936D01*
X1425651Y-7344105D01*
X1421790Y-7344257D01*
X1418285Y-7343343D01*
X1415186Y-7341412D01*
X1412443Y-7338364D01*
X1410106Y-7334250D01*
X1408125Y-7329017D01*
X1406550Y-7322718D01*
X1405280Y-7315250D01*
X1404366Y-7306716D01*
X1403807Y-7297013D01*
X1403604Y-7286193D01*
X1371103Y-7286193D01*
X1371142Y-7294168D01*
X1371701Y-7308240D01*
X1372920Y-7321651D01*
X1374749Y-7333996D01*
X1375867Y-7339634D01*
X1378610Y-7349540D01*
X1380236Y-7353706D01*
X1382014Y-7357313D01*
X1383944Y-7360259D01*
X1386027Y-7362444D01*
X1391259Y-7366762D01*
X1396288Y-7370368D01*
X1401114Y-7373366D01*
X1405839Y-7375702D01*
X1410512Y-7377379D01*
X1415237Y-7378496D01*
X1420063Y-7378953D01*
X1424990Y-7378852D01*
X1430121Y-7378141D01*
X1435557Y-7376871D01*
X1441297Y-7375042D01*
X1447444Y-7372654D01*
X1453438Y-7369809D01*
X1458671Y-7366660D01*
X1463141Y-7363155D01*
X1466850Y-7359243D01*
X1469999Y-7354773D01*
X1472539Y-7349744D01*
X1474571Y-7344003D01*
X1476146Y-7337552D01*
X1478534Y-7323378D01*
X1480058Y-7309053D01*
X1480769Y-7294880D01*
X1480718Y-7281011D01*
X1479905Y-7267600D01*
X1478330Y-7254900D01*
X1476095Y-7243114D01*
X1474724Y-7237577D01*
X1471472Y-7227417D01*
X1469593Y-7222845D01*
X1467612Y-7218680D01*
X1465478Y-7214819D01*
X1463141Y-7211466D01*
X1460703Y-7208469D01*
X1458163Y-7205980D01*
X1455420Y-7203948D01*
X1450949Y-7201662D01*
X1445768Y-7199985D01*
X1439926Y-7198817D01*
X1433677Y-7198207D01*
G37*
G36*
X1077214Y-7198868D02*
G01*
X1030681Y-7199122D01*
X1030681Y-7283348D01*
X1061110Y-7283348D01*
X1061313Y-7277252D01*
X1061872Y-7271207D01*
X1062736Y-7265314D01*
X1063955Y-7259574D01*
X1065530Y-7254036D01*
X1067460Y-7248804D01*
X1069797Y-7243927D01*
X1072896Y-7238695D01*
X1076045Y-7234580D01*
X1079195Y-7231634D01*
X1082395Y-7229856D01*
X1085596Y-7229195D01*
X1088796Y-7229703D01*
X1092098Y-7231329D01*
X1095400Y-7234123D01*
X1096568Y-7236002D01*
X1097635Y-7239000D01*
X1098499Y-7243064D01*
X1099769Y-7253731D01*
X1100429Y-7266889D01*
X1100531Y-7281519D01*
X1100124Y-7296556D01*
X1099210Y-7311034D01*
X1097838Y-7323836D01*
X1096010Y-7333945D01*
X1094943Y-7337653D01*
X1093774Y-7340295D01*
X1092454Y-7341768D01*
X1089355Y-7343241D01*
X1086358Y-7343800D01*
X1083462Y-7343546D01*
X1080668Y-7342530D01*
X1078026Y-7340752D01*
X1075486Y-7338314D01*
X1073150Y-7335266D01*
X1070965Y-7331659D01*
X1068933Y-7327544D01*
X1067155Y-7322972D01*
X1065530Y-7318044D01*
X1064158Y-7312761D01*
X1062126Y-7301433D01*
X1061516Y-7295489D01*
X1061161Y-7289444D01*
X1061110Y-7283348D01*
X1030681Y-7283348D01*
X1030732Y-7334656D01*
X1030986Y-7355636D01*
X1031443Y-7373721D01*
X1032256Y-7389215D01*
X1033424Y-7402271D01*
X1035100Y-7413142D01*
X1036116Y-7417866D01*
X1037285Y-7422134D01*
X1038606Y-7425944D01*
X1041755Y-7432497D01*
X1043584Y-7435240D01*
X1045616Y-7437678D01*
X1047851Y-7439863D01*
X1050290Y-7441793D01*
X1055827Y-7445095D01*
X1062329Y-7447737D01*
X1074013Y-7451140D01*
X1079855Y-7452055D01*
X1085951Y-7452106D01*
X1092149Y-7451242D01*
X1098346Y-7449566D01*
X1104392Y-7447178D01*
X1110234Y-7444130D01*
X1115720Y-7440523D01*
X1120698Y-7436358D01*
X1125118Y-7431735D01*
X1128877Y-7426756D01*
X1131773Y-7421422D01*
X1133754Y-7415834D01*
X1134465Y-7411466D01*
X1134211Y-7407706D01*
X1132992Y-7404658D01*
X1130909Y-7402322D01*
X1128064Y-7400645D01*
X1124508Y-7399680D01*
X1120292Y-7399477D01*
X1115568Y-7399985D01*
X1110335Y-7401204D01*
X1104696Y-7403185D01*
X1098702Y-7405979D01*
X1084275Y-7413955D01*
X1078382Y-7415123D01*
X1073759Y-7413040D01*
X1069390Y-7407554D01*
X1066495Y-7402017D01*
X1064107Y-7395514D01*
X1062482Y-7388809D01*
X1061872Y-7382814D01*
X1062075Y-7379208D01*
X1062990Y-7376414D01*
X1064615Y-7374381D01*
X1067206Y-7373112D01*
X1070914Y-7372502D01*
X1075842Y-7372553D01*
X1082192Y-7373162D01*
X1095908Y-7375144D01*
X1101242Y-7375550D01*
X1106170Y-7375601D01*
X1110691Y-7375245D01*
X1114806Y-7374432D01*
X1118514Y-7373162D01*
X1121867Y-7371384D01*
X1124864Y-7369048D01*
X1127506Y-7366152D01*
X1129842Y-7362698D01*
X1131874Y-7358583D01*
X1133652Y-7353858D01*
X1135126Y-7348423D01*
X1136396Y-7342276D01*
X1138174Y-7327798D01*
X1139139Y-7310120D01*
X1139393Y-7289088D01*
X1139139Y-7272324D01*
X1138326Y-7256272D01*
X1137107Y-7241590D01*
X1135532Y-7229043D01*
X1133652Y-7219340D01*
X1132636Y-7215835D01*
X1131570Y-7213295D01*
X1128979Y-7209281D01*
X1125728Y-7206030D01*
X1121562Y-7203490D01*
X1116177Y-7201560D01*
X1109370Y-7200239D01*
X1100785Y-7199375D01*
X1090168Y-7198969D01*
G37*
G36*
X1287729Y-7199325D02*
G01*
X1275232Y-7199579D01*
X1264767Y-7200493D01*
X1260246Y-7201306D01*
X1256182Y-7202424D01*
X1252524Y-7203897D01*
X1249273Y-7205675D01*
X1246378Y-7207910D01*
X1243838Y-7210552D01*
X1241653Y-7213701D01*
X1239774Y-7217359D01*
X1238148Y-7221575D01*
X1236776Y-7226350D01*
X1235659Y-7231786D01*
X1234084Y-7244638D01*
X1233119Y-7260488D01*
X1232712Y-7279538D01*
X1232662Y-7326579D01*
X1232916Y-7344918D01*
X1233678Y-7358125D01*
X1234287Y-7363053D01*
X1235049Y-7367016D01*
X1236065Y-7370114D01*
X1237335Y-7372451D01*
X1238910Y-7374128D01*
X1240739Y-7375245D01*
X1242923Y-7375956D01*
X1248410Y-7376464D01*
X1257960Y-7376312D01*
X1260500Y-7375906D01*
X1262684Y-7375194D01*
X1264564Y-7374026D01*
X1266190Y-7372350D01*
X1267510Y-7370064D01*
X1268628Y-7367016D01*
X1269593Y-7363155D01*
X1270355Y-7358380D01*
X1271473Y-7345629D01*
X1272336Y-7328001D01*
X1274114Y-7279284D01*
X1275435Y-7260386D01*
X1276248Y-7253071D01*
X1277213Y-7247077D01*
X1278331Y-7242302D01*
X1279652Y-7238593D01*
X1281125Y-7235901D01*
X1282852Y-7234123D01*
X1284782Y-7233107D01*
X1286967Y-7232802D01*
X1289202Y-7233107D01*
X1291132Y-7234123D01*
X1292860Y-7235901D01*
X1294333Y-7238593D01*
X1295654Y-7242302D01*
X1296771Y-7247077D01*
X1297736Y-7253071D01*
X1299260Y-7269073D01*
X1300378Y-7291120D01*
X1302054Y-7337501D01*
X1303020Y-7352588D01*
X1303629Y-7358380D01*
X1304391Y-7363155D01*
X1305356Y-7367016D01*
X1306474Y-7370064D01*
X1307795Y-7372350D01*
X1309420Y-7374026D01*
X1311300Y-7375194D01*
X1313484Y-7375906D01*
X1316024Y-7376312D01*
X1322222Y-7376515D01*
X1341374Y-7376515D01*
X1341374Y-7200036D01*
G37*
G36*
X1220012Y-1326438D02*
G01*
X1201674Y-1328674D01*
X1187754Y-1335328D01*
X1178966Y-1346200D01*
X1176070Y-1360474D01*
X1176477Y-1366062D01*
X1177798Y-1371092D01*
X1179931Y-1375562D01*
X1182928Y-1379524D01*
X1186586Y-1382877D01*
X1191006Y-1385620D01*
X1196086Y-1387703D01*
X1201978Y-1389176D01*
X1189583Y-1393240D01*
X1180388Y-1400352D01*
X1174851Y-1410563D01*
X1173022Y-1423466D01*
X1176070Y-1440230D01*
X1185214Y-1452422D01*
X1192072Y-1456893D01*
X1200302Y-1460042D01*
X1209852Y-1461973D01*
X1220774Y-1462582D01*
X1230630Y-1462125D01*
X1240332Y-1460804D01*
X1245108Y-1459941D01*
X1254353Y-1457502D01*
X1258874Y-1455978D01*
X1258874Y-1431848D01*
X1254607Y-1433880D01*
X1250238Y-1435608D01*
X1245717Y-1437030D01*
X1236218Y-1439214D01*
X1231188Y-1439926D01*
X1226058Y-1440332D01*
X1220774Y-1440484D01*
X1215847Y-1440180D01*
X1211427Y-1439214D01*
X1207566Y-1437640D01*
X1204264Y-1435404D01*
X1201470Y-1432814D01*
X1199489Y-1429766D01*
X1198321Y-1426311D01*
X1197914Y-1422450D01*
X1198321Y-1417675D01*
X1199489Y-1413459D01*
X1201470Y-1409801D01*
X1204264Y-1406702D01*
X1207617Y-1404366D01*
X1211630Y-1402689D01*
X1216253Y-1401724D01*
X1221536Y-1401368D01*
X1235506Y-1401368D01*
X1235506Y-1378508D01*
X1221536Y-1378508D01*
X1216964Y-1378254D01*
X1212951Y-1377543D01*
X1209497Y-1376375D01*
X1206550Y-1374698D01*
X1204214Y-1372616D01*
X1202537Y-1370076D01*
X1201521Y-1367129D01*
X1201216Y-1363776D01*
X1201521Y-1360424D01*
X1202537Y-1357376D01*
X1204214Y-1354683D01*
X1206550Y-1352346D01*
X1209497Y-1350568D01*
X1212951Y-1349298D01*
X1216964Y-1348536D01*
X1221536Y-1348282D01*
X1229156Y-1348790D01*
X1237284Y-1350314D01*
X1245971Y-1352550D01*
X1254810Y-1355648D01*
X1254810Y-1332026D01*
X1245920Y-1329639D01*
X1237030Y-1327962D01*
X1228344Y-1326845D01*
G37*
G36*
X1323898Y-1326438D02*
G01*
X1313738Y-1327505D01*
X1304950Y-1330706D01*
X1297482Y-1336040D01*
X1291386Y-1343456D01*
X1286713Y-1352956D01*
X1283360Y-1364589D01*
X1281379Y-1378458D01*
X1280718Y-1394510D01*
X1306626Y-1394510D01*
X1307693Y-1373682D01*
X1310944Y-1359458D01*
X1313281Y-1354582D01*
X1316228Y-1351076D01*
X1319733Y-1348994D01*
X1323898Y-1348282D01*
X1328166Y-1348994D01*
X1331772Y-1351076D01*
X1334770Y-1354582D01*
X1337106Y-1359458D01*
X1340154Y-1373682D01*
X1341170Y-1394510D01*
X1340154Y-1415338D01*
X1337106Y-1429562D01*
X1334770Y-1434338D01*
X1331772Y-1437741D01*
X1328166Y-1439824D01*
X1323898Y-1440484D01*
X1319733Y-1439824D01*
X1316228Y-1437741D01*
X1313281Y-1434338D01*
X1310944Y-1429562D01*
X1307693Y-1415338D01*
X1306626Y-1394510D01*
X1280718Y-1394510D01*
X1281379Y-1410462D01*
X1283360Y-1424279D01*
X1286713Y-1436014D01*
X1291386Y-1445564D01*
X1297482Y-1453032D01*
X1304950Y-1458315D01*
X1313738Y-1461516D01*
X1323898Y-1462582D01*
X1334109Y-1461516D01*
X1342999Y-1458315D01*
X1350518Y-1453032D01*
X1356664Y-1445564D01*
X1361338Y-1436014D01*
X1364640Y-1424279D01*
X1366672Y-1410462D01*
X1367332Y-1394510D01*
X1366672Y-1378559D01*
X1364640Y-1364742D01*
X1361338Y-1353058D01*
X1356664Y-1343456D01*
X1350518Y-1336040D01*
X1342999Y-1330706D01*
X1334109Y-1327505D01*
G37*
G36*
X1432356Y-1326438D02*
G01*
X1422146Y-1327505D01*
X1413306Y-1330706D01*
X1405890Y-1336040D01*
X1399844Y-1343456D01*
X1395069Y-1352956D01*
X1391666Y-1364589D01*
X1389583Y-1378458D01*
X1388922Y-1394510D01*
X1415084Y-1394510D01*
X1416100Y-1373682D01*
X1419148Y-1359458D01*
X1421587Y-1354582D01*
X1424584Y-1351076D01*
X1428191Y-1348994D01*
X1432356Y-1348282D01*
X1436522Y-1348994D01*
X1440078Y-1351076D01*
X1443126Y-1354582D01*
X1445564Y-1359458D01*
X1448612Y-1373682D01*
X1449628Y-1394510D01*
X1448612Y-1415338D01*
X1445564Y-1429562D01*
X1443126Y-1434338D01*
X1440078Y-1437741D01*
X1436522Y-1439824D01*
X1432356Y-1440484D01*
X1428191Y-1439824D01*
X1424584Y-1437741D01*
X1421587Y-1434338D01*
X1419148Y-1429562D01*
X1416100Y-1415338D01*
X1415084Y-1394510D01*
X1388922Y-1394510D01*
X1389583Y-1410462D01*
X1391666Y-1424279D01*
X1395069Y-1436014D01*
X1399844Y-1445564D01*
X1405890Y-1453032D01*
X1413306Y-1458315D01*
X1422146Y-1461516D01*
X1432356Y-1462582D01*
X1442567Y-1461516D01*
X1451406Y-1458315D01*
X1458823Y-1453032D01*
X1464868Y-1445564D01*
X1469644Y-1436014D01*
X1473047Y-1424279D01*
X1475079Y-1410462D01*
X1475790Y-1394510D01*
X1475079Y-1378559D01*
X1473047Y-1364742D01*
X1469644Y-1353058D01*
X1464868Y-1343456D01*
X1458823Y-1336040D01*
X1451406Y-1330706D01*
X1442567Y-1327505D01*
G37*
G36*
X1546402Y-1326438D02*
G01*
X1527810Y-1328877D01*
X1513636Y-1336090D01*
X1504696Y-1347520D01*
X1501698Y-1362506D01*
X1501851Y-1366367D01*
X1502308Y-1370076D01*
X1503121Y-1373632D01*
X1504238Y-1376984D01*
X1505712Y-1380540D01*
X1510182Y-1388160D01*
X1513128Y-1392224D01*
X1521815Y-1401876D01*
X1556816Y-1437182D01*
X1501444Y-1437182D01*
X1501444Y-1460042D01*
X1584756Y-1460042D01*
X1584756Y-1437944D01*
X1544218Y-1394510D01*
X1537208Y-1386484D01*
X1532534Y-1379778D01*
X1529588Y-1373835D01*
X1528622Y-1370888D01*
X1528064Y-1367993D01*
X1527860Y-1365046D01*
X1528165Y-1360982D01*
X1529181Y-1357376D01*
X1530858Y-1354226D01*
X1533194Y-1351584D01*
X1536141Y-1349502D01*
X1539646Y-1347978D01*
X1543761Y-1347063D01*
X1548434Y-1346758D01*
X1551940Y-1346962D01*
X1555750Y-1347470D01*
X1559712Y-1348333D01*
X1563928Y-1349552D01*
X1572768Y-1353007D01*
X1581962Y-1357680D01*
X1581962Y-1333550D01*
X1572666Y-1330452D01*
X1563674Y-1328216D01*
X1554784Y-1326896D01*
G37*
G36*
X1091488Y-1328724D02*
G01*
X1070510Y-1406194D01*
X1095044Y-1406194D01*
X1107236Y-1352600D01*
X1119428Y-1406194D01*
X1070510Y-1406194D01*
X1055928Y-1460042D01*
X1081836Y-1460042D01*
X1089964Y-1427530D01*
X1124762Y-1427530D01*
X1132636Y-1460042D01*
X1158544Y-1460042D01*
X1122984Y-1328724D01*
G37*
G36*
X1605584Y-1328724D02*
G01*
X1605584Y-1460042D01*
X1633270Y-1460042D01*
X1669846Y-1364538D01*
X1669846Y-1460042D01*
X1692706Y-1460042D01*
X1692706Y-1328724D01*
X1665020Y-1328724D01*
X1628444Y-1424228D01*
X1628444Y-1328724D01*
G37*
G36*
X1765858Y-1328724D02*
G01*
X1765858Y-1437182D01*
X1710486Y-1437182D01*
X1710486Y-1460042D01*
X1791766Y-1460042D01*
X1791766Y-1328724D01*
G37*
G36*
X1820976Y-1328724D02*
G01*
X1820976Y-1411528D01*
X1821637Y-1423974D01*
X1823618Y-1434592D01*
X1826971Y-1443380D01*
X1831644Y-1450390D01*
X1837791Y-1455724D01*
X1845564Y-1459534D01*
X1854911Y-1461820D01*
X1865934Y-1462582D01*
X1876806Y-1461820D01*
X1886102Y-1459534D01*
X1893824Y-1455724D01*
X1899970Y-1450390D01*
X1904644Y-1443380D01*
X1907946Y-1434592D01*
X1909978Y-1423974D01*
X1910638Y-1411528D01*
X1910638Y-1328724D01*
X1884730Y-1328724D01*
X1884730Y-1418132D01*
X1884425Y-1422806D01*
X1883460Y-1426921D01*
X1881886Y-1430426D01*
X1879650Y-1433372D01*
X1876958Y-1435811D01*
X1873808Y-1437589D01*
X1870100Y-1438605D01*
X1865934Y-1438960D01*
X1861718Y-1438605D01*
X1858010Y-1437589D01*
X1854707Y-1435811D01*
X1851964Y-1433372D01*
X1849729Y-1430426D01*
X1848154Y-1426921D01*
X1847189Y-1422806D01*
X1846884Y-1418132D01*
X1846884Y-1328724D01*
G37*
G36*
X1323898Y-1383588D02*
G01*
X1321714Y-1383792D01*
X1319682Y-1384350D01*
X1317904Y-1385316D01*
X1316278Y-1386636D01*
X1314805Y-1388364D01*
X1313789Y-1390243D01*
X1313180Y-1392326D01*
X1312976Y-1394510D01*
X1313180Y-1396695D01*
X1313789Y-1398727D01*
X1314805Y-1400505D01*
X1317904Y-1403604D01*
X1319682Y-1404620D01*
X1321714Y-1405229D01*
X1323898Y-1405432D01*
X1326083Y-1405229D01*
X1328166Y-1404670D01*
X1330045Y-1403705D01*
X1331772Y-1402384D01*
X1333093Y-1400657D01*
X1334058Y-1398778D01*
X1334617Y-1396746D01*
X1334820Y-1394510D01*
X1334617Y-1392326D01*
X1334058Y-1390243D01*
X1333093Y-1388364D01*
X1331772Y-1386636D01*
X1330045Y-1385316D01*
X1328166Y-1384350D01*
X1326083Y-1383792D01*
G37*
G36*
X1432356Y-1383588D02*
G01*
X1430121Y-1383792D01*
X1428089Y-1384350D01*
X1426210Y-1385316D01*
X1424482Y-1386636D01*
X1423162Y-1388364D01*
X1422196Y-1390243D01*
X1421638Y-1392326D01*
X1421434Y-1394510D01*
X1421638Y-1396695D01*
X1422196Y-1398727D01*
X1423162Y-1400505D01*
X1424482Y-1402130D01*
X1426210Y-1403604D01*
X1428089Y-1404620D01*
X1430121Y-1405229D01*
X1432356Y-1405432D01*
X1434541Y-1405229D01*
X1436624Y-1404670D01*
X1438503Y-1403705D01*
X1440230Y-1402384D01*
X1441551Y-1400657D01*
X1442516Y-1398778D01*
X1443075Y-1396746D01*
X1443278Y-1394510D01*
X1443075Y-1392326D01*
X1442516Y-1390243D01*
X1441551Y-1388364D01*
X1440230Y-1386636D01*
X1438503Y-1385316D01*
X1436624Y-1384350D01*
X1434541Y-1383792D01*
G37*
G36*
X3269234Y-5996432D02*
G01*
X3260090Y-5996940D01*
X3255517Y-5997549D01*
X3250946Y-5998464D01*
X3242056Y-6001004D01*
X3237636Y-6002629D01*
X3233166Y-6004560D01*
X3233166Y-6029960D01*
X3241548Y-6024727D01*
X3249930Y-6020816D01*
X3254248Y-6019495D01*
X3258565Y-6018530D01*
X3262884Y-6017971D01*
X3267202Y-6017768D01*
X3271621Y-6018022D01*
X3275431Y-6018733D01*
X3278733Y-6019901D01*
X3281426Y-6021578D01*
X3283661Y-6023711D01*
X3285236Y-6026200D01*
X3286201Y-6029147D01*
X3286506Y-6032500D01*
X3286302Y-6035040D01*
X3285642Y-6037376D01*
X3284524Y-6039510D01*
X3282950Y-6041390D01*
X3280562Y-6043218D01*
X3277209Y-6045149D01*
X3267710Y-6049264D01*
X3256534Y-6053582D01*
X3242665Y-6060338D01*
X3233166Y-6068822D01*
X3227628Y-6079744D01*
X3225800Y-6093206D01*
X3228695Y-6110478D01*
X3237484Y-6122670D01*
X3244088Y-6126988D01*
X3252165Y-6130086D01*
X3261715Y-6131966D01*
X3272790Y-6132576D01*
X3282645Y-6132017D01*
X3287522Y-6131306D01*
X3297275Y-6129020D01*
X3302050Y-6127445D01*
X3306775Y-6125565D01*
X3311398Y-6123432D01*
X3311398Y-6096508D01*
X3306216Y-6099962D01*
X3301187Y-6102908D01*
X3296208Y-6105398D01*
X3291332Y-6107430D01*
X3286506Y-6109106D01*
X3281679Y-6110274D01*
X3276854Y-6110986D01*
X3272028Y-6111240D01*
X3267557Y-6110935D01*
X3263646Y-6110071D01*
X3260191Y-6108649D01*
X3257296Y-6106668D01*
X3254959Y-6104280D01*
X3253282Y-6101486D01*
X3252317Y-6098184D01*
X3251962Y-6094476D01*
X3252165Y-6091631D01*
X3252876Y-6089040D01*
X3253943Y-6086551D01*
X3255517Y-6084316D01*
X3257499Y-6082182D01*
X3259836Y-6080252D01*
X3262579Y-6078626D01*
X3265678Y-6077204D01*
X3278378Y-6072378D01*
X3294837Y-6064758D01*
X3305048Y-6056630D01*
X3308045Y-6052210D01*
X3310178Y-6047028D01*
X3311499Y-6041136D01*
X3311906Y-6034532D01*
X3309061Y-6018631D01*
X3300476Y-6006592D01*
X3286963Y-5998972D01*
G37*
G36*
X2795016Y-5998718D02*
G01*
X2795016Y-6017260D01*
X2839466Y-6130036D01*
X2865882Y-6130036D01*
X2823210Y-6021578D01*
X2877820Y-6021578D01*
X2877820Y-5998718D01*
G37*
G36*
X2927350Y-5998718D02*
G01*
X2927350Y-6107176D01*
X2898394Y-6107176D01*
X2898394Y-6130036D01*
X2981706Y-6130036D01*
X2981706Y-6107176D01*
X2952750Y-6107176D01*
X2952750Y-6022086D01*
X2979674Y-6028690D01*
X2979674Y-6005322D01*
X2952496Y-5998718D01*
G37*
G36*
X3035808Y-5998718D02*
G01*
X3035808Y-6107176D01*
X3006852Y-6107176D01*
X3006852Y-6130036D01*
X3089910Y-6130036D01*
X3089910Y-6107176D01*
X3060954Y-6107176D01*
X3060954Y-6022086D01*
X3087878Y-6028690D01*
X3087878Y-6005322D01*
X3060700Y-5998718D01*
G37*
G36*
X3144266Y-5998718D02*
G01*
X3144266Y-6107176D01*
X3115056Y-6107176D01*
X3115056Y-6130036D01*
X3198368Y-6130036D01*
X3198368Y-6107176D01*
X3169412Y-6107176D01*
X3169412Y-6022086D01*
X3196336Y-6028690D01*
X3196336Y-6005322D01*
X3169158Y-5998718D01*
G37*
G36*
X3330701Y-5998718D02*
G01*
X3330701Y-6130036D01*
X3353054Y-6130036D01*
X3353054Y-6024880D01*
X3367024Y-6082284D01*
X3387598Y-6082284D01*
X3401822Y-6024880D01*
X3401822Y-6130036D01*
X3424174Y-6130036D01*
X3424174Y-5998718D01*
X3393186Y-5998718D01*
X3377437Y-6056376D01*
X3361944Y-5998718D01*
G37*
G36*
X3469894Y-5998718D02*
G01*
X3449065Y-6076188D01*
X3473450Y-6076188D01*
X3485896Y-6022594D01*
X3498087Y-6076188D01*
X3449065Y-6076188D01*
X3434587Y-6130036D01*
X3460496Y-6130036D01*
X3468624Y-6097524D01*
X3503168Y-6097524D01*
X3511296Y-6130036D01*
X3537204Y-6130036D01*
X3501644Y-5998718D01*
G37*
G36*
X3273552Y-6201918D02*
G01*
X3255213Y-6204153D01*
X3241294Y-6210808D01*
X3232505Y-6221679D01*
X3229610Y-6235954D01*
X3230016Y-6241542D01*
X3231286Y-6246571D01*
X3233318Y-6251041D01*
X3236214Y-6255004D01*
X3239973Y-6258356D01*
X3244494Y-6261100D01*
X3249625Y-6263182D01*
X3255517Y-6264656D01*
X3243021Y-6268720D01*
X3233928Y-6275832D01*
X3228390Y-6286042D01*
X3226562Y-6298946D01*
X3229610Y-6315710D01*
X3238754Y-6327902D01*
X3245561Y-6332321D01*
X3253740Y-6335522D01*
X3263341Y-6337452D01*
X3274314Y-6338062D01*
X3284169Y-6337604D01*
X3293872Y-6336284D01*
X3303270Y-6334201D01*
X3312160Y-6331458D01*
X3312160Y-6307328D01*
X3307994Y-6309258D01*
X3299104Y-6312408D01*
X3294379Y-6313678D01*
X3289503Y-6314592D01*
X3284524Y-6315202D01*
X3274314Y-6315710D01*
X3269284Y-6315405D01*
X3264763Y-6314490D01*
X3260902Y-6313017D01*
X3257550Y-6310884D01*
X3254857Y-6308242D01*
X3252978Y-6305194D01*
X3251860Y-6301638D01*
X3251453Y-6297676D01*
X3251860Y-6293002D01*
X3252978Y-6288836D01*
X3254908Y-6285230D01*
X3257550Y-6282182D01*
X3260953Y-6279743D01*
X3264966Y-6277965D01*
X3269691Y-6276949D01*
X3275076Y-6276594D01*
X3288792Y-6276594D01*
X3288792Y-6253734D01*
X3275076Y-6253734D01*
X3270503Y-6253480D01*
X3266490Y-6252768D01*
X3263036Y-6251600D01*
X3260090Y-6249924D01*
X3257753Y-6247841D01*
X3256076Y-6245352D01*
X3255111Y-6242507D01*
X3254756Y-6239256D01*
X3255111Y-6235801D01*
X3256076Y-6232702D01*
X3257753Y-6230061D01*
X3260090Y-6227826D01*
X3263036Y-6226048D01*
X3266490Y-6224778D01*
X3270503Y-6224016D01*
X3275076Y-6223762D01*
X3282696Y-6224219D01*
X3290824Y-6225540D01*
X3299409Y-6227876D01*
X3308350Y-6230874D01*
X3308350Y-6207506D01*
X3299358Y-6205016D01*
X3290570Y-6203188D01*
X3281883Y-6202222D01*
G37*
G36*
X3490214Y-6201918D02*
G01*
X3471875Y-6204153D01*
X3457956Y-6210808D01*
X3449218Y-6221679D01*
X3446272Y-6235954D01*
X3446678Y-6241542D01*
X3447999Y-6246571D01*
X3450132Y-6251041D01*
X3453129Y-6255004D01*
X3456787Y-6258356D01*
X3461207Y-6261100D01*
X3466337Y-6263182D01*
X3472179Y-6264656D01*
X3459784Y-6268720D01*
X3450590Y-6275832D01*
X3445052Y-6286042D01*
X3443224Y-6298946D01*
X3446272Y-6315710D01*
X3455415Y-6327902D01*
X3462324Y-6332321D01*
X3470503Y-6335522D01*
X3480104Y-6337452D01*
X3490976Y-6338062D01*
X3500831Y-6337604D01*
X3510534Y-6336284D01*
X3519982Y-6334201D01*
X3529076Y-6331458D01*
X3529076Y-6307328D01*
X3524808Y-6309258D01*
X3515918Y-6312408D01*
X3511296Y-6313678D01*
X3506419Y-6314592D01*
X3501390Y-6315202D01*
X3490976Y-6315710D01*
X3486048Y-6315405D01*
X3481628Y-6314490D01*
X3477768Y-6313017D01*
X3474465Y-6310884D01*
X3471672Y-6308242D01*
X3469690Y-6305194D01*
X3468522Y-6301638D01*
X3468115Y-6297676D01*
X3468522Y-6293002D01*
X3469690Y-6288836D01*
X3471672Y-6285230D01*
X3474465Y-6282182D01*
X3477818Y-6279743D01*
X3481832Y-6277965D01*
X3486454Y-6276949D01*
X3491737Y-6276594D01*
X3505708Y-6276594D01*
X3505708Y-6253734D01*
X3491737Y-6253734D01*
X3487165Y-6253480D01*
X3483152Y-6252768D01*
X3479698Y-6251600D01*
X3476751Y-6249924D01*
X3474415Y-6247841D01*
X3472738Y-6245352D01*
X3471773Y-6242507D01*
X3471418Y-6239256D01*
X3471773Y-6235801D01*
X3472738Y-6232702D01*
X3474415Y-6230061D01*
X3476751Y-6227826D01*
X3479698Y-6226048D01*
X3483152Y-6224778D01*
X3487165Y-6224016D01*
X3491737Y-6223762D01*
X3499358Y-6224219D01*
X3507486Y-6225540D01*
X3516172Y-6227876D01*
X3525012Y-6230874D01*
X3525012Y-6207506D01*
X3516122Y-6205016D01*
X3507232Y-6203188D01*
X3498545Y-6202222D01*
G37*
G36*
X3111500Y-6204204D02*
G01*
X3142742Y-6335522D01*
X3178556Y-6335522D01*
X3209798Y-6204204D01*
X3183890Y-6204204D01*
X3160776Y-6313678D01*
X3137662Y-6204204D01*
G37*
G36*
X3362960Y-6303264D02*
G01*
X3362960Y-6335522D01*
X3392170Y-6335522D01*
X3392170Y-6303264D01*
G37*
G36*
X2288235Y-6658864D02*
G01*
X2319477Y-6789928D01*
X2355291Y-6789928D01*
X2386533Y-6658864D01*
X2360625Y-6658864D01*
X2337511Y-6768338D01*
X2314397Y-6658864D01*
G37*
G36*
X2411679Y-6658864D02*
G01*
X2411679Y-6681724D01*
X2461971Y-6681724D01*
X2461971Y-6705853D01*
X2455367Y-6704075D01*
X2447493Y-6703568D01*
X2429967Y-6706666D01*
X2415997Y-6716014D01*
X2406853Y-6730136D01*
X2403805Y-6748018D01*
X2404618Y-6757771D01*
X2407107Y-6766458D01*
X2411222Y-6774027D01*
X2417013Y-6780530D01*
X2424226Y-6785762D01*
X2432558Y-6789470D01*
X2442108Y-6791706D01*
X2452827Y-6792468D01*
X2461260Y-6792163D01*
X2469845Y-6791198D01*
X2478532Y-6789369D01*
X2487371Y-6786880D01*
X2487371Y-6763512D01*
X2479954Y-6766610D01*
X2472385Y-6768846D01*
X2468575Y-6769760D01*
X2460802Y-6770776D01*
X2456891Y-6770878D01*
X2450541Y-6770522D01*
X2444953Y-6769353D01*
X2440127Y-6767474D01*
X2436063Y-6764781D01*
X2432964Y-6761530D01*
X2430729Y-6757670D01*
X2429408Y-6753148D01*
X2428951Y-6748018D01*
X2429408Y-6743090D01*
X2430729Y-6738670D01*
X2432964Y-6734809D01*
X2436063Y-6731508D01*
X2439924Y-6728714D01*
X2444394Y-6726732D01*
X2449474Y-6725564D01*
X2455113Y-6725158D01*
X2458567Y-6725259D01*
X2465425Y-6726174D01*
X2472385Y-6727901D01*
X2479497Y-6730441D01*
X2483053Y-6732016D01*
X2483053Y-6658864D01*
G37*
D34*
X209092Y-2225461D02*
G01*
X281820Y-2225461D01*
X295455Y-2220917D01*
X300001Y-2216370D01*
X304548Y-2207280D01*
X304548Y-2198189D01*
X300001Y-2189098D01*
X295455Y-2184554D01*
X281820Y-2180008D01*
X272729Y-2180008D01*
X209092Y-2255464D02*
G01*
X304548Y-2255464D01*
X304548Y-2255464D02*
G01*
X304548Y-2310008D01*
X231820Y-2408189D02*
G01*
X222730Y-2403645D01*
X213639Y-2394554D01*
X209092Y-2385463D01*
X209092Y-2367279D01*
X213639Y-2358189D01*
X222730Y-2349098D01*
X231820Y-2344554D01*
X245455Y-2340008D01*
X268183Y-2340008D01*
X281820Y-2344554D01*
X290911Y-2349098D01*
X300001Y-2358189D01*
X304548Y-2367279D01*
X304548Y-2385463D01*
X300001Y-2394554D01*
X290911Y-2403645D01*
X281820Y-2408189D01*
X209092Y-2483645D02*
G01*
X281820Y-2483645D01*
X295455Y-2479098D01*
X300001Y-2474554D01*
X304548Y-2465463D01*
X304548Y-2456373D01*
X300001Y-2447279D01*
X295455Y-2442735D01*
X281820Y-2438189D01*
X272729Y-2438189D01*
X209092Y-2513644D02*
G01*
X304548Y-2513644D01*
X304548Y-2513644D02*
G01*
X304548Y-2568188D01*
X231820Y-2666372D02*
G01*
X222730Y-2661826D01*
X213639Y-2652735D01*
X209092Y-2643644D01*
X209092Y-2625463D01*
X213639Y-2616372D01*
X222730Y-2607282D01*
X231820Y-2602735D01*
X245455Y-2598191D01*
X268183Y-2598191D01*
X281820Y-2602735D01*
X290911Y-2607282D01*
X300001Y-2616372D01*
X304548Y-2625463D01*
X304548Y-2643644D01*
X300001Y-2652735D01*
X290911Y-2661826D01*
X281820Y-2666372D01*
X209092Y-2741825D02*
G01*
X281820Y-2741825D01*
X295455Y-2737281D01*
X300001Y-2732735D01*
X304548Y-2723644D01*
X304548Y-2714553D01*
X300001Y-2705463D01*
X295455Y-2700916D01*
X281820Y-2696372D01*
X272729Y-2696372D01*
X209092Y-2771825D02*
G01*
X304548Y-2771825D01*
X304548Y-2771825D02*
G01*
X304548Y-2826372D01*
X231820Y-2924553D02*
G01*
X222730Y-2920009D01*
X213639Y-2910916D01*
X209092Y-2901825D01*
X209092Y-2883644D01*
X213639Y-2874553D01*
X222730Y-2865462D01*
X231820Y-2860916D01*
X245455Y-2856372D01*
X268183Y-2856372D01*
X281820Y-2860916D01*
X290911Y-2865462D01*
X300001Y-2874553D01*
X304548Y-2883644D01*
X304548Y-2901825D01*
X300001Y-2910916D01*
X290911Y-2920009D01*
X281820Y-2924553D01*
X209092Y-3000009D02*
G01*
X281820Y-3000009D01*
X295455Y-2995462D01*
X300001Y-2990918D01*
X304548Y-2981825D01*
X304548Y-2972734D01*
X300001Y-2963644D01*
X295455Y-2959100D01*
X281820Y-2954553D01*
X272729Y-2954553D01*
X209092Y-3030009D02*
G01*
X304548Y-3030009D01*
X304548Y-3030009D02*
G01*
X304548Y-3084553D01*
X231820Y-3182736D02*
G01*
X222730Y-3178190D01*
X213639Y-3169099D01*
X209092Y-3160008D01*
X209092Y-3141827D01*
X213639Y-3132734D01*
X222730Y-3123643D01*
X231820Y-3119099D01*
X245455Y-3114553D01*
X268183Y-3114553D01*
X281820Y-3119099D01*
X290911Y-3123643D01*
X300001Y-3132734D01*
X304548Y-3141827D01*
X304548Y-3160008D01*
X300001Y-3169099D01*
X290911Y-3178190D01*
X281820Y-3182736D01*
D35*
X2582014Y-5490598D02*
G01*
X2587348Y-5480184D01*
X2597762Y-5469770D01*
X2607922Y-5464690D01*
X2628750Y-5464690D01*
X2639164Y-5469770D01*
X2649578Y-5480184D01*
X2654912Y-5490598D01*
X2659992Y-5506346D01*
X2659992Y-5532254D01*
X2654912Y-5547748D01*
X2649578Y-5558162D01*
X2639164Y-5568576D01*
X2628750Y-5573656D01*
X2607922Y-5573656D01*
X2597762Y-5568576D01*
X2587348Y-5558162D01*
X2582014Y-5547748D01*
X2485494Y-5464690D02*
G01*
X2537310Y-5464690D01*
X2542644Y-5511426D01*
X2537310Y-5506346D01*
X2521816Y-5501012D01*
X2506322Y-5501012D01*
X2490574Y-5506346D01*
X2480160Y-5516506D01*
X2475080Y-5532254D01*
X2475080Y-5542668D01*
X2480160Y-5558162D01*
X2490574Y-5568576D01*
X2506322Y-5573656D01*
X2521816Y-5573656D01*
X2537310Y-5568576D01*
X2542644Y-5563496D01*
X2547724Y-5553082D01*
X3490000Y-5124686D02*
G01*
X3490000Y-5202664D01*
X3484920Y-5218158D01*
X3474506Y-5228572D01*
X3458758Y-5233652D01*
X3448344Y-5233652D01*
X3432850Y-5228572D01*
X3422436Y-5218158D01*
X3417356Y-5202664D01*
X3417356Y-5124686D01*
X3315502Y-5161008D02*
G01*
X3320582Y-5176502D01*
X3330996Y-5186916D01*
X3346490Y-5192250D01*
X3351824Y-5192250D01*
X3367318Y-5186916D01*
X3377732Y-5176502D01*
X3383066Y-5161008D01*
X3383066Y-5155928D01*
X3377732Y-5140180D01*
X3367318Y-5129766D01*
X3351824Y-5124686D01*
X3346490Y-5124686D01*
X3330996Y-5129766D01*
X3320582Y-5140180D01*
X3315502Y-5161008D01*
X3315502Y-5186916D01*
X3320582Y-5213078D01*
X3330996Y-5228572D01*
X3346490Y-5233652D01*
X3356904Y-5233652D01*
X3372652Y-5228572D01*
X3377732Y-5218158D01*
X2582024Y-6410594D02*
G01*
X2587358Y-6400180D01*
X2597772Y-6389766D01*
X2607932Y-6384686D01*
X2628760Y-6384686D01*
X2639174Y-6389766D01*
X2649588Y-6400180D01*
X2654922Y-6410594D01*
X2660002Y-6426342D01*
X2660002Y-6452250D01*
X2654922Y-6467744D01*
X2649588Y-6478158D01*
X2639174Y-6488572D01*
X2628760Y-6493652D01*
X2607932Y-6493652D01*
X2597772Y-6488572D01*
X2587358Y-6478158D01*
X2582024Y-6467744D01*
X2547734Y-6405514D02*
G01*
X2537320Y-6400180D01*
X2521826Y-6384686D01*
X2521826Y-6493652D01*
X2622024Y-5990595D02*
G01*
X2627358Y-5980181D01*
X2637772Y-5969767D01*
X2647932Y-5964687D01*
X2668760Y-5964687D01*
X2679174Y-5969767D01*
X2689588Y-5980181D01*
X2694922Y-5990595D01*
X2700002Y-6006343D01*
X2700002Y-6032251D01*
X2694922Y-6047745D01*
X2689588Y-6058159D01*
X2679174Y-6068573D01*
X2668760Y-6073653D01*
X2647932Y-6073653D01*
X2637772Y-6068573D01*
X2627358Y-6058159D01*
X2622024Y-6047745D01*
X2582654Y-5990595D02*
G01*
X2582654Y-5985515D01*
X2577320Y-5975101D01*
X2572240Y-5969767D01*
X2561826Y-5964687D01*
X2540998Y-5964687D01*
X2530584Y-5969767D01*
X2525504Y-5975101D01*
X2520170Y-5985515D01*
X2520170Y-5995929D01*
X2525504Y-6006343D01*
X2535918Y-6021837D01*
X2587734Y-6073653D01*
X2515090Y-6073653D01*
X2748760Y-4584687D02*
G01*
X2759174Y-4589767D01*
X2769588Y-4600181D01*
X2774922Y-4610595D01*
X2780002Y-4626343D01*
X2780002Y-4652251D01*
X2774922Y-4667745D01*
X2769588Y-4678159D01*
X2759174Y-4688573D01*
X2748760Y-4693653D01*
X2727932Y-4693653D01*
X2717772Y-4688573D01*
X2707358Y-4678159D01*
X2702024Y-4667745D01*
X2696944Y-4652251D01*
X2696944Y-4626343D01*
X2702024Y-4610595D01*
X2707358Y-4600181D01*
X2717772Y-4589767D01*
X2727932Y-4584687D01*
X2748760Y-4584687D01*
X2733266Y-4673079D02*
G01*
X2702024Y-4704067D01*
X2662654Y-4605515D02*
G01*
X2652240Y-4600181D01*
X2636492Y-4584687D01*
X2636492Y-4693653D01*
X2108758Y-4584687D02*
G01*
X2119172Y-4589767D01*
X2129586Y-4600181D01*
X2134920Y-4610595D01*
X2140000Y-4626343D01*
X2140000Y-4652251D01*
X2134920Y-4667745D01*
X2129586Y-4678159D01*
X2119172Y-4688573D01*
X2108758Y-4693653D01*
X2087930Y-4693653D01*
X2077770Y-4688573D01*
X2067356Y-4678159D01*
X2062022Y-4667745D01*
X2056942Y-4652251D01*
X2056942Y-4626343D01*
X2062022Y-4610595D01*
X2067356Y-4600181D01*
X2077770Y-4589767D01*
X2087930Y-4584687D01*
X2108758Y-4584687D01*
X2093264Y-4673079D02*
G01*
X2062022Y-4704067D01*
X2017318Y-4610595D02*
G01*
X2017318Y-4605515D01*
X2012238Y-4595101D01*
X2006904Y-4589767D01*
X1996490Y-4584687D01*
X1975916Y-4584687D01*
X1965502Y-4589767D01*
X1960168Y-4595101D01*
X1955088Y-4605515D01*
X1955088Y-4615929D01*
X1960168Y-4626343D01*
X1970582Y-4641837D01*
X2022652Y-4693653D01*
X1949754Y-4693653D01*
X1580001Y-94683D02*
G01*
X1580001Y-172661D01*
X1574921Y-188155D01*
X1564507Y-198569D01*
X1548759Y-203649D01*
X1538345Y-203649D01*
X1522851Y-198569D01*
X1512437Y-188155D01*
X1507357Y-172661D01*
X1507357Y-94683D01*
X1420997Y-94683D02*
G01*
X1473067Y-167327D01*
X1395089Y-167327D01*
X1420997Y-94683D02*
G01*
X1420997Y-203649D01*
X3309990Y-4524677D02*
G01*
X3309990Y-4633643D01*
X3309990Y-4524677D02*
G01*
X3263254Y-4524677D01*
X3247760Y-4529757D01*
X3242426Y-4535091D01*
X3237346Y-4545505D01*
X3237346Y-4555919D01*
X3242426Y-4566333D01*
X3247760Y-4571413D01*
X3263254Y-4576493D01*
X3309990Y-4576493D01*
X3273668Y-4576493D02*
G01*
X3237346Y-4633643D01*
X3203056Y-4545505D02*
G01*
X3192642Y-4540171D01*
X3176894Y-4524677D01*
X3176894Y-4633643D01*
X1540009Y-4044683D02*
G01*
X1540009Y-4153649D01*
X1540009Y-4044683D02*
G01*
X1493273Y-4044683D01*
X1477779Y-4049763D01*
X1472445Y-4055097D01*
X1467365Y-4065511D01*
X1467365Y-4075925D01*
X1472445Y-4086339D01*
X1477779Y-4091419D01*
X1493273Y-4096499D01*
X1540009Y-4096499D01*
X1503687Y-4096499D02*
G01*
X1467365Y-4153649D01*
X1427741Y-4070591D02*
G01*
X1427741Y-4065511D01*
X1422661Y-4055097D01*
X1417327Y-4049763D01*
X1406913Y-4044683D01*
X1386339Y-4044683D01*
X1375925Y-4049763D01*
X1370591Y-4055097D01*
X1365511Y-4065511D01*
X1365511Y-4075925D01*
X1370591Y-4086339D01*
X1381005Y-4101833D01*
X1433075Y-4153649D01*
X1360177Y-4153649D01*
X2679984Y-5164698D02*
G01*
X2679984Y-5273664D01*
X2679984Y-5164698D02*
G01*
X2633248Y-5164698D01*
X2617754Y-5169778D01*
X2612420Y-5175112D01*
X2607340Y-5185526D01*
X2607340Y-5195940D01*
X2612420Y-5206354D01*
X2617754Y-5211434D01*
X2633248Y-5216514D01*
X2679984Y-5216514D01*
X2643662Y-5216514D02*
G01*
X2607340Y-5273664D01*
X2562636Y-5164698D02*
G01*
X2505486Y-5164698D01*
X2536474Y-5206354D01*
X2520980Y-5206354D01*
X2510566Y-5211434D01*
X2505486Y-5216514D01*
X2500152Y-5232262D01*
X2500152Y-5242676D01*
X2505486Y-5258170D01*
X2515900Y-5268584D01*
X2531394Y-5273664D01*
X2546888Y-5273664D01*
X2562636Y-5268584D01*
X2567716Y-5263504D01*
X2573050Y-5253090D01*
X1539994Y-3734678D02*
G01*
X1539994Y-3843644D01*
X1539994Y-3734678D02*
G01*
X1493258Y-3734678D01*
X1477764Y-3739758D01*
X1472430Y-3745092D01*
X1467350Y-3755506D01*
X1467350Y-3765920D01*
X1472430Y-3776334D01*
X1477764Y-3781414D01*
X1493258Y-3786494D01*
X1539994Y-3786494D01*
X1503672Y-3786494D02*
G01*
X1467350Y-3843644D01*
X1380990Y-3734678D02*
G01*
X1433060Y-3807322D01*
X1355082Y-3807322D01*
X1380990Y-3734678D02*
G01*
X1380990Y-3843644D01*
D10*
X2440002Y-5784303D02*
G01*
X2292812Y-5784303D01*
X2292812Y-5784303D01*
X2120000Y-5784303D01*
X2440000Y-5555703D02*
G01*
X2119998Y-5555703D01*
X2440000Y-5555703D02*
G01*
X2440000Y-5576890D01*
X2440000Y-5763117D02*
G01*
X2440000Y-5784303D01*
X2119998Y-5555703D02*
G01*
X2119998Y-5576890D01*
X2119998Y-5763117D02*
G01*
X2119998Y-5784303D01*
X2348956Y-5555703D02*
G01*
X2348956Y-5784303D01*
X2918797Y-5233001D02*
G01*
X3278799Y-5233001D01*
X2918797Y-5942998D02*
G01*
X3278799Y-5942998D01*
X2918797Y-5942998D02*
G01*
X2918797Y-5774545D01*
X2918797Y-5401454D02*
G01*
X2918797Y-5233001D01*
X3278799Y-5942998D02*
G01*
X3278799Y-5884539D01*
X3278799Y-5751461D02*
G01*
X3278799Y-5654540D01*
X3278799Y-5521459D02*
G01*
X3278799Y-5424538D01*
X3278799Y-5291460D02*
G01*
X3278799Y-5233001D01*
X2114997Y-6409999D02*
G01*
X2114997Y-6570002D01*
X2465003Y-6409999D02*
G01*
X2465001Y-6570004D01*
X2240000Y-6594002D02*
G01*
X2135002Y-6594002D01*
X2240000Y-6386001D02*
G01*
X2135002Y-6386001D01*
X2340000Y-6594002D02*
G01*
X2444998Y-6594002D01*
X2340000Y-6386001D02*
G01*
X2444998Y-6386001D01*
X2465003Y-6408008D02*
G01*
X2465003Y-6409999D01*
X2465003Y-6406006D02*
G01*
X2465003Y-6409999D01*
X2465001Y-6574000D02*
G01*
X2465001Y-6570004D01*
X2114997Y-6406006D02*
G01*
X2114997Y-6409999D01*
X2114997Y-6573997D02*
G01*
X2114997Y-6570002D01*
X2114997Y-5990000D02*
G01*
X2114997Y-6150002D01*
X2465003Y-5990000D02*
G01*
X2465001Y-6150005D01*
X2240000Y-6174003D02*
G01*
X2135002Y-6174003D01*
X2240000Y-5966002D02*
G01*
X2135002Y-5966002D01*
X2340000Y-6174003D02*
G01*
X2444998Y-6174003D01*
X2340000Y-5966002D02*
G01*
X2444998Y-5966002D01*
X2465003Y-5988009D02*
G01*
X2465003Y-5990000D01*
X2465003Y-5986007D02*
G01*
X2465003Y-5990000D01*
X2465001Y-6154000D02*
G01*
X2465001Y-6150005D01*
X2114997Y-5986007D02*
G01*
X2114997Y-5990000D01*
X2114997Y-6153998D02*
G01*
X2114997Y-6150002D01*
X2685999Y-4817110D02*
G01*
X2685999Y-4735601D01*
X2620009Y-4735601D01*
X2459990Y-4735601D02*
G01*
X2394000Y-4735601D01*
X2459990Y-4735601D01*
X2394000Y-4735601D01*
X2394000Y-4817110D01*
D36*
X2569997Y-4890592D02*
G01*
X2510002Y-4890592D01*
D10*
X2000199Y-4817110D02*
G01*
X2000199Y-4735601D01*
X1934209Y-4735601D01*
X1774189Y-4735601D02*
G01*
X1708200Y-4735601D01*
X1774189Y-4735601D01*
X1708200Y-4735601D01*
X1708200Y-4817110D01*
D36*
X1884197Y-4890592D02*
G01*
X1824202Y-4890592D01*
D10*
X1685002Y-1265001D02*
G01*
X1315001Y-1265001D01*
X1315001Y-1265001D02*
G01*
X1315001Y-275000D01*
X1423802Y-275000D01*
X1563502Y-274701D02*
G01*
X1685002Y-274701D01*
X1685002Y-275000D01*
X1685002Y-1265001D01*
X2918005Y-4650003D02*
G01*
X2918005Y-4525002D01*
X3121997Y-4650003D02*
G01*
X3121997Y-4525002D01*
X2918005Y-4750003D02*
G01*
X2918005Y-4875004D01*
X3121997Y-4750003D02*
G01*
X3121997Y-4875004D01*
X2918005Y-4524999D02*
G01*
X3121997Y-4525002D01*
X2918005Y-4875004D02*
G01*
X3121997Y-4875004D01*
X1720001Y-4291998D02*
G01*
X1595000Y-4291998D01*
X1720001Y-4088005D02*
G01*
X1595000Y-4088005D01*
X1820001Y-4291998D02*
G01*
X1945002Y-4291998D01*
X1820001Y-4088005D02*
G01*
X1945002Y-4088005D01*
X1594998Y-4291998D02*
G01*
X1595000Y-4088005D01*
X1945002Y-4291998D02*
G01*
X1945002Y-4088005D01*
X2240000Y-5421998D02*
G01*
X2114999Y-5421998D01*
X2240000Y-5218005D02*
G01*
X2114999Y-5218005D01*
X2340000Y-5421998D02*
G01*
X2465001Y-5421998D01*
X2340000Y-5218005D02*
G01*
X2465001Y-5218005D01*
X2114997Y-5421998D02*
G01*
X2114999Y-5218005D01*
X2465001Y-5421998D02*
G01*
X2465001Y-5218005D01*
X1720001Y-3941998D02*
G01*
X1595000Y-3941998D01*
X1720001Y-3738006D02*
G01*
X1595000Y-3738006D01*
X1820001Y-3941998D02*
G01*
X1945002Y-3941998D01*
X1820001Y-3738006D02*
G01*
X1945002Y-3738006D01*
X1594998Y-3941998D02*
G01*
X1595000Y-3738006D01*
X1945002Y-3941998D02*
G01*
X1945002Y-3738006D01*
G75*
G01*
X2444999Y-6386002D02*
G02*
X2465004Y-6406007I0J-20005D01*
G75*
G01*
X2444999Y-6594003D02*
G03*
X2465001Y-6574000I0J20003D01*
G75*
G01*
X2135002Y-6386002D02*
G03*
X2114997Y-6406007I0J-20005D01*
G75*
G01*
X2135002Y-6594003D02*
G02*
X2114997Y-6573998I0J20005D01*
G75*
G01*
X2444999Y-5966003D02*
G02*
X2465004Y-5986008I0J-20005D01*
G75*
G01*
X2444999Y-6174003D02*
G03*
X2465001Y-6154001I0J20002D01*
G75*
G01*
X2135002Y-5966003D02*
G03*
X2114997Y-5986008I0J-20005D01*
G75*
G01*
X2135002Y-6174003D02*
G02*
X2114997Y-6153998I0J20005D01*
G75*
G01*
X1423802Y-274701D02*
G03*
X1563502Y-274701I69850J0D01*
X2029993Y-5890005D02*
G01*
X2750007Y-5890005D01*
X2750007Y-6840016D01*
X2029993Y-6840016D01*
X2029993Y-5890005D01*
M02*
