G04 Layer: TopSilkLayer*
G04 EasyEDA v6.4.19.5, 2021-06-14T13:18:40+02:00*
G04 9e6975c7382942e3b78031909667385b,1658352ba3c644ceb65f55418ae09dd8,10*
G04 Gerber Generator version 0.2*
G04 Scale: 100 percent, Rotated: No, Reflected: No *
G04 Dimensions in millimeters *
G04 leading zeros omitted , absolute positions ,4 integer and 5 decimal *
%FSLAX45Y45*%
%MOMM*%

%ADD10C,0.2540*%
%ADD12C,0.4000*%
%ADD33C,1.5000*%
%ADD34C,0.2032*%
%ADD35C,0.1524*%

%LPD*%
G36*
X927608Y-7190994D02*
G01*
X911910Y-7193940D01*
X900430Y-7202678D01*
X893368Y-7216952D01*
X891032Y-7236459D01*
X893368Y-7255764D01*
X900430Y-7269988D01*
X911910Y-7278725D01*
X927608Y-7281672D01*
X932383Y-7281418D01*
X937006Y-7280656D01*
X941476Y-7279386D01*
X945642Y-7277608D01*
X945642Y-7258303D01*
X941171Y-7261809D01*
X939088Y-7263130D01*
X934872Y-7265009D01*
X930554Y-7266076D01*
X928369Y-7266178D01*
X923848Y-7265720D01*
X919937Y-7264247D01*
X916584Y-7261910D01*
X913892Y-7258558D01*
X911758Y-7254392D01*
X910285Y-7249363D01*
X909370Y-7243368D01*
X909066Y-7236459D01*
X909370Y-7229449D01*
X910285Y-7223353D01*
X911758Y-7218273D01*
X913892Y-7214108D01*
X916584Y-7210755D01*
X919937Y-7208418D01*
X923848Y-7206945D01*
X928369Y-7206488D01*
X930554Y-7206589D01*
X934872Y-7207503D01*
X937006Y-7208266D01*
X941171Y-7210806D01*
X945642Y-7214362D01*
X945642Y-7195058D01*
X941476Y-7193280D01*
X937006Y-7192009D01*
X932383Y-7191248D01*
G37*
G36*
X846074Y-7190994D02*
G01*
X839825Y-7191400D01*
X834237Y-7192721D01*
X829411Y-7194854D01*
X825246Y-7197852D01*
X821893Y-7201509D01*
X819505Y-7205776D01*
X818083Y-7210755D01*
X817625Y-7216394D01*
X817930Y-7220813D01*
X818794Y-7224775D01*
X820216Y-7228179D01*
X822198Y-7231125D01*
X825042Y-7233869D01*
X828954Y-7236510D01*
X833932Y-7239101D01*
X848360Y-7244842D01*
X852373Y-7246874D01*
X853948Y-7248093D01*
X855218Y-7249414D01*
X856234Y-7250988D01*
X856945Y-7252665D01*
X857351Y-7254392D01*
X857503Y-7256272D01*
X857300Y-7258761D01*
X856589Y-7260945D01*
X855522Y-7262825D01*
X853948Y-7264400D01*
X852017Y-7265720D01*
X849680Y-7266686D01*
X847039Y-7267244D01*
X844042Y-7267448D01*
X840892Y-7267295D01*
X837692Y-7266838D01*
X834542Y-7266025D01*
X828040Y-7263587D01*
X821283Y-7260031D01*
X817880Y-7257796D01*
X817880Y-7275575D01*
X824077Y-7278268D01*
X830580Y-7280148D01*
X837133Y-7281265D01*
X843534Y-7281672D01*
X857300Y-7279995D01*
X867156Y-7275068D01*
X870610Y-7271461D01*
X873048Y-7266990D01*
X874521Y-7261707D01*
X875030Y-7255509D01*
X874725Y-7250785D01*
X873760Y-7246518D01*
X872185Y-7242657D01*
X869950Y-7239253D01*
X867156Y-7236256D01*
X863650Y-7233564D01*
X859434Y-7231176D01*
X847090Y-7226300D01*
X840740Y-7223455D01*
X836930Y-7220966D01*
X835812Y-7219746D01*
X835050Y-7218324D01*
X834542Y-7216698D01*
X834390Y-7214870D01*
X834593Y-7212736D01*
X835253Y-7210806D01*
X836371Y-7209180D01*
X837946Y-7207758D01*
X839774Y-7206640D01*
X841959Y-7205878D01*
X844448Y-7205370D01*
X847344Y-7205218D01*
X853135Y-7205725D01*
X858774Y-7207250D01*
X864565Y-7209790D01*
X867410Y-7211415D01*
X870203Y-7213346D01*
X870203Y-7196328D01*
X864158Y-7194042D01*
X858266Y-7192264D01*
X852169Y-7191298D01*
G37*
G36*
X967740Y-7192518D02*
G01*
X967740Y-7279894D01*
X1021842Y-7279894D01*
X1021842Y-7264653D01*
X985012Y-7264653D01*
X985012Y-7192518D01*
G37*
G36*
X1096010Y-7190943D02*
G01*
X1089761Y-7191349D01*
X1084173Y-7192670D01*
X1079347Y-7194803D01*
X1075182Y-7197801D01*
X1071829Y-7201509D01*
X1069492Y-7205878D01*
X1068019Y-7210806D01*
X1067562Y-7216343D01*
X1067866Y-7220762D01*
X1068730Y-7224725D01*
X1070152Y-7228128D01*
X1072134Y-7231075D01*
X1074978Y-7233818D01*
X1078839Y-7236510D01*
X1083868Y-7239152D01*
X1089914Y-7241743D01*
X1098296Y-7244791D01*
X1102309Y-7246874D01*
X1103884Y-7248144D01*
X1106170Y-7251090D01*
X1106881Y-7252716D01*
X1107287Y-7254494D01*
X1107440Y-7256475D01*
X1107236Y-7258862D01*
X1106576Y-7261047D01*
X1105458Y-7262926D01*
X1103884Y-7264603D01*
X1102004Y-7265822D01*
X1099769Y-7266686D01*
X1097076Y-7267194D01*
X1093978Y-7267397D01*
X1087729Y-7266838D01*
X1084529Y-7266127D01*
X1081278Y-7265111D01*
X1074724Y-7262012D01*
X1067816Y-7257745D01*
X1067816Y-7275525D01*
X1074013Y-7278166D01*
X1080516Y-7280097D01*
X1087069Y-7281214D01*
X1093470Y-7281621D01*
X1107389Y-7280046D01*
X1117092Y-7275271D01*
X1120546Y-7271562D01*
X1122984Y-7266990D01*
X1124458Y-7261656D01*
X1124966Y-7255459D01*
X1124661Y-7250734D01*
X1123746Y-7246416D01*
X1122273Y-7242606D01*
X1120140Y-7239203D01*
X1117244Y-7236206D01*
X1113739Y-7233462D01*
X1109522Y-7231125D01*
X1104646Y-7229043D01*
X1093520Y-7224877D01*
X1088440Y-7222185D01*
X1086866Y-7220915D01*
X1085850Y-7219696D01*
X1085138Y-7218324D01*
X1084732Y-7216749D01*
X1084580Y-7215073D01*
X1084783Y-7212787D01*
X1085392Y-7210806D01*
X1086459Y-7209129D01*
X1087882Y-7207707D01*
X1089710Y-7206589D01*
X1091946Y-7205776D01*
X1094536Y-7205319D01*
X1100328Y-7205268D01*
X1105916Y-7206284D01*
X1111605Y-7208316D01*
X1117346Y-7211364D01*
X1120140Y-7213295D01*
X1120140Y-7196277D01*
X1114247Y-7193991D01*
X1108202Y-7192213D01*
X1102106Y-7191248D01*
G37*
G36*
X1230122Y-7192467D02*
G01*
X1216222Y-7244029D01*
X1232408Y-7244029D01*
X1240536Y-7208469D01*
X1248664Y-7244029D01*
X1216222Y-7244029D01*
X1206500Y-7280097D01*
X1223772Y-7280097D01*
X1229106Y-7258507D01*
X1252220Y-7258507D01*
X1257554Y-7280097D01*
X1274826Y-7280097D01*
X1251204Y-7192467D01*
G37*
G36*
X1140206Y-7192467D02*
G01*
X1140206Y-7208215D01*
X1162304Y-7208215D01*
X1167028Y-7208621D01*
X1170990Y-7209790D01*
X1174242Y-7211771D01*
X1176782Y-7214565D01*
X1178661Y-7218273D01*
X1180033Y-7223150D01*
X1180846Y-7229094D01*
X1181100Y-7236155D01*
X1180846Y-7243318D01*
X1180033Y-7249363D01*
X1178661Y-7254240D01*
X1176782Y-7257999D01*
X1174242Y-7260793D01*
X1170990Y-7262774D01*
X1167028Y-7263942D01*
X1162304Y-7264349D01*
X1157478Y-7264349D01*
X1157478Y-7208215D01*
X1140206Y-7208215D01*
X1140206Y-7280097D01*
X1158748Y-7280097D01*
X1177290Y-7277506D01*
X1189736Y-7269683D01*
X1196797Y-7256221D01*
X1199134Y-7236155D01*
X1196797Y-7216190D01*
X1189736Y-7202627D01*
X1177290Y-7195007D01*
X1158748Y-7192467D01*
G37*
G36*
X1363116Y-7190994D02*
G01*
X1347622Y-7193940D01*
X1336192Y-7202678D01*
X1329182Y-7216952D01*
X1326794Y-7236459D01*
X1329182Y-7255611D01*
X1336192Y-7269988D01*
X1347317Y-7278725D01*
X1362354Y-7281672D01*
X1365758Y-7281519D01*
X1369060Y-7281113D01*
X1372209Y-7280402D01*
X1378204Y-7278217D01*
X1380998Y-7276795D01*
X1383639Y-7275068D01*
X1386230Y-7273036D01*
X1386230Y-7232903D01*
X1359306Y-7232903D01*
X1359306Y-7247381D01*
X1370990Y-7247381D01*
X1370990Y-7264146D01*
X1369720Y-7265060D01*
X1367942Y-7265670D01*
X1365758Y-7266076D01*
X1363116Y-7266178D01*
X1358950Y-7265720D01*
X1355242Y-7264247D01*
X1352092Y-7261910D01*
X1349400Y-7258558D01*
X1347419Y-7254341D01*
X1345996Y-7249210D01*
X1345133Y-7243267D01*
X1344828Y-7236459D01*
X1345133Y-7229348D01*
X1346047Y-7223201D01*
X1347571Y-7218019D01*
X1349654Y-7213853D01*
X1352397Y-7210653D01*
X1355750Y-7208316D01*
X1359763Y-7206945D01*
X1364386Y-7206488D01*
X1367129Y-7206640D01*
X1369822Y-7207046D01*
X1372362Y-7207758D01*
X1374800Y-7208774D01*
X1377035Y-7210145D01*
X1381252Y-7213701D01*
X1383182Y-7215886D01*
X1383182Y-7196836D01*
X1378508Y-7194346D01*
X1373530Y-7192518D01*
X1368399Y-7191349D01*
G37*
G36*
X1472590Y-7192518D02*
G01*
X1472590Y-7208012D01*
X1494434Y-7208012D01*
X1499158Y-7208418D01*
X1503172Y-7209688D01*
X1506423Y-7211720D01*
X1508912Y-7214616D01*
X1510792Y-7218324D01*
X1512163Y-7223201D01*
X1512976Y-7229144D01*
X1513230Y-7236206D01*
X1512976Y-7243368D01*
X1512163Y-7249414D01*
X1510792Y-7254290D01*
X1508912Y-7258050D01*
X1506423Y-7260844D01*
X1503172Y-7262825D01*
X1499158Y-7263993D01*
X1494434Y-7264400D01*
X1489862Y-7264400D01*
X1489862Y-7208012D01*
X1472590Y-7208012D01*
X1472590Y-7279894D01*
X1491132Y-7279894D01*
X1509522Y-7277353D01*
X1521866Y-7269734D01*
X1528927Y-7256170D01*
X1531264Y-7236206D01*
X1528927Y-7216241D01*
X1521866Y-7202678D01*
X1509522Y-7195058D01*
X1491132Y-7192518D01*
G37*
G36*
X1399184Y-7192518D02*
G01*
X1399184Y-7279894D01*
X1414424Y-7279894D01*
X1414424Y-7216394D01*
X1438808Y-7279894D01*
X1457350Y-7279894D01*
X1457350Y-7192518D01*
X1442110Y-7192518D01*
X1442110Y-7256018D01*
X1417726Y-7192518D01*
G37*
G36*
X1674672Y-7190994D02*
G01*
X1668983Y-7191298D01*
X1663242Y-7192264D01*
X1657045Y-7193584D01*
X1650796Y-7195566D01*
X1650796Y-7211822D01*
X1656994Y-7208723D01*
X1665732Y-7205573D01*
X1670913Y-7204608D01*
X1673402Y-7204456D01*
X1676400Y-7204659D01*
X1679041Y-7205268D01*
X1681327Y-7206335D01*
X1683308Y-7207758D01*
X1684832Y-7209485D01*
X1685950Y-7211568D01*
X1686610Y-7214057D01*
X1686864Y-7216902D01*
X1686407Y-7220712D01*
X1685086Y-7224522D01*
X1682445Y-7228636D01*
X1678736Y-7233412D01*
X1649018Y-7265162D01*
X1649018Y-7279894D01*
X1704644Y-7279894D01*
X1704644Y-7264653D01*
X1667814Y-7264653D01*
X1686052Y-7246366D01*
X1694535Y-7237323D01*
X1698752Y-7232040D01*
X1700377Y-7229551D01*
X1702612Y-7224775D01*
X1703933Y-7220102D01*
X1704390Y-7215124D01*
X1703882Y-7209840D01*
X1702409Y-7205065D01*
X1699920Y-7200950D01*
X1696516Y-7197344D01*
X1692198Y-7194550D01*
X1687118Y-7192568D01*
X1681276Y-7191400D01*
G37*
G36*
X1717852Y-7192518D02*
G01*
X1738680Y-7279894D01*
X1762556Y-7279894D01*
X1783384Y-7192518D01*
X1766112Y-7192518D01*
X1750618Y-7265670D01*
X1735378Y-7192518D01*
G37*
G36*
X1600504Y-7192518D02*
G01*
X1582470Y-7196836D01*
X1582470Y-7212330D01*
X1600250Y-7208012D01*
X1600250Y-7264653D01*
X1580946Y-7264653D01*
X1580946Y-7279894D01*
X1636572Y-7279894D01*
X1636572Y-7264653D01*
X1617268Y-7264653D01*
X1617268Y-7192518D01*
G37*
G36*
X3037586Y-7190994D02*
G01*
X3021888Y-7193940D01*
X3010408Y-7202678D01*
X3003550Y-7216952D01*
X3001264Y-7236459D01*
X3003550Y-7255764D01*
X3010408Y-7269988D01*
X3021888Y-7278725D01*
X3037586Y-7281672D01*
X3042361Y-7281418D01*
X3046984Y-7280656D01*
X3051454Y-7279386D01*
X3055620Y-7277608D01*
X3055620Y-7258303D01*
X3051200Y-7261809D01*
X3046984Y-7264146D01*
X3042666Y-7265670D01*
X3040481Y-7266076D01*
X3038348Y-7266178D01*
X3033826Y-7265720D01*
X3029915Y-7264247D01*
X3026562Y-7261910D01*
X3023870Y-7258558D01*
X3021736Y-7254392D01*
X3020263Y-7249363D01*
X3019348Y-7243368D01*
X3019044Y-7236459D01*
X3019348Y-7229449D01*
X3020263Y-7223353D01*
X3021736Y-7218273D01*
X3023870Y-7214108D01*
X3026562Y-7210755D01*
X3029915Y-7208418D01*
X3033826Y-7206945D01*
X3038348Y-7206488D01*
X3042666Y-7206945D01*
X3046984Y-7208266D01*
X3051200Y-7210806D01*
X3055620Y-7214362D01*
X3055620Y-7195058D01*
X3051454Y-7193280D01*
X3046984Y-7192009D01*
X3042361Y-7191248D01*
G37*
G36*
X2956052Y-7190994D02*
G01*
X2949803Y-7191400D01*
X2944215Y-7192721D01*
X2939389Y-7194854D01*
X2935224Y-7197852D01*
X2931871Y-7201509D01*
X2929534Y-7205776D01*
X2928061Y-7210755D01*
X2927604Y-7216394D01*
X2927908Y-7220813D01*
X2928772Y-7224775D01*
X2930194Y-7228179D01*
X2932176Y-7231125D01*
X2935020Y-7233869D01*
X2938881Y-7236510D01*
X2943910Y-7239101D01*
X2958338Y-7244842D01*
X2962351Y-7246874D01*
X2963926Y-7248093D01*
X2965196Y-7249414D01*
X2966212Y-7250988D01*
X2966923Y-7252665D01*
X2967329Y-7254392D01*
X2967482Y-7256272D01*
X2967278Y-7258761D01*
X2966618Y-7260945D01*
X2965500Y-7262825D01*
X2963926Y-7264400D01*
X2961995Y-7265720D01*
X2959658Y-7266686D01*
X2957017Y-7267244D01*
X2954020Y-7267448D01*
X2950870Y-7267295D01*
X2947670Y-7266838D01*
X2944520Y-7266025D01*
X2938018Y-7263587D01*
X2931261Y-7260031D01*
X2927858Y-7257796D01*
X2927858Y-7275575D01*
X2934106Y-7278268D01*
X2940558Y-7280148D01*
X2947111Y-7281265D01*
X2953512Y-7281672D01*
X2967431Y-7279995D01*
X2977134Y-7275068D01*
X2980588Y-7271461D01*
X2983026Y-7266990D01*
X2984500Y-7261707D01*
X2985008Y-7255509D01*
X2984703Y-7250785D01*
X2983788Y-7246518D01*
X2982315Y-7242657D01*
X2980182Y-7239253D01*
X2977286Y-7236256D01*
X2973730Y-7233564D01*
X2969412Y-7231176D01*
X2957068Y-7226300D01*
X2950718Y-7223455D01*
X2946908Y-7220966D01*
X2945790Y-7219746D01*
X2944977Y-7218324D01*
X2944520Y-7216698D01*
X2944368Y-7214870D01*
X2944571Y-7212736D01*
X2945231Y-7210806D01*
X2946349Y-7209180D01*
X2947924Y-7207758D01*
X2949752Y-7206640D01*
X2951937Y-7205878D01*
X2954426Y-7205370D01*
X2957322Y-7205218D01*
X2963113Y-7205725D01*
X2968752Y-7207250D01*
X2974543Y-7209790D01*
X2977388Y-7211415D01*
X2980182Y-7213346D01*
X2980182Y-7196328D01*
X2974136Y-7194042D01*
X2968244Y-7192264D01*
X2962148Y-7191298D01*
G37*
G36*
X3077718Y-7192518D02*
G01*
X3077718Y-7279894D01*
X3131820Y-7279894D01*
X3131820Y-7264653D01*
X3094990Y-7264653D01*
X3094990Y-7192518D01*
G37*
G36*
X2706116Y-7190994D02*
G01*
X2699867Y-7191400D01*
X2694330Y-7192721D01*
X2689453Y-7194854D01*
X2685288Y-7197852D01*
X2681935Y-7201509D01*
X2679547Y-7205776D01*
X2678125Y-7210755D01*
X2677668Y-7216394D01*
X2677972Y-7220813D01*
X2678836Y-7224775D01*
X2680258Y-7228179D01*
X2682240Y-7231125D01*
X2685034Y-7233869D01*
X2688894Y-7236510D01*
X2693822Y-7239101D01*
X2708402Y-7244842D01*
X2712262Y-7246874D01*
X2715260Y-7249414D01*
X2716276Y-7250988D01*
X2716987Y-7252665D01*
X2717393Y-7254392D01*
X2717546Y-7256272D01*
X2717342Y-7258761D01*
X2716631Y-7260945D01*
X2715564Y-7262825D01*
X2713990Y-7264400D01*
X2712059Y-7265720D01*
X2709722Y-7266686D01*
X2707081Y-7267244D01*
X2704084Y-7267448D01*
X2700934Y-7267295D01*
X2697734Y-7266838D01*
X2694584Y-7266025D01*
X2688082Y-7263587D01*
X2681325Y-7260031D01*
X2677922Y-7257796D01*
X2677922Y-7275575D01*
X2684170Y-7278268D01*
X2690622Y-7280148D01*
X2697022Y-7281265D01*
X2703576Y-7281672D01*
X2717342Y-7279995D01*
X2727198Y-7275068D01*
X2730652Y-7271461D01*
X2733090Y-7266990D01*
X2734564Y-7261707D01*
X2735072Y-7255509D01*
X2734767Y-7250785D01*
X2733802Y-7246518D01*
X2732227Y-7242657D01*
X2729992Y-7239253D01*
X2727198Y-7236256D01*
X2723692Y-7233564D01*
X2719476Y-7231176D01*
X2707132Y-7226300D01*
X2700680Y-7223455D01*
X2698445Y-7222134D01*
X2696972Y-7220966D01*
X2695854Y-7219746D01*
X2695041Y-7218324D01*
X2694584Y-7216698D01*
X2694432Y-7214870D01*
X2694635Y-7212736D01*
X2695244Y-7210806D01*
X2696311Y-7209180D01*
X2697734Y-7207758D01*
X2699664Y-7206640D01*
X2701950Y-7205878D01*
X2704490Y-7205370D01*
X2707386Y-7205218D01*
X2713024Y-7205725D01*
X2718816Y-7207250D01*
X2724607Y-7209790D01*
X2727452Y-7211415D01*
X2730246Y-7213346D01*
X2730246Y-7196328D01*
X2724150Y-7194042D01*
X2718054Y-7192264D01*
X2712161Y-7191298D01*
G37*
G36*
X2839974Y-7192518D02*
G01*
X2826034Y-7244080D01*
X2842514Y-7244080D01*
X2850642Y-7208266D01*
X2858770Y-7244080D01*
X2826034Y-7244080D01*
X2816352Y-7279894D01*
X2833624Y-7279894D01*
X2838958Y-7258303D01*
X2862072Y-7258303D01*
X2867406Y-7279894D01*
X2884932Y-7279894D01*
X2861310Y-7192518D01*
G37*
G36*
X2750312Y-7192518D02*
G01*
X2750312Y-7208012D01*
X2772156Y-7208012D01*
X2776982Y-7208418D01*
X2781046Y-7209688D01*
X2784348Y-7211720D01*
X2786888Y-7214616D01*
X2788767Y-7218324D01*
X2790139Y-7223201D01*
X2790952Y-7229144D01*
X2791206Y-7236206D01*
X2790952Y-7243368D01*
X2790139Y-7249414D01*
X2788767Y-7254290D01*
X2786888Y-7258050D01*
X2784348Y-7260844D01*
X2781046Y-7262825D01*
X2776982Y-7263993D01*
X2772156Y-7264400D01*
X2767584Y-7264400D01*
X2767584Y-7208012D01*
X2750312Y-7208012D01*
X2750312Y-7279894D01*
X2768854Y-7279894D01*
X2787192Y-7277353D01*
X2799588Y-7269734D01*
X2806649Y-7256170D01*
X2808986Y-7236206D01*
X2806649Y-7216241D01*
X2799588Y-7202678D01*
X2787192Y-7195058D01*
X2768854Y-7192518D01*
G37*
G36*
X2453132Y-7190994D02*
G01*
X2437638Y-7193940D01*
X2426208Y-7202678D01*
X2419146Y-7216952D01*
X2416810Y-7236459D01*
X2419146Y-7255611D01*
X2426208Y-7269988D01*
X2437333Y-7278725D01*
X2452370Y-7281672D01*
X2455773Y-7281519D01*
X2459024Y-7281113D01*
X2462225Y-7280402D01*
X2468219Y-7278217D01*
X2470962Y-7276795D01*
X2473655Y-7275068D01*
X2476246Y-7273036D01*
X2476246Y-7232903D01*
X2449322Y-7232903D01*
X2449322Y-7247381D01*
X2461006Y-7247381D01*
X2461006Y-7264146D01*
X2459736Y-7265060D01*
X2457958Y-7265670D01*
X2455722Y-7266076D01*
X2453132Y-7266178D01*
X2448915Y-7265720D01*
X2445258Y-7264247D01*
X2442057Y-7261910D01*
X2439416Y-7258558D01*
X2437434Y-7254341D01*
X2435961Y-7249210D01*
X2435148Y-7243267D01*
X2434844Y-7236459D01*
X2435148Y-7229348D01*
X2436063Y-7223201D01*
X2437536Y-7218019D01*
X2439670Y-7213853D01*
X2442413Y-7210653D01*
X2445766Y-7208316D01*
X2449779Y-7206945D01*
X2454402Y-7206488D01*
X2457145Y-7206640D01*
X2459786Y-7207046D01*
X2462377Y-7207758D01*
X2464816Y-7208774D01*
X2467051Y-7210145D01*
X2471267Y-7213701D01*
X2473198Y-7215886D01*
X2473198Y-7196836D01*
X2468473Y-7194346D01*
X2463546Y-7192518D01*
X2458415Y-7191349D01*
G37*
G36*
X2562606Y-7192518D02*
G01*
X2562606Y-7208012D01*
X2584450Y-7208012D01*
X2589174Y-7208418D01*
X2593136Y-7209688D01*
X2596388Y-7211720D01*
X2598928Y-7214616D01*
X2600807Y-7218324D01*
X2602179Y-7223201D01*
X2602992Y-7229144D01*
X2603246Y-7236206D01*
X2602992Y-7243368D01*
X2602179Y-7249414D01*
X2600807Y-7254290D01*
X2598928Y-7258050D01*
X2596388Y-7260844D01*
X2593136Y-7262825D01*
X2589174Y-7263993D01*
X2584450Y-7264400D01*
X2579878Y-7264400D01*
X2579878Y-7208012D01*
X2562606Y-7208012D01*
X2562606Y-7279894D01*
X2581148Y-7279894D01*
X2599486Y-7277353D01*
X2611882Y-7269734D01*
X2618943Y-7256170D01*
X2621280Y-7236206D01*
X2618943Y-7216241D01*
X2611882Y-7202678D01*
X2599486Y-7195058D01*
X2581148Y-7192518D01*
G37*
G36*
X2489200Y-7192518D02*
G01*
X2489200Y-7279894D01*
X2504440Y-7279894D01*
X2504440Y-7216394D01*
X2528824Y-7279894D01*
X2547366Y-7279894D01*
X2547366Y-7192518D01*
X2532126Y-7192518D01*
X2532126Y-7256018D01*
X2507742Y-7192518D01*
G37*
G36*
X2274671Y-7190994D02*
G01*
X2268982Y-7191298D01*
X2263241Y-7192264D01*
X2257044Y-7193584D01*
X2250795Y-7195566D01*
X2250795Y-7211822D01*
X2256993Y-7208723D01*
X2265730Y-7205573D01*
X2270912Y-7204608D01*
X2273401Y-7204456D01*
X2276398Y-7204659D01*
X2279040Y-7205268D01*
X2281326Y-7206335D01*
X2283307Y-7207758D01*
X2284831Y-7209485D01*
X2285949Y-7211568D01*
X2286609Y-7214057D01*
X2286863Y-7216902D01*
X2286406Y-7220712D01*
X2285085Y-7224522D01*
X2282444Y-7228636D01*
X2278735Y-7233412D01*
X2249017Y-7265162D01*
X2249017Y-7279894D01*
X2304643Y-7279894D01*
X2304643Y-7264653D01*
X2267813Y-7264653D01*
X2286050Y-7246366D01*
X2294534Y-7237323D01*
X2298750Y-7232040D01*
X2300376Y-7229551D01*
X2302611Y-7224775D01*
X2303932Y-7220102D01*
X2304389Y-7215124D01*
X2303881Y-7209840D01*
X2302408Y-7205065D01*
X2299919Y-7200950D01*
X2296515Y-7197344D01*
X2292197Y-7194550D01*
X2287117Y-7192568D01*
X2281275Y-7191400D01*
G37*
G36*
X2317851Y-7192518D02*
G01*
X2338679Y-7279894D01*
X2362555Y-7279894D01*
X2383383Y-7192518D01*
X2366111Y-7192518D01*
X2350617Y-7265670D01*
X2335377Y-7192518D01*
G37*
G36*
X2200503Y-7192518D02*
G01*
X2182469Y-7196836D01*
X2182469Y-7212330D01*
X2200249Y-7208012D01*
X2200249Y-7264653D01*
X2180945Y-7264653D01*
X2180945Y-7279894D01*
X2236571Y-7279894D01*
X2236571Y-7264653D01*
X2217267Y-7264653D01*
X2217267Y-7192518D01*
G37*
G36*
X3127451Y-2364790D02*
G01*
X3127451Y-2404922D01*
X3161741Y-2404922D01*
X3161741Y-2364790D01*
G37*
G36*
X2871673Y-2377744D02*
G01*
X2871673Y-2447340D01*
X2868371Y-2442260D01*
X2864815Y-2437841D01*
X2861005Y-2434132D01*
X2856941Y-2431084D01*
X2852623Y-2428646D01*
X2848051Y-2426919D01*
X2843225Y-2425852D01*
X2838145Y-2425496D01*
X2827121Y-2426614D01*
X2817469Y-2429967D01*
X2809087Y-2435504D01*
X2802077Y-2443276D01*
X2796641Y-2453284D01*
X2792780Y-2465120D01*
X2790444Y-2478887D01*
X2789643Y-2494838D01*
X2823921Y-2494838D01*
X2825496Y-2477820D01*
X2830271Y-2464866D01*
X2833725Y-2460193D01*
X2837789Y-2456891D01*
X2842361Y-2454859D01*
X2847543Y-2454198D01*
X2852877Y-2454859D01*
X2857601Y-2456891D01*
X2861767Y-2460193D01*
X2865323Y-2464866D01*
X2870098Y-2477820D01*
X2871673Y-2494838D01*
X2870098Y-2511704D01*
X2865323Y-2524556D01*
X2861767Y-2529230D01*
X2857601Y-2532583D01*
X2852877Y-2534564D01*
X2847543Y-2535224D01*
X2842361Y-2534564D01*
X2837789Y-2532583D01*
X2833725Y-2529230D01*
X2830271Y-2524556D01*
X2825496Y-2511653D01*
X2823921Y-2494838D01*
X2789643Y-2494838D01*
X2790393Y-2510078D01*
X2792679Y-2523693D01*
X2796489Y-2535478D01*
X2801823Y-2545384D01*
X2808681Y-2553309D01*
X2816809Y-2558897D01*
X2826207Y-2562301D01*
X2836875Y-2563418D01*
X2842666Y-2563063D01*
X2848000Y-2561996D01*
X2852928Y-2560167D01*
X2857449Y-2557576D01*
X2861614Y-2554427D01*
X2865323Y-2550515D01*
X2868676Y-2545943D01*
X2871673Y-2540558D01*
X2871673Y-2560116D01*
X2905963Y-2560116D01*
X2905963Y-2377744D01*
G37*
G36*
X2540965Y-2385110D02*
G01*
X2513275Y-2488234D01*
X2545791Y-2488234D01*
X2562301Y-2416606D01*
X2578557Y-2488234D01*
X2513275Y-2488234D01*
X2493975Y-2560116D01*
X2528519Y-2560116D01*
X2538933Y-2516682D01*
X2585161Y-2516682D01*
X2596083Y-2560116D01*
X2630627Y-2560116D01*
X2583383Y-2385110D01*
G37*
G36*
X3429203Y-2425496D02*
G01*
X3415995Y-2426665D01*
X3404209Y-2430170D01*
X3393897Y-2435961D01*
X3385007Y-2444038D01*
X3377793Y-2454249D01*
X3372612Y-2466086D01*
X3369564Y-2479548D01*
X3368497Y-2494584D01*
X3402787Y-2494584D01*
X3404565Y-2477262D01*
X3409899Y-2464358D01*
X3413709Y-2459583D01*
X3418179Y-2456180D01*
X3423361Y-2454148D01*
X3429203Y-2453436D01*
X3435096Y-2454148D01*
X3440277Y-2456180D01*
X3444748Y-2459583D01*
X3448507Y-2464358D01*
X3453841Y-2477262D01*
X3455619Y-2494584D01*
X3453841Y-2511755D01*
X3448507Y-2524556D01*
X3444748Y-2529332D01*
X3440277Y-2532786D01*
X3435096Y-2534818D01*
X3429203Y-2535478D01*
X3423361Y-2534818D01*
X3418179Y-2532786D01*
X3413709Y-2529332D01*
X3409899Y-2524556D01*
X3404565Y-2511755D01*
X3402787Y-2494584D01*
X3368497Y-2494584D01*
X3369564Y-2509672D01*
X3372612Y-2523032D01*
X3377793Y-2534818D01*
X3385007Y-2544876D01*
X3393897Y-2553004D01*
X3404209Y-2558796D01*
X3415995Y-2562250D01*
X3429203Y-2563418D01*
X3442462Y-2562250D01*
X3454247Y-2558796D01*
X3464560Y-2553004D01*
X3473399Y-2544876D01*
X3480612Y-2534818D01*
X3485794Y-2523032D01*
X3488893Y-2509621D01*
X3489909Y-2494584D01*
X3488893Y-2479548D01*
X3485794Y-2466086D01*
X3480612Y-2454249D01*
X3473399Y-2444038D01*
X3464560Y-2435961D01*
X3454247Y-2430119D01*
X3442462Y-2426665D01*
G37*
G36*
X3300425Y-2425496D02*
G01*
X3294430Y-2425903D01*
X3288893Y-2427020D01*
X3283762Y-2428951D01*
X3279089Y-2431592D01*
X3275076Y-2434844D01*
X3271672Y-2438704D01*
X3268878Y-2443226D01*
X3266643Y-2448356D01*
X3266643Y-2428798D01*
X3232607Y-2428798D01*
X3232607Y-2560116D01*
X3266643Y-2560116D01*
X3266643Y-2484932D01*
X3266998Y-2477973D01*
X3268014Y-2471826D01*
X3269640Y-2466441D01*
X3271977Y-2461818D01*
X3274923Y-2458161D01*
X3278327Y-2455570D01*
X3282289Y-2453995D01*
X3286709Y-2453436D01*
X3290976Y-2453843D01*
X3294583Y-2454960D01*
X3297580Y-2456891D01*
X3299917Y-2459532D01*
X3301695Y-2463190D01*
X3302965Y-2467864D01*
X3303727Y-2473502D01*
X3303981Y-2480106D01*
X3303981Y-2560116D01*
X3338017Y-2560116D01*
X3338017Y-2474772D01*
X3337407Y-2463342D01*
X3335629Y-2453386D01*
X3332581Y-2444902D01*
X3328365Y-2437942D01*
X3316681Y-2428595D01*
G37*
G36*
X2742641Y-2425496D02*
G01*
X2729788Y-2427071D01*
X2718511Y-2431846D01*
X2713532Y-2435199D01*
X2709316Y-2439212D01*
X2705811Y-2443835D01*
X2703017Y-2449118D01*
X2703017Y-2428798D01*
X2668473Y-2428798D01*
X2668473Y-2560116D01*
X2703017Y-2560116D01*
X2703118Y-2493467D01*
X2703576Y-2483967D01*
X2704642Y-2477312D01*
X2705506Y-2474468D01*
X2706573Y-2471826D01*
X2707843Y-2469438D01*
X2710383Y-2466086D01*
X2713329Y-2463139D01*
X2716733Y-2460650D01*
X2720543Y-2458516D01*
X2724810Y-2456840D01*
X2729382Y-2455672D01*
X2734310Y-2454960D01*
X2739593Y-2454706D01*
X2744063Y-2454859D01*
X2748330Y-2455367D01*
X2752344Y-2456129D01*
X2756103Y-2457246D01*
X2759811Y-2458669D01*
X2763215Y-2460447D01*
X2766415Y-2462479D01*
X2769311Y-2464866D01*
X2769311Y-2432354D01*
X2763113Y-2429459D01*
X2756611Y-2427274D01*
X2749702Y-2425954D01*
X2746197Y-2425598D01*
G37*
G36*
X3093923Y-2428798D02*
G01*
X3093923Y-2455214D01*
X3127451Y-2455214D01*
X3127451Y-2533700D01*
X3084779Y-2533700D01*
X3084779Y-2560116D01*
X3204413Y-2560116D01*
X3204413Y-2533700D01*
X3161741Y-2533700D01*
X3161741Y-2428798D01*
G37*
G36*
X2942285Y-2428798D02*
G01*
X2942285Y-2514142D01*
X2942894Y-2525623D01*
X2944672Y-2535580D01*
X2947568Y-2544013D01*
X2951683Y-2550972D01*
X2963621Y-2560320D01*
X2980131Y-2563418D01*
X2986024Y-2563063D01*
X2991510Y-2561894D01*
X2996590Y-2560015D01*
X3001213Y-2557322D01*
X3005226Y-2554122D01*
X3008579Y-2550210D01*
X3011322Y-2545689D01*
X3013405Y-2540558D01*
X3013405Y-2560116D01*
X3047695Y-2560116D01*
X3047695Y-2428798D01*
X3013405Y-2428798D01*
X3013405Y-2503982D01*
X3013100Y-2511044D01*
X3012135Y-2517292D01*
X3010560Y-2522626D01*
X3008325Y-2527096D01*
X3005429Y-2530652D01*
X3002026Y-2533192D01*
X2998216Y-2534716D01*
X2993847Y-2535224D01*
X2989529Y-2534869D01*
X2985871Y-2533700D01*
X2982925Y-2531821D01*
X2980639Y-2529128D01*
X2978861Y-2525572D01*
X2977591Y-2521000D01*
X2976829Y-2515412D01*
X2976575Y-2508808D01*
X2976575Y-2428798D01*
G37*
G36*
X2724099Y-2695092D02*
G01*
X2724099Y-2870098D01*
X2754274Y-2870098D01*
X2754274Y-2742844D01*
X2803347Y-2870098D01*
X2840431Y-2870098D01*
X2840431Y-2695092D01*
X2809951Y-2695092D01*
X2809951Y-2822092D01*
X2761183Y-2695092D01*
G37*
G36*
X3215538Y-2735478D02*
G01*
X3202432Y-2736646D01*
X3190697Y-2740202D01*
X3180334Y-2746044D01*
X3171342Y-2754274D01*
X3164128Y-2764383D01*
X3158998Y-2776118D01*
X3155899Y-2789529D01*
X3154883Y-2804566D01*
X3189427Y-2804566D01*
X3191103Y-2787345D01*
X3196285Y-2774340D01*
X3200146Y-2769565D01*
X3204667Y-2766161D01*
X3209798Y-2764129D01*
X3215538Y-2763418D01*
X3226663Y-2766161D01*
X3235147Y-2774340D01*
X3240430Y-2787345D01*
X3242208Y-2804566D01*
X3240481Y-2821736D01*
X3235147Y-2834538D01*
X3226663Y-2842717D01*
X3215538Y-2845460D01*
X3209798Y-2844800D01*
X3204616Y-2842717D01*
X3200146Y-2839313D01*
X3196285Y-2834538D01*
X3191103Y-2821736D01*
X3189427Y-2804566D01*
X3154883Y-2804566D01*
X3155899Y-2819603D01*
X3158998Y-2833014D01*
X3164128Y-2844749D01*
X3171342Y-2854858D01*
X3180334Y-2862986D01*
X3190697Y-2868777D01*
X3202432Y-2872232D01*
X3215538Y-2873400D01*
X3228797Y-2872232D01*
X3240633Y-2868777D01*
X3251047Y-2862986D01*
X3259988Y-2854858D01*
X3267252Y-2844749D01*
X3272383Y-2833014D01*
X3275482Y-2819603D01*
X3276549Y-2804566D01*
X3275482Y-2789529D01*
X3272383Y-2776118D01*
X3267252Y-2764383D01*
X3259988Y-2754274D01*
X3251047Y-2746044D01*
X3240633Y-2740202D01*
X3228797Y-2736646D01*
G37*
G36*
X3086811Y-2735478D02*
G01*
X3080816Y-2735884D01*
X3075279Y-2737002D01*
X3070250Y-2738932D01*
X3065729Y-2741574D01*
X3061614Y-2744825D01*
X3058160Y-2748686D01*
X3055366Y-2753207D01*
X3053283Y-2758338D01*
X3053283Y-2738780D01*
X3019247Y-2738780D01*
X3019247Y-2870098D01*
X3053283Y-2870098D01*
X3053283Y-2794914D01*
X3053588Y-2787954D01*
X3054604Y-2781757D01*
X3056280Y-2776372D01*
X3058617Y-2771800D01*
X3061512Y-2768142D01*
X3064865Y-2765501D01*
X3068726Y-2763926D01*
X3073095Y-2763418D01*
X3077311Y-2763824D01*
X3080918Y-2764942D01*
X3083915Y-2766872D01*
X3086252Y-2769514D01*
X3088030Y-2773172D01*
X3089351Y-2777845D01*
X3090113Y-2783484D01*
X3090367Y-2790088D01*
X3090367Y-2870098D01*
X3124352Y-2870098D01*
X3124352Y-2784754D01*
X3123793Y-2773324D01*
X3122015Y-2763367D01*
X3119069Y-2754884D01*
X3114954Y-2747924D01*
X3103219Y-2738577D01*
G37*
G36*
X2926486Y-2735478D02*
G01*
X2919984Y-2735630D01*
X2913684Y-2736037D01*
X2907538Y-2736748D01*
X2901645Y-2737764D01*
X2895803Y-2739034D01*
X2890012Y-2740609D01*
X2884220Y-2742488D01*
X2878531Y-2744622D01*
X2878531Y-2774086D01*
X2890774Y-2768193D01*
X2902661Y-2764180D01*
X2908401Y-2762859D01*
X2914294Y-2761894D01*
X2920339Y-2761335D01*
X2926486Y-2761132D01*
X2932023Y-2761386D01*
X2936798Y-2762148D01*
X2940913Y-2763418D01*
X2944317Y-2765196D01*
X2946857Y-2767634D01*
X2948686Y-2770530D01*
X2949752Y-2773984D01*
X2950108Y-2777896D01*
X2950108Y-2783738D01*
X2926486Y-2783738D01*
X2911906Y-2784449D01*
X2899308Y-2786481D01*
X2888792Y-2789885D01*
X2880258Y-2794660D01*
X2873857Y-2800858D01*
X2869234Y-2808579D01*
X2866491Y-2817774D01*
X2865577Y-2828442D01*
X2865711Y-2830220D01*
X2902102Y-2830220D01*
X2902610Y-2824683D01*
X2904032Y-2820009D01*
X2906420Y-2816199D01*
X2909722Y-2813202D01*
X2920238Y-2809595D01*
X2936392Y-2808376D01*
X2950108Y-2808376D01*
X2950108Y-2810662D01*
X2948279Y-2827121D01*
X2942742Y-2839364D01*
X2933700Y-2846984D01*
X2921711Y-2849524D01*
X2917342Y-2849219D01*
X2913583Y-2848254D01*
X2910230Y-2846679D01*
X2907436Y-2844444D01*
X2905150Y-2841548D01*
X2903474Y-2838246D01*
X2902458Y-2834436D01*
X2902102Y-2830220D01*
X2865711Y-2830220D01*
X2866339Y-2838500D01*
X2868676Y-2847390D01*
X2872536Y-2855010D01*
X2877972Y-2861462D01*
X2884830Y-2866694D01*
X2892907Y-2870403D01*
X2902254Y-2872638D01*
X2912770Y-2873400D01*
X2918510Y-2873095D01*
X2924048Y-2872282D01*
X2929331Y-2870809D01*
X2934411Y-2868828D01*
X2938983Y-2866186D01*
X2943148Y-2863037D01*
X2946857Y-2859430D01*
X2950108Y-2855366D01*
X2950108Y-2870098D01*
X2984449Y-2870098D01*
X2984449Y-2795168D01*
X2983636Y-2779674D01*
X2981198Y-2766771D01*
X2977134Y-2756458D01*
X2971495Y-2748686D01*
X2963824Y-2742895D01*
X2953766Y-2738780D01*
X2941320Y-2736291D01*
G37*
G36*
X1903730Y-1361846D02*
G01*
X1892147Y-1362659D01*
X1881886Y-1364996D01*
X1872843Y-1369009D01*
X1865122Y-1374546D01*
X1858873Y-1381455D01*
X1854454Y-1389532D01*
X1851761Y-1398727D01*
X1850898Y-1409090D01*
X1851259Y-1411884D01*
X1881632Y-1411884D01*
X1881987Y-1407058D01*
X1883054Y-1402740D01*
X1884883Y-1398930D01*
X1887474Y-1395628D01*
X1890775Y-1393088D01*
X1894586Y-1391259D01*
X1898904Y-1390142D01*
X1903730Y-1389786D01*
X1908556Y-1390142D01*
X1912874Y-1391259D01*
X1916684Y-1393088D01*
X1919986Y-1395628D01*
X1922525Y-1398828D01*
X1924354Y-1402588D01*
X1925472Y-1406956D01*
X1925828Y-1411884D01*
X1925472Y-1416710D01*
X1924354Y-1421028D01*
X1922525Y-1424838D01*
X1919986Y-1428140D01*
X1916684Y-1430832D01*
X1912874Y-1432712D01*
X1908556Y-1433880D01*
X1903730Y-1434236D01*
X1898802Y-1433880D01*
X1894433Y-1432712D01*
X1890674Y-1430832D01*
X1887474Y-1428140D01*
X1884883Y-1424838D01*
X1883054Y-1421028D01*
X1881987Y-1416710D01*
X1881632Y-1411884D01*
X1851259Y-1411884D01*
X1852574Y-1422044D01*
X1857756Y-1432966D01*
X1866239Y-1441348D01*
X1878075Y-1447190D01*
X1864766Y-1453337D01*
X1854962Y-1463192D01*
X1848662Y-1475841D01*
X1846896Y-1488592D01*
X1877822Y-1488592D01*
X1878279Y-1482902D01*
X1879600Y-1477822D01*
X1881784Y-1473250D01*
X1884934Y-1469288D01*
X1888743Y-1466088D01*
X1893163Y-1463751D01*
X1898142Y-1462379D01*
X1903730Y-1461922D01*
X1909267Y-1462379D01*
X1914245Y-1463751D01*
X1918665Y-1466088D01*
X1922525Y-1469288D01*
X1925624Y-1473250D01*
X1927860Y-1477822D01*
X1929180Y-1482902D01*
X1929638Y-1488592D01*
X1929180Y-1494282D01*
X1927860Y-1499362D01*
X1925624Y-1503934D01*
X1922525Y-1507896D01*
X1918563Y-1511249D01*
X1914143Y-1513586D01*
X1909165Y-1515059D01*
X1903730Y-1515516D01*
X1898142Y-1515059D01*
X1893163Y-1513687D01*
X1888743Y-1511350D01*
X1884934Y-1508150D01*
X1881784Y-1504188D01*
X1879600Y-1499565D01*
X1878279Y-1494383D01*
X1877822Y-1488592D01*
X1846896Y-1488592D01*
X1846580Y-1490878D01*
X1847494Y-1502714D01*
X1850339Y-1513179D01*
X1855012Y-1522171D01*
X1861566Y-1529740D01*
X1869693Y-1535734D01*
X1879447Y-1540052D01*
X1890775Y-1542592D01*
X1903730Y-1543456D01*
X1916633Y-1542592D01*
X1927961Y-1540002D01*
X1937715Y-1535734D01*
X1945893Y-1529740D01*
X1952447Y-1522171D01*
X1957120Y-1513179D01*
X1959914Y-1502714D01*
X1960880Y-1490878D01*
X1958746Y-1475841D01*
X1952498Y-1463192D01*
X1942795Y-1453489D01*
X1929892Y-1447190D01*
X1941322Y-1441297D01*
X1949704Y-1432712D01*
X1954834Y-1421993D01*
X1956562Y-1409090D01*
X1955647Y-1398727D01*
X1953006Y-1389532D01*
X1948535Y-1381455D01*
X1942338Y-1374546D01*
X1934565Y-1369009D01*
X1925574Y-1364996D01*
X1915261Y-1362659D01*
G37*
G36*
X1036574Y-1361846D02*
G01*
X1025042Y-1362659D01*
X1014780Y-1364996D01*
X1005840Y-1369009D01*
X998219Y-1374546D01*
X991971Y-1381455D01*
X987552Y-1389532D01*
X984859Y-1398727D01*
X983996Y-1409090D01*
X984357Y-1411884D01*
X1014730Y-1411884D01*
X1015085Y-1407058D01*
X1016203Y-1402740D01*
X1017981Y-1398930D01*
X1020571Y-1395628D01*
X1023823Y-1393088D01*
X1027582Y-1391259D01*
X1031849Y-1390142D01*
X1036574Y-1389786D01*
X1041501Y-1390142D01*
X1045819Y-1391259D01*
X1049629Y-1393088D01*
X1052830Y-1395628D01*
X1055471Y-1398828D01*
X1057402Y-1402588D01*
X1058519Y-1406956D01*
X1058926Y-1411884D01*
X1058519Y-1416710D01*
X1057402Y-1421028D01*
X1055471Y-1424838D01*
X1052830Y-1428140D01*
X1049629Y-1430832D01*
X1045819Y-1432712D01*
X1041501Y-1433880D01*
X1036574Y-1434236D01*
X1031748Y-1433880D01*
X1027480Y-1432712D01*
X1023772Y-1430832D01*
X1020571Y-1428140D01*
X1017981Y-1424838D01*
X1016203Y-1421028D01*
X1015085Y-1416710D01*
X1014730Y-1411884D01*
X984357Y-1411884D01*
X985672Y-1422044D01*
X990853Y-1432966D01*
X999286Y-1441348D01*
X1010919Y-1447190D01*
X997762Y-1453337D01*
X987806Y-1463192D01*
X981710Y-1475841D01*
X979986Y-1488592D01*
X1010666Y-1488592D01*
X1011123Y-1482902D01*
X1012494Y-1477822D01*
X1014780Y-1473250D01*
X1018032Y-1469288D01*
X1021842Y-1466088D01*
X1026210Y-1463751D01*
X1031138Y-1462379D01*
X1036574Y-1461922D01*
X1042212Y-1462379D01*
X1047292Y-1463751D01*
X1051763Y-1466088D01*
X1055624Y-1469288D01*
X1058722Y-1473250D01*
X1060958Y-1477822D01*
X1062278Y-1482902D01*
X1062736Y-1488592D01*
X1062278Y-1494282D01*
X1060907Y-1499362D01*
X1058570Y-1503934D01*
X1055370Y-1507896D01*
X1051509Y-1511249D01*
X1047089Y-1513586D01*
X1042111Y-1515059D01*
X1036574Y-1515516D01*
X1031138Y-1515059D01*
X1026210Y-1513687D01*
X1021842Y-1511350D01*
X1018032Y-1508150D01*
X1014780Y-1504188D01*
X1012494Y-1499565D01*
X1011123Y-1494383D01*
X1010666Y-1488592D01*
X979986Y-1488592D01*
X979678Y-1490878D01*
X980592Y-1502714D01*
X983335Y-1513179D01*
X987958Y-1522171D01*
X994410Y-1529740D01*
X1002639Y-1535734D01*
X1012444Y-1540052D01*
X1023721Y-1542592D01*
X1036574Y-1543456D01*
X1049477Y-1542592D01*
X1060856Y-1540002D01*
X1070711Y-1535734D01*
X1078992Y-1529740D01*
X1085545Y-1522171D01*
X1090218Y-1513179D01*
X1093012Y-1502714D01*
X1093978Y-1490878D01*
X1091895Y-1475841D01*
X1085596Y-1463192D01*
X1075842Y-1453489D01*
X1062990Y-1447190D01*
X1074420Y-1441297D01*
X1082802Y-1432712D01*
X1087729Y-1421993D01*
X1089406Y-1409090D01*
X1088542Y-1398727D01*
X1085900Y-1389532D01*
X1081532Y-1381455D01*
X1075436Y-1374546D01*
X1067663Y-1369009D01*
X1058621Y-1364996D01*
X1048207Y-1362659D01*
G37*
G36*
X884682Y-1361846D02*
G01*
X879144Y-1361998D01*
X867714Y-1363268D01*
X861821Y-1364386D01*
X849680Y-1367231D01*
X837184Y-1371244D01*
X837184Y-1403502D01*
X849579Y-1397254D01*
X861314Y-1392834D01*
X866902Y-1391158D01*
X872236Y-1389989D01*
X877316Y-1389278D01*
X882142Y-1389024D01*
X888237Y-1389430D01*
X893622Y-1390599D01*
X898296Y-1392580D01*
X902208Y-1395374D01*
X905306Y-1398879D01*
X907542Y-1403096D01*
X908862Y-1408023D01*
X909319Y-1413662D01*
X909066Y-1417472D01*
X908354Y-1421282D01*
X907186Y-1425092D01*
X905510Y-1428902D01*
X903173Y-1432966D01*
X900277Y-1437335D01*
X896823Y-1442008D01*
X892810Y-1446936D01*
X879094Y-1461922D01*
X833374Y-1510436D01*
X833374Y-1539900D01*
X944626Y-1539900D01*
X944626Y-1509420D01*
X870966Y-1509420D01*
X907440Y-1472692D01*
X924458Y-1454759D01*
X928878Y-1449476D01*
X932840Y-1444142D01*
X936142Y-1439011D01*
X938834Y-1434084D01*
X940816Y-1429410D01*
X942340Y-1424889D01*
X943457Y-1420164D01*
X944118Y-1415237D01*
X944371Y-1410106D01*
X943356Y-1399540D01*
X940358Y-1390091D01*
X935380Y-1381861D01*
X928369Y-1374800D01*
X919734Y-1369110D01*
X909574Y-1365097D01*
X897890Y-1362659D01*
G37*
G36*
X1123696Y-1364894D02*
G01*
X1123696Y-1392326D01*
X1180084Y-1392326D01*
X1185976Y-1392631D01*
X1191056Y-1393545D01*
X1195273Y-1395018D01*
X1198626Y-1397152D01*
X1201064Y-1399946D01*
X1202791Y-1403502D01*
X1203858Y-1407820D01*
X1204214Y-1412900D01*
X1203858Y-1417878D01*
X1202791Y-1422095D01*
X1201064Y-1425600D01*
X1198626Y-1428394D01*
X1195374Y-1430375D01*
X1191158Y-1431848D01*
X1186078Y-1432661D01*
X1180084Y-1432966D01*
X1156970Y-1432966D01*
X1156970Y-1392326D01*
X1123696Y-1392326D01*
X1123696Y-1460652D01*
X1180084Y-1460652D01*
X1187399Y-1461008D01*
X1193647Y-1462176D01*
X1198829Y-1464106D01*
X1202944Y-1466748D01*
X1205941Y-1470304D01*
X1208074Y-1474876D01*
X1209344Y-1480464D01*
X1209802Y-1487068D01*
X1209395Y-1493520D01*
X1208125Y-1498955D01*
X1206093Y-1503324D01*
X1203198Y-1506626D01*
X1199286Y-1509064D01*
X1194104Y-1510792D01*
X1187704Y-1511858D01*
X1180084Y-1512214D01*
X1156970Y-1512214D01*
X1156970Y-1460652D01*
X1123696Y-1460652D01*
X1123696Y-1539900D01*
X1180084Y-1539900D01*
X1196035Y-1539189D01*
X1209598Y-1537106D01*
X1220774Y-1533601D01*
X1229614Y-1528724D01*
X1236268Y-1522120D01*
X1241044Y-1513789D01*
X1243888Y-1503730D01*
X1244854Y-1491894D01*
X1242314Y-1473606D01*
X1234694Y-1459890D01*
X1222044Y-1450797D01*
X1204468Y-1446428D01*
X1219200Y-1442872D01*
X1229868Y-1435252D01*
X1236319Y-1424025D01*
X1238504Y-1409090D01*
X1237589Y-1398727D01*
X1234795Y-1389735D01*
X1230223Y-1382064D01*
X1223772Y-1375816D01*
X1215593Y-1371041D01*
X1205585Y-1367637D01*
X1193749Y-1365554D01*
X1180084Y-1364894D01*
G37*
G36*
X1765300Y-1365148D02*
G01*
X1699006Y-1468780D01*
X1699006Y-1472590D01*
X1724152Y-1472590D01*
X1768348Y-1403502D01*
X1768348Y-1472590D01*
X1699006Y-1472590D01*
X1699006Y-1502308D01*
X1768348Y-1502308D01*
X1768348Y-1539900D01*
X1801368Y-1539900D01*
X1801368Y-1502308D01*
X1820672Y-1502308D01*
X1820672Y-1472590D01*
X1801368Y-1472590D01*
X1801368Y-1365148D01*
G37*
G36*
X1439164Y-1365148D02*
G01*
X1439164Y-1395628D01*
X1481582Y-1395628D01*
X1481582Y-1483766D01*
X1481175Y-1490726D01*
X1479956Y-1496720D01*
X1477975Y-1501648D01*
X1475232Y-1505610D01*
X1471574Y-1508506D01*
X1467002Y-1510538D01*
X1461566Y-1511808D01*
X1455166Y-1512214D01*
X1449425Y-1511858D01*
X1443736Y-1510893D01*
X1437995Y-1509217D01*
X1432306Y-1506880D01*
X1421180Y-1500276D01*
X1410716Y-1491132D01*
X1410716Y-1531264D01*
X1423009Y-1536598D01*
X1435100Y-1540408D01*
X1441145Y-1541729D01*
X1447038Y-1542694D01*
X1452829Y-1543253D01*
X1458468Y-1543456D01*
X1472742Y-1542592D01*
X1484884Y-1540002D01*
X1494840Y-1535734D01*
X1502664Y-1529740D01*
X1508556Y-1521612D01*
X1512722Y-1511249D01*
X1515262Y-1498650D01*
X1516126Y-1483766D01*
X1516126Y-1365148D01*
G37*
G36*
X1254506Y-1365148D02*
G01*
X1308354Y-1471066D01*
X1308354Y-1539900D01*
X1342898Y-1539900D01*
X1342898Y-1471066D01*
X1397000Y-1365148D01*
X1359662Y-1365148D01*
X1325626Y-1435252D01*
X1291590Y-1365148D01*
G37*
G36*
X1577848Y-1453794D02*
G01*
X1577848Y-1488084D01*
X1651762Y-1488084D01*
X1651762Y-1453794D01*
G37*
G36*
X892302Y-1627276D02*
G01*
X879652Y-1628139D01*
X868476Y-1630629D01*
X858723Y-1634845D01*
X850392Y-1640738D01*
X843686Y-1648256D01*
X838962Y-1656994D01*
X836117Y-1667002D01*
X835152Y-1678330D01*
X837437Y-1694942D01*
X844296Y-1707794D01*
X850036Y-1713179D01*
X857859Y-1718462D01*
X867816Y-1723593D01*
X879856Y-1728622D01*
X896874Y-1734972D01*
X901039Y-1736902D01*
X904697Y-1739087D01*
X907745Y-1741576D01*
X910336Y-1744370D01*
X912418Y-1747418D01*
X913942Y-1750720D01*
X914857Y-1754276D01*
X915162Y-1758086D01*
X914704Y-1763014D01*
X913384Y-1767382D01*
X911148Y-1771142D01*
X908050Y-1774342D01*
X904138Y-1776882D01*
X899515Y-1778711D01*
X894232Y-1779828D01*
X888237Y-1780184D01*
X875436Y-1778965D01*
X862584Y-1775358D01*
X849426Y-1769262D01*
X835914Y-1760626D01*
X835914Y-1796440D01*
X848258Y-1801774D01*
X861060Y-1805584D01*
X874166Y-1808073D01*
X887221Y-1808886D01*
X901953Y-1808073D01*
X914755Y-1805584D01*
X925576Y-1801469D01*
X934466Y-1795678D01*
X941222Y-1788363D01*
X946099Y-1779270D01*
X948994Y-1768551D01*
X949960Y-1756054D01*
X947470Y-1738426D01*
X940053Y-1724050D01*
X934364Y-1717903D01*
X927353Y-1712417D01*
X918870Y-1707642D01*
X909066Y-1703476D01*
X886968Y-1695043D01*
X881227Y-1692300D01*
X876808Y-1689709D01*
X873760Y-1687220D01*
X871626Y-1684782D01*
X870102Y-1681937D01*
X869238Y-1678787D01*
X868934Y-1675282D01*
X869340Y-1670862D01*
X870559Y-1666951D01*
X872642Y-1663598D01*
X875537Y-1660804D01*
X879297Y-1658670D01*
X883767Y-1657197D01*
X888949Y-1656283D01*
X894842Y-1655978D01*
X900430Y-1656232D01*
X906119Y-1656994D01*
X911860Y-1658264D01*
X917702Y-1660042D01*
X929081Y-1665071D01*
X940308Y-1671980D01*
X940308Y-1638198D01*
X928369Y-1633474D01*
X916432Y-1630070D01*
X910336Y-1628851D01*
X904290Y-1627987D01*
X898296Y-1627428D01*
G37*
G36*
X1010919Y-1636928D02*
G01*
X1010919Y-1674266D01*
X977392Y-1674266D01*
X977392Y-1700428D01*
X1010919Y-1700428D01*
X1010919Y-1760880D01*
X1011580Y-1772716D01*
X1013510Y-1782470D01*
X1016762Y-1790192D01*
X1021334Y-1795932D01*
X1027836Y-1800047D01*
X1036675Y-1802993D01*
X1047902Y-1804720D01*
X1061466Y-1805330D01*
X1090168Y-1805330D01*
X1090168Y-1778914D01*
X1063752Y-1778914D01*
X1059129Y-1778660D01*
X1055217Y-1777949D01*
X1052017Y-1776780D01*
X1049528Y-1775104D01*
X1047750Y-1772920D01*
X1046480Y-1770075D01*
X1045718Y-1766671D01*
X1045464Y-1762658D01*
X1045464Y-1700428D01*
X1090168Y-1700428D01*
X1090168Y-1674266D01*
X1045464Y-1674266D01*
X1045464Y-1636928D01*
G37*
G36*
X1795272Y-1670964D02*
G01*
X1782165Y-1672488D01*
X1770888Y-1677060D01*
X1766011Y-1680514D01*
X1761794Y-1684629D01*
X1758238Y-1689303D01*
X1755393Y-1694586D01*
X1755393Y-1674266D01*
X1721104Y-1674266D01*
X1721104Y-1805330D01*
X1755393Y-1805330D01*
X1755444Y-1738833D01*
X1755952Y-1729282D01*
X1756410Y-1725828D01*
X1758035Y-1719935D01*
X1759153Y-1717293D01*
X1760474Y-1714906D01*
X1762861Y-1711452D01*
X1765706Y-1708404D01*
X1769059Y-1705864D01*
X1772920Y-1703730D01*
X1777136Y-1702054D01*
X1781708Y-1700885D01*
X1786686Y-1700174D01*
X1791970Y-1699920D01*
X1796440Y-1700072D01*
X1800707Y-1700631D01*
X1804822Y-1701495D01*
X1808734Y-1702714D01*
X1812289Y-1704136D01*
X1815693Y-1705914D01*
X1818893Y-1707946D01*
X1821942Y-1710334D01*
X1821942Y-1677568D01*
X1815642Y-1674723D01*
X1812340Y-1673606D01*
X1805635Y-1671980D01*
X1798777Y-1671066D01*
G37*
G36*
X1615694Y-1670964D02*
G01*
X1601978Y-1672132D01*
X1589786Y-1675587D01*
X1579118Y-1681378D01*
X1569974Y-1689506D01*
X1562608Y-1699717D01*
X1557375Y-1711604D01*
X1554212Y-1725320D01*
X1588516Y-1725320D01*
X1589481Y-1719072D01*
X1591208Y-1713585D01*
X1593697Y-1708810D01*
X1596898Y-1704746D01*
X1600606Y-1701647D01*
X1605026Y-1699412D01*
X1610055Y-1698091D01*
X1615694Y-1697634D01*
X1621891Y-1698040D01*
X1627225Y-1699361D01*
X1631797Y-1701495D01*
X1635506Y-1704492D01*
X1638503Y-1708454D01*
X1640687Y-1713179D01*
X1642059Y-1718716D01*
X1642618Y-1725066D01*
X1554212Y-1725320D01*
X1553210Y-1740306D01*
X1554276Y-1755952D01*
X1557578Y-1769618D01*
X1563065Y-1781352D01*
X1570736Y-1791106D01*
X1580337Y-1798878D01*
X1591919Y-1804416D01*
X1605483Y-1807768D01*
X1621028Y-1808886D01*
X1634388Y-1808225D01*
X1647189Y-1806346D01*
X1659483Y-1803247D01*
X1671574Y-1798980D01*
X1671574Y-1767484D01*
X1659382Y-1773834D01*
X1647698Y-1778152D01*
X1641856Y-1779727D01*
X1636014Y-1780793D01*
X1630172Y-1781505D01*
X1624330Y-1781708D01*
X1608582Y-1779828D01*
X1597406Y-1774088D01*
X1590548Y-1764487D01*
X1588262Y-1750974D01*
X1677162Y-1750974D01*
X1677162Y-1737004D01*
X1676146Y-1722120D01*
X1673098Y-1709064D01*
X1668018Y-1697736D01*
X1660906Y-1688236D01*
X1652066Y-1680667D01*
X1641602Y-1675282D01*
X1629460Y-1672031D01*
G37*
G36*
X1484630Y-1670964D02*
G01*
X1478838Y-1671320D01*
X1473504Y-1672437D01*
X1468577Y-1674266D01*
X1464056Y-1676806D01*
X1459839Y-1679956D01*
X1456029Y-1683867D01*
X1452727Y-1688490D01*
X1449832Y-1693824D01*
X1449832Y-1674266D01*
X1415542Y-1674266D01*
X1415542Y-1739544D01*
X1449832Y-1739544D01*
X1451406Y-1722729D01*
X1456182Y-1709826D01*
X1459636Y-1705152D01*
X1463700Y-1701850D01*
X1468424Y-1699818D01*
X1473708Y-1699158D01*
X1478991Y-1699818D01*
X1483664Y-1701850D01*
X1487728Y-1705152D01*
X1491234Y-1709826D01*
X1495958Y-1722729D01*
X1497584Y-1739544D01*
X1495958Y-1756562D01*
X1491234Y-1769516D01*
X1487728Y-1774189D01*
X1483664Y-1777492D01*
X1478991Y-1779524D01*
X1473708Y-1780184D01*
X1468424Y-1779524D01*
X1463700Y-1777492D01*
X1459636Y-1774189D01*
X1456182Y-1769516D01*
X1451406Y-1756562D01*
X1449832Y-1739544D01*
X1415542Y-1739544D01*
X1415542Y-1855368D01*
X1449832Y-1855368D01*
X1449832Y-1786788D01*
X1453134Y-1792020D01*
X1456690Y-1796491D01*
X1460500Y-1800250D01*
X1464564Y-1803298D01*
X1468882Y-1805736D01*
X1473454Y-1807514D01*
X1478280Y-1808530D01*
X1483360Y-1808886D01*
X1494383Y-1807768D01*
X1504035Y-1804466D01*
X1512417Y-1798878D01*
X1519428Y-1791106D01*
X1524863Y-1781149D01*
X1528724Y-1769262D01*
X1531061Y-1755495D01*
X1531874Y-1739798D01*
X1531061Y-1724355D01*
X1528724Y-1710689D01*
X1524863Y-1698955D01*
X1519428Y-1688998D01*
X1512570Y-1681124D01*
X1504492Y-1675485D01*
X1495196Y-1672082D01*
G37*
G36*
X1340104Y-1670964D02*
G01*
X1334312Y-1671320D01*
X1328978Y-1672437D01*
X1324051Y-1674266D01*
X1319530Y-1676806D01*
X1315313Y-1679956D01*
X1311503Y-1683867D01*
X1308201Y-1688490D01*
X1305306Y-1693824D01*
X1305306Y-1674266D01*
X1271016Y-1674266D01*
X1271016Y-1739544D01*
X1305306Y-1739544D01*
X1306880Y-1722729D01*
X1311656Y-1709826D01*
X1315212Y-1705152D01*
X1319326Y-1701850D01*
X1324000Y-1699818D01*
X1329182Y-1699158D01*
X1334465Y-1699818D01*
X1339138Y-1701850D01*
X1343202Y-1705152D01*
X1346708Y-1709826D01*
X1351432Y-1722729D01*
X1353058Y-1739544D01*
X1351432Y-1756562D01*
X1346708Y-1769516D01*
X1343202Y-1774189D01*
X1339138Y-1777492D01*
X1334465Y-1779524D01*
X1329182Y-1780184D01*
X1324000Y-1779524D01*
X1319326Y-1777492D01*
X1315212Y-1774189D01*
X1311656Y-1769516D01*
X1306880Y-1756562D01*
X1305306Y-1739544D01*
X1271016Y-1739544D01*
X1271016Y-1855368D01*
X1305306Y-1855368D01*
X1305306Y-1786788D01*
X1308608Y-1792020D01*
X1312164Y-1796491D01*
X1315974Y-1800250D01*
X1320038Y-1803298D01*
X1324356Y-1805736D01*
X1328928Y-1807514D01*
X1333754Y-1808530D01*
X1338834Y-1808886D01*
X1349857Y-1807768D01*
X1359509Y-1804466D01*
X1367891Y-1798878D01*
X1374902Y-1791106D01*
X1380337Y-1781149D01*
X1384198Y-1769262D01*
X1386535Y-1755495D01*
X1387348Y-1739798D01*
X1386535Y-1724355D01*
X1384249Y-1710689D01*
X1380337Y-1698955D01*
X1374902Y-1688998D01*
X1368044Y-1681124D01*
X1359966Y-1675485D01*
X1350670Y-1672082D01*
G37*
G36*
X1182116Y-1670964D02*
G01*
X1168400Y-1672132D01*
X1156258Y-1675587D01*
X1145692Y-1681378D01*
X1136650Y-1689506D01*
X1129284Y-1699717D01*
X1124051Y-1711604D01*
X1120888Y-1725320D01*
X1154938Y-1725320D01*
X1155903Y-1719072D01*
X1157681Y-1713585D01*
X1160119Y-1708810D01*
X1163320Y-1704746D01*
X1167130Y-1701647D01*
X1171549Y-1699412D01*
X1176528Y-1698091D01*
X1182116Y-1697634D01*
X1188313Y-1698040D01*
X1193698Y-1699361D01*
X1198321Y-1701495D01*
X1202182Y-1704492D01*
X1205077Y-1708454D01*
X1207211Y-1713179D01*
X1208481Y-1718716D01*
X1209040Y-1725066D01*
X1120888Y-1725320D01*
X1119886Y-1740306D01*
X1120952Y-1755952D01*
X1124204Y-1769618D01*
X1129588Y-1781352D01*
X1137158Y-1791106D01*
X1146860Y-1798878D01*
X1158494Y-1804416D01*
X1172006Y-1807768D01*
X1187450Y-1808886D01*
X1201013Y-1808225D01*
X1213866Y-1806346D01*
X1226058Y-1803247D01*
X1238250Y-1798980D01*
X1238250Y-1767484D01*
X1225854Y-1773834D01*
X1214120Y-1778152D01*
X1208379Y-1779727D01*
X1202537Y-1780793D01*
X1196695Y-1781505D01*
X1190752Y-1781708D01*
X1175105Y-1779828D01*
X1163828Y-1774088D01*
X1156970Y-1764487D01*
X1154684Y-1750974D01*
X1243584Y-1750974D01*
X1243584Y-1737004D01*
X1242568Y-1722120D01*
X1239570Y-1709064D01*
X1234592Y-1697736D01*
X1227582Y-1688236D01*
X1218641Y-1680667D01*
X1208074Y-1675282D01*
X1195882Y-1672031D01*
G37*
G36*
X1029208Y-1892706D02*
G01*
X1018032Y-1893265D01*
X1012240Y-1893976D01*
X1006348Y-1894992D01*
X994054Y-1898040D01*
X981710Y-1902104D01*
X981710Y-1934362D01*
X993952Y-1928063D01*
X1005840Y-1923440D01*
X1011428Y-1921865D01*
X1016762Y-1920798D01*
X1021842Y-1920087D01*
X1026668Y-1919884D01*
X1032764Y-1920290D01*
X1038148Y-1921459D01*
X1042822Y-1923440D01*
X1046734Y-1926234D01*
X1049832Y-1929739D01*
X1052068Y-1933905D01*
X1053388Y-1938782D01*
X1053846Y-1944268D01*
X1053592Y-1948078D01*
X1052880Y-1951939D01*
X1051712Y-1955850D01*
X1050036Y-1959762D01*
X1047699Y-1963826D01*
X1044803Y-1968144D01*
X1041349Y-1972716D01*
X1032103Y-1983435D01*
X977900Y-2041296D01*
X977900Y-2070760D01*
X1089152Y-2070760D01*
X1089152Y-2040280D01*
X1015237Y-2040280D01*
X1039368Y-2016150D01*
X1061821Y-1993239D01*
X1068984Y-1985518D01*
X1073404Y-1980336D01*
X1077366Y-1975002D01*
X1080719Y-1969871D01*
X1083360Y-1964943D01*
X1085342Y-1960270D01*
X1086866Y-1955749D01*
X1087983Y-1950974D01*
X1088644Y-1946097D01*
X1088898Y-1940966D01*
X1087882Y-1930400D01*
X1084884Y-1920951D01*
X1079906Y-1912721D01*
X1072896Y-1905660D01*
X1064260Y-1899970D01*
X1054100Y-1895957D01*
X1042416Y-1893519D01*
G37*
G36*
X1115568Y-1895754D02*
G01*
X1157224Y-2070760D01*
X1205230Y-2070760D01*
X1246886Y-1895754D01*
X1212088Y-1895754D01*
X1181100Y-2042058D01*
X1150366Y-1895754D01*
G37*
G36*
X880871Y-1895754D02*
G01*
X844803Y-1904390D01*
X844803Y-1935632D01*
X880618Y-1926742D01*
X880618Y-2040280D01*
X842010Y-2040280D01*
X842010Y-2070760D01*
X953008Y-2070760D01*
X953008Y-2040280D01*
X914400Y-2040280D01*
X914400Y-1895754D01*
G37*
G36*
X850036Y-2804972D02*
G01*
X850036Y-2979978D01*
X879754Y-2979978D01*
X879754Y-2839770D01*
X898550Y-2916224D01*
X926236Y-2916224D01*
X944778Y-2839770D01*
X944778Y-2979978D01*
X974496Y-2979978D01*
X974496Y-2804972D01*
X932840Y-2804972D01*
X912266Y-2881680D01*
X891438Y-2804972D01*
G37*
G36*
X1608988Y-2811576D02*
G01*
X1608988Y-2848660D01*
X1575460Y-2848660D01*
X1575460Y-2875076D01*
X1608988Y-2875076D01*
X1608988Y-2935528D01*
X1609648Y-2947365D01*
X1611579Y-2957118D01*
X1614830Y-2964891D01*
X1619402Y-2970580D01*
X1625803Y-2974695D01*
X1634591Y-2977642D01*
X1645716Y-2979420D01*
X1659280Y-2979978D01*
X1688236Y-2979978D01*
X1688236Y-2953562D01*
X1661820Y-2953562D01*
X1657197Y-2953359D01*
X1653286Y-2952597D01*
X1650085Y-2951429D01*
X1647596Y-2949752D01*
X1645716Y-2947568D01*
X1644345Y-2944723D01*
X1643532Y-2941320D01*
X1643278Y-2937306D01*
X1643278Y-2875076D01*
X1688236Y-2875076D01*
X1688236Y-2848660D01*
X1643278Y-2848660D01*
X1643278Y-2811576D01*
G37*
G36*
X1189126Y-2845358D02*
G01*
X1178610Y-2846527D01*
X1169212Y-2849930D01*
X1160983Y-2855671D01*
X1153820Y-2863646D01*
X1147927Y-2873603D01*
X1143711Y-2885186D01*
X1141171Y-2898394D01*
X1140414Y-2912160D01*
X1174902Y-2912160D01*
X1176528Y-2896362D01*
X1181506Y-2883966D01*
X1185062Y-2879445D01*
X1189126Y-2876194D01*
X1193698Y-2874213D01*
X1198778Y-2873552D01*
X1203960Y-2874213D01*
X1208633Y-2876194D01*
X1212697Y-2879445D01*
X1216304Y-2883966D01*
X1221435Y-2896362D01*
X1223162Y-2912160D01*
X1221435Y-2928162D01*
X1216304Y-2940608D01*
X1212697Y-2945282D01*
X1208633Y-2948635D01*
X1203960Y-2950616D01*
X1198778Y-2951276D01*
X1193698Y-2950616D01*
X1189126Y-2948635D01*
X1185062Y-2945282D01*
X1181506Y-2940608D01*
X1176528Y-2928162D01*
X1174902Y-2912160D01*
X1140414Y-2912160D01*
X1141171Y-2927400D01*
X1143711Y-2940050D01*
X1147927Y-2951124D01*
X1153820Y-2960674D01*
X1160983Y-2968447D01*
X1169314Y-2974035D01*
X1178763Y-2977337D01*
X1189380Y-2978454D01*
X1195120Y-2978200D01*
X1200404Y-2977337D01*
X1205280Y-2975914D01*
X1209700Y-2973882D01*
X1213662Y-2971292D01*
X1217269Y-2968142D01*
X1220419Y-2964332D01*
X1223162Y-2959912D01*
X1223162Y-2973882D01*
X1222705Y-2980791D01*
X1221384Y-2986684D01*
X1219149Y-2991561D01*
X1216050Y-2995472D01*
X1212138Y-2998470D01*
X1207262Y-3000654D01*
X1201470Y-3001924D01*
X1194714Y-3002330D01*
X1189380Y-3002178D01*
X1184148Y-3001721D01*
X1178966Y-3000908D01*
X1173886Y-2999790D01*
X1168908Y-2998266D01*
X1163980Y-2996387D01*
X1159002Y-2994202D01*
X1154074Y-2991662D01*
X1154074Y-3023158D01*
X1164894Y-3026054D01*
X1180896Y-3028797D01*
X1191564Y-3029661D01*
X1197000Y-3029762D01*
X1211884Y-3028899D01*
X1224534Y-3026206D01*
X1234998Y-3021787D01*
X1243228Y-3015538D01*
X1249426Y-3007461D01*
X1253896Y-2997200D01*
X1256538Y-2984754D01*
X1257452Y-2970072D01*
X1257452Y-2848660D01*
X1223162Y-2848660D01*
X1223162Y-2865424D01*
X1220368Y-2860903D01*
X1217117Y-2856941D01*
X1213408Y-2853537D01*
X1209192Y-2850692D01*
X1204671Y-2848356D01*
X1199845Y-2846730D01*
X1194663Y-2845714D01*
G37*
G36*
X1491132Y-2845612D02*
G01*
X1477416Y-2846781D01*
X1465224Y-2850235D01*
X1454556Y-2856077D01*
X1445412Y-2864154D01*
X1438046Y-2874365D01*
X1432814Y-2886252D01*
X1429676Y-2899714D01*
X1463954Y-2899714D01*
X1464919Y-2893517D01*
X1466646Y-2888030D01*
X1469136Y-2883357D01*
X1472336Y-2879394D01*
X1476146Y-2876296D01*
X1480566Y-2874060D01*
X1485544Y-2872740D01*
X1491132Y-2872282D01*
X1497330Y-2872740D01*
X1502765Y-2874010D01*
X1507337Y-2876143D01*
X1511198Y-2879140D01*
X1514094Y-2883001D01*
X1516227Y-2887726D01*
X1517497Y-2893314D01*
X1518056Y-2899714D01*
X1429676Y-2899714D01*
X1428648Y-2914954D01*
X1429715Y-2930601D01*
X1433017Y-2944317D01*
X1438503Y-2956001D01*
X1446174Y-2965754D01*
X1455775Y-2973425D01*
X1467358Y-2978912D01*
X1480921Y-2982214D01*
X1496466Y-2983280D01*
X1509979Y-2982722D01*
X1522628Y-2980994D01*
X1534922Y-2977896D01*
X1547012Y-2973628D01*
X1547012Y-2942132D01*
X1534820Y-2948482D01*
X1523136Y-2952800D01*
X1517396Y-2954274D01*
X1511554Y-2955290D01*
X1505712Y-2955899D01*
X1499768Y-2956102D01*
X1484020Y-2954223D01*
X1472844Y-2948482D01*
X1465986Y-2938881D01*
X1463700Y-2925368D01*
X1552600Y-2925368D01*
X1552600Y-2911652D01*
X1551584Y-2896819D01*
X1548587Y-2883712D01*
X1543608Y-2872435D01*
X1536598Y-2862884D01*
X1527657Y-2855315D01*
X1517091Y-2849930D01*
X1504899Y-2846679D01*
G37*
G36*
X1361338Y-2845612D02*
G01*
X1355344Y-2845968D01*
X1349857Y-2847086D01*
X1344777Y-2848914D01*
X1340256Y-2851454D01*
X1336141Y-2854807D01*
X1332687Y-2858770D01*
X1329893Y-2863342D01*
X1327810Y-2868472D01*
X1327810Y-2848660D01*
X1293520Y-2848660D01*
X1293520Y-2979978D01*
X1327810Y-2979978D01*
X1327810Y-2904794D01*
X1328115Y-2897835D01*
X1329131Y-2891688D01*
X1330807Y-2886303D01*
X1333144Y-2881680D01*
X1336040Y-2878124D01*
X1339443Y-2875584D01*
X1343253Y-2874060D01*
X1347622Y-2873552D01*
X1351838Y-2873959D01*
X1355496Y-2875076D01*
X1358493Y-2877007D01*
X1360830Y-2879648D01*
X1362608Y-2883204D01*
X1363878Y-2887776D01*
X1364640Y-2893364D01*
X1364894Y-2899968D01*
X1364894Y-2979978D01*
X1398930Y-2979978D01*
X1398930Y-2894888D01*
X1398320Y-2883357D01*
X1396593Y-2873298D01*
X1393647Y-2864815D01*
X1389532Y-2857804D01*
X1377645Y-2848660D01*
G37*
G36*
X1056538Y-2845612D02*
G01*
X1050036Y-2845765D01*
X1043686Y-2846171D01*
X1031646Y-2847898D01*
X1025804Y-2849118D01*
X1020013Y-2850642D01*
X1014272Y-2852521D01*
X1008532Y-2854756D01*
X1008532Y-2883966D01*
X1020775Y-2878074D01*
X1032662Y-2874060D01*
X1038402Y-2872740D01*
X1044346Y-2871774D01*
X1050391Y-2871216D01*
X1056538Y-2871012D01*
X1062024Y-2871317D01*
X1066800Y-2872079D01*
X1070914Y-2873451D01*
X1074318Y-2875330D01*
X1076858Y-2877718D01*
X1078687Y-2880614D01*
X1079804Y-2883966D01*
X1080160Y-2887776D01*
X1080160Y-2893618D01*
X1056538Y-2893618D01*
X1041908Y-2894330D01*
X1029360Y-2896362D01*
X1018794Y-2899765D01*
X1010310Y-2904540D01*
X1003858Y-2910789D01*
X999236Y-2918510D01*
X996492Y-2927807D01*
X995578Y-2938576D01*
X995694Y-2940100D01*
X1032154Y-2940100D01*
X1032611Y-2934563D01*
X1034034Y-2929940D01*
X1036421Y-2926232D01*
X1039774Y-2923336D01*
X1050239Y-2919526D01*
X1066444Y-2918256D01*
X1080160Y-2918256D01*
X1080160Y-2920796D01*
X1078280Y-2937052D01*
X1072794Y-2949244D01*
X1063701Y-2957068D01*
X1051712Y-2959658D01*
X1047343Y-2959354D01*
X1043533Y-2958338D01*
X1040130Y-2956661D01*
X1037234Y-2954324D01*
X1034999Y-2951429D01*
X1033424Y-2948127D01*
X1032459Y-2944317D01*
X1032154Y-2940100D01*
X995694Y-2940100D01*
X996340Y-2948584D01*
X998677Y-2957372D01*
X1002588Y-2965043D01*
X1008024Y-2971596D01*
X1014831Y-2976727D01*
X1022908Y-2980385D01*
X1032256Y-2982569D01*
X1042822Y-2983280D01*
X1048562Y-2983026D01*
X1054049Y-2982163D01*
X1059332Y-2980740D01*
X1064412Y-2978708D01*
X1068984Y-2976067D01*
X1073150Y-2972968D01*
X1076858Y-2969361D01*
X1080160Y-2965246D01*
X1080160Y-2979978D01*
X1114450Y-2979978D01*
X1114450Y-2905048D01*
X1113637Y-2889605D01*
X1111199Y-2876651D01*
X1107135Y-2866339D01*
X1101496Y-2858566D01*
X1093825Y-2852928D01*
X1083767Y-2848864D01*
X1071321Y-2846425D01*
G37*
G36*
X912266Y-3067354D02*
G01*
X899617Y-3068218D01*
X888441Y-3070707D01*
X878687Y-3074924D01*
X870356Y-3080816D01*
X863650Y-3088284D01*
X858926Y-3097022D01*
X856081Y-3106978D01*
X855116Y-3118154D01*
X857402Y-3134817D01*
X864260Y-3147618D01*
X870000Y-3153054D01*
X877824Y-3158388D01*
X887780Y-3163570D01*
X899820Y-3168700D01*
X916838Y-3175050D01*
X921003Y-3176879D01*
X924610Y-3179064D01*
X927709Y-3181604D01*
X930300Y-3184448D01*
X932383Y-3187496D01*
X933907Y-3190798D01*
X934821Y-3194354D01*
X935126Y-3198164D01*
X934669Y-3203092D01*
X933348Y-3207461D01*
X931113Y-3211220D01*
X928014Y-3214420D01*
X924102Y-3217011D01*
X919480Y-3218789D01*
X914196Y-3219907D01*
X908202Y-3220262D01*
X895400Y-3219043D01*
X882548Y-3215436D01*
X869391Y-3209340D01*
X855878Y-3200704D01*
X855878Y-3236518D01*
X868222Y-3241852D01*
X881024Y-3245662D01*
X894130Y-3247948D01*
X907186Y-3248710D01*
X921918Y-3247898D01*
X934719Y-3245510D01*
X945540Y-3241446D01*
X954430Y-3235756D01*
X961288Y-3228340D01*
X966216Y-3219246D01*
X969162Y-3208528D01*
X970178Y-3196132D01*
X967638Y-3178454D01*
X960018Y-3163874D01*
X954328Y-3157829D01*
X947318Y-3152394D01*
X938834Y-3147568D01*
X929030Y-3143300D01*
X907186Y-3134969D01*
X901395Y-3132328D01*
X896924Y-3129788D01*
X893724Y-3127298D01*
X891590Y-3124758D01*
X890066Y-3121914D01*
X889203Y-3118764D01*
X888898Y-3115360D01*
X889304Y-3110941D01*
X890625Y-3107029D01*
X892759Y-3103727D01*
X895756Y-3100882D01*
X899414Y-3098647D01*
X903833Y-3097072D01*
X908913Y-3096107D01*
X914806Y-3095802D01*
X920496Y-3096056D01*
X926236Y-3096818D01*
X931926Y-3098088D01*
X937666Y-3099866D01*
X949045Y-3104896D01*
X960272Y-3111804D01*
X960272Y-3078276D01*
X948334Y-3073400D01*
X936396Y-3069894D01*
X930300Y-3068777D01*
X918260Y-3067507D01*
G37*
G36*
X1670710Y-3111042D02*
G01*
X1657604Y-3112566D01*
X1646326Y-3117138D01*
X1641449Y-3120542D01*
X1637233Y-3124504D01*
X1633677Y-3129127D01*
X1630832Y-3134410D01*
X1630832Y-3114090D01*
X1596542Y-3114090D01*
X1596542Y-3245408D01*
X1630832Y-3245408D01*
X1630883Y-3178911D01*
X1631543Y-3169259D01*
X1632712Y-3162604D01*
X1634591Y-3157270D01*
X1635912Y-3154984D01*
X1638401Y-3151530D01*
X1641348Y-3148533D01*
X1644751Y-3145942D01*
X1648612Y-3143808D01*
X1652828Y-3142132D01*
X1657400Y-3140964D01*
X1662379Y-3140252D01*
X1667662Y-3139998D01*
X1672031Y-3140151D01*
X1676247Y-3140659D01*
X1680260Y-3141421D01*
X1684172Y-3142538D01*
X1687830Y-3144012D01*
X1691284Y-3145790D01*
X1694434Y-3147923D01*
X1697380Y-3150412D01*
X1697380Y-3117646D01*
X1691081Y-3114751D01*
X1684426Y-3112566D01*
X1677670Y-3111449D01*
G37*
G36*
X1490116Y-3111042D02*
G01*
X1476959Y-3112211D01*
X1465224Y-3115665D01*
X1454861Y-3121507D01*
X1445920Y-3129584D01*
X1438706Y-3139694D01*
X1433525Y-3151428D01*
X1430426Y-3164840D01*
X1429410Y-3179876D01*
X1463700Y-3179876D01*
X1465478Y-3162706D01*
X1470812Y-3149650D01*
X1474673Y-3144875D01*
X1479194Y-3141472D01*
X1484325Y-3139440D01*
X1490116Y-3138728D01*
X1501241Y-3141472D01*
X1509674Y-3149650D01*
X1514805Y-3162655D01*
X1516532Y-3179876D01*
X1514805Y-3197098D01*
X1509674Y-3210102D01*
X1505762Y-3214776D01*
X1501241Y-3218129D01*
X1496009Y-3220110D01*
X1490116Y-3220770D01*
X1484325Y-3220110D01*
X1479194Y-3218129D01*
X1474673Y-3214776D01*
X1470812Y-3210102D01*
X1465478Y-3197098D01*
X1463700Y-3179876D01*
X1429410Y-3179876D01*
X1430426Y-3194913D01*
X1433525Y-3208324D01*
X1438706Y-3220059D01*
X1445920Y-3230168D01*
X1454861Y-3238296D01*
X1465224Y-3244088D01*
X1476959Y-3247542D01*
X1490116Y-3248710D01*
X1503375Y-3247542D01*
X1515211Y-3244088D01*
X1525574Y-3238296D01*
X1534566Y-3230168D01*
X1541780Y-3220059D01*
X1546961Y-3208324D01*
X1550009Y-3194913D01*
X1551076Y-3179876D01*
X1550009Y-3164840D01*
X1546961Y-3151428D01*
X1541780Y-3139694D01*
X1534566Y-3129584D01*
X1525574Y-3121507D01*
X1515211Y-3115665D01*
X1503375Y-3112211D01*
G37*
G36*
X1345844Y-3111042D02*
G01*
X1334109Y-3111703D01*
X1323746Y-3113684D01*
X1314805Y-3116935D01*
X1307236Y-3121456D01*
X1296924Y-3134156D01*
X1293520Y-3150920D01*
X1295806Y-3165348D01*
X1302664Y-3176574D01*
X1314399Y-3184804D01*
X1331366Y-3190544D01*
X1340764Y-3192576D01*
X1348282Y-3194456D01*
X1354277Y-3196336D01*
X1358798Y-3198164D01*
X1361846Y-3199942D01*
X1363726Y-3201924D01*
X1365046Y-3204260D01*
X1365859Y-3207004D01*
X1366164Y-3210102D01*
X1365758Y-3213252D01*
X1364640Y-3215944D01*
X1362710Y-3218281D01*
X1360068Y-3220262D01*
X1356512Y-3221837D01*
X1352296Y-3222955D01*
X1347368Y-3223615D01*
X1341780Y-3223818D01*
X1336141Y-3223615D01*
X1330452Y-3223006D01*
X1324711Y-3221990D01*
X1318920Y-3220516D01*
X1313078Y-3218586D01*
X1307287Y-3216249D01*
X1301546Y-3213608D01*
X1295806Y-3210610D01*
X1295806Y-3240582D01*
X1308404Y-3244138D01*
X1320952Y-3246678D01*
X1327099Y-3247593D01*
X1339189Y-3248609D01*
X1345082Y-3248710D01*
X1357680Y-3248101D01*
X1368552Y-3246170D01*
X1377746Y-3243021D01*
X1385214Y-3238550D01*
X1395120Y-3225952D01*
X1398422Y-3208324D01*
X1396238Y-3193084D01*
X1389786Y-3181400D01*
X1378610Y-3172917D01*
X1362354Y-3167176D01*
X1351178Y-3164382D01*
X1332280Y-3157677D01*
X1326032Y-3149142D01*
X1326388Y-3146044D01*
X1327454Y-3143402D01*
X1329283Y-3141116D01*
X1331874Y-3139236D01*
X1335125Y-3137814D01*
X1339138Y-3136798D01*
X1343914Y-3136138D01*
X1349400Y-3135934D01*
X1354480Y-3136138D01*
X1359611Y-3136696D01*
X1364792Y-3137662D01*
X1369974Y-3138982D01*
X1375003Y-3140710D01*
X1379931Y-3142792D01*
X1384757Y-3145282D01*
X1389532Y-3148126D01*
X1389532Y-3118154D01*
X1384300Y-3116478D01*
X1373632Y-3113836D01*
X1368196Y-3112820D01*
X1357020Y-3111500D01*
G37*
G36*
X1216812Y-3111042D02*
G01*
X1210818Y-3111398D01*
X1205331Y-3112516D01*
X1200251Y-3114344D01*
X1195730Y-3116884D01*
X1191615Y-3120237D01*
X1188161Y-3124200D01*
X1185367Y-3128772D01*
X1183284Y-3133902D01*
X1183284Y-3114090D01*
X1149248Y-3114090D01*
X1149248Y-3245408D01*
X1183284Y-3245408D01*
X1183284Y-3170224D01*
X1183589Y-3163265D01*
X1184605Y-3157118D01*
X1186281Y-3151733D01*
X1188618Y-3147110D01*
X1191514Y-3143453D01*
X1194917Y-3140862D01*
X1198727Y-3139287D01*
X1203096Y-3138728D01*
X1207312Y-3139135D01*
X1210970Y-3140354D01*
X1213916Y-3142335D01*
X1216304Y-3145078D01*
X1218082Y-3148634D01*
X1219352Y-3153206D01*
X1220114Y-3158794D01*
X1220368Y-3165398D01*
X1220368Y-3245408D01*
X1254404Y-3245408D01*
X1254404Y-3160064D01*
X1253794Y-3148634D01*
X1252067Y-3138678D01*
X1249121Y-3130194D01*
X1245006Y-3123234D01*
X1233220Y-3114090D01*
G37*
G36*
X1057808Y-3111042D02*
G01*
X1044092Y-3112211D01*
X1031900Y-3115665D01*
X1021232Y-3121507D01*
X1012088Y-3129584D01*
X1004722Y-3139744D01*
X999490Y-3151581D01*
X996340Y-3165144D01*
X1030630Y-3165144D01*
X1031595Y-3158947D01*
X1033271Y-3153460D01*
X1035659Y-3148787D01*
X1038758Y-3144824D01*
X1042619Y-3141624D01*
X1047038Y-3139338D01*
X1052118Y-3137916D01*
X1057808Y-3137458D01*
X1063904Y-3137916D01*
X1069238Y-3139236D01*
X1073810Y-3141472D01*
X1077620Y-3144570D01*
X1080516Y-3148431D01*
X1082649Y-3153156D01*
X1083919Y-3158744D01*
X1084478Y-3165144D01*
X996340Y-3165144D01*
X995324Y-3180384D01*
X996391Y-3195929D01*
X999642Y-3209594D01*
X1005027Y-3221329D01*
X1012596Y-3231184D01*
X1022299Y-3238855D01*
X1033932Y-3244342D01*
X1047445Y-3247644D01*
X1062888Y-3248710D01*
X1076452Y-3248152D01*
X1089304Y-3246424D01*
X1101598Y-3243326D01*
X1113688Y-3239058D01*
X1113688Y-3207308D01*
X1101293Y-3213709D01*
X1089558Y-3218230D01*
X1083818Y-3219704D01*
X1077976Y-3220720D01*
X1072134Y-3221329D01*
X1066190Y-3221532D01*
X1050544Y-3219653D01*
X1039266Y-3213912D01*
X1032510Y-3204311D01*
X1030122Y-3190798D01*
X1119022Y-3190798D01*
X1119022Y-3176828D01*
X1118006Y-3162096D01*
X1115009Y-3149092D01*
X1110030Y-3137814D01*
X1103020Y-3128314D01*
X1094181Y-3120796D01*
X1083716Y-3115360D01*
X1071575Y-3112160D01*
G37*
G36*
X3631285Y-7121601D02*
G01*
X3620008Y-7122769D01*
X3610203Y-7126274D01*
X3601974Y-7132167D01*
X3595217Y-7140397D01*
X3590036Y-7151065D01*
X3586276Y-7164120D01*
X3584041Y-7179513D01*
X3583279Y-7197293D01*
X3612235Y-7197293D01*
X3612540Y-7184745D01*
X3613404Y-7174026D01*
X3614826Y-7165187D01*
X3616807Y-7158177D01*
X3619449Y-7152843D01*
X3622751Y-7149033D01*
X3626713Y-7146747D01*
X3631285Y-7145985D01*
X3636060Y-7146747D01*
X3640074Y-7149033D01*
X3643426Y-7152843D01*
X3646017Y-7158177D01*
X3648049Y-7165187D01*
X3649472Y-7174026D01*
X3650335Y-7184745D01*
X3650589Y-7197293D01*
X3650335Y-7209688D01*
X3649472Y-7220305D01*
X3648049Y-7229144D01*
X3646017Y-7236155D01*
X3643426Y-7241489D01*
X3640074Y-7245299D01*
X3636060Y-7247585D01*
X3631285Y-7248347D01*
X3626713Y-7247585D01*
X3622751Y-7245299D01*
X3619449Y-7241489D01*
X3616807Y-7236155D01*
X3614826Y-7229144D01*
X3613404Y-7220305D01*
X3612540Y-7209688D01*
X3612235Y-7197293D01*
X3583279Y-7197293D01*
X3584041Y-7215022D01*
X3586276Y-7230364D01*
X3590036Y-7243318D01*
X3595217Y-7253935D01*
X3601974Y-7262114D01*
X3610203Y-7268006D01*
X3620008Y-7271512D01*
X3631285Y-7272731D01*
X3642715Y-7271512D01*
X3652570Y-7268006D01*
X3660901Y-7262114D01*
X3667607Y-7253935D01*
X3672840Y-7243318D01*
X3676599Y-7230364D01*
X3678834Y-7215022D01*
X3679545Y-7197293D01*
X3678834Y-7179411D01*
X3676599Y-7164019D01*
X3672840Y-7150963D01*
X3667607Y-7140397D01*
X3660901Y-7132167D01*
X3652570Y-7126274D01*
X3642715Y-7122769D01*
G37*
G36*
X3510889Y-7121601D02*
G01*
X3492754Y-7124192D01*
X3478885Y-7132015D01*
X3469944Y-7144512D01*
X3466947Y-7160717D01*
X3467129Y-7163257D01*
X3492601Y-7163257D01*
X3492957Y-7159244D01*
X3493871Y-7155688D01*
X3495497Y-7152538D01*
X3497681Y-7149795D01*
X3500323Y-7147559D01*
X3503422Y-7145985D01*
X3506927Y-7145020D01*
X3510889Y-7144715D01*
X3515004Y-7145020D01*
X3518662Y-7145985D01*
X3521862Y-7147559D01*
X3524605Y-7149795D01*
X3526739Y-7152436D01*
X3528263Y-7155535D01*
X3529177Y-7159142D01*
X3529431Y-7163257D01*
X3529177Y-7167321D01*
X3528263Y-7170928D01*
X3526739Y-7174026D01*
X3524605Y-7176719D01*
X3521862Y-7178903D01*
X3518662Y-7180529D01*
X3515004Y-7181443D01*
X3510889Y-7181799D01*
X3506927Y-7181443D01*
X3503371Y-7180529D01*
X3500221Y-7178903D01*
X3497427Y-7176719D01*
X3495344Y-7174026D01*
X3493820Y-7170928D01*
X3492906Y-7167321D01*
X3492601Y-7163257D01*
X3467129Y-7163257D01*
X3467354Y-7166406D01*
X3468420Y-7171690D01*
X3470249Y-7176465D01*
X3472789Y-7180783D01*
X3476040Y-7184542D01*
X3479901Y-7187793D01*
X3484422Y-7190536D01*
X3489553Y-7192721D01*
X3483813Y-7194854D01*
X3478631Y-7197801D01*
X3474161Y-7201458D01*
X3470249Y-7205929D01*
X3467252Y-7210958D01*
X3465118Y-7216495D01*
X3463848Y-7222540D01*
X3463516Y-7227265D01*
X3489299Y-7227265D01*
X3489706Y-7222439D01*
X3490823Y-7218121D01*
X3492754Y-7214311D01*
X3495395Y-7211009D01*
X3498596Y-7208316D01*
X3502202Y-7206437D01*
X3506317Y-7205268D01*
X3510889Y-7204913D01*
X3515614Y-7205268D01*
X3519779Y-7206437D01*
X3523487Y-7208316D01*
X3526637Y-7211009D01*
X3529329Y-7214311D01*
X3531209Y-7218121D01*
X3532378Y-7222439D01*
X3532733Y-7227265D01*
X3532378Y-7231938D01*
X3531209Y-7236206D01*
X3529329Y-7239965D01*
X3526637Y-7243267D01*
X3523386Y-7246010D01*
X3519678Y-7247991D01*
X3515512Y-7249210D01*
X3510889Y-7249617D01*
X3506317Y-7249210D01*
X3502202Y-7248093D01*
X3498596Y-7246162D01*
X3495395Y-7243521D01*
X3492754Y-7240219D01*
X3490823Y-7236409D01*
X3489706Y-7232091D01*
X3489299Y-7227265D01*
X3463516Y-7227265D01*
X3463391Y-7229043D01*
X3466541Y-7247636D01*
X3475837Y-7261301D01*
X3482695Y-7266279D01*
X3490823Y-7269835D01*
X3500221Y-7272020D01*
X3510889Y-7272731D01*
X3521710Y-7272020D01*
X3531158Y-7269835D01*
X3539337Y-7266279D01*
X3546195Y-7261301D01*
X3555542Y-7247636D01*
X3558641Y-7229043D01*
X3558235Y-7222540D01*
X3556965Y-7216495D01*
X3554831Y-7210958D01*
X3551783Y-7205929D01*
X3548024Y-7201560D01*
X3543604Y-7197902D01*
X3538524Y-7194956D01*
X3532733Y-7192721D01*
X3537864Y-7190536D01*
X3542334Y-7187793D01*
X3546144Y-7184542D01*
X3549243Y-7180783D01*
X3551834Y-7176465D01*
X3553663Y-7171690D01*
X3554729Y-7166406D01*
X3555085Y-7160717D01*
X3552139Y-7144512D01*
X3543147Y-7132015D01*
X3529279Y-7124192D01*
G37*
G36*
X3710533Y-7124141D02*
G01*
X3710533Y-7205675D01*
X3718356Y-7202271D01*
X3726027Y-7199833D01*
X3733850Y-7198461D01*
X3741521Y-7198055D01*
X3747820Y-7198461D01*
X3753408Y-7199731D01*
X3758336Y-7201916D01*
X3762603Y-7204913D01*
X3766058Y-7208621D01*
X3768547Y-7212888D01*
X3770020Y-7217765D01*
X3770477Y-7223201D01*
X3770020Y-7229043D01*
X3768547Y-7234174D01*
X3766058Y-7238542D01*
X3762603Y-7242251D01*
X3758234Y-7244994D01*
X3752900Y-7246975D01*
X3746652Y-7248194D01*
X3739489Y-7248601D01*
X3730853Y-7248093D01*
X3722217Y-7246569D01*
X3713784Y-7244080D01*
X3705707Y-7240727D01*
X3705707Y-7266635D01*
X3715512Y-7269276D01*
X3725011Y-7271207D01*
X3734612Y-7272324D01*
X3744061Y-7272731D01*
X3755999Y-7271867D01*
X3766616Y-7269429D01*
X3775964Y-7265263D01*
X3783939Y-7259523D01*
X3790289Y-7252258D01*
X3794810Y-7243825D01*
X3797554Y-7234123D01*
X3798417Y-7223201D01*
X3797604Y-7212787D01*
X3795064Y-7203389D01*
X3790848Y-7195007D01*
X3784955Y-7187641D01*
X3777742Y-7181596D01*
X3769461Y-7177328D01*
X3760215Y-7174738D01*
X3749903Y-7173925D01*
X3745484Y-7174077D01*
X3737559Y-7175449D01*
X3733901Y-7176719D01*
X3733901Y-7149541D01*
X3789781Y-7149541D01*
X3789781Y-7124141D01*
G37*
G36*
X3343503Y-7124141D02*
G01*
X3343503Y-7149541D01*
X3404463Y-7149541D01*
X3356965Y-7269937D01*
X3386429Y-7269937D01*
X3435705Y-7144715D01*
X3435705Y-7124141D01*
G37*
G36*
X3231997Y-7124141D02*
G01*
X3231997Y-7269937D01*
X3322421Y-7269937D01*
X3322421Y-7244537D01*
X3260699Y-7244537D01*
X3260699Y-7124141D01*
G37*
G36*
X3631285Y-7185101D02*
G01*
X3628898Y-7185304D01*
X3626662Y-7185964D01*
X3624681Y-7187082D01*
X3622903Y-7188657D01*
X3621379Y-7190486D01*
X3620262Y-7192568D01*
X3619601Y-7194803D01*
X3619347Y-7197293D01*
X3619601Y-7199731D01*
X3620262Y-7201966D01*
X3621379Y-7204049D01*
X3622903Y-7205929D01*
X3624681Y-7207453D01*
X3626662Y-7208570D01*
X3628898Y-7209231D01*
X3631285Y-7209485D01*
X3633876Y-7209231D01*
X3636213Y-7208570D01*
X3638296Y-7207453D01*
X3640175Y-7205929D01*
X3641648Y-7204049D01*
X3642664Y-7201966D01*
X3643274Y-7199731D01*
X3643477Y-7197293D01*
X3643274Y-7194803D01*
X3642664Y-7192568D01*
X3641648Y-7190486D01*
X3640175Y-7188657D01*
X3638296Y-7187082D01*
X3636213Y-7185964D01*
X3633876Y-7185304D01*
G37*
G36*
X662940Y-6605016D02*
G01*
X662940Y-6644894D01*
X697230Y-6644894D01*
X697230Y-6605016D01*
G37*
G36*
X1192022Y-6617716D02*
G01*
X1192022Y-6644131D01*
X1226820Y-6644131D01*
X1226820Y-6745224D01*
X1227480Y-6758889D01*
X1229461Y-6770471D01*
X1232814Y-6779971D01*
X1237488Y-6787388D01*
X1243685Y-6792925D01*
X1251559Y-6796887D01*
X1261211Y-6799275D01*
X1272540Y-6800088D01*
X1309624Y-6800088D01*
X1309624Y-6773672D01*
X1282192Y-6773672D01*
X1276908Y-6773265D01*
X1272438Y-6772097D01*
X1268780Y-6770116D01*
X1265936Y-6767322D01*
X1263802Y-6763461D01*
X1262329Y-6758482D01*
X1261414Y-6752437D01*
X1261110Y-6745224D01*
X1261110Y-6617716D01*
G37*
G36*
X469646Y-6617716D02*
G01*
X469646Y-6644131D01*
X504443Y-6644131D01*
X504443Y-6745224D01*
X505104Y-6758889D01*
X507136Y-6770471D01*
X510438Y-6779971D01*
X515112Y-6787388D01*
X521309Y-6792925D01*
X529234Y-6796887D01*
X538835Y-6799275D01*
X550164Y-6800088D01*
X587248Y-6800088D01*
X587248Y-6773672D01*
X559816Y-6773672D01*
X554532Y-6773265D01*
X550011Y-6772097D01*
X546404Y-6770116D01*
X543560Y-6767322D01*
X541426Y-6763461D01*
X539953Y-6758482D01*
X539038Y-6752437D01*
X538734Y-6745224D01*
X538734Y-6617716D01*
G37*
G36*
X242316Y-6621780D02*
G01*
X229717Y-6622643D01*
X218490Y-6625234D01*
X208737Y-6629501D01*
X200406Y-6635496D01*
X193751Y-6642862D01*
X188976Y-6651548D01*
X186131Y-6661556D01*
X185166Y-6672834D01*
X187452Y-6689445D01*
X194310Y-6702298D01*
X200050Y-6707733D01*
X207873Y-6713016D01*
X217830Y-6718249D01*
X229870Y-6723380D01*
X246634Y-6729730D01*
X250901Y-6731558D01*
X254609Y-6733743D01*
X257759Y-6736232D01*
X260350Y-6739128D01*
X262331Y-6742175D01*
X263753Y-6745478D01*
X264617Y-6749034D01*
X264922Y-6752844D01*
X264515Y-6757771D01*
X263194Y-6762140D01*
X261061Y-6765899D01*
X258064Y-6769100D01*
X254152Y-6771640D01*
X249529Y-6773468D01*
X244246Y-6774586D01*
X238252Y-6774942D01*
X225501Y-6773722D01*
X212598Y-6770116D01*
X199440Y-6764020D01*
X185928Y-6755384D01*
X185928Y-6791198D01*
X198323Y-6796531D01*
X211074Y-6800342D01*
X224078Y-6802628D01*
X237236Y-6803390D01*
X252018Y-6802577D01*
X264820Y-6800138D01*
X275640Y-6796125D01*
X284480Y-6790436D01*
X291236Y-6783019D01*
X296113Y-6773925D01*
X299008Y-6763207D01*
X299974Y-6750812D01*
X297484Y-6732981D01*
X290068Y-6718553D01*
X284429Y-6712508D01*
X277368Y-6707073D01*
X268935Y-6702196D01*
X259079Y-6697980D01*
X237032Y-6689648D01*
X231292Y-6687007D01*
X226872Y-6684416D01*
X223774Y-6681978D01*
X221640Y-6679438D01*
X220167Y-6676593D01*
X219252Y-6673443D01*
X218948Y-6670040D01*
X219354Y-6665620D01*
X220573Y-6661708D01*
X222656Y-6658356D01*
X225552Y-6655562D01*
X229311Y-6653326D01*
X233781Y-6651752D01*
X238963Y-6650786D01*
X244856Y-6650481D01*
X250494Y-6650736D01*
X256184Y-6651498D01*
X261924Y-6652768D01*
X267716Y-6654546D01*
X279095Y-6659575D01*
X290322Y-6666484D01*
X290322Y-6632702D01*
X278384Y-6627977D01*
X266446Y-6624574D01*
X260350Y-6623354D01*
X254304Y-6622491D01*
X248310Y-6621932D01*
G37*
G36*
X1058164Y-6625081D02*
G01*
X1058164Y-6800088D01*
X1092962Y-6800088D01*
X1092962Y-6723634D01*
X1160526Y-6723634D01*
X1160526Y-6693153D01*
X1092962Y-6693153D01*
X1092962Y-6655562D01*
X1167384Y-6655562D01*
X1167384Y-6625081D01*
G37*
G36*
X794512Y-6631431D02*
G01*
X794512Y-6668770D01*
X760984Y-6668770D01*
X760984Y-6695186D01*
X794512Y-6695186D01*
X794512Y-6755638D01*
X795172Y-6767372D01*
X797102Y-6777075D01*
X800354Y-6784898D01*
X804926Y-6790690D01*
X811326Y-6794804D01*
X820115Y-6797751D01*
X831240Y-6799478D01*
X844803Y-6800088D01*
X873760Y-6800088D01*
X873760Y-6773672D01*
X847344Y-6773672D01*
X842721Y-6773418D01*
X838860Y-6772706D01*
X835609Y-6771538D01*
X833119Y-6769862D01*
X831240Y-6767626D01*
X829868Y-6764781D01*
X829056Y-6761276D01*
X828802Y-6757162D01*
X828802Y-6695186D01*
X873760Y-6695186D01*
X873760Y-6668770D01*
X828802Y-6668770D01*
X828802Y-6631431D01*
G37*
G36*
X1557020Y-6665722D02*
G01*
X1551279Y-6666077D01*
X1545894Y-6667144D01*
X1540967Y-6668871D01*
X1536446Y-6671309D01*
X1532229Y-6674561D01*
X1528419Y-6678472D01*
X1525117Y-6683095D01*
X1522222Y-6688328D01*
X1522222Y-6668770D01*
X1487932Y-6668770D01*
X1487932Y-6734302D01*
X1522222Y-6734302D01*
X1523796Y-6717334D01*
X1528572Y-6704584D01*
X1532178Y-6699808D01*
X1536344Y-6696405D01*
X1541068Y-6694322D01*
X1546352Y-6693662D01*
X1551533Y-6694322D01*
X1556156Y-6696405D01*
X1560169Y-6699808D01*
X1563624Y-6704584D01*
X1568399Y-6717334D01*
X1569974Y-6734302D01*
X1568399Y-6751269D01*
X1563624Y-6764020D01*
X1560169Y-6768795D01*
X1556105Y-6772198D01*
X1551533Y-6774281D01*
X1546352Y-6774942D01*
X1541068Y-6774281D01*
X1536293Y-6772198D01*
X1532178Y-6768795D01*
X1528572Y-6764020D01*
X1523796Y-6751269D01*
X1522222Y-6734302D01*
X1487932Y-6734302D01*
X1487932Y-6849872D01*
X1522222Y-6849872D01*
X1522222Y-6781546D01*
X1525524Y-6786676D01*
X1529080Y-6791147D01*
X1532890Y-6794906D01*
X1536954Y-6798056D01*
X1541272Y-6800392D01*
X1545844Y-6802069D01*
X1550670Y-6803034D01*
X1555750Y-6803390D01*
X1566773Y-6802272D01*
X1576476Y-6798970D01*
X1584807Y-6793382D01*
X1591818Y-6785609D01*
X1597253Y-6775754D01*
X1601165Y-6763969D01*
X1603502Y-6750202D01*
X1604264Y-6734556D01*
X1603502Y-6719112D01*
X1601216Y-6705447D01*
X1597406Y-6693712D01*
X1592072Y-6683756D01*
X1585214Y-6675881D01*
X1577086Y-6670243D01*
X1567688Y-6666839D01*
G37*
G36*
X1398016Y-6665722D02*
G01*
X1391513Y-6665823D01*
X1379067Y-6666839D01*
X1373124Y-6667753D01*
X1367282Y-6669024D01*
X1361490Y-6670598D01*
X1350010Y-6674612D01*
X1350010Y-6704075D01*
X1362252Y-6698183D01*
X1374140Y-6694170D01*
X1379931Y-6692849D01*
X1385824Y-6691884D01*
X1391869Y-6691325D01*
X1398016Y-6691122D01*
X1403502Y-6691375D01*
X1408226Y-6692138D01*
X1412240Y-6693408D01*
X1415542Y-6695186D01*
X1418234Y-6697573D01*
X1420114Y-6700520D01*
X1421231Y-6703923D01*
X1421638Y-6707886D01*
X1421638Y-6713728D01*
X1398016Y-6713728D01*
X1383436Y-6714388D01*
X1370838Y-6716471D01*
X1360271Y-6719874D01*
X1351788Y-6724650D01*
X1345336Y-6730847D01*
X1340713Y-6738569D01*
X1337970Y-6747764D01*
X1337056Y-6758431D01*
X1337190Y-6760209D01*
X1373632Y-6760209D01*
X1374089Y-6754672D01*
X1375562Y-6749999D01*
X1377899Y-6746138D01*
X1381252Y-6743192D01*
X1391716Y-6739585D01*
X1407922Y-6738366D01*
X1421638Y-6738366D01*
X1421638Y-6740652D01*
X1419809Y-6757111D01*
X1414272Y-6769353D01*
X1405178Y-6776974D01*
X1393190Y-6779514D01*
X1388872Y-6779209D01*
X1385011Y-6778244D01*
X1381607Y-6776669D01*
X1378712Y-6774434D01*
X1376476Y-6771538D01*
X1374902Y-6768236D01*
X1373936Y-6764426D01*
X1373632Y-6760209D01*
X1337190Y-6760209D01*
X1337818Y-6768490D01*
X1340154Y-6777380D01*
X1344066Y-6785000D01*
X1349502Y-6791452D01*
X1356360Y-6796684D01*
X1364437Y-6800392D01*
X1373733Y-6802628D01*
X1384300Y-6803390D01*
X1390040Y-6803085D01*
X1395476Y-6802221D01*
X1400657Y-6800799D01*
X1405636Y-6798818D01*
X1410360Y-6796176D01*
X1414576Y-6793026D01*
X1418336Y-6789420D01*
X1421638Y-6785356D01*
X1421638Y-6800088D01*
X1455674Y-6800088D01*
X1455674Y-6725158D01*
X1454861Y-6709664D01*
X1452422Y-6696760D01*
X1448409Y-6686448D01*
X1442720Y-6678675D01*
X1435049Y-6672986D01*
X1425041Y-6668973D01*
X1412697Y-6666534D01*
G37*
G36*
X401066Y-6665722D02*
G01*
X395376Y-6666077D01*
X390093Y-6667144D01*
X385114Y-6668871D01*
X380492Y-6671309D01*
X376275Y-6674561D01*
X372465Y-6678472D01*
X369163Y-6683095D01*
X366268Y-6688328D01*
X366268Y-6668770D01*
X331978Y-6668770D01*
X331978Y-6734302D01*
X366268Y-6734302D01*
X367842Y-6717334D01*
X372618Y-6704584D01*
X376224Y-6699808D01*
X380339Y-6696405D01*
X385114Y-6694322D01*
X390398Y-6693662D01*
X395681Y-6694322D01*
X400304Y-6696405D01*
X404317Y-6699808D01*
X407670Y-6704584D01*
X412445Y-6717334D01*
X414020Y-6734302D01*
X412445Y-6751269D01*
X407670Y-6764020D01*
X404317Y-6768795D01*
X400304Y-6772198D01*
X395681Y-6774281D01*
X390398Y-6774942D01*
X385114Y-6774281D01*
X380339Y-6772198D01*
X376224Y-6768795D01*
X372618Y-6764020D01*
X367842Y-6751269D01*
X366268Y-6734302D01*
X331978Y-6734302D01*
X331978Y-6849872D01*
X366268Y-6849872D01*
X366268Y-6781546D01*
X369570Y-6786676D01*
X373126Y-6791147D01*
X376936Y-6794906D01*
X381000Y-6798056D01*
X385318Y-6800392D01*
X389940Y-6802069D01*
X394868Y-6803034D01*
X400050Y-6803390D01*
X410972Y-6802272D01*
X420573Y-6798970D01*
X428853Y-6793382D01*
X435864Y-6785609D01*
X441401Y-6775754D01*
X445363Y-6763969D01*
X447751Y-6750202D01*
X448564Y-6734556D01*
X447801Y-6719112D01*
X445465Y-6705447D01*
X441553Y-6693712D01*
X436118Y-6683756D01*
X429259Y-6675881D01*
X421132Y-6670243D01*
X411734Y-6666839D01*
G37*
G36*
X629412Y-6668770D02*
G01*
X629412Y-6695186D01*
X662940Y-6695186D01*
X662940Y-6773672D01*
X620268Y-6773672D01*
X620268Y-6800088D01*
X739902Y-6800088D01*
X739902Y-6773672D01*
X697230Y-6773672D01*
X697230Y-6668770D01*
G37*
G36*
X927862Y-6713981D02*
G01*
X927862Y-6748018D01*
X1001776Y-6748018D01*
X1001776Y-6713981D01*
G37*
G36*
X807466Y-6870192D02*
G01*
X807466Y-6910324D01*
X841756Y-6910324D01*
X841756Y-6870192D01*
G37*
G36*
X1679702Y-6887209D02*
G01*
X1674164Y-6887362D01*
X1668475Y-6887819D01*
X1662582Y-6888632D01*
X1656588Y-6889750D01*
X1644497Y-6892594D01*
X1632204Y-6896608D01*
X1632204Y-6928866D01*
X1644446Y-6922668D01*
X1656334Y-6918198D01*
X1661922Y-6916521D01*
X1667205Y-6915353D01*
X1672183Y-6914642D01*
X1676907Y-6914388D01*
X1683105Y-6914794D01*
X1688592Y-6915962D01*
X1693265Y-6917944D01*
X1697228Y-6920738D01*
X1700326Y-6924344D01*
X1702562Y-6928612D01*
X1703882Y-6933488D01*
X1704339Y-6939025D01*
X1704086Y-6942836D01*
X1703324Y-6946646D01*
X1702054Y-6950456D01*
X1700275Y-6954266D01*
X1698040Y-6958330D01*
X1695196Y-6962698D01*
X1691690Y-6967372D01*
X1682394Y-6978091D01*
X1662175Y-6999935D01*
X1628394Y-7035800D01*
X1628394Y-7065518D01*
X1739392Y-7065518D01*
X1739392Y-7035038D01*
X1665732Y-7035038D01*
X1689862Y-7010908D01*
X1712366Y-6987946D01*
X1719478Y-6980123D01*
X1723898Y-6974840D01*
X1727809Y-6969506D01*
X1731060Y-6964425D01*
X1733753Y-6959600D01*
X1735836Y-6955028D01*
X1737258Y-6950354D01*
X1738325Y-6945579D01*
X1738934Y-6940600D01*
X1739138Y-6935470D01*
X1738172Y-6924903D01*
X1735175Y-6915454D01*
X1730298Y-6907225D01*
X1723389Y-6900164D01*
X1714652Y-6894474D01*
X1704492Y-6890461D01*
X1692808Y-6888022D01*
G37*
G36*
X1386840Y-6890512D02*
G01*
X1350772Y-6899148D01*
X1350772Y-6930390D01*
X1386586Y-6921500D01*
X1386586Y-7035038D01*
X1347978Y-7035038D01*
X1347978Y-7065518D01*
X1458976Y-7065518D01*
X1458976Y-7035038D01*
X1420368Y-7035038D01*
X1420368Y-6890512D01*
G37*
G36*
X176784Y-6890512D02*
G01*
X218186Y-7065518D01*
X266192Y-7065518D01*
X307848Y-6890512D01*
X273050Y-6890512D01*
X242316Y-7036562D01*
X211582Y-6890512D01*
G37*
G36*
X1124966Y-6930898D02*
G01*
X1118971Y-6931304D01*
X1113434Y-6932422D01*
X1108303Y-6934352D01*
X1103630Y-6936994D01*
X1099515Y-6940245D01*
X1096060Y-6944106D01*
X1093317Y-6948627D01*
X1091184Y-6953758D01*
X1091184Y-6934200D01*
X1057148Y-6934200D01*
X1057148Y-7065518D01*
X1091184Y-7065518D01*
X1091184Y-6990334D01*
X1091539Y-6983374D01*
X1092504Y-6977176D01*
X1094181Y-6971792D01*
X1096518Y-6967220D01*
X1099413Y-6963562D01*
X1102868Y-6960920D01*
X1106779Y-6959346D01*
X1111250Y-6958838D01*
X1115466Y-6959193D01*
X1119073Y-6960362D01*
X1121968Y-6962241D01*
X1124204Y-6964934D01*
X1125982Y-6968591D01*
X1127252Y-6973265D01*
X1128014Y-6978903D01*
X1128268Y-6985508D01*
X1128268Y-7065518D01*
X1162558Y-7065518D01*
X1162558Y-6980174D01*
X1161948Y-6968744D01*
X1160170Y-6958787D01*
X1157122Y-6950303D01*
X1152906Y-6943344D01*
X1141222Y-6933996D01*
G37*
G36*
X964692Y-6930898D02*
G01*
X951433Y-6932066D01*
X939647Y-6935622D01*
X929335Y-6941464D01*
X920496Y-6949694D01*
X913282Y-6959803D01*
X908100Y-6971538D01*
X905002Y-6984949D01*
X903986Y-6999986D01*
X938276Y-6999986D01*
X940053Y-6982764D01*
X945387Y-6969759D01*
X949147Y-6964984D01*
X953617Y-6961581D01*
X958799Y-6959498D01*
X964692Y-6958838D01*
X970584Y-6959498D01*
X975715Y-6961581D01*
X980236Y-6964984D01*
X983996Y-6969759D01*
X989330Y-6982764D01*
X991108Y-6999986D01*
X989330Y-7017105D01*
X983996Y-7029958D01*
X980236Y-7034733D01*
X975715Y-7038136D01*
X970584Y-7040219D01*
X964692Y-7040880D01*
X958799Y-7040219D01*
X953617Y-7038136D01*
X949147Y-7034733D01*
X945387Y-7029958D01*
X940053Y-7017156D01*
X938276Y-6999986D01*
X903986Y-6999986D01*
X905002Y-7015022D01*
X908100Y-7028434D01*
X913282Y-7040168D01*
X920496Y-7050278D01*
X929335Y-7058406D01*
X939647Y-7064197D01*
X951433Y-7067651D01*
X964692Y-7068820D01*
X977950Y-7067651D01*
X989685Y-7064197D01*
X1000048Y-7058406D01*
X1008887Y-7050278D01*
X1016101Y-7040168D01*
X1021283Y-7028434D01*
X1024382Y-7015022D01*
X1025398Y-6999986D01*
X1024382Y-6984949D01*
X1021283Y-6971538D01*
X1016101Y-6959803D01*
X1008887Y-6949694D01*
X1000048Y-6941464D01*
X989685Y-6935622D01*
X977950Y-6932066D01*
G37*
G36*
X675894Y-6930898D02*
G01*
X664159Y-6931558D01*
X653796Y-6933539D01*
X644855Y-6936892D01*
X637286Y-6941566D01*
X627024Y-6954113D01*
X623570Y-6971030D01*
X625856Y-6985406D01*
X632714Y-6996430D01*
X644347Y-7004761D01*
X661416Y-7010400D01*
X678332Y-7014565D01*
X684326Y-7016445D01*
X688848Y-7018274D01*
X691896Y-7020052D01*
X693775Y-7022033D01*
X695147Y-7024370D01*
X695960Y-7027113D01*
X696214Y-7030212D01*
X695807Y-7033310D01*
X694639Y-7036053D01*
X692658Y-7038390D01*
X689864Y-7040372D01*
X686460Y-7041946D01*
X682244Y-7043064D01*
X677265Y-7043724D01*
X671576Y-7043928D01*
X666089Y-7043724D01*
X660450Y-7043013D01*
X654761Y-7041946D01*
X643026Y-7038543D01*
X637235Y-7036308D01*
X631494Y-7033717D01*
X625856Y-7030720D01*
X625856Y-7060692D01*
X638505Y-7064248D01*
X651002Y-7066788D01*
X657199Y-7067702D01*
X669239Y-7068718D01*
X675132Y-7068820D01*
X687628Y-7068210D01*
X698500Y-7066280D01*
X707694Y-7063130D01*
X715264Y-7058659D01*
X725170Y-7045959D01*
X728472Y-7028180D01*
X726338Y-7013143D01*
X719836Y-7001509D01*
X708507Y-6992924D01*
X692404Y-6987031D01*
X681228Y-6984492D01*
X662381Y-6977786D01*
X656082Y-6969252D01*
X656437Y-6966153D01*
X657555Y-6963460D01*
X659384Y-6961225D01*
X661924Y-6959346D01*
X665175Y-6957923D01*
X669137Y-6956856D01*
X673811Y-6956247D01*
X679196Y-6956044D01*
X684377Y-6956247D01*
X689559Y-6956806D01*
X694690Y-6957771D01*
X699770Y-6959092D01*
X704900Y-6960819D01*
X709930Y-6962902D01*
X714806Y-6965391D01*
X719582Y-6968236D01*
X719582Y-6938264D01*
X714349Y-6936587D01*
X703529Y-6933946D01*
X692505Y-6932015D01*
X681482Y-6930999D01*
G37*
G36*
X567182Y-6930898D02*
G01*
X554126Y-6932472D01*
X542798Y-6937248D01*
X537921Y-6940600D01*
X533704Y-6944614D01*
X530199Y-6949236D01*
X527304Y-6954520D01*
X527304Y-6934200D01*
X493014Y-6934200D01*
X493014Y-7065518D01*
X527304Y-7065518D01*
X527405Y-6999020D01*
X527608Y-6993788D01*
X528574Y-6985762D01*
X529183Y-6982714D01*
X530047Y-6979869D01*
X531114Y-6977227D01*
X532384Y-6974840D01*
X534873Y-6971487D01*
X537870Y-6968540D01*
X541223Y-6966051D01*
X545084Y-6963918D01*
X549300Y-6962241D01*
X553923Y-6961073D01*
X558850Y-6960362D01*
X564134Y-6960108D01*
X568502Y-6960260D01*
X572719Y-6960768D01*
X576732Y-6961530D01*
X580644Y-6962648D01*
X584352Y-6964070D01*
X587756Y-6965797D01*
X590905Y-6967880D01*
X593852Y-6970268D01*
X593852Y-6937756D01*
X587654Y-6934860D01*
X581152Y-6932675D01*
X574243Y-6931355D01*
X570738Y-6930999D01*
G37*
G36*
X387858Y-6930898D02*
G01*
X374142Y-6932066D01*
X361950Y-6935622D01*
X351282Y-6941464D01*
X342138Y-6949694D01*
X334822Y-6959803D01*
X329539Y-6971690D01*
X326437Y-6985253D01*
X360426Y-6985253D01*
X361543Y-6979005D01*
X363270Y-6973519D01*
X365709Y-6968744D01*
X368808Y-6964680D01*
X372668Y-6961581D01*
X377139Y-6959346D01*
X382168Y-6958025D01*
X387858Y-6957568D01*
X393954Y-6958025D01*
X399288Y-6959346D01*
X403860Y-6961581D01*
X407670Y-6964680D01*
X410565Y-6968540D01*
X412699Y-6973265D01*
X414020Y-6978802D01*
X414528Y-6985253D01*
X326437Y-6985253D01*
X325374Y-7000494D01*
X326440Y-7016038D01*
X329692Y-7029703D01*
X335076Y-7041438D01*
X342646Y-7051294D01*
X352348Y-7058964D01*
X363982Y-7064451D01*
X377494Y-7067702D01*
X392938Y-7068820D01*
X406501Y-7068159D01*
X419354Y-7066280D01*
X431647Y-7063282D01*
X443738Y-7058914D01*
X443738Y-7027418D01*
X431342Y-7033818D01*
X419608Y-7038340D01*
X413867Y-7039762D01*
X408076Y-7040829D01*
X402183Y-7041438D01*
X396240Y-7041642D01*
X380644Y-7039711D01*
X369316Y-7034022D01*
X362559Y-7024420D01*
X360172Y-7010908D01*
X449072Y-7010908D01*
X449072Y-6996938D01*
X448056Y-6982053D01*
X445058Y-6968998D01*
X440080Y-6957720D01*
X433070Y-6948170D01*
X424129Y-6940600D01*
X413613Y-6935216D01*
X401523Y-6931964D01*
G37*
G36*
X773938Y-6934200D02*
G01*
X773938Y-6960616D01*
X807466Y-6960616D01*
X807466Y-7039102D01*
X764794Y-7039102D01*
X764794Y-7065518D01*
X884428Y-7065518D01*
X884428Y-7039102D01*
X841756Y-7039102D01*
X841756Y-6934200D01*
G37*
G36*
X1522984Y-7022338D02*
G01*
X1522984Y-7065518D01*
X1562100Y-7065518D01*
X1562100Y-7022338D01*
G37*
G36*
X2750058Y-5651804D02*
G01*
X2736494Y-5653227D01*
X2724810Y-5657494D01*
X2714904Y-5664657D01*
X2706878Y-5674664D01*
X2702458Y-5682792D01*
X2698851Y-5692241D01*
X2696006Y-5702960D01*
X2694025Y-5714949D01*
X2692806Y-5728208D01*
X2692400Y-5742736D01*
X2727198Y-5742736D01*
X2727553Y-5727700D01*
X2728620Y-5714847D01*
X2730347Y-5704179D01*
X2732786Y-5695746D01*
X2739796Y-5684875D01*
X2750058Y-5681268D01*
X2760624Y-5684875D01*
X2767838Y-5695746D01*
X2770174Y-5704179D01*
X2771851Y-5714847D01*
X2772867Y-5727700D01*
X2773172Y-5742736D01*
X2772867Y-5757621D01*
X2771851Y-5770422D01*
X2770174Y-5780989D01*
X2767838Y-5789472D01*
X2760624Y-5800496D01*
X2750058Y-5804204D01*
X2739796Y-5800496D01*
X2732786Y-5789472D01*
X2730347Y-5780989D01*
X2728620Y-5770422D01*
X2727553Y-5757621D01*
X2727198Y-5742736D01*
X2692400Y-5742736D01*
X2692806Y-5757164D01*
X2694025Y-5770372D01*
X2696006Y-5782360D01*
X2698851Y-5793079D01*
X2702458Y-5802528D01*
X2706878Y-5810808D01*
X2714904Y-5820664D01*
X2724810Y-5827725D01*
X2736494Y-5831992D01*
X2750058Y-5833414D01*
X2763774Y-5831992D01*
X2775610Y-5827725D01*
X2785618Y-5820664D01*
X2793746Y-5810808D01*
X2798114Y-5802630D01*
X2801670Y-5793181D01*
X2804414Y-5782462D01*
X2806395Y-5770473D01*
X2807563Y-5757214D01*
X2807970Y-5742736D01*
X2807563Y-5728106D01*
X2806395Y-5714796D01*
X2804414Y-5702757D01*
X2801670Y-5692038D01*
X2798114Y-5682589D01*
X2793746Y-5674410D01*
X2785618Y-5664504D01*
X2775610Y-5657443D01*
X2763774Y-5653176D01*
G37*
G36*
X2316734Y-5651804D02*
G01*
X2304135Y-5652617D01*
X2292908Y-5655208D01*
X2283155Y-5659475D01*
X2274824Y-5665520D01*
X2268169Y-5672886D01*
X2263394Y-5681573D01*
X2260549Y-5691530D01*
X2259584Y-5702858D01*
X2261920Y-5719470D01*
X2268982Y-5732322D01*
X2274620Y-5737707D01*
X2282393Y-5742990D01*
X2292299Y-5748121D01*
X2304288Y-5753150D01*
X2325471Y-5761532D01*
X2329129Y-5763717D01*
X2332228Y-5766257D01*
X2334768Y-5769152D01*
X2336901Y-5772200D01*
X2338374Y-5775502D01*
X2339289Y-5779058D01*
X2339594Y-5782868D01*
X2339136Y-5787745D01*
X2337816Y-5792114D01*
X2335580Y-5795873D01*
X2332482Y-5799124D01*
X2328570Y-5801563D01*
X2323998Y-5803290D01*
X2318664Y-5804357D01*
X2312670Y-5804712D01*
X2299919Y-5803544D01*
X2287016Y-5800140D01*
X2273858Y-5794044D01*
X2260346Y-5785408D01*
X2260346Y-5821222D01*
X2272741Y-5826556D01*
X2285492Y-5830366D01*
X2298649Y-5832652D01*
X2311654Y-5833414D01*
X2326436Y-5832602D01*
X2339238Y-5830163D01*
X2350058Y-5826099D01*
X2358898Y-5820460D01*
X2365806Y-5812993D01*
X2370734Y-5803950D01*
X2373680Y-5793181D01*
X2374646Y-5780836D01*
X2372106Y-5762955D01*
X2364486Y-5748578D01*
X2358847Y-5742482D01*
X2351786Y-5737047D01*
X2343353Y-5732221D01*
X2333498Y-5728004D01*
X2311704Y-5719622D01*
X2305964Y-5716981D01*
X2301544Y-5714441D01*
X2298446Y-5712002D01*
X2296210Y-5709412D01*
X2294636Y-5706567D01*
X2293670Y-5703468D01*
X2293366Y-5700064D01*
X2293823Y-5695594D01*
X2295093Y-5691733D01*
X2297226Y-5688380D01*
X2300224Y-5685586D01*
X2303881Y-5683351D01*
X2308301Y-5681776D01*
X2313432Y-5680811D01*
X2319274Y-5680506D01*
X2325014Y-5680760D01*
X2330704Y-5681522D01*
X2336444Y-5682792D01*
X2342134Y-5684570D01*
X2353513Y-5689549D01*
X2364740Y-5696508D01*
X2364740Y-5662726D01*
X2358796Y-5660186D01*
X2352802Y-5658002D01*
X2346858Y-5656122D01*
X2340864Y-5654598D01*
X2334818Y-5653328D01*
X2328722Y-5652465D01*
X2322728Y-5651957D01*
G37*
G36*
X2883408Y-5655106D02*
G01*
X2847086Y-5663742D01*
X2847086Y-5694984D01*
X2883154Y-5686094D01*
X2883154Y-5799632D01*
X2844546Y-5799632D01*
X2844546Y-5830112D01*
X2955544Y-5830112D01*
X2955544Y-5799632D01*
X2916682Y-5799632D01*
X2916682Y-5655106D01*
G37*
G36*
X2407920Y-5655106D02*
G01*
X2407920Y-5684062D01*
X2456688Y-5684062D01*
X2471166Y-5685485D01*
X2480564Y-5689904D01*
X2483561Y-5693206D01*
X2485694Y-5697626D01*
X2487015Y-5703112D01*
X2487422Y-5709716D01*
X2487015Y-5716270D01*
X2485694Y-5721807D01*
X2483561Y-5726328D01*
X2480564Y-5729782D01*
X2471166Y-5733948D01*
X2456688Y-5735370D01*
X2442464Y-5735370D01*
X2442464Y-5684062D01*
X2407920Y-5684062D01*
X2407920Y-5830112D01*
X2442464Y-5830112D01*
X2442464Y-5764580D01*
X2455418Y-5764580D01*
X2472283Y-5763768D01*
X2486609Y-5761329D01*
X2498344Y-5757265D01*
X2507488Y-5751626D01*
X2514498Y-5744108D01*
X2519476Y-5734659D01*
X2522524Y-5723178D01*
X2523490Y-5709716D01*
X2522524Y-5696254D01*
X2519476Y-5684824D01*
X2514498Y-5675426D01*
X2507488Y-5668060D01*
X2498344Y-5662371D01*
X2486609Y-5658307D01*
X2472283Y-5655868D01*
X2455418Y-5655106D01*
G37*
G36*
X2119630Y-5655106D02*
G01*
X2119630Y-5830112D01*
X2228596Y-5830112D01*
X2228596Y-5799632D01*
X2154174Y-5799632D01*
X2154174Y-5753658D01*
X2221738Y-5753658D01*
X2221738Y-5723178D01*
X2154174Y-5723178D01*
X2154174Y-5685586D01*
X2228596Y-5685586D01*
X2228596Y-5655106D01*
G37*
G36*
X2750058Y-5728004D02*
G01*
X2747162Y-5728258D01*
X2744470Y-5729071D01*
X2742082Y-5730392D01*
X2739898Y-5732322D01*
X2738018Y-5734456D01*
X2736646Y-5736945D01*
X2735884Y-5739688D01*
X2735580Y-5742736D01*
X2735884Y-5745632D01*
X2736646Y-5748375D01*
X2738018Y-5750864D01*
X2739898Y-5753150D01*
X2742082Y-5754928D01*
X2744470Y-5756198D01*
X2747162Y-5756960D01*
X2750058Y-5757214D01*
X2753106Y-5756960D01*
X2755849Y-5756198D01*
X2758287Y-5754928D01*
X2760472Y-5753150D01*
X2762351Y-5750864D01*
X2763723Y-5748375D01*
X2764536Y-5745632D01*
X2764790Y-5742736D01*
X2764536Y-5739688D01*
X2763723Y-5736945D01*
X2762351Y-5734456D01*
X2760472Y-5732322D01*
X2758287Y-5730392D01*
X2755849Y-5729071D01*
X2753106Y-5728258D01*
G37*
G36*
X2568702Y-5744006D02*
G01*
X2568702Y-5778042D01*
X2642616Y-5778042D01*
X2642616Y-5744006D01*
G37*
D35*
X1602646Y-3750180D02*
G01*
X1592232Y-3739766D01*
X1576738Y-3734686D01*
X1555910Y-3734686D01*
X1540416Y-3739766D01*
X1530002Y-3750180D01*
X1530002Y-3760594D01*
X1535082Y-3771008D01*
X1540416Y-3776342D01*
X1550830Y-3781422D01*
X1582072Y-3791836D01*
X1592232Y-3796916D01*
X1597566Y-3802250D01*
X1602646Y-3812664D01*
X1602646Y-3828158D01*
X1592232Y-3838572D01*
X1576738Y-3843652D01*
X1555910Y-3843652D01*
X1540416Y-3838572D01*
X1530002Y-3828158D01*
X1636936Y-3734686D02*
G01*
X1663098Y-3843652D01*
X1689006Y-3734686D02*
G01*
X1663098Y-3843652D01*
X1689006Y-3734686D02*
G01*
X1714914Y-3843652D01*
X1740822Y-3734686D02*
G01*
X1714914Y-3843652D01*
X1775112Y-3755514D02*
G01*
X1785526Y-3750180D01*
X1801274Y-3734686D01*
X1801274Y-3843652D01*
D34*
X321200Y-3920604D02*
G01*
X321200Y-3997058D01*
X321200Y-3920604D02*
G01*
X372000Y-3997058D01*
X372000Y-3920604D02*
G01*
X372000Y-3997058D01*
X417974Y-3920604D02*
G01*
X410608Y-3924414D01*
X403496Y-3931526D01*
X399686Y-3938892D01*
X396130Y-3949814D01*
X396130Y-3967848D01*
X399686Y-3978770D01*
X403496Y-3986136D01*
X410608Y-3993502D01*
X417974Y-3997058D01*
X432452Y-3997058D01*
X439818Y-3993502D01*
X446930Y-3986136D01*
X450740Y-3978770D01*
X454296Y-3967848D01*
X454296Y-3949814D01*
X450740Y-3938892D01*
X446930Y-3931526D01*
X439818Y-3924414D01*
X432452Y-3920604D01*
X417974Y-3920604D01*
X473600Y-4392279D02*
G01*
X480966Y-4388723D01*
X491888Y-4377801D01*
X491888Y-4454255D01*
X731156Y-4396089D02*
G01*
X731156Y-4392279D01*
X734966Y-4385167D01*
X738522Y-4381611D01*
X745888Y-4377801D01*
X760366Y-4377801D01*
X767478Y-4381611D01*
X771288Y-4385167D01*
X774844Y-4392279D01*
X774844Y-4399645D01*
X771288Y-4407011D01*
X763922Y-4417933D01*
X727600Y-4454255D01*
X778400Y-4454255D01*
X988966Y-4377801D02*
G01*
X1028844Y-4377801D01*
X1007000Y-4407011D01*
X1017922Y-4407011D01*
X1025288Y-4410567D01*
X1028844Y-4414123D01*
X1032400Y-4425045D01*
X1032400Y-4432411D01*
X1028844Y-4443333D01*
X1021478Y-4450699D01*
X1010810Y-4454255D01*
X999888Y-4454255D01*
X988966Y-4450699D01*
X985156Y-4446889D01*
X981600Y-4439777D01*
X1271922Y-4377801D02*
G01*
X1235600Y-4428855D01*
X1290210Y-4428855D01*
X1271922Y-4377801D02*
G01*
X1271922Y-4454255D01*
D35*
X840056Y-1184772D02*
G01*
X840056Y-1262496D01*
X845136Y-1278244D01*
X855550Y-1288658D01*
X871298Y-1293738D01*
X881458Y-1293738D01*
X897206Y-1288658D01*
X907620Y-1278244D01*
X912700Y-1262496D01*
X912700Y-1184772D01*
X946990Y-1205346D02*
G01*
X957404Y-1200266D01*
X972898Y-1184772D01*
X972898Y-1293738D01*
X1038430Y-1184772D02*
G01*
X1022936Y-1189852D01*
X1012522Y-1205346D01*
X1007188Y-1231508D01*
X1007188Y-1247002D01*
X1012522Y-1272910D01*
X1022936Y-1288658D01*
X1038430Y-1293738D01*
X1048844Y-1293738D01*
X1064338Y-1288658D01*
X1074752Y-1272910D01*
X1080086Y-1247002D01*
X1080086Y-1231508D01*
X1074752Y-1205346D01*
X1064338Y-1189852D01*
X1048844Y-1184772D01*
X1038430Y-1184772D01*
X3600005Y-5034688D02*
G01*
X3600005Y-5112666D01*
X3605085Y-5128160D01*
X3615499Y-5138574D01*
X3631247Y-5143654D01*
X3641661Y-5143654D01*
X3657155Y-5138574D01*
X3667569Y-5128160D01*
X3672649Y-5112666D01*
X3672649Y-5034688D01*
X3712273Y-5060596D02*
G01*
X3712273Y-5055516D01*
X3717353Y-5045102D01*
X3722687Y-5039768D01*
X3733101Y-5034688D01*
X3753675Y-5034688D01*
X3764089Y-5039768D01*
X3769423Y-5045102D01*
X3774503Y-5055516D01*
X3774503Y-5065930D01*
X3769423Y-5076344D01*
X3759009Y-5091838D01*
X3706939Y-5143654D01*
X3779837Y-5143654D01*
X3430010Y-614672D02*
G01*
X3430010Y-692650D01*
X3435090Y-708144D01*
X3445504Y-718558D01*
X3461252Y-723638D01*
X3471666Y-723638D01*
X3487160Y-718558D01*
X3497574Y-708144D01*
X3502654Y-692650D01*
X3502654Y-614672D01*
X3536944Y-635500D02*
G01*
X3547358Y-630166D01*
X3563106Y-614672D01*
X3563106Y-723638D01*
D34*
X7570002Y-4145363D02*
G01*
X7570002Y-4048335D01*
X7570002Y-4145363D02*
G01*
X7537744Y-4145363D01*
X7523774Y-4140791D01*
X7514630Y-4131647D01*
X7510058Y-4122249D01*
X7505232Y-4108533D01*
X7505232Y-4085419D01*
X7510058Y-4071449D01*
X7514630Y-4062305D01*
X7523774Y-4053161D01*
X7537744Y-4048335D01*
X7570002Y-4048335D01*
X7474752Y-4126821D02*
G01*
X7465608Y-4131647D01*
X7451892Y-4145363D01*
X7451892Y-4048335D01*
X7338100Y-4163905D02*
G01*
X7421412Y-4016077D01*
X7275362Y-4145363D02*
G01*
X7275362Y-4048335D01*
X7307620Y-4145363D02*
G01*
X7243104Y-4145363D01*
X7212624Y-4145363D02*
G01*
X7147854Y-4048335D01*
X7147854Y-4145363D02*
G01*
X7212624Y-4048335D01*
X6099347Y-4067754D02*
G01*
X6094775Y-4058356D01*
X6085377Y-4049212D01*
X6076233Y-4044640D01*
X6057691Y-4044640D01*
X6048547Y-4049212D01*
X6039149Y-4058356D01*
X6034577Y-4067754D01*
X6030005Y-4081470D01*
X6030005Y-4104584D01*
X6034577Y-4118554D01*
X6039149Y-4127698D01*
X6048547Y-4136842D01*
X6057691Y-4141668D01*
X6076233Y-4141668D01*
X6085377Y-4136842D01*
X6094775Y-4127698D01*
X6099347Y-4118554D01*
X6099347Y-4104584D01*
X6076233Y-4104584D02*
G01*
X6099347Y-4104584D01*
X6129827Y-4044640D02*
G01*
X6129827Y-4141668D01*
X6129827Y-4044640D02*
G01*
X6194343Y-4141668D01*
X6194343Y-4044640D02*
G01*
X6194343Y-4141668D01*
X6224823Y-4044640D02*
G01*
X6224823Y-4141668D01*
X6224823Y-4044640D02*
G01*
X6257335Y-4044640D01*
X6271051Y-4049212D01*
X6280195Y-4058356D01*
X6285021Y-4067754D01*
X6289593Y-4081470D01*
X6289593Y-4104584D01*
X6285021Y-4118554D01*
X6280195Y-4127698D01*
X6271051Y-4136842D01*
X6257335Y-4141668D01*
X6224823Y-4141668D01*
X5781662Y-3648356D02*
G01*
X5781662Y-3731668D01*
X5740006Y-3690012D02*
G01*
X5823064Y-3690012D01*
X5908916Y-3634640D02*
G01*
X5862942Y-3634640D01*
X5858116Y-3676042D01*
X5862942Y-3671470D01*
X5876658Y-3666898D01*
X5890628Y-3666898D01*
X5904344Y-3671470D01*
X5913742Y-3680868D01*
X5918314Y-3694584D01*
X5918314Y-3703982D01*
X5913742Y-3717698D01*
X5904344Y-3726842D01*
X5890628Y-3731668D01*
X5876658Y-3731668D01*
X5862942Y-3726842D01*
X5858116Y-3722270D01*
X5853544Y-3713126D01*
X5948794Y-3634640D02*
G01*
X5985624Y-3731668D01*
X6022708Y-3634640D02*
G01*
X5985624Y-3731668D01*
X5610001Y-3815364D02*
G01*
X5610001Y-3718336D01*
X5610001Y-3815364D02*
G01*
X5577743Y-3815364D01*
X5563773Y-3810792D01*
X5554629Y-3801648D01*
X5550057Y-3792250D01*
X5545231Y-3778534D01*
X5545231Y-3755420D01*
X5550057Y-3741450D01*
X5554629Y-3732306D01*
X5563773Y-3723162D01*
X5577743Y-3718336D01*
X5610001Y-3718336D01*
X5514751Y-3796822D02*
G01*
X5505607Y-3801648D01*
X5491891Y-3815364D01*
X5491891Y-3718336D01*
X5456585Y-3792250D02*
G01*
X5456585Y-3796822D01*
X5452013Y-3806220D01*
X5447441Y-3810792D01*
X5438297Y-3815364D01*
X5419755Y-3815364D01*
X5410611Y-3810792D01*
X5405785Y-3806220D01*
X5401213Y-3796822D01*
X5401213Y-3787678D01*
X5405785Y-3778534D01*
X5415183Y-3764564D01*
X5461411Y-3718336D01*
X5396641Y-3718336D01*
X5283103Y-3833906D02*
G01*
X5366161Y-3686078D01*
X5252623Y-3815364D02*
G01*
X5252623Y-3718336D01*
X5252623Y-3815364D02*
G01*
X5215539Y-3718336D01*
X5178709Y-3815364D02*
G01*
X5215539Y-3718336D01*
X5178709Y-3815364D02*
G01*
X5178709Y-3718336D01*
X5148229Y-3815364D02*
G01*
X5148229Y-3718336D01*
X5052979Y-3801648D02*
G01*
X5062377Y-3810792D01*
X5076093Y-3815364D01*
X5094635Y-3815364D01*
X5108351Y-3810792D01*
X5117749Y-3801648D01*
X5117749Y-3792250D01*
X5113177Y-3783106D01*
X5108351Y-3778534D01*
X5099207Y-3773962D01*
X5071521Y-3764564D01*
X5062377Y-3759992D01*
X5057551Y-3755420D01*
X5052979Y-3746022D01*
X5052979Y-3732306D01*
X5062377Y-3723162D01*
X5076093Y-3718336D01*
X5094635Y-3718336D01*
X5108351Y-3723162D01*
X5117749Y-3732306D01*
X4994813Y-3815364D02*
G01*
X5004211Y-3810792D01*
X5013355Y-3801648D01*
X5017927Y-3792250D01*
X5022499Y-3778534D01*
X5022499Y-3755420D01*
X5017927Y-3741450D01*
X5013355Y-3732306D01*
X5004211Y-3723162D01*
X4994813Y-3718336D01*
X4976271Y-3718336D01*
X4967127Y-3723162D01*
X4957983Y-3732306D01*
X4953411Y-3741450D01*
X4948585Y-3755420D01*
X4948585Y-3778534D01*
X4953411Y-3792250D01*
X4957983Y-3801648D01*
X4967127Y-3810792D01*
X4976271Y-3815364D01*
X4994813Y-3815364D01*
X5240004Y-3234639D02*
G01*
X5276834Y-3331667D01*
X5313918Y-3234639D02*
G01*
X5276834Y-3331667D01*
X5344398Y-3234639D02*
G01*
X5344398Y-3331667D01*
X5374878Y-3234639D02*
G01*
X5374878Y-3331667D01*
X5374878Y-3234639D02*
G01*
X5439394Y-3331667D01*
X5439394Y-3234639D02*
G01*
X5439394Y-3331667D01*
X5760001Y-2095362D02*
G01*
X5760001Y-1998334D01*
X5760001Y-2095362D02*
G01*
X5727743Y-2095362D01*
X5713773Y-2090790D01*
X5704629Y-2081646D01*
X5700057Y-2072248D01*
X5695231Y-2058532D01*
X5695231Y-2035418D01*
X5700057Y-2021448D01*
X5704629Y-2012304D01*
X5713773Y-2003160D01*
X5727743Y-1998334D01*
X5760001Y-1998334D01*
X5664751Y-2076820D02*
G01*
X5655607Y-2081646D01*
X5641891Y-2095362D01*
X5641891Y-1998334D01*
X5602013Y-2095362D02*
G01*
X5551213Y-2095362D01*
X5578899Y-2058532D01*
X5565183Y-2058532D01*
X5555785Y-2053960D01*
X5551213Y-2049134D01*
X5546641Y-2035418D01*
X5546641Y-2026020D01*
X5551213Y-2012304D01*
X5560611Y-2003160D01*
X5574327Y-1998334D01*
X5588297Y-1998334D01*
X5602013Y-2003160D01*
X5606585Y-2007732D01*
X5611411Y-2016876D01*
X5433103Y-2113904D02*
G01*
X5516161Y-1966076D01*
X5337853Y-2081646D02*
G01*
X5347251Y-2090790D01*
X5360967Y-2095362D01*
X5379509Y-2095362D01*
X5393225Y-2090790D01*
X5402623Y-2081646D01*
X5402623Y-2072248D01*
X5398051Y-2063104D01*
X5393225Y-2058532D01*
X5384081Y-2053960D01*
X5356395Y-2044562D01*
X5347251Y-2039990D01*
X5342425Y-2035418D01*
X5337853Y-2026020D01*
X5337853Y-2012304D01*
X5347251Y-2003160D01*
X5360967Y-1998334D01*
X5379509Y-1998334D01*
X5393225Y-2003160D01*
X5402623Y-2012304D01*
X5238031Y-2072248D02*
G01*
X5242857Y-2081646D01*
X5252001Y-2090790D01*
X5261145Y-2095362D01*
X5279687Y-2095362D01*
X5288831Y-2090790D01*
X5298229Y-2081646D01*
X5302801Y-2072248D01*
X5307373Y-2058532D01*
X5307373Y-2035418D01*
X5302801Y-2021448D01*
X5298229Y-2012304D01*
X5288831Y-2003160D01*
X5279687Y-1998334D01*
X5261145Y-1998334D01*
X5252001Y-2003160D01*
X5242857Y-2012304D01*
X5238031Y-2021448D01*
X5207551Y-2095362D02*
G01*
X5207551Y-1998334D01*
X5143035Y-2095362D02*
G01*
X5207551Y-2030846D01*
X5184691Y-2053960D02*
G01*
X5143035Y-1998334D01*
X6730659Y-4562251D02*
G01*
X6735231Y-4571649D01*
X6744629Y-4580793D01*
X6753773Y-4585365D01*
X6772315Y-4585365D01*
X6781459Y-4580793D01*
X6790857Y-4571649D01*
X6795429Y-4562251D01*
X6800001Y-4548535D01*
X6800001Y-4525421D01*
X6795429Y-4511451D01*
X6790857Y-4502307D01*
X6781459Y-4493163D01*
X6772315Y-4488337D01*
X6753773Y-4488337D01*
X6744629Y-4493163D01*
X6735231Y-4502307D01*
X6730659Y-4511451D01*
X6730659Y-4525421D01*
X6753773Y-4525421D02*
G01*
X6730659Y-4525421D01*
X6700179Y-4585365D02*
G01*
X6700179Y-4488337D01*
X6700179Y-4585365D02*
G01*
X6635663Y-4488337D01*
X6635663Y-4585365D02*
G01*
X6635663Y-4488337D01*
X6605183Y-4585365D02*
G01*
X6605183Y-4488337D01*
X6605183Y-4585365D02*
G01*
X6572671Y-4585365D01*
X6558955Y-4580793D01*
X6549811Y-4571649D01*
X6544985Y-4562251D01*
X6540413Y-4548535D01*
X6540413Y-4525421D01*
X6544985Y-4511451D01*
X6549811Y-4502307D01*
X6558955Y-4493163D01*
X6572671Y-4488337D01*
X6605183Y-4488337D01*
X6890001Y-5025364D02*
G01*
X6890001Y-4928336D01*
X6890001Y-5025364D02*
G01*
X6857743Y-5025364D01*
X6843773Y-5020792D01*
X6834629Y-5011648D01*
X6830057Y-5002250D01*
X6825231Y-4988534D01*
X6825231Y-4965420D01*
X6830057Y-4951450D01*
X6834629Y-4942306D01*
X6843773Y-4933162D01*
X6857743Y-4928336D01*
X6890001Y-4928336D01*
X6767065Y-5025364D02*
G01*
X6781035Y-5020792D01*
X6790179Y-5006822D01*
X6794751Y-4983962D01*
X6794751Y-4969992D01*
X6790179Y-4946878D01*
X6781035Y-4933162D01*
X6767065Y-4928336D01*
X6757921Y-4928336D01*
X6743951Y-4933162D01*
X6734807Y-4946878D01*
X6730235Y-4969992D01*
X6730235Y-4983962D01*
X6734807Y-5006822D01*
X6743951Y-5020792D01*
X6757921Y-5025364D01*
X6767065Y-5025364D01*
X6616697Y-5043906D02*
G01*
X6699755Y-4896078D01*
X6586217Y-5025364D02*
G01*
X6586217Y-4928336D01*
X6586217Y-5025364D02*
G01*
X6544561Y-5025364D01*
X6530591Y-5020792D01*
X6526019Y-5016220D01*
X6521447Y-5006822D01*
X6521447Y-4997678D01*
X6526019Y-4988534D01*
X6530591Y-4983962D01*
X6544561Y-4979136D01*
X6586217Y-4979136D01*
X6553705Y-4979136D02*
G01*
X6521447Y-4928336D01*
X6490967Y-5025364D02*
G01*
X6426451Y-4928336D01*
X6426451Y-5025364D02*
G01*
X6490967Y-4928336D01*
X6810001Y-4775365D02*
G01*
X6810001Y-4678337D01*
X6810001Y-4775365D02*
G01*
X6768345Y-4775365D01*
X6754629Y-4770793D01*
X6750057Y-4766221D01*
X6745231Y-4756823D01*
X6745231Y-4747679D01*
X6750057Y-4738535D01*
X6754629Y-4733963D01*
X6768345Y-4729137D01*
X6810001Y-4729137D01*
X6777743Y-4729137D02*
G01*
X6745231Y-4678337D01*
X6714751Y-4775365D02*
G01*
X6714751Y-4678337D01*
X6714751Y-4775365D02*
G01*
X6654807Y-4775365D01*
X6714751Y-4729137D02*
G01*
X6677921Y-4729137D01*
X6714751Y-4678337D02*
G01*
X6654807Y-4678337D01*
X6559811Y-4761649D02*
G01*
X6568955Y-4770793D01*
X6582671Y-4775365D01*
X6601213Y-4775365D01*
X6615183Y-4770793D01*
X6624327Y-4761649D01*
X6624327Y-4752251D01*
X6619755Y-4743107D01*
X6615183Y-4738535D01*
X6605785Y-4733963D01*
X6578099Y-4724565D01*
X6568955Y-4719993D01*
X6564383Y-4715421D01*
X6559811Y-4706023D01*
X6559811Y-4692307D01*
X6568955Y-4683163D01*
X6582671Y-4678337D01*
X6601213Y-4678337D01*
X6615183Y-4683163D01*
X6624327Y-4692307D01*
X6529331Y-4775365D02*
G01*
X6529331Y-4678337D01*
X6529331Y-4775365D02*
G01*
X6469133Y-4775365D01*
X6529331Y-4729137D02*
G01*
X6492247Y-4729137D01*
X6529331Y-4678337D02*
G01*
X6469133Y-4678337D01*
X6406395Y-4775365D02*
G01*
X6406395Y-4678337D01*
X6438653Y-4775365D02*
G01*
X6374137Y-4775365D01*
X6700001Y-4285363D02*
G01*
X6700001Y-4188335D01*
X6700001Y-4285363D02*
G01*
X6667743Y-4285363D01*
X6653773Y-4280791D01*
X6644629Y-4271647D01*
X6640057Y-4262249D01*
X6635231Y-4248533D01*
X6635231Y-4225419D01*
X6640057Y-4211449D01*
X6644629Y-4202305D01*
X6653773Y-4193161D01*
X6667743Y-4188335D01*
X6700001Y-4188335D01*
X6600179Y-4262249D02*
G01*
X6600179Y-4266821D01*
X6595607Y-4276219D01*
X6591035Y-4280791D01*
X6581891Y-4285363D01*
X6563349Y-4285363D01*
X6553951Y-4280791D01*
X6549379Y-4276219D01*
X6544807Y-4266821D01*
X6544807Y-4257677D01*
X6549379Y-4248533D01*
X6558777Y-4234563D01*
X6604751Y-4188335D01*
X6540235Y-4188335D01*
X6730001Y-4095363D02*
G01*
X6730001Y-3998335D01*
X6730001Y-4095363D02*
G01*
X6697743Y-4095363D01*
X6683773Y-4090791D01*
X6674629Y-4081647D01*
X6670057Y-4072249D01*
X6665231Y-4058533D01*
X6665231Y-4035419D01*
X6670057Y-4021449D01*
X6674629Y-4012305D01*
X6683773Y-4003161D01*
X6697743Y-3998335D01*
X6730001Y-3998335D01*
X6625607Y-4095363D02*
G01*
X6574807Y-4095363D01*
X6602493Y-4058533D01*
X6588777Y-4058533D01*
X6579379Y-4053961D01*
X6574807Y-4049135D01*
X6570235Y-4035419D01*
X6570235Y-4026021D01*
X6574807Y-4012305D01*
X6583951Y-4003161D01*
X6597921Y-3998335D01*
X6611891Y-3998335D01*
X6625607Y-4003161D01*
X6630179Y-4007733D01*
X6634751Y-4016877D01*
X6770001Y-3775364D02*
G01*
X6770001Y-3678336D01*
X6770001Y-3775364D02*
G01*
X6737743Y-3775364D01*
X6723773Y-3770792D01*
X6714629Y-3761648D01*
X6710057Y-3752250D01*
X6705231Y-3738534D01*
X6705231Y-3715420D01*
X6710057Y-3701450D01*
X6714629Y-3692306D01*
X6723773Y-3683162D01*
X6737743Y-3678336D01*
X6770001Y-3678336D01*
X6628777Y-3775364D02*
G01*
X6674751Y-3710848D01*
X6605663Y-3710848D01*
X6628777Y-3775364D02*
G01*
X6628777Y-3678336D01*
X6660001Y-3505362D02*
G01*
X6660001Y-3408334D01*
X6660001Y-3505362D02*
G01*
X6627743Y-3505362D01*
X6613773Y-3500790D01*
X6604629Y-3491646D01*
X6600057Y-3482248D01*
X6595231Y-3468532D01*
X6595231Y-3445418D01*
X6600057Y-3431448D01*
X6604629Y-3422304D01*
X6613773Y-3413160D01*
X6627743Y-3408334D01*
X6660001Y-3408334D01*
X6509379Y-3505362D02*
G01*
X6555607Y-3505362D01*
X6560179Y-3463960D01*
X6555607Y-3468532D01*
X6541891Y-3473104D01*
X6527921Y-3473104D01*
X6513951Y-3468532D01*
X6504807Y-3459134D01*
X6500235Y-3445418D01*
X6500235Y-3436020D01*
X6504807Y-3422304D01*
X6513951Y-3413160D01*
X6527921Y-3408334D01*
X6541891Y-3408334D01*
X6555607Y-3413160D01*
X6560179Y-3417732D01*
X6564751Y-3426876D01*
X6720001Y-3195363D02*
G01*
X6720001Y-3098335D01*
X6720001Y-3195363D02*
G01*
X6687743Y-3195363D01*
X6673773Y-3190791D01*
X6664629Y-3181647D01*
X6660057Y-3172249D01*
X6655231Y-3158533D01*
X6655231Y-3135419D01*
X6660057Y-3121449D01*
X6664629Y-3112305D01*
X6673773Y-3103161D01*
X6687743Y-3098335D01*
X6720001Y-3098335D01*
X6569379Y-3181647D02*
G01*
X6573951Y-3190791D01*
X6587921Y-3195363D01*
X6597065Y-3195363D01*
X6611035Y-3190791D01*
X6620179Y-3176821D01*
X6624751Y-3153961D01*
X6624751Y-3130847D01*
X6620179Y-3112305D01*
X6611035Y-3103161D01*
X6597065Y-3098335D01*
X6592493Y-3098335D01*
X6578777Y-3103161D01*
X6569379Y-3112305D01*
X6564807Y-3126021D01*
X6564807Y-3130847D01*
X6569379Y-3144563D01*
X6578777Y-3153961D01*
X6592493Y-3158533D01*
X6597065Y-3158533D01*
X6611035Y-3153961D01*
X6620179Y-3144563D01*
X6624751Y-3130847D01*
X6670001Y-2905363D02*
G01*
X6670001Y-2808335D01*
X6670001Y-2905363D02*
G01*
X6637743Y-2905363D01*
X6623773Y-2900791D01*
X6614629Y-2891647D01*
X6610057Y-2882249D01*
X6605231Y-2868533D01*
X6605231Y-2845419D01*
X6610057Y-2831449D01*
X6614629Y-2822305D01*
X6623773Y-2813161D01*
X6637743Y-2808335D01*
X6670001Y-2808335D01*
X6510235Y-2905363D02*
G01*
X6556463Y-2808335D01*
X6574751Y-2905363D02*
G01*
X6510235Y-2905363D01*
X6940001Y-2745364D02*
G01*
X6940001Y-2648336D01*
X6940001Y-2745364D02*
G01*
X6907743Y-2745364D01*
X6893773Y-2740792D01*
X6884629Y-2731648D01*
X6880057Y-2722250D01*
X6875231Y-2708534D01*
X6875231Y-2685420D01*
X6880057Y-2671450D01*
X6884629Y-2662306D01*
X6893773Y-2653162D01*
X6907743Y-2648336D01*
X6940001Y-2648336D01*
X6821891Y-2745364D02*
G01*
X6835607Y-2740792D01*
X6840179Y-2731648D01*
X6840179Y-2722250D01*
X6835607Y-2713106D01*
X6826463Y-2708534D01*
X6807921Y-2703962D01*
X6793951Y-2699136D01*
X6784807Y-2689992D01*
X6780235Y-2680848D01*
X6780235Y-2666878D01*
X6784807Y-2657734D01*
X6789379Y-2653162D01*
X6803349Y-2648336D01*
X6821891Y-2648336D01*
X6835607Y-2653162D01*
X6840179Y-2657734D01*
X6844751Y-2666878D01*
X6844751Y-2680848D01*
X6840179Y-2689992D01*
X6831035Y-2699136D01*
X6817065Y-2703962D01*
X6798777Y-2708534D01*
X6789379Y-2713106D01*
X6784807Y-2722250D01*
X6784807Y-2731648D01*
X6789379Y-2740792D01*
X6803349Y-2745364D01*
X6821891Y-2745364D01*
X6680001Y-2535361D02*
G01*
X6680001Y-2438333D01*
X6680001Y-2535361D02*
G01*
X6647743Y-2535361D01*
X6633773Y-2530789D01*
X6624629Y-2521645D01*
X6620057Y-2512247D01*
X6615231Y-2498531D01*
X6615231Y-2475417D01*
X6620057Y-2461447D01*
X6624629Y-2452303D01*
X6633773Y-2443159D01*
X6647743Y-2438333D01*
X6680001Y-2438333D01*
X6524807Y-2503103D02*
G01*
X6529379Y-2489133D01*
X6538777Y-2479989D01*
X6552493Y-2475417D01*
X6557065Y-2475417D01*
X6571035Y-2479989D01*
X6580179Y-2489133D01*
X6584751Y-2503103D01*
X6584751Y-2507675D01*
X6580179Y-2521645D01*
X6571035Y-2530789D01*
X6557065Y-2535361D01*
X6552493Y-2535361D01*
X6538777Y-2530789D01*
X6529379Y-2521645D01*
X6524807Y-2503103D01*
X6524807Y-2479989D01*
X6529379Y-2456875D01*
X6538777Y-2443159D01*
X6552493Y-2438333D01*
X6561891Y-2438333D01*
X6575607Y-2443159D01*
X6580179Y-2452303D01*
X8030001Y-3425362D02*
G01*
X8030001Y-3328334D01*
X8030001Y-3425362D02*
G01*
X7997743Y-3425362D01*
X7983773Y-3420790D01*
X7974629Y-3411646D01*
X7970057Y-3402248D01*
X7965231Y-3388532D01*
X7965231Y-3365418D01*
X7970057Y-3351448D01*
X7974629Y-3342304D01*
X7983773Y-3333160D01*
X7997743Y-3328334D01*
X8030001Y-3328334D01*
X7934751Y-3406820D02*
G01*
X7925607Y-3411646D01*
X7911891Y-3425362D01*
X7911891Y-3328334D01*
X7853471Y-3425362D02*
G01*
X7867441Y-3420790D01*
X7876585Y-3406820D01*
X7881411Y-3383960D01*
X7881411Y-3369990D01*
X7876585Y-3346876D01*
X7867441Y-3333160D01*
X7853471Y-3328334D01*
X7844327Y-3328334D01*
X7830611Y-3333160D01*
X7821213Y-3346876D01*
X7816641Y-3369990D01*
X7816641Y-3383960D01*
X7821213Y-3406820D01*
X7830611Y-3420790D01*
X7844327Y-3425362D01*
X7853471Y-3425362D01*
X6920001Y-1995363D02*
G01*
X6920001Y-1898335D01*
X6920001Y-1995363D02*
G01*
X6887743Y-1995363D01*
X6873773Y-1990791D01*
X6864629Y-1981647D01*
X6860057Y-1972249D01*
X6855231Y-1958533D01*
X6855231Y-1935419D01*
X6860057Y-1921449D01*
X6864629Y-1912305D01*
X6873773Y-1903161D01*
X6887743Y-1898335D01*
X6920001Y-1898335D01*
X6824751Y-1976821D02*
G01*
X6815607Y-1981647D01*
X6801891Y-1995363D01*
X6801891Y-1898335D01*
X6771411Y-1976821D02*
G01*
X6762013Y-1981647D01*
X6748297Y-1995363D01*
X6748297Y-1898335D01*
X6634505Y-2013905D02*
G01*
X6717817Y-1866077D01*
X6604025Y-1995363D02*
G01*
X6604025Y-1898335D01*
X6604025Y-1995363D02*
G01*
X6567195Y-1898335D01*
X6530111Y-1995363D02*
G01*
X6567195Y-1898335D01*
X6530111Y-1995363D02*
G01*
X6530111Y-1898335D01*
X6471945Y-1995363D02*
G01*
X6481343Y-1990791D01*
X6490487Y-1981647D01*
X6495059Y-1972249D01*
X6499631Y-1958533D01*
X6499631Y-1935419D01*
X6495059Y-1921449D01*
X6490487Y-1912305D01*
X6481343Y-1903161D01*
X6471945Y-1898335D01*
X6453657Y-1898335D01*
X6444259Y-1903161D01*
X6435115Y-1912305D01*
X6430543Y-1921449D01*
X6425971Y-1935419D01*
X6425971Y-1958533D01*
X6430543Y-1972249D01*
X6435115Y-1981647D01*
X6444259Y-1990791D01*
X6453657Y-1995363D01*
X6471945Y-1995363D01*
X6330721Y-1981647D02*
G01*
X6339865Y-1990791D01*
X6353835Y-1995363D01*
X6372377Y-1995363D01*
X6386093Y-1990791D01*
X6395491Y-1981647D01*
X6395491Y-1972249D01*
X6390665Y-1963105D01*
X6386093Y-1958533D01*
X6376949Y-1953961D01*
X6349263Y-1944563D01*
X6339865Y-1939991D01*
X6335293Y-1935419D01*
X6330721Y-1926021D01*
X6330721Y-1912305D01*
X6339865Y-1903161D01*
X6353835Y-1898335D01*
X6372377Y-1898335D01*
X6386093Y-1903161D01*
X6395491Y-1912305D01*
X6300241Y-1995363D02*
G01*
X6300241Y-1898335D01*
X5820857Y-1675363D02*
G01*
X5770057Y-1675363D01*
X5797743Y-1638533D01*
X5783773Y-1638533D01*
X5774629Y-1633961D01*
X5770057Y-1629135D01*
X5765231Y-1615419D01*
X5765231Y-1606021D01*
X5770057Y-1592305D01*
X5779201Y-1583161D01*
X5793171Y-1578335D01*
X5806887Y-1578335D01*
X5820857Y-1583161D01*
X5825429Y-1587733D01*
X5830001Y-1596877D01*
X5734751Y-1675363D02*
G01*
X5697921Y-1578335D01*
X5661091Y-1675363D02*
G01*
X5697921Y-1578335D01*
X5621213Y-1675363D02*
G01*
X5570413Y-1675363D01*
X5598099Y-1638533D01*
X5584383Y-1638533D01*
X5574985Y-1633961D01*
X5570413Y-1629135D01*
X5565841Y-1615419D01*
X5565841Y-1606021D01*
X5570413Y-1592305D01*
X5579811Y-1583161D01*
X5593527Y-1578335D01*
X5607497Y-1578335D01*
X5621213Y-1583161D01*
X5625785Y-1587733D01*
X5630611Y-1596877D01*
X7383170Y-1425361D02*
G01*
X7420000Y-1328333D01*
X7383170Y-1425361D02*
G01*
X7346086Y-1328333D01*
X7406030Y-1360845D02*
G01*
X7360056Y-1360845D01*
X7315606Y-1425361D02*
G01*
X7315606Y-1328333D01*
X7315606Y-1425361D02*
G01*
X7273950Y-1425361D01*
X7260234Y-1420789D01*
X7255662Y-1416217D01*
X7251090Y-1406819D01*
X7251090Y-1397675D01*
X7255662Y-1388531D01*
X7260234Y-1383959D01*
X7273950Y-1379133D01*
X7315606Y-1379133D01*
X7283348Y-1379133D02*
G01*
X7251090Y-1328333D01*
X7220610Y-1425361D02*
G01*
X7220610Y-1328333D01*
X7220610Y-1425361D02*
G01*
X7160412Y-1425361D01*
X7220610Y-1379133D02*
G01*
X7183526Y-1379133D01*
X7220610Y-1328333D02*
G01*
X7160412Y-1328333D01*
X7129932Y-1425361D02*
G01*
X7129932Y-1328333D01*
X7129932Y-1425361D02*
G01*
X7069988Y-1425361D01*
X7129932Y-1379133D02*
G01*
X7093102Y-1379133D01*
X7353170Y-1325361D02*
G01*
X7390000Y-1228333D01*
X7353170Y-1325361D02*
G01*
X7316086Y-1228333D01*
X7376030Y-1260845D02*
G01*
X7330056Y-1260845D01*
X7257920Y-1325361D02*
G01*
X7271890Y-1320789D01*
X7281034Y-1306819D01*
X7285606Y-1283959D01*
X7285606Y-1269989D01*
X7281034Y-1246875D01*
X7271890Y-1233159D01*
X7257920Y-1228333D01*
X7248776Y-1228333D01*
X7234806Y-1233159D01*
X7225662Y-1246875D01*
X7221090Y-1269989D01*
X7221090Y-1283959D01*
X7225662Y-1306819D01*
X7234806Y-1320789D01*
X7248776Y-1325361D01*
X7257920Y-1325361D01*
X8133171Y-1465361D02*
G01*
X8170001Y-1368333D01*
X8133171Y-1465361D02*
G01*
X8096087Y-1368333D01*
X8156031Y-1400845D02*
G01*
X8110057Y-1400845D01*
X8065607Y-1446819D02*
G01*
X8056463Y-1451645D01*
X8042493Y-1465361D01*
X8042493Y-1368333D01*
X7693172Y-1735363D02*
G01*
X7730002Y-1638335D01*
X7693172Y-1735363D02*
G01*
X7656088Y-1638335D01*
X7716032Y-1670847D02*
G01*
X7670058Y-1670847D01*
X7621036Y-1712249D02*
G01*
X7621036Y-1716821D01*
X7616464Y-1726219D01*
X7611892Y-1730791D01*
X7602494Y-1735363D01*
X7583952Y-1735363D01*
X7574808Y-1730791D01*
X7570236Y-1726219D01*
X7565664Y-1716821D01*
X7565664Y-1707677D01*
X7570236Y-1698533D01*
X7579380Y-1684563D01*
X7625608Y-1638335D01*
X7561092Y-1638335D01*
X6993171Y-1595363D02*
G01*
X7030001Y-1498335D01*
X6993171Y-1595363D02*
G01*
X6956087Y-1498335D01*
X7016031Y-1530847D02*
G01*
X6970057Y-1530847D01*
X6916463Y-1595363D02*
G01*
X6865663Y-1595363D01*
X6893349Y-1558533D01*
X6879379Y-1558533D01*
X6870235Y-1553961D01*
X6865663Y-1549135D01*
X6861091Y-1535419D01*
X6861091Y-1526021D01*
X6865663Y-1512305D01*
X6874807Y-1503161D01*
X6888777Y-1498335D01*
X6902493Y-1498335D01*
X6916463Y-1503161D01*
X6921035Y-1507733D01*
X6925607Y-1516877D01*
X5913170Y-2615364D02*
G01*
X5950000Y-2518336D01*
X5913170Y-2615364D02*
G01*
X5876086Y-2518336D01*
X5936030Y-2550848D02*
G01*
X5890056Y-2550848D01*
X5799378Y-2615364D02*
G01*
X5845606Y-2550848D01*
X5776264Y-2550848D01*
X5799378Y-2615364D02*
G01*
X5799378Y-2518336D01*
X6123170Y-2485362D02*
G01*
X6160000Y-2388334D01*
X6123170Y-2485362D02*
G01*
X6086086Y-2388334D01*
X6146030Y-2420846D02*
G01*
X6100056Y-2420846D01*
X6000234Y-2485362D02*
G01*
X6046462Y-2485362D01*
X6051034Y-2443960D01*
X6046462Y-2448532D01*
X6032492Y-2453104D01*
X6018776Y-2453104D01*
X6004806Y-2448532D01*
X5995662Y-2439134D01*
X5991090Y-2425418D01*
X5991090Y-2416020D01*
X5995662Y-2402304D01*
X6004806Y-2393160D01*
X6018776Y-2388334D01*
X6032492Y-2388334D01*
X6046462Y-2393160D01*
X6051034Y-2397732D01*
X6055606Y-2406876D01*
X6043170Y-2885363D02*
G01*
X6080000Y-2788335D01*
X6043170Y-2885363D02*
G01*
X6006086Y-2788335D01*
X6066030Y-2820847D02*
G01*
X6020056Y-2820847D01*
X5920234Y-2871647D02*
G01*
X5924806Y-2880791D01*
X5938776Y-2885363D01*
X5947920Y-2885363D01*
X5961890Y-2880791D01*
X5971034Y-2866821D01*
X5975606Y-2843961D01*
X5975606Y-2820847D01*
X5971034Y-2802305D01*
X5961890Y-2793161D01*
X5947920Y-2788335D01*
X5943348Y-2788335D01*
X5929378Y-2793161D01*
X5920234Y-2802305D01*
X5915662Y-2816021D01*
X5915662Y-2820847D01*
X5920234Y-2834563D01*
X5929378Y-2843961D01*
X5943348Y-2848533D01*
X5947920Y-2848533D01*
X5961890Y-2843961D01*
X5971034Y-2834563D01*
X5975606Y-2820847D01*
X5923170Y-3135363D02*
G01*
X5960000Y-3038335D01*
X5923170Y-3135363D02*
G01*
X5886086Y-3038335D01*
X5946030Y-3070847D02*
G01*
X5900056Y-3070847D01*
X5791090Y-3135363D02*
G01*
X5837064Y-3038335D01*
X5855606Y-3135363D02*
G01*
X5791090Y-3135363D01*
X5489999Y-2945363D02*
G01*
X5489999Y-2848335D01*
X5489999Y-2945363D02*
G01*
X5448343Y-2945363D01*
X5434627Y-2940791D01*
X5430055Y-2936219D01*
X5425229Y-2926821D01*
X5425229Y-2917677D01*
X5430055Y-2908533D01*
X5434627Y-2903961D01*
X5448343Y-2899135D01*
X5489999Y-2899135D01*
X5457741Y-2899135D02*
G01*
X5425229Y-2848335D01*
X5394749Y-2945363D02*
G01*
X5394749Y-2848335D01*
X5394749Y-2945363D02*
G01*
X5334805Y-2945363D01*
X5394749Y-2899135D02*
G01*
X5357919Y-2899135D01*
X5394749Y-2848335D02*
G01*
X5334805Y-2848335D01*
X5239809Y-2931647D02*
G01*
X5248953Y-2940791D01*
X5262669Y-2945363D01*
X5281211Y-2945363D01*
X5295181Y-2940791D01*
X5304325Y-2931647D01*
X5304325Y-2922249D01*
X5299753Y-2913105D01*
X5295181Y-2908533D01*
X5285783Y-2903961D01*
X5258097Y-2894563D01*
X5248953Y-2889991D01*
X5244381Y-2885419D01*
X5239809Y-2876021D01*
X5239809Y-2862305D01*
X5248953Y-2853161D01*
X5262669Y-2848335D01*
X5281211Y-2848335D01*
X5295181Y-2853161D01*
X5304325Y-2862305D01*
X5209329Y-2945363D02*
G01*
X5209329Y-2848335D01*
X5209329Y-2945363D02*
G01*
X5149131Y-2945363D01*
X5209329Y-2899135D02*
G01*
X5172245Y-2899135D01*
X5209329Y-2848335D02*
G01*
X5149131Y-2848335D01*
X5086393Y-2945363D02*
G01*
X5086393Y-2848335D01*
X5118651Y-2945363D02*
G01*
X5054135Y-2945363D01*
D35*
X3759992Y-6604698D02*
G01*
X3759992Y-6682676D01*
X3765072Y-6698170D01*
X3775486Y-6708584D01*
X3791234Y-6713664D01*
X3801648Y-6713664D01*
X3817142Y-6708584D01*
X3827556Y-6698170D01*
X3832636Y-6682676D01*
X3832636Y-6604698D01*
X3877340Y-6604698D02*
G01*
X3934490Y-6604698D01*
X3903502Y-6646354D01*
X3918996Y-6646354D01*
X3929410Y-6651434D01*
X3934490Y-6656514D01*
X3939824Y-6672262D01*
X3939824Y-6682676D01*
X3934490Y-6698170D01*
X3924076Y-6708584D01*
X3908582Y-6713664D01*
X3893088Y-6713664D01*
X3877340Y-6708584D01*
X3872260Y-6703504D01*
X3866926Y-6693090D01*
X860003Y-2354696D02*
G01*
X860003Y-2432674D01*
X865083Y-2448168D01*
X875497Y-2458582D01*
X891245Y-2463662D01*
X901659Y-2463662D01*
X917153Y-2458582D01*
X927567Y-2448168D01*
X932647Y-2432674D01*
X932647Y-2354696D01*
X1029421Y-2370190D02*
G01*
X1024087Y-2359776D01*
X1008593Y-2354696D01*
X998179Y-2354696D01*
X982685Y-2359776D01*
X972271Y-2375524D01*
X966937Y-2401432D01*
X966937Y-2427340D01*
X972271Y-2448168D01*
X982685Y-2458582D01*
X998179Y-2463662D01*
X1003513Y-2463662D01*
X1019007Y-2458582D01*
X1029421Y-2448168D01*
X1034501Y-2432674D01*
X1034501Y-2427340D01*
X1029421Y-2411846D01*
X1019007Y-2401432D01*
X1003513Y-2396352D01*
X998179Y-2396352D01*
X982685Y-2401432D01*
X972271Y-2411846D01*
X966937Y-2427340D01*
X1199997Y-7704693D02*
G01*
X1199997Y-7782671D01*
X1205077Y-7798165D01*
X1215491Y-7808579D01*
X1231239Y-7813659D01*
X1241653Y-7813659D01*
X1257147Y-7808579D01*
X1267561Y-7798165D01*
X1272641Y-7782671D01*
X1272641Y-7704693D01*
X1379829Y-7704693D02*
G01*
X1327759Y-7813659D01*
X1306931Y-7704693D02*
G01*
X1379829Y-7704693D01*
X2550002Y-7434691D02*
G01*
X2550002Y-7512669D01*
X2555082Y-7528163D01*
X2565496Y-7538577D01*
X2581244Y-7543657D01*
X2591658Y-7543657D01*
X2607152Y-7538577D01*
X2617566Y-7528163D01*
X2622646Y-7512669D01*
X2622646Y-7434691D01*
X2683098Y-7434691D02*
G01*
X2667350Y-7439771D01*
X2662270Y-7450185D01*
X2662270Y-7460599D01*
X2667350Y-7471013D01*
X2677764Y-7476347D01*
X2698592Y-7481427D01*
X2714086Y-7486507D01*
X2724500Y-7496921D01*
X2729834Y-7507335D01*
X2729834Y-7523083D01*
X2724500Y-7533497D01*
X2719420Y-7538577D01*
X2703672Y-7543657D01*
X2683098Y-7543657D01*
X2667350Y-7538577D01*
X2662270Y-7533497D01*
X2656936Y-7523083D01*
X2656936Y-7507335D01*
X2662270Y-7496921D01*
X2672684Y-7486507D01*
X2688178Y-7481427D01*
X2709006Y-7476347D01*
X2719420Y-7471013D01*
X2724500Y-7460599D01*
X2724500Y-7450185D01*
X2719420Y-7439771D01*
X2703672Y-7434691D01*
X2683098Y-7434691D01*
D10*
X290001Y-4680003D02*
G01*
X290001Y-3720002D01*
X422800Y-4080113D02*
G01*
X575200Y-4080113D01*
X575200Y-4334113D01*
X422800Y-4334113D01*
X422800Y-4080113D01*
X422800Y-4207113D02*
G01*
X575200Y-4207113D01*
X422800Y-4232513D02*
G01*
X575200Y-4232513D01*
X422800Y-4257913D02*
G01*
X575200Y-4257913D01*
X422800Y-4283313D02*
G01*
X575200Y-4283313D01*
X422800Y-4308713D02*
G01*
X575200Y-4308713D01*
X676800Y-4080113D02*
G01*
X829200Y-4080113D01*
X829200Y-4334113D01*
X676800Y-4334113D01*
X676800Y-4080113D01*
X676800Y-4207113D02*
G01*
X829200Y-4207113D01*
X676800Y-4232513D02*
G01*
X829200Y-4232513D01*
X676800Y-4257913D02*
G01*
X829200Y-4257913D01*
X676800Y-4283313D02*
G01*
X829200Y-4283313D01*
X676800Y-4308713D02*
G01*
X829200Y-4308713D01*
X1184800Y-4308713D02*
G01*
X1337200Y-4308713D01*
X1184800Y-4283313D02*
G01*
X1337200Y-4283313D01*
X1184800Y-4257913D02*
G01*
X1337200Y-4257913D01*
X1184800Y-4232513D02*
G01*
X1337200Y-4232513D01*
X1184800Y-4207113D02*
G01*
X1337200Y-4207113D01*
X1184800Y-4080113D02*
G01*
X1337200Y-4080113D01*
X1337200Y-4334113D01*
X1184800Y-4334113D01*
X1184800Y-4080113D01*
X930800Y-4308713D02*
G01*
X1083200Y-4308713D01*
X930800Y-4283313D02*
G01*
X1083200Y-4283313D01*
X930800Y-4257913D02*
G01*
X1083200Y-4257913D01*
X930800Y-4232513D02*
G01*
X1083200Y-4232513D01*
X930800Y-4207113D02*
G01*
X1083200Y-4207113D01*
X930800Y-4080113D02*
G01*
X1083200Y-4080113D01*
X1083200Y-4334113D01*
X930800Y-4334113D01*
X930800Y-4080113D01*
X1469999Y-3720000D02*
G01*
X1469999Y-4680000D01*
X290001Y-3720002D02*
G01*
X444555Y-3720002D01*
X553445Y-3720002D02*
G01*
X698555Y-3720002D01*
X807445Y-3720002D02*
G01*
X952555Y-3720002D01*
X1061445Y-3720002D02*
G01*
X1206555Y-3720002D01*
X1315445Y-3720002D02*
G01*
X1469999Y-3720002D01*
X290001Y-4680003D02*
G01*
X444560Y-4680003D01*
X553440Y-4680003D02*
G01*
X698560Y-4680003D01*
X807440Y-4680003D02*
G01*
X952560Y-4680003D01*
X1061440Y-4680003D02*
G01*
X1206560Y-4680003D01*
X1315440Y-4680003D02*
G01*
X1469999Y-4680003D01*
X775004Y-2191082D02*
G01*
X775004Y-709086D01*
X775004Y-709089D02*
G01*
X200007Y-709086D01*
X200007Y-709086D02*
G01*
X200007Y-2191082D01*
X200004Y-2191082D02*
G01*
X775004Y-2191082D01*
X768604Y-1856486D02*
G01*
X717804Y-1856486D01*
X717804Y-1043686D01*
X768604Y-1043686D01*
X1456001Y-4968003D02*
G01*
X1456001Y-6492003D01*
X1456001Y-6492003D02*
G01*
X3869001Y-6492003D01*
X3869001Y-6492003D02*
G01*
X3869001Y-4968003D01*
X1456001Y-4968003D01*
X3107001Y-5222003D02*
G01*
X3742001Y-5222003D01*
X3742001Y-5349003D01*
X3488001Y-5349003D01*
X3488001Y-5476003D01*
X3742001Y-5476003D01*
X3742001Y-5603003D01*
X3488001Y-5603003D01*
X3488001Y-5730003D01*
X3742001Y-5730003D01*
X3742001Y-6111003D01*
X2980001Y-5095003D02*
G01*
X2980001Y-6365003D01*
X2091001Y-6365003D01*
X2091001Y-5095003D01*
X2980001Y-5095003D01*
X3869001Y-531002D02*
G01*
X2091001Y-531002D01*
X2091001Y-531002D02*
G01*
X2091001Y-4849002D01*
X2091001Y-4849002D02*
G01*
X3869001Y-4849002D01*
X3869001Y-4849002D02*
G01*
X3869001Y-531002D01*
X3361001Y-912002D02*
G01*
X3361001Y-150002D01*
X2599001Y-150002D01*
X2599001Y-912002D01*
X3361001Y-912002D01*
X3709997Y-6660006D02*
G01*
X2650004Y-6660006D01*
X2649903Y-6610095D02*
G01*
X3710099Y-6610095D01*
X3710099Y-7089902D01*
X2649903Y-7089902D01*
X2649903Y-6610604D01*
X2649903Y-6610095D01*
X765047Y-2675059D02*
G01*
X765047Y-2524947D01*
X739902Y-2524947D02*
G01*
X789939Y-2524947D01*
X739902Y-2675059D02*
G01*
X789939Y-2675059D01*
X765078Y-3024997D02*
G01*
X765078Y-3174997D01*
X740077Y-3024997D02*
G01*
X790077Y-3024997D01*
X740077Y-3174997D02*
G01*
X790077Y-3174997D01*
X740001Y-2400002D02*
G01*
X740001Y-3300001D01*
X240078Y-3300001D01*
X240078Y-2400002D01*
X740001Y-2400002D01*
X790013Y-2349990D02*
G01*
X790013Y-3349886D01*
X190091Y-3349886D01*
X190091Y-2349990D01*
X790013Y-2349990D01*
X1924997Y-7335004D02*
G01*
X674999Y-7335004D01*
X675002Y-7335004D02*
G01*
X675002Y-7910004D01*
X675002Y-7910001D02*
G01*
X1924997Y-7910004D01*
X1924997Y-7910001D02*
G01*
X1924997Y-7335004D01*
X1920001Y-7620005D02*
G01*
X1870001Y-7620005D01*
X1870001Y-7860004D01*
X719998Y-7860004D01*
X719998Y-7620005D01*
X679998Y-7620005D01*
X679998Y-7520005D02*
G01*
X719998Y-7520005D01*
X719998Y-7380005D01*
X870000Y-7380005D01*
X870000Y-7340005D01*
X970000Y-7340005D02*
G01*
X970000Y-7380005D01*
X1629999Y-7380005D01*
X1629999Y-7340005D01*
X1729999Y-7340005D02*
G01*
X1729999Y-7380005D01*
X1870001Y-7380005D01*
X1870001Y-7520005D01*
X1920001Y-7520005D01*
X2025007Y-7905005D02*
G01*
X3275004Y-7905005D01*
X3275002Y-7905005D02*
G01*
X3275002Y-7330005D01*
X3275002Y-7330008D02*
G01*
X2025007Y-7330005D01*
X2025007Y-7330008D02*
G01*
X2025007Y-7905005D01*
X2030003Y-7620005D02*
G01*
X2080003Y-7620005D01*
X2080003Y-7380005D01*
X3230006Y-7380005D01*
X3230006Y-7620005D01*
X3270006Y-7620005D01*
X3270006Y-7720004D02*
G01*
X3230006Y-7720004D01*
X3230006Y-7860004D01*
X3080004Y-7860004D01*
X3080004Y-7900004D01*
X2980004Y-7900004D02*
G01*
X2980004Y-7860004D01*
X2320005Y-7860004D01*
X2320005Y-7900004D01*
X2220005Y-7900004D02*
G01*
X2220005Y-7860004D01*
X2080003Y-7860004D01*
X2080003Y-7720004D01*
X2030003Y-7720004D01*
D12*
G75*
G01*
X2903141Y-7136384D02*
G03*
X2903395Y-7136384I127J-20000D01*
D33*
G75*
G01
X499999Y-7700010D02*
G03X499999Y-7700010I-200000J0D01*
G75*
G01
X3900018Y-7700010D02*
G03X3900018Y-7700010I-200000J0D01*
G75*
G01
X3900018Y-299999D02*
G03X3900018Y-299999I-200000J0D01*
G75*
G01
X499999Y-299999D02*
G03X499999Y-299999I-200000J0D01*
M02*
