G04 Layer: BottomLayer*
G04 EasyEDA v6.4.19.5, 2021-06-14T13:18:40+02:00*
G04 9e6975c7382942e3b78031909667385b,1658352ba3c644ceb65f55418ae09dd8,10*
G04 Gerber Generator version 0.2*
G04 Scale: 100 percent, Rotated: No, Reflected: No *
G04 Dimensions in millimeters *
G04 leading zeros omitted , absolute positions ,4 integer and 5 decimal *
%FSLAX45Y45*%
%MOMM*%

%ADD11C,0.5000*%
%ADD12C,0.4000*%
%ADD13C,0.3000*%
%ADD14C,0.6100*%
%ADD15C,0.6096*%
%ADD16C,1.8000*%
%ADD17R,1.8000X1.8000*%
%ADD18R,1.7780X1.7780*%
%ADD19C,1.7780*%
%ADD21R,1.7000X1.7000*%
%ADD22C,1.7000*%
%ADD23C,2.0000*%
%ADD24C,1.0000*%
%ADD25C,0.8000*%
%ADD26C,0.6000*%

%LPD*%
G36*
X35814Y-7974330D02*
G01*
X31902Y-7973568D01*
X28651Y-7971383D01*
X26416Y-7968081D01*
X25654Y-7964170D01*
X25654Y-35814D01*
X26416Y-31902D01*
X28651Y-28651D01*
X31902Y-26416D01*
X35814Y-25654D01*
X3964178Y-25654D01*
X3968089Y-26416D01*
X3971391Y-28651D01*
X3973576Y-31902D01*
X3974337Y-35814D01*
X3974337Y-7964170D01*
X3973576Y-7968081D01*
X3971391Y-7971383D01*
X3968089Y-7973568D01*
X3964178Y-7974330D01*
G37*

%LPC*%
G36*
X3690569Y-7885430D02*
G01*
X3709415Y-7885430D01*
X3728110Y-7883499D01*
X3746500Y-7879740D01*
X3764483Y-7874101D01*
X3781755Y-7866684D01*
X3798214Y-7857540D01*
X3813606Y-7846822D01*
X3827881Y-7834579D01*
X3840835Y-7820914D01*
X3852367Y-7806080D01*
X3862324Y-7790078D01*
X3870604Y-7773212D01*
X3877106Y-7755585D01*
X3881831Y-7737398D01*
X3884676Y-7718806D01*
X3885641Y-7700009D01*
X3884676Y-7681214D01*
X3881831Y-7662621D01*
X3877106Y-7644434D01*
X3870604Y-7626807D01*
X3862324Y-7609941D01*
X3852367Y-7593939D01*
X3840835Y-7579106D01*
X3827881Y-7565440D01*
X3813606Y-7553198D01*
X3798214Y-7542479D01*
X3781755Y-7533335D01*
X3764483Y-7525918D01*
X3746500Y-7520279D01*
X3728110Y-7516520D01*
X3709415Y-7514590D01*
X3690569Y-7514590D01*
X3671874Y-7516520D01*
X3653485Y-7520279D01*
X3635501Y-7525918D01*
X3618229Y-7533335D01*
X3601770Y-7542479D01*
X3586378Y-7553198D01*
X3572103Y-7565440D01*
X3559149Y-7579106D01*
X3547618Y-7593939D01*
X3537661Y-7609941D01*
X3529380Y-7626807D01*
X3522878Y-7644434D01*
X3518154Y-7662621D01*
X3515309Y-7681214D01*
X3514344Y-7700009D01*
X3515309Y-7718806D01*
X3518154Y-7737398D01*
X3522878Y-7755585D01*
X3529380Y-7773212D01*
X3537661Y-7790078D01*
X3547618Y-7806080D01*
X3559149Y-7820914D01*
X3572103Y-7834579D01*
X3586378Y-7846822D01*
X3601770Y-7857540D01*
X3618229Y-7866684D01*
X3635501Y-7874101D01*
X3653485Y-7879740D01*
X3671874Y-7883499D01*
G37*
G36*
X290576Y-7885430D02*
G01*
X309422Y-7885430D01*
X328117Y-7883499D01*
X346506Y-7879740D01*
X364490Y-7874101D01*
X381762Y-7866684D01*
X398221Y-7857540D01*
X413613Y-7846822D01*
X427888Y-7834579D01*
X440842Y-7820914D01*
X452374Y-7806080D01*
X462330Y-7790078D01*
X470611Y-7773212D01*
X477113Y-7755585D01*
X481838Y-7737398D01*
X484682Y-7718806D01*
X485648Y-7700009D01*
X484682Y-7681214D01*
X481838Y-7662621D01*
X477113Y-7644434D01*
X470611Y-7626807D01*
X462330Y-7609941D01*
X452374Y-7593939D01*
X440842Y-7579106D01*
X427888Y-7565440D01*
X413613Y-7553198D01*
X398221Y-7542479D01*
X381762Y-7533335D01*
X364490Y-7525918D01*
X346506Y-7520279D01*
X328117Y-7516520D01*
X309422Y-7514590D01*
X290576Y-7514590D01*
X271881Y-7516520D01*
X253492Y-7520279D01*
X235508Y-7525918D01*
X218236Y-7533335D01*
X201777Y-7542479D01*
X186385Y-7553198D01*
X172110Y-7565440D01*
X159156Y-7579106D01*
X147624Y-7593939D01*
X137668Y-7609941D01*
X129387Y-7626807D01*
X122885Y-7644434D01*
X118160Y-7662621D01*
X115316Y-7681214D01*
X114350Y-7700009D01*
X115316Y-7718806D01*
X118160Y-7737398D01*
X122885Y-7755585D01*
X129387Y-7773212D01*
X137668Y-7790078D01*
X147624Y-7806080D01*
X159156Y-7820914D01*
X172110Y-7834579D01*
X186385Y-7846822D01*
X201777Y-7857540D01*
X218236Y-7866684D01*
X235508Y-7874101D01*
X253492Y-7879740D01*
X271881Y-7883499D01*
G37*
G36*
X759002Y-7855661D02*
G01*
X771194Y-7854746D01*
X783132Y-7852156D01*
X794562Y-7847888D01*
X805281Y-7842046D01*
X815086Y-7834731D01*
X823721Y-7826095D01*
X831037Y-7816291D01*
X836879Y-7805572D01*
X841146Y-7794142D01*
X843737Y-7782204D01*
X844651Y-7770012D01*
X843737Y-7757820D01*
X841146Y-7745882D01*
X836879Y-7734452D01*
X831037Y-7723733D01*
X823721Y-7713929D01*
X815086Y-7705293D01*
X805281Y-7697978D01*
X794562Y-7692136D01*
X783132Y-7687868D01*
X771194Y-7685278D01*
X759002Y-7684363D01*
X746810Y-7685278D01*
X734872Y-7687868D01*
X723442Y-7692136D01*
X712724Y-7697978D01*
X702919Y-7705293D01*
X694283Y-7713929D01*
X686968Y-7723733D01*
X681126Y-7734452D01*
X676859Y-7745882D01*
X674268Y-7757820D01*
X673354Y-7770012D01*
X674268Y-7782204D01*
X676859Y-7794142D01*
X681126Y-7805572D01*
X686968Y-7816291D01*
X694283Y-7826095D01*
X702919Y-7834731D01*
X712724Y-7842046D01*
X723442Y-7847888D01*
X734872Y-7852156D01*
X746810Y-7854746D01*
G37*
G36*
X2946552Y-7780680D02*
G01*
X3115411Y-7780680D01*
X3121710Y-7779969D01*
X3127095Y-7778038D01*
X3131972Y-7774990D01*
X3135985Y-7770977D01*
X3139033Y-7766100D01*
X3140964Y-7760716D01*
X3141675Y-7754416D01*
X3141675Y-7585557D01*
X3140964Y-7579309D01*
X3139033Y-7573924D01*
X3135985Y-7569047D01*
X3131972Y-7564983D01*
X3127095Y-7561935D01*
X3121710Y-7560056D01*
X3115411Y-7559344D01*
X2946552Y-7559344D01*
X2940304Y-7560056D01*
X2934919Y-7561935D01*
X2930042Y-7564983D01*
X2925978Y-7569047D01*
X2922930Y-7573924D01*
X2921050Y-7579309D01*
X2920339Y-7585557D01*
X2920339Y-7754416D01*
X2921050Y-7760716D01*
X2922930Y-7766100D01*
X2925978Y-7770977D01*
X2930042Y-7774990D01*
X2934919Y-7778038D01*
X2940304Y-7779969D01*
G37*
G36*
X2265527Y-7780629D02*
G01*
X2272538Y-7780578D01*
X2279396Y-7780172D01*
X2286660Y-7779258D01*
X2293112Y-7777988D01*
X2300528Y-7776057D01*
X2306472Y-7774127D01*
X2313838Y-7771180D01*
X2319223Y-7768640D01*
X2326436Y-7764576D01*
X2331161Y-7761579D01*
X2338070Y-7756448D01*
X2342134Y-7753045D01*
X2348534Y-7746898D01*
X2351938Y-7743240D01*
X2357729Y-7736128D01*
X2360472Y-7732268D01*
X2365451Y-7724190D01*
X2367534Y-7720330D01*
X2371598Y-7711389D01*
X2373071Y-7707630D01*
X2376068Y-7697927D01*
X2376982Y-7694269D01*
X2378760Y-7684008D01*
X2379167Y-7680553D01*
X2379675Y-7669834D01*
X2379624Y-7666685D01*
X2378710Y-7655661D01*
X2378303Y-7652867D01*
X2375357Y-7639405D01*
X2370531Y-7626096D01*
X2364232Y-7613700D01*
X2356408Y-7602220D01*
X2347010Y-7591552D01*
X2244852Y-7489444D01*
X2236724Y-7482484D01*
X2234184Y-7480604D01*
X2225192Y-7474712D01*
X2222449Y-7473137D01*
X2212797Y-7468412D01*
X2209901Y-7467193D01*
X2199741Y-7463688D01*
X2196693Y-7462875D01*
X2186178Y-7460691D01*
X2183028Y-7460234D01*
X2172309Y-7459421D01*
X1801520Y-7459370D01*
X1797659Y-7458608D01*
X1794357Y-7456373D01*
X1792122Y-7453122D01*
X1791360Y-7449210D01*
X1790700Y-7149998D01*
X1791462Y-7146137D01*
X1793697Y-7142835D01*
X1932889Y-7003643D01*
X1936191Y-7001408D01*
X1940052Y-7000646D01*
X2790190Y-7000646D01*
X2794050Y-7001408D01*
X2797352Y-7003643D01*
X2799588Y-7006945D01*
X2800350Y-7010806D01*
X2800350Y-7014413D01*
X2801061Y-7020712D01*
X2802940Y-7026097D01*
X2805988Y-7030974D01*
X2810052Y-7034987D01*
X2814878Y-7038035D01*
X2820314Y-7039965D01*
X2826562Y-7040676D01*
X3025444Y-7040676D01*
X3031693Y-7039965D01*
X3037128Y-7038035D01*
X3041954Y-7034987D01*
X3046018Y-7030974D01*
X3049066Y-7026097D01*
X3050946Y-7020712D01*
X3051657Y-7014413D01*
X3051657Y-6981545D01*
X3052572Y-6977278D01*
X3055213Y-6973824D01*
X3059074Y-6971741D01*
X3063443Y-6971538D01*
X3067507Y-6973112D01*
X3070504Y-6976313D01*
X3076600Y-6986371D01*
X3085947Y-6998309D01*
X3096666Y-7009028D01*
X3108655Y-7018375D01*
X3121609Y-7026249D01*
X3123641Y-7027164D01*
X3123641Y-6958838D01*
X3061817Y-6958838D01*
X3057906Y-6958075D01*
X3054654Y-6955891D01*
X3052419Y-6952589D01*
X3051657Y-6948678D01*
X3051657Y-6831330D01*
X3052419Y-6827418D01*
X3054654Y-6824116D01*
X3057906Y-6821931D01*
X3061817Y-6821170D01*
X3123641Y-6821170D01*
X3123641Y-6752844D01*
X3121609Y-6753758D01*
X3108655Y-6761632D01*
X3096666Y-6770979D01*
X3085947Y-6781698D01*
X3076600Y-6793636D01*
X3070504Y-6803694D01*
X3067507Y-6806895D01*
X3063443Y-6808470D01*
X3059074Y-6808266D01*
X3055213Y-6806184D01*
X3052572Y-6802729D01*
X3051657Y-6798462D01*
X3051657Y-6765594D01*
X3050946Y-6759295D01*
X3049066Y-6753910D01*
X3046018Y-6749034D01*
X3041954Y-6745020D01*
X3037128Y-6741972D01*
X3031693Y-6740042D01*
X3025444Y-6739331D01*
X2826562Y-6739331D01*
X2820314Y-6740042D01*
X2814878Y-6741972D01*
X2810052Y-6745020D01*
X2805988Y-6749034D01*
X2802940Y-6753910D01*
X2801061Y-6759295D01*
X2800400Y-6764934D01*
X2799130Y-6768846D01*
X2796387Y-6771944D01*
X2792679Y-6773672D01*
X2788513Y-6773824D01*
X2784703Y-6772249D01*
X2781808Y-6769353D01*
X2573578Y-6448958D01*
X2569108Y-6442760D01*
X2566670Y-6439865D01*
X2561386Y-6434480D01*
X2558542Y-6431991D01*
X2552547Y-6427470D01*
X2549347Y-6425387D01*
X2542743Y-6421831D01*
X2539288Y-6420256D01*
X2532227Y-6417716D01*
X2528570Y-6416649D01*
X2521204Y-6415176D01*
X2517444Y-6414719D01*
X2509774Y-6414363D01*
X2474772Y-6414312D01*
X2470708Y-6413500D01*
X2467356Y-6411061D01*
X2465222Y-6407505D01*
X2463038Y-6401409D01*
X2459990Y-6396532D01*
X2455976Y-6392519D01*
X2451100Y-6389471D01*
X2445715Y-6387541D01*
X2439416Y-6386830D01*
X2340559Y-6386830D01*
X2334310Y-6387541D01*
X2328875Y-6389471D01*
X2324049Y-6392519D01*
X2319985Y-6396532D01*
X2316937Y-6401409D01*
X2315057Y-6406794D01*
X2314346Y-6413093D01*
X2314346Y-6566916D01*
X2315057Y-6573215D01*
X2316937Y-6578600D01*
X2319985Y-6583476D01*
X2324049Y-6587490D01*
X2328875Y-6590538D01*
X2334310Y-6592468D01*
X2340559Y-6593179D01*
X2439416Y-6593179D01*
X2445715Y-6592468D01*
X2451100Y-6590538D01*
X2455976Y-6587490D01*
X2459990Y-6583476D01*
X2461615Y-6580886D01*
X2464409Y-6577939D01*
X2468118Y-6576314D01*
X2472182Y-6576314D01*
X2475941Y-6577838D01*
X2478735Y-6580733D01*
X2597658Y-6763664D01*
X2599182Y-6767677D01*
X2598877Y-6772046D01*
X2596794Y-6775805D01*
X2593340Y-6778447D01*
X2589123Y-6779361D01*
X1886712Y-6779412D01*
X1875993Y-6780225D01*
X1872843Y-6780682D01*
X1862328Y-6782866D01*
X1859280Y-6783679D01*
X1849120Y-6787184D01*
X1846224Y-6788403D01*
X1836572Y-6793128D01*
X1833829Y-6794703D01*
X1824837Y-6800596D01*
X1822297Y-6802475D01*
X1814169Y-6809435D01*
X1599234Y-7024370D01*
X1592427Y-7032345D01*
X1590395Y-7035088D01*
X1582928Y-7046823D01*
X1578356Y-7056272D01*
X1577035Y-7059422D01*
X1573682Y-7069328D01*
X1572768Y-7072630D01*
X1570634Y-7082891D01*
X1570177Y-7086295D01*
X1569313Y-7097217D01*
X1568348Y-7100925D01*
X1566011Y-7103973D01*
X1562760Y-7106005D01*
X1558950Y-7106615D01*
X1555191Y-7105802D01*
X1552041Y-7103618D01*
X1227785Y-6779463D01*
X1219606Y-6772452D01*
X1217066Y-6770573D01*
X1208074Y-6764680D01*
X1205331Y-6763105D01*
X1195679Y-6758381D01*
X1192784Y-6757162D01*
X1182624Y-6753707D01*
X1179576Y-6752894D01*
X1169060Y-6750710D01*
X1165910Y-6750253D01*
X1155192Y-6749389D01*
X540054Y-6749338D01*
X536143Y-6748576D01*
X532841Y-6746392D01*
X323646Y-6537147D01*
X321411Y-6533845D01*
X320649Y-6529984D01*
X320649Y-2338120D01*
X321411Y-2334260D01*
X323646Y-2330958D01*
X593394Y-2061159D01*
X595172Y-2059787D01*
X607974Y-2051659D01*
X619150Y-2042363D01*
X629107Y-2031796D01*
X631647Y-2028342D01*
X633882Y-2026056D01*
X636727Y-2024634D01*
X639876Y-2024125D01*
X1059281Y-2025751D01*
X1069949Y-2024989D01*
X1079957Y-2022602D01*
X1089507Y-2018690D01*
X1098296Y-2013356D01*
X1106678Y-2006193D01*
X1248867Y-1863801D01*
X1255776Y-1855673D01*
X1261160Y-1846884D01*
X1265123Y-1837385D01*
X1267510Y-1827377D01*
X1268323Y-1816709D01*
X1268323Y-1278178D01*
X1269288Y-1273860D01*
X1271981Y-1270406D01*
X1275892Y-1268374D01*
X1281836Y-1266748D01*
X1290624Y-1262684D01*
X1298549Y-1257096D01*
X1305407Y-1250238D01*
X1310995Y-1242314D01*
X1315059Y-1233525D01*
X1317599Y-1224178D01*
X1318412Y-1214526D01*
X1317599Y-1204823D01*
X1315059Y-1195476D01*
X1310995Y-1186688D01*
X1305407Y-1178763D01*
X1298549Y-1171905D01*
X1290624Y-1166317D01*
X1281836Y-1162253D01*
X1276502Y-1160830D01*
X1272641Y-1158798D01*
X1269949Y-1155293D01*
X1268984Y-1151026D01*
X1269949Y-1146708D01*
X1272641Y-1143203D01*
X1276502Y-1141171D01*
X1281836Y-1139748D01*
X1290624Y-1135684D01*
X1298549Y-1130096D01*
X1305407Y-1123238D01*
X1310995Y-1115314D01*
X1315059Y-1106525D01*
X1317599Y-1097178D01*
X1318412Y-1087526D01*
X1317599Y-1077823D01*
X1315059Y-1068476D01*
X1310995Y-1059688D01*
X1305407Y-1051763D01*
X1298549Y-1044905D01*
X1290624Y-1039317D01*
X1281836Y-1035253D01*
X1276502Y-1033830D01*
X1272641Y-1031798D01*
X1269949Y-1028293D01*
X1268984Y-1024026D01*
X1269949Y-1019708D01*
X1272641Y-1016203D01*
X1276502Y-1014171D01*
X1281836Y-1012748D01*
X1290624Y-1008684D01*
X1298549Y-1003096D01*
X1305407Y-996238D01*
X1310995Y-988314D01*
X1315059Y-979525D01*
X1317599Y-970178D01*
X1318412Y-960526D01*
X1317599Y-950823D01*
X1315059Y-941476D01*
X1310995Y-932687D01*
X1305407Y-924763D01*
X1298549Y-917905D01*
X1290624Y-912317D01*
X1281836Y-908253D01*
X1276502Y-906830D01*
X1272641Y-904798D01*
X1269949Y-901293D01*
X1268984Y-897026D01*
X1269949Y-892708D01*
X1272641Y-889203D01*
X1276502Y-887171D01*
X1281836Y-885748D01*
X1290624Y-881684D01*
X1298549Y-876096D01*
X1305407Y-869238D01*
X1310995Y-861314D01*
X1315059Y-852525D01*
X1317599Y-843178D01*
X1318412Y-833526D01*
X1317599Y-823823D01*
X1315059Y-814476D01*
X1310995Y-805688D01*
X1305407Y-797763D01*
X1298549Y-790905D01*
X1290624Y-785317D01*
X1281836Y-781253D01*
X1276502Y-779830D01*
X1272641Y-777798D01*
X1269949Y-774293D01*
X1268984Y-770026D01*
X1269949Y-765708D01*
X1272641Y-762203D01*
X1276502Y-760171D01*
X1281836Y-758748D01*
X1290624Y-754684D01*
X1298549Y-749096D01*
X1305407Y-742238D01*
X1310995Y-734314D01*
X1315059Y-725525D01*
X1317599Y-716178D01*
X1318412Y-706526D01*
X1317599Y-696823D01*
X1315059Y-687476D01*
X1310995Y-678688D01*
X1305407Y-670763D01*
X1298549Y-663905D01*
X1290624Y-658317D01*
X1281836Y-654253D01*
X1276502Y-652830D01*
X1272641Y-650798D01*
X1269949Y-647293D01*
X1268984Y-643026D01*
X1269949Y-638708D01*
X1272641Y-635203D01*
X1276502Y-633171D01*
X1281836Y-631748D01*
X1290624Y-627684D01*
X1298549Y-622096D01*
X1305407Y-615238D01*
X1310995Y-607314D01*
X1315059Y-598525D01*
X1317599Y-589178D01*
X1318412Y-579526D01*
X1317599Y-569823D01*
X1315059Y-560476D01*
X1310995Y-551688D01*
X1305407Y-543763D01*
X1298549Y-536905D01*
X1290624Y-531317D01*
X1281836Y-527253D01*
X1276502Y-525830D01*
X1272641Y-523798D01*
X1269949Y-520293D01*
X1268984Y-516026D01*
X1269949Y-511708D01*
X1272641Y-508203D01*
X1276502Y-506171D01*
X1281836Y-504748D01*
X1290624Y-500684D01*
X1298549Y-495096D01*
X1305407Y-488238D01*
X1310995Y-480314D01*
X1315059Y-471525D01*
X1317599Y-462178D01*
X1318412Y-452526D01*
X1317599Y-442823D01*
X1315059Y-433476D01*
X1310995Y-424688D01*
X1305407Y-416763D01*
X1298549Y-409905D01*
X1290624Y-404317D01*
X1281836Y-400253D01*
X1276502Y-398830D01*
X1272641Y-396798D01*
X1269949Y-393293D01*
X1268984Y-389026D01*
X1269949Y-384708D01*
X1272641Y-381203D01*
X1276502Y-379171D01*
X1281836Y-377748D01*
X1290624Y-373684D01*
X1298549Y-368096D01*
X1305407Y-361238D01*
X1310995Y-353314D01*
X1315059Y-344525D01*
X1317599Y-335178D01*
X1318412Y-325526D01*
X1317599Y-315823D01*
X1315059Y-306476D01*
X1310995Y-297688D01*
X1305407Y-289763D01*
X1298549Y-282905D01*
X1290624Y-277317D01*
X1281836Y-273253D01*
X1272489Y-270713D01*
X1262380Y-269849D01*
X1143254Y-269849D01*
X1133144Y-270713D01*
X1123797Y-273253D01*
X1122375Y-273913D01*
X1118108Y-274828D01*
X924712Y-274828D01*
X920089Y-275031D01*
X915720Y-275640D01*
X911402Y-276606D01*
X907186Y-277926D01*
X903122Y-279603D01*
X899160Y-281635D01*
X895451Y-284022D01*
X891946Y-286715D01*
X888542Y-289864D01*
X504342Y-674014D01*
X501192Y-677468D01*
X498500Y-680974D01*
X496163Y-684682D01*
X494080Y-688594D01*
X492404Y-692658D01*
X491083Y-696874D01*
X490118Y-701192D01*
X489559Y-705612D01*
X489356Y-710234D01*
X489356Y-816254D01*
X488594Y-820166D01*
X486359Y-823468D01*
X483057Y-825652D01*
X479196Y-826414D01*
X450596Y-826414D01*
X444296Y-827125D01*
X438912Y-829056D01*
X434035Y-832103D01*
X431088Y-835050D01*
X426923Y-837437D01*
X426567Y-842111D01*
X425043Y-846378D01*
X424332Y-852678D01*
X424332Y-1031494D01*
X425043Y-1037793D01*
X426974Y-1043178D01*
X430022Y-1048054D01*
X434035Y-1052068D01*
X438912Y-1055166D01*
X444296Y-1057046D01*
X450596Y-1057757D01*
X629412Y-1057757D01*
X635711Y-1057046D01*
X641096Y-1055166D01*
X645972Y-1052068D01*
X649986Y-1048054D01*
X653084Y-1043178D01*
X654964Y-1037793D01*
X655675Y-1031494D01*
X655675Y-852678D01*
X654964Y-846378D01*
X653084Y-840994D01*
X649986Y-836117D01*
X645972Y-832103D01*
X641096Y-829056D01*
X635711Y-827125D01*
X629412Y-826414D01*
X600811Y-826414D01*
X596950Y-825652D01*
X593648Y-823468D01*
X591413Y-820166D01*
X590651Y-816254D01*
X590651Y-735177D01*
X591413Y-731316D01*
X593648Y-728014D01*
X942492Y-379120D01*
X945794Y-376936D01*
X949706Y-376174D01*
X1118108Y-376174D01*
X1122375Y-377088D01*
X1123797Y-377748D01*
X1129131Y-379171D01*
X1133043Y-381203D01*
X1135684Y-384708D01*
X1136650Y-389026D01*
X1135684Y-393293D01*
X1133043Y-396798D01*
X1129131Y-398830D01*
X1122680Y-400761D01*
X1118362Y-401726D01*
X977595Y-401726D01*
X972972Y-401929D01*
X968603Y-402488D01*
X964285Y-403453D01*
X960069Y-404774D01*
X956005Y-406450D01*
X952093Y-408533D01*
X948334Y-410870D01*
X944829Y-413562D01*
X941425Y-416712D01*
X734212Y-623925D01*
X731062Y-627329D01*
X728370Y-630834D01*
X726033Y-634593D01*
X723950Y-638505D01*
X722274Y-642569D01*
X720953Y-646785D01*
X719988Y-651103D01*
X719429Y-655472D01*
X719226Y-660095D01*
X719226Y-1084834D01*
X718464Y-1088745D01*
X716280Y-1091996D01*
X672084Y-1136345D01*
X668782Y-1138580D01*
X664870Y-1139342D01*
X646531Y-1139342D01*
X643331Y-1138834D01*
X640537Y-1137361D01*
X638251Y-1135126D01*
X629107Y-1122375D01*
X619150Y-1111808D01*
X607974Y-1102512D01*
X595731Y-1094740D01*
X582574Y-1088593D01*
X568756Y-1084072D01*
X554482Y-1081379D01*
X540004Y-1080465D01*
X525526Y-1081379D01*
X511251Y-1084072D01*
X497433Y-1088593D01*
X484276Y-1094740D01*
X472033Y-1102512D01*
X460857Y-1111808D01*
X450900Y-1122375D01*
X442366Y-1134110D01*
X435356Y-1146860D01*
X430022Y-1160373D01*
X426415Y-1174394D01*
X424586Y-1188821D01*
X424586Y-1203350D01*
X426415Y-1217777D01*
X430022Y-1231798D01*
X435356Y-1245311D01*
X442366Y-1258062D01*
X450900Y-1269796D01*
X460857Y-1280363D01*
X472033Y-1289659D01*
X484276Y-1297432D01*
X497433Y-1303578D01*
X511251Y-1308100D01*
X525526Y-1310792D01*
X540004Y-1311706D01*
X554482Y-1310792D01*
X568756Y-1308100D01*
X582574Y-1303578D01*
X595731Y-1297432D01*
X607974Y-1289659D01*
X619150Y-1280363D01*
X629107Y-1269796D01*
X637641Y-1258062D01*
X644296Y-1245920D01*
X646582Y-1243126D01*
X649681Y-1241298D01*
X653237Y-1240637D01*
X689914Y-1240637D01*
X694639Y-1240434D01*
X698906Y-1239875D01*
X703326Y-1238910D01*
X707440Y-1237589D01*
X711606Y-1235862D01*
X715416Y-1233830D01*
X719226Y-1231442D01*
X722680Y-1228801D01*
X726135Y-1225600D01*
X805586Y-1145895D01*
X808685Y-1142542D01*
X811428Y-1138936D01*
X813714Y-1135329D01*
X815797Y-1131316D01*
X817473Y-1127302D01*
X818794Y-1122984D01*
X819759Y-1118768D01*
X820318Y-1114298D01*
X820521Y-1109776D01*
X820521Y-685088D01*
X821283Y-681177D01*
X823518Y-677875D01*
X833932Y-667461D01*
X837590Y-665124D01*
X841857Y-664514D01*
X846023Y-665734D01*
X849274Y-668578D01*
X851052Y-672541D01*
X851052Y-676859D01*
X850036Y-681329D01*
X849477Y-685749D01*
X849274Y-690321D01*
X849274Y-1354785D01*
X848512Y-1358696D01*
X846277Y-1361998D01*
X821994Y-1386281D01*
X818692Y-1388516D01*
X814781Y-1389278D01*
X643636Y-1389278D01*
X640486Y-1388770D01*
X637692Y-1387348D01*
X635406Y-1385062D01*
X629107Y-1376375D01*
X619150Y-1365808D01*
X607974Y-1356512D01*
X595731Y-1348740D01*
X582574Y-1342593D01*
X568756Y-1338072D01*
X554482Y-1335379D01*
X540004Y-1334465D01*
X525526Y-1335379D01*
X511251Y-1338072D01*
X497433Y-1342593D01*
X484276Y-1348740D01*
X472033Y-1356512D01*
X460857Y-1365808D01*
X450900Y-1376375D01*
X442366Y-1388110D01*
X435356Y-1400860D01*
X430022Y-1414373D01*
X426415Y-1428394D01*
X424586Y-1442821D01*
X424586Y-1457350D01*
X426415Y-1471777D01*
X430022Y-1485798D01*
X435356Y-1499311D01*
X442366Y-1512062D01*
X450900Y-1523796D01*
X460857Y-1534363D01*
X472033Y-1543659D01*
X484276Y-1551432D01*
X497433Y-1557578D01*
X511251Y-1562100D01*
X525526Y-1564792D01*
X540004Y-1565706D01*
X554482Y-1564792D01*
X568756Y-1562100D01*
X582574Y-1557578D01*
X595731Y-1551432D01*
X607974Y-1543659D01*
X619150Y-1534363D01*
X629107Y-1523796D01*
X637641Y-1512062D01*
X644652Y-1499311D01*
X645566Y-1497025D01*
X647750Y-1493621D01*
X651052Y-1491386D01*
X655015Y-1490573D01*
X839774Y-1490573D01*
X844397Y-1490370D01*
X848766Y-1489811D01*
X853084Y-1488846D01*
X857300Y-1487525D01*
X861364Y-1485849D01*
X865276Y-1483766D01*
X869035Y-1481429D01*
X872540Y-1478737D01*
X875944Y-1475587D01*
X935583Y-1415948D01*
X938733Y-1412544D01*
X941425Y-1409039D01*
X943762Y-1405280D01*
X945845Y-1401368D01*
X947470Y-1397457D01*
X949401Y-1390599D01*
X951331Y-1386941D01*
X954532Y-1384350D01*
X958545Y-1383233D01*
X962609Y-1383792D01*
X966114Y-1385925D01*
X968502Y-1389329D01*
X969365Y-1393342D01*
X969365Y-1514805D01*
X968552Y-1518716D01*
X966368Y-1522018D01*
X842010Y-1646377D01*
X838708Y-1648561D01*
X834796Y-1649323D01*
X647598Y-1649323D01*
X644093Y-1648714D01*
X640994Y-1646885D01*
X638708Y-1644091D01*
X637641Y-1642110D01*
X629107Y-1630375D01*
X619150Y-1619808D01*
X607974Y-1610512D01*
X595731Y-1602740D01*
X582574Y-1596593D01*
X568756Y-1592072D01*
X554482Y-1589379D01*
X540004Y-1588465D01*
X525526Y-1589379D01*
X511251Y-1592072D01*
X497433Y-1596593D01*
X484276Y-1602740D01*
X472033Y-1610512D01*
X460857Y-1619808D01*
X450900Y-1630375D01*
X442366Y-1642110D01*
X435356Y-1654860D01*
X430022Y-1668373D01*
X426415Y-1682394D01*
X424586Y-1696821D01*
X424586Y-1711350D01*
X426415Y-1725777D01*
X430022Y-1739798D01*
X435356Y-1753311D01*
X442366Y-1766062D01*
X450900Y-1777796D01*
X460857Y-1788363D01*
X472033Y-1797659D01*
X484276Y-1805432D01*
X497433Y-1811578D01*
X511251Y-1816100D01*
X525526Y-1818792D01*
X540004Y-1819706D01*
X554482Y-1818792D01*
X568756Y-1816100D01*
X582574Y-1811578D01*
X595731Y-1805432D01*
X607974Y-1797659D01*
X619150Y-1788363D01*
X629107Y-1777796D01*
X637641Y-1766062D01*
X643178Y-1755902D01*
X645464Y-1753107D01*
X648563Y-1751279D01*
X652119Y-1750669D01*
X859790Y-1750669D01*
X864412Y-1750466D01*
X868781Y-1749856D01*
X873099Y-1748942D01*
X877316Y-1747570D01*
X881380Y-1745894D01*
X885342Y-1743862D01*
X889050Y-1741474D01*
X892556Y-1738782D01*
X895959Y-1735683D01*
X1055674Y-1575968D01*
X1058773Y-1572564D01*
X1061466Y-1569059D01*
X1063853Y-1565300D01*
X1065885Y-1561388D01*
X1067612Y-1557324D01*
X1068933Y-1553108D01*
X1069898Y-1548790D01*
X1070457Y-1544421D01*
X1070660Y-1539798D01*
X1070660Y-1236421D01*
X1071422Y-1232560D01*
X1073556Y-1229309D01*
X1076807Y-1227074D01*
X1080617Y-1226261D01*
X1084478Y-1226921D01*
X1087780Y-1229004D01*
X1090066Y-1232204D01*
X1094689Y-1242364D01*
X1100226Y-1250238D01*
X1107084Y-1257096D01*
X1115009Y-1262684D01*
X1123797Y-1266748D01*
X1129487Y-1268272D01*
X1133398Y-1270304D01*
X1136091Y-1273810D01*
X1137056Y-1278128D01*
X1137056Y-1785772D01*
X1136243Y-1789633D01*
X1134059Y-1792935D01*
X1035812Y-1891334D01*
X1032510Y-1893570D01*
X1028598Y-1894332D01*
X640384Y-1892807D01*
X637235Y-1892300D01*
X634441Y-1890877D01*
X632206Y-1888642D01*
X629107Y-1884375D01*
X619150Y-1873808D01*
X607974Y-1864512D01*
X595731Y-1856739D01*
X582574Y-1850593D01*
X568756Y-1846072D01*
X554482Y-1843379D01*
X540004Y-1842465D01*
X525526Y-1843379D01*
X511251Y-1846072D01*
X497433Y-1850593D01*
X484276Y-1856739D01*
X472033Y-1864512D01*
X460857Y-1873808D01*
X450900Y-1884375D01*
X442366Y-1896110D01*
X439267Y-1901748D01*
X437540Y-1904034D01*
X129438Y-2212238D01*
X122478Y-2220417D01*
X120599Y-2222906D01*
X114655Y-2231898D01*
X108407Y-2244293D01*
X107187Y-2247188D01*
X103682Y-2257348D01*
X102870Y-2260396D01*
X100685Y-2270963D01*
X100228Y-2274062D01*
X99415Y-2284780D01*
X99415Y-6583324D01*
X100228Y-6594043D01*
X100685Y-6597142D01*
X102870Y-6607657D01*
X103682Y-6610705D01*
X107187Y-6620865D01*
X108407Y-6623812D01*
X114655Y-6636207D01*
X122478Y-6647688D01*
X129438Y-6655866D01*
X414121Y-6940550D01*
X422300Y-6947509D01*
X424840Y-6949440D01*
X433832Y-6955332D01*
X436575Y-6956907D01*
X446176Y-6961631D01*
X459282Y-6966305D01*
X462330Y-6967118D01*
X472846Y-6969302D01*
X475996Y-6969759D01*
X486664Y-6970623D01*
X1101852Y-6970674D01*
X1105763Y-6971436D01*
X1109065Y-6973620D01*
X1567078Y-7431633D01*
X1569262Y-7434935D01*
X1570024Y-7438796D01*
X1570329Y-7570012D01*
X1570583Y-7576921D01*
X1571244Y-7584084D01*
X1572310Y-7590739D01*
X1573885Y-7597698D01*
X1575765Y-7604201D01*
X1578203Y-7610906D01*
X1580896Y-7617104D01*
X1584147Y-7623505D01*
X1587550Y-7629296D01*
X1591614Y-7635189D01*
X1595729Y-7640523D01*
X1600504Y-7645908D01*
X1605229Y-7650683D01*
X1610614Y-7655356D01*
X1615948Y-7659522D01*
X1621891Y-7663535D01*
X1627682Y-7666990D01*
X1634083Y-7670190D01*
X1640230Y-7672882D01*
X1647037Y-7675270D01*
X1653489Y-7677200D01*
X1660499Y-7678724D01*
X1667103Y-7679791D01*
X1674266Y-7680401D01*
X1681175Y-7680655D01*
X2118969Y-7680655D01*
X2122830Y-7681417D01*
X2126132Y-7683652D01*
X2194560Y-7751876D01*
X2201265Y-7757464D01*
X2205634Y-7760716D01*
X2212746Y-7765288D01*
X2217775Y-7768081D01*
X2225090Y-7771587D01*
X2230729Y-7773822D01*
X2238146Y-7776260D01*
X2244344Y-7777886D01*
X2251710Y-7779308D01*
X2258364Y-7780121D01*
G37*
G36*
X2780538Y-7780578D02*
G01*
X2794660Y-7779207D01*
X2808478Y-7776057D01*
X2821787Y-7771180D01*
X2834335Y-7764627D01*
X2845968Y-7756499D01*
X2856484Y-7746949D01*
X2865678Y-7736179D01*
X2873400Y-7724292D01*
X2879547Y-7711541D01*
X2884017Y-7698079D01*
X2886710Y-7684160D01*
X2887624Y-7669987D01*
X2886710Y-7655864D01*
X2884017Y-7641945D01*
X2879547Y-7628483D01*
X2873400Y-7615732D01*
X2865678Y-7603845D01*
X2856484Y-7593025D01*
X2845968Y-7583525D01*
X2834335Y-7575397D01*
X2821787Y-7568844D01*
X2808478Y-7563967D01*
X2794660Y-7560767D01*
X2780538Y-7559446D01*
X2766364Y-7559903D01*
X2752394Y-7562138D01*
X2738780Y-7566202D01*
X2725826Y-7571943D01*
X2713685Y-7579258D01*
X2702610Y-7588097D01*
X2692755Y-7598308D01*
X2684272Y-7609636D01*
X2677312Y-7621981D01*
X2672029Y-7635138D01*
X2668422Y-7648854D01*
X2666593Y-7662925D01*
X2666593Y-7677099D01*
X2668422Y-7691170D01*
X2672029Y-7704886D01*
X2677312Y-7717993D01*
X2684272Y-7730337D01*
X2692755Y-7741716D01*
X2702610Y-7751927D01*
X2713685Y-7760766D01*
X2725826Y-7768081D01*
X2738780Y-7773822D01*
X2752394Y-7777886D01*
X2766364Y-7780121D01*
G37*
G36*
X2474163Y-7769098D02*
G01*
X2474163Y-7718856D01*
X2423820Y-7718856D01*
X2430272Y-7730337D01*
X2438755Y-7741716D01*
X2448610Y-7751927D01*
X2459685Y-7760766D01*
X2471826Y-7768081D01*
G37*
G36*
X2571851Y-7769047D02*
G01*
X2580335Y-7764627D01*
X2591968Y-7756499D01*
X2602484Y-7746949D01*
X2611678Y-7736179D01*
X2619400Y-7724292D01*
X2622042Y-7718856D01*
X2571851Y-7718856D01*
G37*
G36*
X834593Y-7680655D02*
G01*
X1003452Y-7680655D01*
X1009700Y-7679944D01*
X1015085Y-7678064D01*
X1019962Y-7675016D01*
X1024026Y-7670952D01*
X1027074Y-7666126D01*
X1028953Y-7660690D01*
X1029665Y-7654442D01*
X1029665Y-7485583D01*
X1028953Y-7479334D01*
X1027074Y-7473899D01*
X1024026Y-7469073D01*
X1019962Y-7465009D01*
X1015085Y-7461961D01*
X1009700Y-7460081D01*
X1003452Y-7459370D01*
X834593Y-7459370D01*
X828294Y-7460081D01*
X822909Y-7461961D01*
X818032Y-7465009D01*
X813968Y-7469073D01*
X810920Y-7473899D01*
X809040Y-7479334D01*
X808329Y-7485583D01*
X808329Y-7654442D01*
X809040Y-7660690D01*
X810920Y-7666126D01*
X813968Y-7670952D01*
X818032Y-7675016D01*
X822909Y-7678064D01*
X828294Y-7679944D01*
G37*
G36*
X1169466Y-7680604D02*
G01*
X1183640Y-7680147D01*
X1197610Y-7677861D01*
X1211224Y-7673848D01*
X1224178Y-7668107D01*
X1236319Y-7660741D01*
X1247394Y-7651902D01*
X1257249Y-7641742D01*
X1265732Y-7630363D01*
X1272692Y-7618018D01*
X1277975Y-7604861D01*
X1281582Y-7591145D01*
X1283411Y-7577074D01*
X1283411Y-7562900D01*
X1281582Y-7548880D01*
X1277975Y-7535164D01*
X1272692Y-7522006D01*
X1265732Y-7509662D01*
X1257249Y-7498283D01*
X1247394Y-7488123D01*
X1236319Y-7479284D01*
X1224178Y-7471918D01*
X1211224Y-7466177D01*
X1197610Y-7462164D01*
X1183640Y-7459878D01*
X1169466Y-7459421D01*
X1155344Y-7460792D01*
X1141526Y-7463942D01*
X1128217Y-7468819D01*
X1115669Y-7475423D01*
X1104036Y-7483500D01*
X1093520Y-7493050D01*
X1084326Y-7503820D01*
X1076604Y-7515707D01*
X1070457Y-7528509D01*
X1065987Y-7541920D01*
X1063294Y-7555839D01*
X1062380Y-7570012D01*
X1063294Y-7584135D01*
X1065987Y-7598054D01*
X1070457Y-7611516D01*
X1076604Y-7624318D01*
X1084326Y-7636154D01*
X1093520Y-7646974D01*
X1104036Y-7656525D01*
X1115669Y-7664602D01*
X1128217Y-7671155D01*
X1141526Y-7676083D01*
X1155344Y-7679232D01*
G37*
G36*
X1475841Y-7669123D02*
G01*
X1478178Y-7668107D01*
X1490319Y-7660741D01*
X1501394Y-7651902D01*
X1511249Y-7641742D01*
X1519732Y-7630363D01*
X1526184Y-7618831D01*
X1475841Y-7618831D01*
G37*
G36*
X1378153Y-7669022D02*
G01*
X1378153Y-7618831D01*
X1327962Y-7618831D01*
X1330604Y-7624318D01*
X1338326Y-7636154D01*
X1347520Y-7646974D01*
X1358036Y-7656525D01*
X1369669Y-7664602D01*
G37*
G36*
X2571851Y-7621168D02*
G01*
X2622042Y-7621168D01*
X2619400Y-7615732D01*
X2611678Y-7603845D01*
X2602484Y-7593025D01*
X2591968Y-7583525D01*
X2580335Y-7575397D01*
X2571851Y-7570978D01*
G37*
G36*
X2423820Y-7621168D02*
G01*
X2474163Y-7621168D01*
X2474163Y-7570876D01*
X2471826Y-7571943D01*
X2459685Y-7579258D01*
X2448610Y-7588097D01*
X2438755Y-7598308D01*
X2430272Y-7609636D01*
G37*
G36*
X3191002Y-7555636D02*
G01*
X3203194Y-7554772D01*
X3215132Y-7552181D01*
X3226562Y-7547914D01*
X3237280Y-7542072D01*
X3247085Y-7534706D01*
X3255721Y-7526070D01*
X3263036Y-7516317D01*
X3268878Y-7505598D01*
X3273145Y-7494117D01*
X3275736Y-7482179D01*
X3276650Y-7470038D01*
X3275736Y-7457846D01*
X3273145Y-7445908D01*
X3268878Y-7434427D01*
X3263036Y-7423708D01*
X3255721Y-7413955D01*
X3247085Y-7405319D01*
X3237280Y-7397953D01*
X3226562Y-7392111D01*
X3215132Y-7387844D01*
X3203194Y-7385253D01*
X3191002Y-7384389D01*
X3178810Y-7385253D01*
X3166872Y-7387844D01*
X3155442Y-7392111D01*
X3144723Y-7397953D01*
X3134918Y-7405319D01*
X3126282Y-7413955D01*
X3118967Y-7423708D01*
X3113125Y-7434427D01*
X3108858Y-7445908D01*
X3106267Y-7457846D01*
X3105353Y-7470038D01*
X3106267Y-7482179D01*
X3108858Y-7494117D01*
X3113125Y-7505598D01*
X3118967Y-7516317D01*
X3126282Y-7526070D01*
X3134918Y-7534706D01*
X3144723Y-7542072D01*
X3155442Y-7547914D01*
X3166872Y-7552181D01*
X3178810Y-7554772D01*
G37*
G36*
X1327962Y-7521143D02*
G01*
X1378153Y-7521143D01*
X1378153Y-7470952D01*
X1369669Y-7475423D01*
X1358036Y-7483500D01*
X1347520Y-7493050D01*
X1338326Y-7503820D01*
X1330604Y-7515707D01*
G37*
G36*
X1475841Y-7521143D02*
G01*
X1526184Y-7521143D01*
X1519732Y-7509662D01*
X1511249Y-7498283D01*
X1501394Y-7488123D01*
X1490319Y-7479284D01*
X1478178Y-7471918D01*
X1475841Y-7470902D01*
G37*
G36*
X3433978Y-7040625D02*
G01*
X3449167Y-7039711D01*
X3464051Y-7036968D01*
X3478529Y-7032498D01*
X3492398Y-7026249D01*
X3505352Y-7018375D01*
X3517290Y-7009028D01*
X3528060Y-6998309D01*
X3537407Y-6986371D01*
X3545230Y-6973366D01*
X3551478Y-6959549D01*
X3556000Y-6945071D01*
X3558743Y-6930136D01*
X3559657Y-6914692D01*
X3559657Y-6865315D01*
X3558743Y-6849872D01*
X3556000Y-6834936D01*
X3551478Y-6820458D01*
X3545230Y-6806641D01*
X3537407Y-6793636D01*
X3528060Y-6781698D01*
X3517290Y-6770979D01*
X3513531Y-6768033D01*
X3511448Y-6765798D01*
X3510127Y-6763054D01*
X3509670Y-6760006D01*
X3509670Y-5908700D01*
X3510330Y-5905042D01*
X3512261Y-5901893D01*
X3515156Y-5899658D01*
X3518662Y-5898591D01*
X3524351Y-5897930D01*
X3529787Y-5896051D01*
X3533749Y-5894070D01*
X3536543Y-5893663D01*
X3633419Y-5893612D01*
X3642258Y-5892749D01*
X3644646Y-5892342D01*
X3653282Y-5890209D01*
X3655618Y-5889447D01*
X3665982Y-5884976D01*
X3673551Y-5880404D01*
X3675583Y-5878982D01*
X3682390Y-5873343D01*
X3738321Y-5817412D01*
X3745382Y-5808573D01*
X3749954Y-5801004D01*
X3751072Y-5798769D01*
X3754475Y-5790590D01*
X3755237Y-5788304D01*
X3757371Y-5779668D01*
X3757777Y-5777280D01*
X3758590Y-5768441D01*
X3758590Y-4747158D01*
X3757777Y-4738319D01*
X3757371Y-4735931D01*
X3755237Y-4727295D01*
X3754475Y-4725009D01*
X3751072Y-4716830D01*
X3749954Y-4714595D01*
X3745382Y-4707026D01*
X3738321Y-4698187D01*
X3639362Y-4599178D01*
X3637076Y-4595672D01*
X3636365Y-4591608D01*
X3637381Y-4587544D01*
X3639921Y-4584293D01*
X3643528Y-4582261D01*
X3647694Y-4581855D01*
X3653688Y-4582566D01*
X3830320Y-4582566D01*
X3836619Y-4581855D01*
X3842004Y-4579975D01*
X3846880Y-4576927D01*
X3850894Y-4572863D01*
X3853942Y-4567986D01*
X3855872Y-4562602D01*
X3856532Y-4556353D01*
X3856532Y-4379671D01*
X3855872Y-4373422D01*
X3853942Y-4367987D01*
X3850894Y-4363161D01*
X3846880Y-4359097D01*
X3842004Y-4356049D01*
X3836619Y-4354169D01*
X3830320Y-4353458D01*
X3653688Y-4353458D01*
X3647389Y-4354169D01*
X3642004Y-4356049D01*
X3637127Y-4359097D01*
X3633114Y-4363161D01*
X3630066Y-4367987D01*
X3628136Y-4373422D01*
X3627424Y-4379671D01*
X3627424Y-4556353D01*
X3628136Y-4562348D01*
X3627729Y-4566462D01*
X3625748Y-4570120D01*
X3622446Y-4572609D01*
X3618382Y-4573625D01*
X3614318Y-4572914D01*
X3610864Y-4570628D01*
X3074212Y-4034078D01*
X3065373Y-4027017D01*
X3057804Y-4022445D01*
X3055569Y-4021328D01*
X3047390Y-4017924D01*
X3045104Y-4017162D01*
X3036468Y-4015028D01*
X3034080Y-4014622D01*
X3025241Y-4013809D01*
X2636926Y-4013758D01*
X2633065Y-4012996D01*
X2629763Y-4010761D01*
X2335276Y-3716324D01*
X2333091Y-3713022D01*
X2332329Y-3709111D01*
X2332329Y-3698798D01*
X2330500Y-3684524D01*
X2326944Y-3670604D01*
X2321610Y-3657244D01*
X2314702Y-3644646D01*
X2306269Y-3633012D01*
X2296414Y-3622497D01*
X2285339Y-3613353D01*
X2273198Y-3605631D01*
X2260142Y-3599535D01*
X2246477Y-3595065D01*
X2232355Y-3592372D01*
X2217978Y-3591458D01*
X2203653Y-3592372D01*
X2189530Y-3595065D01*
X2175814Y-3599535D01*
X2162810Y-3605631D01*
X2150668Y-3613353D01*
X2139594Y-3622497D01*
X2129739Y-3633012D01*
X2121306Y-3644646D01*
X2114346Y-3657244D01*
X2109063Y-3670604D01*
X2105507Y-3684524D01*
X2103678Y-3698798D01*
X2103678Y-3709111D01*
X2102916Y-3713022D01*
X2100732Y-3716324D01*
X2055672Y-3761384D01*
X2052370Y-3763568D01*
X2048459Y-3764330D01*
X1954784Y-3764330D01*
X1950720Y-3763518D01*
X1947367Y-3761079D01*
X1945182Y-3757523D01*
X1943049Y-3751376D01*
X1940001Y-3746550D01*
X1935937Y-3742486D01*
X1931111Y-3739438D01*
X1925675Y-3737559D01*
X1919427Y-3736848D01*
X1820570Y-3736848D01*
X1814322Y-3737559D01*
X1808886Y-3739438D01*
X1804060Y-3742486D01*
X1799996Y-3746550D01*
X1796948Y-3751376D01*
X1795068Y-3756812D01*
X1794357Y-3763060D01*
X1794357Y-4266946D01*
X1795068Y-4273194D01*
X1796948Y-4278630D01*
X1799996Y-4283456D01*
X1804060Y-4287520D01*
X1808886Y-4290568D01*
X1814322Y-4292447D01*
X1820570Y-4293158D01*
X1919427Y-4293158D01*
X1925675Y-4292447D01*
X1931111Y-4290568D01*
X1935937Y-4287520D01*
X1940001Y-4283456D01*
X1943049Y-4278630D01*
X1944928Y-4273194D01*
X1945639Y-4266946D01*
X1945639Y-3925824D01*
X1946402Y-3921912D01*
X1948637Y-3918610D01*
X1951939Y-3916426D01*
X1955800Y-3915664D01*
X2086660Y-3915613D01*
X2096922Y-3914546D01*
X2100935Y-3914648D01*
X2104593Y-3916324D01*
X2107285Y-3919270D01*
X2108657Y-3923080D01*
X2108454Y-3927094D01*
X2105507Y-3938524D01*
X2103678Y-3952798D01*
X2103678Y-3967175D01*
X2105507Y-3981450D01*
X2109063Y-3995420D01*
X2114346Y-4008780D01*
X2121306Y-4021378D01*
X2129739Y-4033012D01*
X2139594Y-4043476D01*
X2150668Y-4052671D01*
X2162810Y-4060393D01*
X2175814Y-4066489D01*
X2189530Y-4070959D01*
X2203653Y-4073651D01*
X2217978Y-4074515D01*
X2232355Y-4073651D01*
X2246477Y-4070959D01*
X2260142Y-4066489D01*
X2273198Y-4060393D01*
X2285339Y-4052671D01*
X2296414Y-4043476D01*
X2306269Y-4033012D01*
X2314702Y-4021378D01*
X2321610Y-4008780D01*
X2326944Y-3995420D01*
X2330500Y-3981450D01*
X2332329Y-3967226D01*
X2332278Y-3951833D01*
X2333040Y-3947922D01*
X2335225Y-3944620D01*
X2338527Y-3942384D01*
X2342388Y-3941622D01*
X2346299Y-3942384D01*
X2349601Y-3944620D01*
X2549804Y-4144721D01*
X2556611Y-4150360D01*
X2558643Y-4151782D01*
X2566212Y-4156354D01*
X2568397Y-4157472D01*
X2576576Y-4160875D01*
X2578912Y-4161637D01*
X2587498Y-4163771D01*
X2589936Y-4164177D01*
X2598775Y-4164990D01*
X2987040Y-4165041D01*
X2990951Y-4165803D01*
X2994253Y-4168038D01*
X3604361Y-4778146D01*
X3606596Y-4781448D01*
X3607358Y-4785360D01*
X3607358Y-5730240D01*
X3606596Y-5734151D01*
X3604361Y-5737453D01*
X3602431Y-5739384D01*
X3599129Y-5741568D01*
X3595268Y-5742330D01*
X3536543Y-5742330D01*
X3533698Y-5741924D01*
X3529787Y-5739942D01*
X3524351Y-5738063D01*
X3518103Y-5737352D01*
X3299256Y-5737352D01*
X3293008Y-5738063D01*
X3287572Y-5739942D01*
X3282746Y-5742990D01*
X3278682Y-5747054D01*
X3275634Y-5751880D01*
X3273755Y-5757316D01*
X3273044Y-5763564D01*
X3273044Y-5872429D01*
X3273755Y-5878677D01*
X3275634Y-5884113D01*
X3278682Y-5888939D01*
X3282746Y-5893003D01*
X3287572Y-5896051D01*
X3293008Y-5897930D01*
X3299256Y-5898642D01*
X3348177Y-5898642D01*
X3352088Y-5899404D01*
X3355390Y-5901639D01*
X3357575Y-5904941D01*
X3358337Y-5908802D01*
X3358337Y-6199124D01*
X3357575Y-6202984D01*
X3355390Y-6206286D01*
X3352088Y-6208522D01*
X3348177Y-6209284D01*
X3344316Y-6208522D01*
X3341014Y-6206286D01*
X3149346Y-6014669D01*
X3140506Y-6007608D01*
X3132937Y-6003036D01*
X3130702Y-6001918D01*
X3122523Y-5998565D01*
X3120237Y-5997803D01*
X3111601Y-5995670D01*
X3109214Y-5995263D01*
X3100374Y-5994400D01*
X2474823Y-5994349D01*
X2470759Y-5993536D01*
X2467356Y-5991098D01*
X2465222Y-5987542D01*
X2463038Y-5981395D01*
X2459990Y-5976569D01*
X2455976Y-5972505D01*
X2451100Y-5969457D01*
X2445715Y-5967577D01*
X2439416Y-5966866D01*
X2340559Y-5966866D01*
X2334310Y-5967577D01*
X2328875Y-5969457D01*
X2324049Y-5972505D01*
X2319985Y-5976569D01*
X2316937Y-5981395D01*
X2315057Y-5986830D01*
X2314346Y-5993079D01*
X2314346Y-6146952D01*
X2315057Y-6153200D01*
X2316937Y-6158585D01*
X2319985Y-6163462D01*
X2324049Y-6167526D01*
X2328875Y-6170574D01*
X2334310Y-6172454D01*
X2340559Y-6173165D01*
X2439416Y-6173165D01*
X2445715Y-6172454D01*
X2451100Y-6170574D01*
X2455976Y-6167526D01*
X2459990Y-6163462D01*
X2463038Y-6158585D01*
X2465222Y-6152489D01*
X2467356Y-6148933D01*
X2470708Y-6146495D01*
X2474772Y-6145682D01*
X3062173Y-6145682D01*
X3066084Y-6146444D01*
X3069386Y-6148628D01*
X3355390Y-6434632D01*
X3357575Y-6437934D01*
X3358337Y-6441846D01*
X3358337Y-6760006D01*
X3357879Y-6763054D01*
X3356559Y-6765798D01*
X3354476Y-6768033D01*
X3350666Y-6770979D01*
X3339947Y-6781698D01*
X3330600Y-6793636D01*
X3322777Y-6806641D01*
X3316224Y-6821017D01*
X3314039Y-6824167D01*
X3311042Y-6826097D01*
X3311651Y-6826910D01*
X3312617Y-6830568D01*
X3312007Y-6834936D01*
X3309264Y-6849872D01*
X3308350Y-6865315D01*
X3308350Y-6914692D01*
X3309264Y-6930136D01*
X3312210Y-6945680D01*
X3312617Y-6949440D01*
X3311651Y-6953097D01*
X3311042Y-6953910D01*
X3314039Y-6955840D01*
X3316274Y-6958990D01*
X3322777Y-6973366D01*
X3330600Y-6986371D01*
X3339947Y-6998309D01*
X3350666Y-7009028D01*
X3362655Y-7018375D01*
X3375609Y-7026249D01*
X3389426Y-7032498D01*
X3403955Y-7036968D01*
X3418840Y-7039711D01*
G37*
G36*
X3236366Y-7027164D02*
G01*
X3238398Y-7026249D01*
X3251352Y-7018375D01*
X3263290Y-7009028D01*
X3274060Y-6998309D01*
X3283407Y-6986371D01*
X3291230Y-6973366D01*
X3297834Y-6958838D01*
X3236366Y-6958838D01*
G37*
G36*
X3236366Y-6821170D02*
G01*
X3297834Y-6821170D01*
X3291230Y-6806641D01*
X3283407Y-6793636D01*
X3274060Y-6781698D01*
X3263290Y-6770979D01*
X3251352Y-6761632D01*
X3238398Y-6753758D01*
X3236366Y-6752844D01*
G37*
G36*
X2140559Y-6593179D02*
G01*
X2158644Y-6593179D01*
X2158644Y-6535115D01*
X2114346Y-6535115D01*
X2114346Y-6566916D01*
X2115058Y-6573215D01*
X2116937Y-6578600D01*
X2119985Y-6583476D01*
X2124049Y-6587490D01*
X2128875Y-6590538D01*
X2134311Y-6592468D01*
G37*
G36*
X2221331Y-6593179D02*
G01*
X2239416Y-6593179D01*
X2245715Y-6592468D01*
X2251100Y-6590538D01*
X2255977Y-6587490D01*
X2259990Y-6583476D01*
X2263038Y-6578600D01*
X2264968Y-6573215D01*
X2265629Y-6566916D01*
X2265629Y-6535115D01*
X2221331Y-6535115D01*
G37*
G36*
X2114346Y-6444894D02*
G01*
X2158644Y-6444894D01*
X2158644Y-6386830D01*
X2140559Y-6386830D01*
X2134311Y-6387541D01*
X2128875Y-6389471D01*
X2124049Y-6392519D01*
X2119985Y-6396532D01*
X2116937Y-6401409D01*
X2115058Y-6406794D01*
X2114346Y-6413093D01*
G37*
G36*
X2221331Y-6444894D02*
G01*
X2265629Y-6444894D01*
X2265629Y-6413093D01*
X2264968Y-6406794D01*
X2263038Y-6401409D01*
X2259990Y-6396532D01*
X2255977Y-6392519D01*
X2251100Y-6389471D01*
X2245715Y-6387541D01*
X2239416Y-6386830D01*
X2221331Y-6386830D01*
G37*
G36*
X1582978Y-6226657D02*
G01*
X1597507Y-6225743D01*
X1611782Y-6223000D01*
X1625549Y-6218529D01*
X1638706Y-6212332D01*
X1650949Y-6204559D01*
X1662175Y-6195314D01*
X1672082Y-6184696D01*
X1680616Y-6172962D01*
X1687626Y-6160262D01*
X1692960Y-6146749D01*
X1696567Y-6132677D01*
X1698396Y-6118250D01*
X1698396Y-6103721D01*
X1696567Y-6089345D01*
X1692960Y-6075273D01*
X1687626Y-6061760D01*
X1680616Y-6049060D01*
X1672082Y-6037275D01*
X1662175Y-6026708D01*
X1650949Y-6017463D01*
X1638706Y-6009690D01*
X1625549Y-6003493D01*
X1611782Y-5999022D01*
X1597507Y-5996279D01*
X1582978Y-5995365D01*
X1568500Y-5996279D01*
X1554226Y-5999022D01*
X1540459Y-6003493D01*
X1527302Y-6009690D01*
X1515059Y-6017463D01*
X1503832Y-6026708D01*
X1493926Y-6037275D01*
X1485392Y-6049060D01*
X1478381Y-6061760D01*
X1473047Y-6075273D01*
X1469440Y-6089345D01*
X1467612Y-6103721D01*
X1467612Y-6118250D01*
X1469440Y-6132677D01*
X1473047Y-6146749D01*
X1478381Y-6160262D01*
X1485392Y-6172962D01*
X1493926Y-6184696D01*
X1503832Y-6195314D01*
X1515059Y-6204559D01*
X1527302Y-6212332D01*
X1540459Y-6218529D01*
X1554226Y-6223000D01*
X1568500Y-6225743D01*
G37*
G36*
X1836978Y-6226657D02*
G01*
X1851507Y-6225743D01*
X1865782Y-6223000D01*
X1879549Y-6218529D01*
X1892706Y-6212332D01*
X1904949Y-6204559D01*
X1916175Y-6195314D01*
X1926082Y-6184696D01*
X1934616Y-6172962D01*
X1941626Y-6160262D01*
X1946960Y-6146749D01*
X1950567Y-6132677D01*
X1952396Y-6118250D01*
X1952396Y-6103721D01*
X1950567Y-6089345D01*
X1946960Y-6075273D01*
X1941626Y-6061760D01*
X1934616Y-6049060D01*
X1926082Y-6037275D01*
X1916175Y-6026708D01*
X1904949Y-6017463D01*
X1892706Y-6009690D01*
X1879549Y-6003493D01*
X1865782Y-5999022D01*
X1851507Y-5996279D01*
X1836978Y-5995365D01*
X1822500Y-5996279D01*
X1808225Y-5999022D01*
X1794459Y-6003493D01*
X1781302Y-6009690D01*
X1769059Y-6017463D01*
X1757832Y-6026708D01*
X1747926Y-6037275D01*
X1739392Y-6049060D01*
X1732381Y-6061760D01*
X1727047Y-6075273D01*
X1723440Y-6089345D01*
X1721612Y-6103721D01*
X1721612Y-6118250D01*
X1723440Y-6132677D01*
X1727047Y-6146749D01*
X1732381Y-6160262D01*
X1739392Y-6172962D01*
X1747926Y-6184696D01*
X1757832Y-6195314D01*
X1769059Y-6204559D01*
X1781302Y-6212332D01*
X1794459Y-6218529D01*
X1808225Y-6223000D01*
X1822500Y-6225743D01*
G37*
G36*
X2140559Y-6173165D02*
G01*
X2158644Y-6173165D01*
X2158644Y-6115100D01*
X2114346Y-6115100D01*
X2114346Y-6146952D01*
X2115058Y-6153200D01*
X2116937Y-6158585D01*
X2119985Y-6163462D01*
X2124049Y-6167526D01*
X2128875Y-6170574D01*
X2134311Y-6172454D01*
G37*
G36*
X2221331Y-6173165D02*
G01*
X2239416Y-6173165D01*
X2245715Y-6172454D01*
X2251100Y-6170574D01*
X2255977Y-6167526D01*
X2259990Y-6163462D01*
X2263038Y-6158585D01*
X2264968Y-6153200D01*
X2265629Y-6146952D01*
X2265629Y-6115100D01*
X2221331Y-6115100D01*
G37*
G36*
X2221331Y-6024880D02*
G01*
X2265629Y-6024880D01*
X2265629Y-5993079D01*
X2264968Y-5986830D01*
X2263038Y-5981395D01*
X2259990Y-5976569D01*
X2255977Y-5972505D01*
X2251100Y-5969457D01*
X2245715Y-5967577D01*
X2239416Y-5966866D01*
X2221331Y-5966866D01*
G37*
G36*
X2114346Y-6024880D02*
G01*
X2158644Y-6024880D01*
X2158644Y-5966866D01*
X2140559Y-5966866D01*
X2134311Y-5967577D01*
X2128875Y-5969457D01*
X2124049Y-5972505D01*
X2119985Y-5976569D01*
X2116937Y-5981395D01*
X2115058Y-5986830D01*
X2114346Y-5993079D01*
G37*
G36*
X1836978Y-5972657D02*
G01*
X1851507Y-5971743D01*
X1865782Y-5969000D01*
X1879549Y-5964529D01*
X1892706Y-5958332D01*
X1904949Y-5950559D01*
X1916175Y-5941314D01*
X1926082Y-5930696D01*
X1934616Y-5918962D01*
X1941626Y-5906262D01*
X1946960Y-5892749D01*
X1950567Y-5878677D01*
X1952396Y-5864250D01*
X1952396Y-5849721D01*
X1950567Y-5835345D01*
X1946960Y-5821273D01*
X1941626Y-5807760D01*
X1934616Y-5795060D01*
X1926082Y-5783275D01*
X1916175Y-5772708D01*
X1904949Y-5763463D01*
X1892706Y-5755690D01*
X1879549Y-5749493D01*
X1865782Y-5745022D01*
X1851507Y-5742279D01*
X1836978Y-5741365D01*
X1822500Y-5742279D01*
X1808225Y-5745022D01*
X1794459Y-5749493D01*
X1781302Y-5755690D01*
X1769059Y-5763463D01*
X1757832Y-5772708D01*
X1747926Y-5783275D01*
X1739392Y-5795060D01*
X1732381Y-5807760D01*
X1727047Y-5821273D01*
X1723440Y-5835345D01*
X1721612Y-5849721D01*
X1721612Y-5864250D01*
X1723440Y-5878677D01*
X1727047Y-5892749D01*
X1732381Y-5906262D01*
X1739392Y-5918962D01*
X1747926Y-5930696D01*
X1757832Y-5941314D01*
X1769059Y-5950559D01*
X1781302Y-5958332D01*
X1794459Y-5964529D01*
X1808225Y-5969000D01*
X1822500Y-5971743D01*
G37*
G36*
X1582978Y-5972657D02*
G01*
X1597507Y-5971743D01*
X1611782Y-5969000D01*
X1625549Y-5964529D01*
X1638706Y-5958332D01*
X1650949Y-5950559D01*
X1662175Y-5941314D01*
X1672082Y-5930696D01*
X1680616Y-5918962D01*
X1687626Y-5906262D01*
X1692960Y-5892749D01*
X1696567Y-5878677D01*
X1698396Y-5864250D01*
X1698396Y-5849721D01*
X1696567Y-5835345D01*
X1692960Y-5821273D01*
X1687626Y-5807760D01*
X1680616Y-5795060D01*
X1672082Y-5783275D01*
X1662175Y-5772708D01*
X1650949Y-5763463D01*
X1638706Y-5755690D01*
X1625549Y-5749493D01*
X1611782Y-5745022D01*
X1597507Y-5742279D01*
X1582978Y-5741365D01*
X1568500Y-5742279D01*
X1554226Y-5745022D01*
X1540459Y-5749493D01*
X1527302Y-5755690D01*
X1515059Y-5763463D01*
X1503832Y-5772708D01*
X1493926Y-5783275D01*
X1485392Y-5795060D01*
X1478381Y-5807760D01*
X1473047Y-5821273D01*
X1469440Y-5835345D01*
X1467612Y-5849721D01*
X1467612Y-5864250D01*
X1469440Y-5878677D01*
X1473047Y-5892749D01*
X1478381Y-5906262D01*
X1485392Y-5918962D01*
X1493926Y-5930696D01*
X1503832Y-5941314D01*
X1515059Y-5950559D01*
X1527302Y-5958332D01*
X1540459Y-5964529D01*
X1554226Y-5969000D01*
X1568500Y-5971743D01*
G37*
G36*
X2679496Y-5788660D02*
G01*
X2898343Y-5788660D01*
X2904591Y-5787948D01*
X2910027Y-5786069D01*
X2914853Y-5783021D01*
X2918917Y-5778957D01*
X2921965Y-5774080D01*
X2923844Y-5768695D01*
X2924556Y-5762447D01*
X2924556Y-5673801D01*
X2925368Y-5669940D01*
X2927553Y-5666638D01*
X2930855Y-5664403D01*
X2934716Y-5663641D01*
X3280816Y-5663641D01*
X3283661Y-5664047D01*
X3287572Y-5666079D01*
X3293008Y-5667959D01*
X3299256Y-5668670D01*
X3518103Y-5668670D01*
X3524351Y-5667959D01*
X3529787Y-5666079D01*
X3534613Y-5663031D01*
X3538677Y-5658967D01*
X3541725Y-5654090D01*
X3543604Y-5648706D01*
X3544315Y-5642406D01*
X3544315Y-5533593D01*
X3543604Y-5527294D01*
X3541725Y-5521909D01*
X3538677Y-5517032D01*
X3534613Y-5512968D01*
X3529787Y-5509920D01*
X3524351Y-5508040D01*
X3518103Y-5507329D01*
X3299256Y-5507329D01*
X3293008Y-5508040D01*
X3287572Y-5509920D01*
X3283661Y-5511952D01*
X3280816Y-5512358D01*
X2934716Y-5512358D01*
X2930855Y-5511596D01*
X2927553Y-5509361D01*
X2925368Y-5506059D01*
X2924556Y-5502198D01*
X2924556Y-5413552D01*
X2923844Y-5407304D01*
X2921965Y-5401919D01*
X2918917Y-5397042D01*
X2914853Y-5392978D01*
X2910027Y-5389930D01*
X2904591Y-5388051D01*
X2898343Y-5387340D01*
X2849727Y-5387340D01*
X2845866Y-5386578D01*
X2842564Y-5384393D01*
X2840329Y-5381091D01*
X2839567Y-5377180D01*
X2839567Y-5267858D01*
X2840329Y-5263997D01*
X2842514Y-5260695D01*
X3055874Y-5045710D01*
X3058820Y-5042458D01*
X3061665Y-5038750D01*
X3063900Y-5035245D01*
X3066034Y-5031130D01*
X3067659Y-5027218D01*
X3069031Y-5022799D01*
X3069945Y-5018684D01*
X3070504Y-5014112D01*
X3070707Y-5009692D01*
X3070707Y-4885842D01*
X3071469Y-4881930D01*
X3073704Y-4878628D01*
X3077006Y-4876444D01*
X3080867Y-4875682D01*
X3096920Y-4875682D01*
X3103219Y-4874971D01*
X3108604Y-4873040D01*
X3113481Y-4869992D01*
X3117494Y-4865979D01*
X3120542Y-4861102D01*
X3122472Y-4855718D01*
X3123133Y-4849418D01*
X3123133Y-4750562D01*
X3122472Y-4744313D01*
X3120542Y-4738878D01*
X3117494Y-4734052D01*
X3113481Y-4729988D01*
X3108604Y-4726940D01*
X3103219Y-4725060D01*
X3096920Y-4724349D01*
X2943047Y-4724349D01*
X2936798Y-4725060D01*
X2931414Y-4726940D01*
X2926537Y-4729988D01*
X2922473Y-4734052D01*
X2919425Y-4738878D01*
X2917545Y-4744313D01*
X2916834Y-4750562D01*
X2916834Y-4849418D01*
X2917545Y-4855718D01*
X2919425Y-4861102D01*
X2922473Y-4865979D01*
X2926537Y-4869992D01*
X2931414Y-4873040D01*
X2936798Y-4874971D01*
X2943047Y-4875682D01*
X2959252Y-4875682D01*
X2963113Y-4876444D01*
X2966415Y-4878628D01*
X2968650Y-4881930D01*
X2969412Y-4885842D01*
X2969412Y-4984851D01*
X2968650Y-4988712D01*
X2966466Y-4992014D01*
X2856941Y-5102352D01*
X2853639Y-5104587D01*
X2849778Y-5105349D01*
X2845866Y-5104587D01*
X2842564Y-5102402D01*
X2840329Y-5099100D01*
X2839567Y-5095189D01*
X2839567Y-5079695D01*
X2839364Y-5075072D01*
X2838805Y-5070703D01*
X2837840Y-5066385D01*
X2836519Y-5062169D01*
X2834843Y-5058105D01*
X2832760Y-5054142D01*
X2830423Y-5050434D01*
X2827731Y-5046929D01*
X2824581Y-5043525D01*
X2698648Y-4917541D01*
X2696413Y-4914239D01*
X2695651Y-4910378D01*
X2695651Y-4863642D01*
X2694838Y-4856581D01*
X2695143Y-4852670D01*
X2696921Y-4849215D01*
X2699867Y-4846624D01*
X2703525Y-4845354D01*
X2710434Y-4844389D01*
X2718409Y-4841748D01*
X2725775Y-4837633D01*
X2732633Y-4831943D01*
X2904286Y-4660290D01*
X2907233Y-4658258D01*
X2910789Y-4657344D01*
X2914396Y-4657750D01*
X2917596Y-4659376D01*
X2920034Y-4662068D01*
X2922473Y-4665980D01*
X2926537Y-4669993D01*
X2931414Y-4673041D01*
X2936798Y-4674971D01*
X2943047Y-4675682D01*
X3096920Y-4675682D01*
X3103219Y-4674971D01*
X3108604Y-4673041D01*
X3113481Y-4669993D01*
X3117494Y-4665980D01*
X3120542Y-4661103D01*
X3122472Y-4655718D01*
X3123133Y-4649419D01*
X3123133Y-4550562D01*
X3122472Y-4544314D01*
X3120542Y-4538878D01*
X3117494Y-4534052D01*
X3113481Y-4529988D01*
X3108604Y-4526940D01*
X3103219Y-4525060D01*
X3096920Y-4524349D01*
X2943047Y-4524349D01*
X2936798Y-4525060D01*
X2931414Y-4526940D01*
X2926537Y-4529988D01*
X2922473Y-4534052D01*
X2919425Y-4538878D01*
X2917545Y-4544314D01*
X2916377Y-4548835D01*
X2914142Y-4551730D01*
X2910992Y-4553661D01*
X2907385Y-4554321D01*
X2898190Y-4554372D01*
X2889554Y-4555591D01*
X2881579Y-4558284D01*
X2874213Y-4562348D01*
X2867406Y-4568037D01*
X2684068Y-4751374D01*
X2680766Y-4753559D01*
X2676906Y-4754372D01*
X2610154Y-4754372D01*
X2605989Y-4753457D01*
X2602534Y-4750968D01*
X2600452Y-4747260D01*
X2600045Y-4743043D01*
X2600655Y-4737557D01*
X2600655Y-4613706D01*
X2599944Y-4607458D01*
X2598064Y-4602022D01*
X2595016Y-4597196D01*
X2590952Y-4593132D01*
X2586126Y-4590084D01*
X2580690Y-4588205D01*
X2574442Y-4587494D01*
X2505557Y-4587494D01*
X2499309Y-4588205D01*
X2493873Y-4590084D01*
X2489047Y-4593132D01*
X2484983Y-4597196D01*
X2481935Y-4602022D01*
X2480056Y-4607458D01*
X2479344Y-4614824D01*
X2478582Y-4618685D01*
X2476347Y-4621987D01*
X2473096Y-4624222D01*
X2469184Y-4624984D01*
X2190800Y-4624984D01*
X2186940Y-4624222D01*
X2183638Y-4621987D01*
X2138070Y-4576419D01*
X2135784Y-4572914D01*
X2135124Y-4568748D01*
X2136190Y-4564684D01*
X2138832Y-4561382D01*
X2142540Y-4559452D01*
X2146757Y-4559198D01*
X2150719Y-4560671D01*
X2162810Y-4568393D01*
X2175814Y-4574489D01*
X2189530Y-4578959D01*
X2203653Y-4581652D01*
X2217978Y-4582515D01*
X2232355Y-4581652D01*
X2246477Y-4578959D01*
X2260142Y-4574489D01*
X2273198Y-4568393D01*
X2285339Y-4560671D01*
X2296414Y-4551476D01*
X2306269Y-4541012D01*
X2314702Y-4529378D01*
X2321610Y-4516780D01*
X2326944Y-4503420D01*
X2330500Y-4489450D01*
X2332329Y-4475175D01*
X2332329Y-4460798D01*
X2330500Y-4446524D01*
X2326944Y-4432604D01*
X2321610Y-4419244D01*
X2314702Y-4406646D01*
X2306269Y-4395012D01*
X2296414Y-4384497D01*
X2285339Y-4375353D01*
X2273198Y-4367631D01*
X2260142Y-4361535D01*
X2246477Y-4357065D01*
X2232355Y-4354372D01*
X2217978Y-4353458D01*
X2203653Y-4354372D01*
X2189530Y-4357065D01*
X2175814Y-4361535D01*
X2162810Y-4367631D01*
X2150668Y-4375353D01*
X2139594Y-4384497D01*
X2129739Y-4395012D01*
X2121306Y-4406646D01*
X2114346Y-4419244D01*
X2109063Y-4432604D01*
X2105507Y-4446524D01*
X2103678Y-4460798D01*
X2103678Y-4475175D01*
X2105507Y-4489450D01*
X2109063Y-4503420D01*
X2114346Y-4516780D01*
X2121306Y-4529378D01*
X2125878Y-4535678D01*
X2127605Y-4539640D01*
X2127554Y-4543907D01*
X2125776Y-4547819D01*
X2122474Y-4550613D01*
X2118360Y-4551781D01*
X2114092Y-4551172D01*
X2110486Y-4548835D01*
X1955952Y-4394352D01*
X1952548Y-4391202D01*
X1949043Y-4388510D01*
X1945335Y-4386122D01*
X1941423Y-4384090D01*
X1937308Y-4382414D01*
X1933092Y-4381093D01*
X1928774Y-4380128D01*
X1924405Y-4379569D01*
X1919782Y-4379366D01*
X1730806Y-4379366D01*
X1726946Y-4378553D01*
X1723643Y-4376369D01*
X1721408Y-4373067D01*
X1720646Y-4369206D01*
X1720646Y-4301439D01*
X1721510Y-4297375D01*
X1723898Y-4293971D01*
X1727454Y-4291838D01*
X1731111Y-4290568D01*
X1735937Y-4287520D01*
X1740001Y-4283456D01*
X1743049Y-4278630D01*
X1744929Y-4273194D01*
X1745640Y-4266946D01*
X1745640Y-4113072D01*
X1744929Y-4106824D01*
X1743049Y-4101388D01*
X1740001Y-4096562D01*
X1735937Y-4092498D01*
X1731111Y-4089450D01*
X1725675Y-4087571D01*
X1719427Y-4086860D01*
X1620570Y-4086860D01*
X1614322Y-4087571D01*
X1608886Y-4089450D01*
X1604060Y-4092498D01*
X1599996Y-4096562D01*
X1596948Y-4101388D01*
X1595069Y-4106824D01*
X1594358Y-4113072D01*
X1594358Y-4129176D01*
X1593596Y-4133087D01*
X1591360Y-4136390D01*
X1588058Y-4138574D01*
X1584198Y-4139336D01*
X1475892Y-4139336D01*
X1471574Y-4138371D01*
X1469186Y-4137253D01*
X1459738Y-4134764D01*
X1450035Y-4133900D01*
X1440281Y-4134764D01*
X1430832Y-4137253D01*
X1421942Y-4141419D01*
X1413916Y-4147007D01*
X1407007Y-4153915D01*
X1401419Y-4161942D01*
X1397254Y-4170832D01*
X1394764Y-4180281D01*
X1393901Y-4190034D01*
X1394764Y-4199737D01*
X1397254Y-4209186D01*
X1401419Y-4218076D01*
X1407007Y-4226102D01*
X1413916Y-4233011D01*
X1421942Y-4238599D01*
X1430832Y-4242765D01*
X1440281Y-4245254D01*
X1450035Y-4246118D01*
X1459738Y-4245254D01*
X1469186Y-4242765D01*
X1471625Y-4241596D01*
X1475943Y-4240631D01*
X1584198Y-4240631D01*
X1588058Y-4241444D01*
X1591360Y-4243628D01*
X1593596Y-4246930D01*
X1594358Y-4250791D01*
X1594358Y-4266946D01*
X1595069Y-4273194D01*
X1596948Y-4278630D01*
X1599996Y-4283456D01*
X1604060Y-4287520D01*
X1608886Y-4290568D01*
X1612544Y-4291838D01*
X1616100Y-4293971D01*
X1618488Y-4297375D01*
X1619351Y-4301439D01*
X1619351Y-4399788D01*
X1619554Y-4404410D01*
X1620113Y-4408779D01*
X1621078Y-4413097D01*
X1622399Y-4417314D01*
X1624126Y-4421428D01*
X1626158Y-4425340D01*
X1628495Y-4429048D01*
X1631188Y-4432554D01*
X1634337Y-4435957D01*
X1664004Y-4465675D01*
X1667459Y-4468774D01*
X1670964Y-4471466D01*
X1674672Y-4473854D01*
X1678584Y-4475886D01*
X1682699Y-4477613D01*
X1686915Y-4478934D01*
X1691182Y-4479899D01*
X1695602Y-4480458D01*
X1700225Y-4480661D01*
X1894789Y-4480661D01*
X1898700Y-4481423D01*
X1902002Y-4483608D01*
X2129637Y-4711293D01*
X2133092Y-4714443D01*
X2136597Y-4717135D01*
X2140305Y-4719472D01*
X2144217Y-4721555D01*
X2148332Y-4723231D01*
X2152548Y-4724552D01*
X2156815Y-4725517D01*
X2161235Y-4726076D01*
X2165858Y-4726279D01*
X2469184Y-4726279D01*
X2473096Y-4727041D01*
X2476347Y-4729276D01*
X2478582Y-4732578D01*
X2480056Y-4743805D01*
X2481935Y-4749241D01*
X2484983Y-4754067D01*
X2489047Y-4758131D01*
X2493873Y-4761179D01*
X2499309Y-4763058D01*
X2505557Y-4763770D01*
X2517698Y-4763770D01*
X2521559Y-4764582D01*
X2524861Y-4766767D01*
X2527096Y-4770069D01*
X2527858Y-4773930D01*
X2527096Y-4777841D01*
X2524861Y-4781143D01*
X2471572Y-4834432D01*
X2468270Y-4836617D01*
X2464409Y-4837430D01*
X2410561Y-4837430D01*
X2404313Y-4838141D01*
X2398877Y-4840020D01*
X2394051Y-4843068D01*
X2389987Y-4847132D01*
X2386939Y-4851958D01*
X2385060Y-4857394D01*
X2384348Y-4863642D01*
X2384348Y-4917440D01*
X2383586Y-4921351D01*
X2381351Y-4924602D01*
X2309774Y-4996230D01*
X2306878Y-4998262D01*
X2301646Y-4999329D01*
X2292197Y-5001869D01*
X2283358Y-5005984D01*
X2275332Y-5011623D01*
X2268423Y-5018532D01*
X2262784Y-5026558D01*
X2258669Y-5035397D01*
X2256129Y-5044846D01*
X2255266Y-5054600D01*
X2256129Y-5064353D01*
X2256942Y-5067350D01*
X2257247Y-5071059D01*
X2256180Y-5074615D01*
X2253945Y-5077561D01*
X2250795Y-5079492D01*
X2247138Y-5080152D01*
X2234996Y-5080152D01*
X2231085Y-5079390D01*
X2227783Y-5077155D01*
X2040534Y-4889906D01*
X2037130Y-4886756D01*
X2033625Y-4884064D01*
X2029866Y-4881727D01*
X2025954Y-4879644D01*
X2021890Y-4877968D01*
X2017268Y-4876495D01*
X2013813Y-4874615D01*
X2011324Y-4871618D01*
X2010206Y-4867859D01*
X2009139Y-4857343D01*
X2007260Y-4851958D01*
X2004212Y-4847132D01*
X2000148Y-4843068D01*
X1995322Y-4840020D01*
X1989886Y-4838141D01*
X1983638Y-4837430D01*
X1914753Y-4837430D01*
X1908505Y-4838141D01*
X1903069Y-4840020D01*
X1898243Y-4843068D01*
X1894179Y-4847132D01*
X1891131Y-4851958D01*
X1889252Y-4857394D01*
X1888540Y-4863642D01*
X1888540Y-4987493D01*
X1889252Y-4993741D01*
X1891131Y-4999177D01*
X1894179Y-5004003D01*
X1898243Y-5008067D01*
X1903069Y-5011115D01*
X1908505Y-5012994D01*
X1914753Y-5013706D01*
X1983638Y-5013706D01*
X1989886Y-5012994D01*
X1995322Y-5011115D01*
X2003907Y-5005425D01*
X2007819Y-5004663D01*
X2011680Y-5005425D01*
X2014982Y-5007610D01*
X2173833Y-5166461D01*
X2177237Y-5169611D01*
X2180742Y-5172303D01*
X2184501Y-5174640D01*
X2188413Y-5176723D01*
X2192477Y-5178399D01*
X2196693Y-5179720D01*
X2201011Y-5180685D01*
X2205380Y-5181244D01*
X2210003Y-5181447D01*
X2403094Y-5181447D01*
X2406954Y-5182209D01*
X2410256Y-5184444D01*
X2412441Y-5187746D01*
X2413254Y-5191607D01*
X2412441Y-5195519D01*
X2410256Y-5198821D01*
X2395169Y-5213858D01*
X2391867Y-5216093D01*
X2388006Y-5216855D01*
X2340559Y-5216855D01*
X2334310Y-5217566D01*
X2328875Y-5219446D01*
X2324049Y-5222494D01*
X2319985Y-5226558D01*
X2316937Y-5231384D01*
X2315057Y-5236819D01*
X2314346Y-5243068D01*
X2314346Y-5396941D01*
X2315057Y-5403189D01*
X2316937Y-5408625D01*
X2319985Y-5413451D01*
X2324049Y-5417515D01*
X2328875Y-5420563D01*
X2334310Y-5422442D01*
X2340559Y-5423154D01*
X2439416Y-5423154D01*
X2445715Y-5422442D01*
X2451100Y-5420563D01*
X2455976Y-5417515D01*
X2459990Y-5413451D01*
X2463038Y-5408625D01*
X2464968Y-5403189D01*
X2465679Y-5396941D01*
X2465679Y-5290870D01*
X2466441Y-5287010D01*
X2468626Y-5283708D01*
X2567889Y-5184444D01*
X2571191Y-5182209D01*
X2575102Y-5181447D01*
X2594711Y-5181447D01*
X2598572Y-5182209D01*
X2601874Y-5184444D01*
X2735275Y-5317845D01*
X2737510Y-5321147D01*
X2738272Y-5325008D01*
X2738272Y-5377180D01*
X2737510Y-5381091D01*
X2735275Y-5384393D01*
X2731973Y-5386578D01*
X2728112Y-5387340D01*
X2713177Y-5387340D01*
X2709316Y-5386578D01*
X2706014Y-5384393D01*
X2634234Y-5312613D01*
X2632202Y-5309717D01*
X2628595Y-5301945D01*
X2623007Y-5293918D01*
X2616098Y-5287010D01*
X2608072Y-5281422D01*
X2599182Y-5277256D01*
X2589733Y-5274767D01*
X2580030Y-5273903D01*
X2570276Y-5274767D01*
X2560828Y-5277256D01*
X2551938Y-5281422D01*
X2543911Y-5287010D01*
X2537002Y-5293918D01*
X2531414Y-5301945D01*
X2527249Y-5310835D01*
X2524760Y-5320284D01*
X2523896Y-5330037D01*
X2524760Y-5339740D01*
X2527249Y-5349189D01*
X2531414Y-5358079D01*
X2537002Y-5366105D01*
X2543911Y-5373014D01*
X2551938Y-5378602D01*
X2559761Y-5382260D01*
X2562656Y-5384292D01*
X2650286Y-5471922D01*
X2652471Y-5475224D01*
X2653284Y-5479084D01*
X2653284Y-5584190D01*
X2652471Y-5588101D01*
X2650286Y-5591403D01*
X2646984Y-5593588D01*
X2643124Y-5594350D01*
X2532126Y-5594350D01*
X2528773Y-5593791D01*
X2525776Y-5592165D01*
X2523490Y-5589625D01*
X2520035Y-5584037D01*
X2515971Y-5579973D01*
X2511094Y-5576925D01*
X2505710Y-5575046D01*
X2499461Y-5574334D01*
X2380589Y-5574334D01*
X2374341Y-5575046D01*
X2368905Y-5576925D01*
X2364079Y-5579973D01*
X2360015Y-5584037D01*
X2356967Y-5588914D01*
X2355037Y-5594299D01*
X2354376Y-5600598D01*
X2354376Y-5739434D01*
X2355037Y-5745683D01*
X2356967Y-5751118D01*
X2360015Y-5755944D01*
X2364079Y-5760008D01*
X2368905Y-5763056D01*
X2374341Y-5764936D01*
X2380589Y-5765647D01*
X2499461Y-5765647D01*
X2505710Y-5764936D01*
X2511094Y-5763056D01*
X2515971Y-5760008D01*
X2520035Y-5755944D01*
X2523490Y-5750407D01*
X2525776Y-5747867D01*
X2528722Y-5746242D01*
X2532075Y-5745683D01*
X2643124Y-5745683D01*
X2646984Y-5746445D01*
X2650286Y-5748629D01*
X2652471Y-5751931D01*
X2653284Y-5755843D01*
X2653284Y-5762447D01*
X2653995Y-5768695D01*
X2655874Y-5774080D01*
X2658922Y-5778957D01*
X2662986Y-5783021D01*
X2667812Y-5786069D01*
X2673248Y-5787948D01*
G37*
G36*
X2156358Y-5765647D02*
G01*
X2179421Y-5765647D01*
X2185670Y-5764936D01*
X2191105Y-5763056D01*
X2195931Y-5760008D01*
X2199995Y-5755944D01*
X2203043Y-5751118D01*
X2204923Y-5745683D01*
X2205634Y-5739434D01*
X2205634Y-5711342D01*
X2156358Y-5711342D01*
G37*
G36*
X2060549Y-5765647D02*
G01*
X2083663Y-5765647D01*
X2083663Y-5711342D01*
X2034336Y-5711342D01*
X2034336Y-5739434D01*
X2035048Y-5745683D01*
X2036927Y-5751118D01*
X2039975Y-5755944D01*
X2044039Y-5760008D01*
X2048865Y-5763056D01*
X2054301Y-5764936D01*
G37*
G36*
X1836978Y-5718657D02*
G01*
X1851507Y-5717743D01*
X1865782Y-5715000D01*
X1879549Y-5710529D01*
X1892706Y-5704332D01*
X1904949Y-5696559D01*
X1916175Y-5687314D01*
X1926082Y-5676696D01*
X1934616Y-5664962D01*
X1941626Y-5652262D01*
X1946960Y-5638749D01*
X1950567Y-5624677D01*
X1952396Y-5610250D01*
X1952396Y-5595721D01*
X1950567Y-5581345D01*
X1946960Y-5567273D01*
X1941626Y-5553760D01*
X1934616Y-5541060D01*
X1926082Y-5529275D01*
X1916175Y-5518708D01*
X1904949Y-5509463D01*
X1892706Y-5501690D01*
X1879549Y-5495493D01*
X1865782Y-5491022D01*
X1851507Y-5488279D01*
X1836978Y-5487365D01*
X1822500Y-5488279D01*
X1808225Y-5491022D01*
X1794459Y-5495493D01*
X1781302Y-5501690D01*
X1769059Y-5509463D01*
X1757832Y-5518708D01*
X1747926Y-5529275D01*
X1739392Y-5541060D01*
X1732381Y-5553760D01*
X1727047Y-5567273D01*
X1723440Y-5581345D01*
X1721612Y-5595721D01*
X1721612Y-5610250D01*
X1723440Y-5624677D01*
X1727047Y-5638749D01*
X1732381Y-5652262D01*
X1739392Y-5664962D01*
X1747926Y-5676696D01*
X1757832Y-5687314D01*
X1769059Y-5696559D01*
X1781302Y-5704332D01*
X1794459Y-5710529D01*
X1808225Y-5715000D01*
X1822500Y-5717743D01*
G37*
G36*
X1582978Y-5718657D02*
G01*
X1597507Y-5717743D01*
X1611782Y-5715000D01*
X1625549Y-5710529D01*
X1638706Y-5704332D01*
X1650949Y-5696559D01*
X1662175Y-5687314D01*
X1672082Y-5676696D01*
X1680616Y-5664962D01*
X1687626Y-5652262D01*
X1692960Y-5638749D01*
X1696567Y-5624677D01*
X1698396Y-5610250D01*
X1698396Y-5595721D01*
X1696567Y-5581345D01*
X1692960Y-5567273D01*
X1687626Y-5553760D01*
X1680616Y-5541060D01*
X1672082Y-5529275D01*
X1662175Y-5518708D01*
X1650949Y-5509463D01*
X1638706Y-5501690D01*
X1625549Y-5495493D01*
X1611782Y-5491022D01*
X1597507Y-5488279D01*
X1582978Y-5487365D01*
X1568500Y-5488279D01*
X1554226Y-5491022D01*
X1540459Y-5495493D01*
X1527302Y-5501690D01*
X1515059Y-5509463D01*
X1503832Y-5518708D01*
X1493926Y-5529275D01*
X1485392Y-5541060D01*
X1478381Y-5553760D01*
X1473047Y-5567273D01*
X1469440Y-5581345D01*
X1467612Y-5595721D01*
X1467612Y-5610250D01*
X1469440Y-5624677D01*
X1473047Y-5638749D01*
X1478381Y-5652262D01*
X1485392Y-5664962D01*
X1493926Y-5676696D01*
X1503832Y-5687314D01*
X1515059Y-5696559D01*
X1527302Y-5704332D01*
X1540459Y-5710529D01*
X1554226Y-5715000D01*
X1568500Y-5717743D01*
G37*
G36*
X2156358Y-5628640D02*
G01*
X2205634Y-5628640D01*
X2205634Y-5600598D01*
X2204923Y-5594299D01*
X2203043Y-5588914D01*
X2199995Y-5584037D01*
X2195931Y-5579973D01*
X2191105Y-5576925D01*
X2185670Y-5575046D01*
X2179421Y-5574334D01*
X2156358Y-5574334D01*
G37*
G36*
X2034336Y-5628640D02*
G01*
X2083663Y-5628640D01*
X2083663Y-5574334D01*
X2060549Y-5574334D01*
X2054301Y-5575046D01*
X2048865Y-5576925D01*
X2044039Y-5579973D01*
X2039975Y-5584037D01*
X2036927Y-5588914D01*
X2035048Y-5594299D01*
X2034336Y-5600598D01*
G37*
G36*
X1888337Y-5464657D02*
G01*
X1926437Y-5464657D01*
X1932686Y-5463946D01*
X1938121Y-5462066D01*
X1942947Y-5459018D01*
X1947011Y-5454954D01*
X1950059Y-5450128D01*
X1951939Y-5444693D01*
X1952650Y-5438444D01*
X1952650Y-5400344D01*
X1888337Y-5400344D01*
G37*
G36*
X1747570Y-5464657D02*
G01*
X1785670Y-5464657D01*
X1785670Y-5400344D01*
X1721357Y-5400344D01*
X1721357Y-5438444D01*
X1722069Y-5444693D01*
X1723948Y-5450128D01*
X1726996Y-5454954D01*
X1731060Y-5459018D01*
X1735886Y-5462066D01*
X1741322Y-5463946D01*
G37*
G36*
X1582978Y-5464657D02*
G01*
X1597507Y-5463743D01*
X1611782Y-5461000D01*
X1625549Y-5456529D01*
X1638706Y-5450332D01*
X1650949Y-5442559D01*
X1662175Y-5433314D01*
X1672082Y-5422696D01*
X1680616Y-5410962D01*
X1687626Y-5398262D01*
X1692960Y-5384749D01*
X1696567Y-5370677D01*
X1698396Y-5356250D01*
X1698396Y-5341721D01*
X1696567Y-5327345D01*
X1693875Y-5316829D01*
X1693621Y-5313324D01*
X1694535Y-5309971D01*
X1696567Y-5307126D01*
X1703984Y-5299659D01*
X1707438Y-5297373D01*
X1711553Y-5296662D01*
X1715566Y-5297678D01*
X1785670Y-5297678D01*
X1785670Y-5227523D01*
X1784654Y-5223510D01*
X1785366Y-5219446D01*
X1787652Y-5215991D01*
X1797964Y-5205425D01*
X1801164Y-5201158D01*
X1804263Y-5198414D01*
X1808225Y-5197144D01*
X1812391Y-5197602D01*
X1816404Y-5198872D01*
X1821332Y-5199989D01*
X1825040Y-5200497D01*
X1830324Y-5200751D01*
X1994865Y-5200751D01*
X1998776Y-5201513D01*
X2002078Y-5203748D01*
X2111349Y-5313070D01*
X2113584Y-5316321D01*
X2114346Y-5320233D01*
X2114346Y-5396941D01*
X2115058Y-5403189D01*
X2116937Y-5408625D01*
X2119985Y-5413451D01*
X2124049Y-5417515D01*
X2128875Y-5420563D01*
X2134311Y-5422442D01*
X2140559Y-5423154D01*
X2239416Y-5423154D01*
X2245715Y-5422442D01*
X2251100Y-5420563D01*
X2255977Y-5417515D01*
X2259990Y-5413451D01*
X2263038Y-5408625D01*
X2264968Y-5403189D01*
X2265629Y-5396941D01*
X2265629Y-5243068D01*
X2264968Y-5236819D01*
X2263038Y-5231384D01*
X2259990Y-5226558D01*
X2255977Y-5222494D01*
X2251100Y-5219446D01*
X2245715Y-5217566D01*
X2239416Y-5216855D01*
X2162657Y-5216855D01*
X2158746Y-5216093D01*
X2155444Y-5213858D01*
X2056028Y-5114442D01*
X2052624Y-5111292D01*
X2049119Y-5108600D01*
X2045360Y-5106263D01*
X2041448Y-5104180D01*
X2037384Y-5102504D01*
X2033168Y-5101183D01*
X2028850Y-5100218D01*
X2024481Y-5099659D01*
X2019858Y-5099456D01*
X1855622Y-5099456D01*
X1851710Y-5098643D01*
X1848357Y-5096408D01*
X1812747Y-5059984D01*
X1810613Y-5056733D01*
X1809851Y-5052923D01*
X1809851Y-5012588D01*
X1810613Y-5008676D01*
X1812848Y-5005425D01*
X1814220Y-5004003D01*
X1817268Y-4999177D01*
X1819148Y-4993741D01*
X1819859Y-4987493D01*
X1819859Y-4863642D01*
X1819148Y-4857394D01*
X1817268Y-4851958D01*
X1814220Y-4847132D01*
X1810156Y-4843068D01*
X1805330Y-4840020D01*
X1799894Y-4838141D01*
X1793646Y-4837430D01*
X1724761Y-4837430D01*
X1718513Y-4838141D01*
X1713077Y-4840020D01*
X1708251Y-4843068D01*
X1704187Y-4847132D01*
X1701139Y-4851958D01*
X1699260Y-4857394D01*
X1698548Y-4863642D01*
X1698548Y-4987493D01*
X1699260Y-4993741D01*
X1701139Y-4999177D01*
X1704187Y-5004003D01*
X1705559Y-5005425D01*
X1707794Y-5008676D01*
X1708556Y-5012588D01*
X1708556Y-5147614D01*
X1707794Y-5151526D01*
X1705559Y-5154828D01*
X1624939Y-5235448D01*
X1621891Y-5237530D01*
X1618284Y-5238394D01*
X1614627Y-5237937D01*
X1611782Y-5237022D01*
X1597507Y-5234279D01*
X1582978Y-5233365D01*
X1568500Y-5234279D01*
X1554226Y-5237022D01*
X1540459Y-5241493D01*
X1527302Y-5247690D01*
X1515059Y-5255463D01*
X1503832Y-5264708D01*
X1493926Y-5275275D01*
X1485392Y-5287060D01*
X1478381Y-5299760D01*
X1473047Y-5313273D01*
X1469440Y-5327345D01*
X1467612Y-5341721D01*
X1467612Y-5356250D01*
X1469440Y-5370677D01*
X1473047Y-5384749D01*
X1478381Y-5398262D01*
X1485392Y-5410962D01*
X1493926Y-5422696D01*
X1503832Y-5433314D01*
X1515059Y-5442559D01*
X1527302Y-5450332D01*
X1540459Y-5456529D01*
X1554226Y-5461000D01*
X1568500Y-5463743D01*
G37*
G36*
X3470046Y-5438648D02*
G01*
X3518103Y-5438648D01*
X3524351Y-5437936D01*
X3529787Y-5436057D01*
X3534613Y-5433009D01*
X3538677Y-5428945D01*
X3541725Y-5424119D01*
X3543604Y-5418683D01*
X3544315Y-5412435D01*
X3544315Y-5391861D01*
X3470046Y-5391861D01*
G37*
G36*
X3299256Y-5438648D02*
G01*
X3347313Y-5438648D01*
X3347313Y-5391861D01*
X3273044Y-5391861D01*
X3273044Y-5412435D01*
X3273755Y-5418683D01*
X3275634Y-5424119D01*
X3278682Y-5428945D01*
X3282746Y-5433009D01*
X3287572Y-5436057D01*
X3293008Y-5437936D01*
G37*
G36*
X3273044Y-5324144D02*
G01*
X3347313Y-5324144D01*
X3347313Y-5277358D01*
X3299256Y-5277358D01*
X3293008Y-5278069D01*
X3287572Y-5279948D01*
X3282746Y-5282996D01*
X3278682Y-5287060D01*
X3275634Y-5291886D01*
X3273755Y-5297322D01*
X3273044Y-5303570D01*
G37*
G36*
X3470046Y-5324144D02*
G01*
X3544315Y-5324144D01*
X3544315Y-5303570D01*
X3543604Y-5297322D01*
X3541725Y-5291886D01*
X3538677Y-5287060D01*
X3534613Y-5282996D01*
X3529787Y-5279948D01*
X3524351Y-5278069D01*
X3518103Y-5277358D01*
X3470046Y-5277358D01*
G37*
G36*
X1888337Y-5297678D02*
G01*
X1952650Y-5297678D01*
X1952650Y-5259578D01*
X1951939Y-5253329D01*
X1950059Y-5247894D01*
X1947011Y-5243068D01*
X1942947Y-5239004D01*
X1938121Y-5235956D01*
X1932686Y-5234076D01*
X1926437Y-5233365D01*
X1888337Y-5233365D01*
G37*
G36*
X1819757Y-4763770D02*
G01*
X1888642Y-4763770D01*
X1894890Y-4763058D01*
X1900326Y-4761179D01*
X1905152Y-4758131D01*
X1909216Y-4754067D01*
X1912264Y-4749241D01*
X1914143Y-4743805D01*
X1914855Y-4737557D01*
X1914855Y-4613706D01*
X1914143Y-4607458D01*
X1912264Y-4602022D01*
X1909216Y-4597196D01*
X1905152Y-4593132D01*
X1900326Y-4590084D01*
X1894890Y-4588205D01*
X1888642Y-4587494D01*
X1819757Y-4587494D01*
X1813509Y-4588205D01*
X1808073Y-4590084D01*
X1803247Y-4593132D01*
X1799183Y-4597196D01*
X1796135Y-4602022D01*
X1794256Y-4607458D01*
X1793544Y-4614824D01*
X1792782Y-4618685D01*
X1790547Y-4621987D01*
X1787296Y-4624222D01*
X1783384Y-4624984D01*
X1690827Y-4624984D01*
X1686915Y-4624222D01*
X1683613Y-4621987D01*
X1343609Y-4281982D01*
X1341424Y-4278680D01*
X1340662Y-4274820D01*
X1340662Y-4095191D01*
X1341424Y-4091330D01*
X1343609Y-4088028D01*
X1538020Y-3893616D01*
X1541322Y-3891432D01*
X1545183Y-3890670D01*
X1584198Y-3890670D01*
X1588058Y-3891432D01*
X1591360Y-3893616D01*
X1593596Y-3896918D01*
X1594358Y-3900830D01*
X1594358Y-3916934D01*
X1595069Y-3923182D01*
X1596948Y-3928618D01*
X1599996Y-3933444D01*
X1604060Y-3937508D01*
X1608886Y-3940556D01*
X1614322Y-3942435D01*
X1620570Y-3943146D01*
X1719427Y-3943146D01*
X1725675Y-3942435D01*
X1731111Y-3940556D01*
X1735937Y-3937508D01*
X1740001Y-3933444D01*
X1743049Y-3928618D01*
X1744929Y-3923182D01*
X1745640Y-3916934D01*
X1745640Y-3763060D01*
X1744929Y-3756812D01*
X1743049Y-3751376D01*
X1740001Y-3746550D01*
X1735937Y-3742486D01*
X1731111Y-3739438D01*
X1725675Y-3737559D01*
X1719427Y-3736848D01*
X1642618Y-3736848D01*
X1638757Y-3736086D01*
X1635455Y-3733901D01*
X1603552Y-3702050D01*
X1601317Y-3698748D01*
X1600555Y-3694836D01*
X1600555Y-3165144D01*
X1601317Y-3161284D01*
X1603552Y-3157982D01*
X2017979Y-2743758D01*
X2021281Y-2741523D01*
X2025192Y-2740761D01*
X2109470Y-2740761D01*
X2112975Y-2741422D01*
X2116074Y-2743250D01*
X2118360Y-2746044D01*
X2121306Y-2751378D01*
X2129739Y-2763012D01*
X2139594Y-2773476D01*
X2150668Y-2782671D01*
X2162810Y-2790393D01*
X2175814Y-2796489D01*
X2189530Y-2800959D01*
X2203653Y-2803652D01*
X2217978Y-2804515D01*
X2232355Y-2803652D01*
X2246477Y-2800959D01*
X2260142Y-2796489D01*
X2273198Y-2790393D01*
X2285339Y-2782671D01*
X2296414Y-2773476D01*
X2306269Y-2763012D01*
X2314702Y-2751378D01*
X2321610Y-2738780D01*
X2326944Y-2725420D01*
X2330500Y-2711450D01*
X2332329Y-2697175D01*
X2332329Y-2682798D01*
X2330500Y-2668524D01*
X2326944Y-2654604D01*
X2321610Y-2641244D01*
X2314702Y-2628646D01*
X2306269Y-2617012D01*
X2296414Y-2606497D01*
X2285339Y-2597353D01*
X2273198Y-2589631D01*
X2260142Y-2583535D01*
X2246477Y-2579065D01*
X2232355Y-2576372D01*
X2217978Y-2575458D01*
X2203653Y-2576372D01*
X2189530Y-2579065D01*
X2175814Y-2583535D01*
X2162810Y-2589631D01*
X2150668Y-2597353D01*
X2139594Y-2606497D01*
X2129739Y-2617012D01*
X2121306Y-2628646D01*
X2118258Y-2634183D01*
X2115972Y-2636977D01*
X2112873Y-2638806D01*
X2109317Y-2639466D01*
X2000199Y-2639466D01*
X1995576Y-2639669D01*
X1991207Y-2640228D01*
X1986889Y-2641193D01*
X1982673Y-2642514D01*
X1978609Y-2644190D01*
X1974697Y-2646273D01*
X1970938Y-2648610D01*
X1967433Y-2651302D01*
X1964029Y-2654452D01*
X1514246Y-3103981D01*
X1511096Y-3107385D01*
X1508455Y-3110890D01*
X1506067Y-3114649D01*
X1504035Y-3118510D01*
X1502308Y-3122625D01*
X1500987Y-3126841D01*
X1500022Y-3131159D01*
X1499463Y-3135528D01*
X1499260Y-3140151D01*
X1499260Y-3719880D01*
X1499463Y-3724554D01*
X1500022Y-3728872D01*
X1500987Y-3733241D01*
X1502308Y-3737406D01*
X1504035Y-3741521D01*
X1506067Y-3745382D01*
X1508455Y-3749192D01*
X1511096Y-3752646D01*
X1514297Y-3756101D01*
X1530197Y-3772001D01*
X1532382Y-3775252D01*
X1533194Y-3779062D01*
X1532483Y-3782923D01*
X1530350Y-3786225D01*
X1527149Y-3788460D01*
X1523339Y-3789324D01*
X1515516Y-3789578D01*
X1511198Y-3790137D01*
X1506880Y-3791102D01*
X1502664Y-3792423D01*
X1498600Y-3794099D01*
X1494688Y-3796131D01*
X1490980Y-3798519D01*
X1487474Y-3801211D01*
X1484020Y-3804361D01*
X1254353Y-4034028D01*
X1251204Y-4037431D01*
X1248511Y-4040936D01*
X1246124Y-4044696D01*
X1244092Y-4048607D01*
X1242415Y-4052671D01*
X1241094Y-4056887D01*
X1240129Y-4061206D01*
X1239570Y-4065574D01*
X1239367Y-4070248D01*
X1239367Y-4299762D01*
X1239570Y-4304436D01*
X1240129Y-4308805D01*
X1241094Y-4313123D01*
X1242415Y-4317339D01*
X1244092Y-4321403D01*
X1246124Y-4325315D01*
X1248511Y-4329074D01*
X1251204Y-4332579D01*
X1254353Y-4335983D01*
X1629664Y-4711293D01*
X1633067Y-4714443D01*
X1636572Y-4717135D01*
X1640332Y-4719472D01*
X1644243Y-4721555D01*
X1648307Y-4723231D01*
X1652524Y-4724552D01*
X1656842Y-4725517D01*
X1661210Y-4726076D01*
X1665833Y-4726279D01*
X1783384Y-4726279D01*
X1787296Y-4727041D01*
X1790547Y-4729276D01*
X1792782Y-4732578D01*
X1794256Y-4743805D01*
X1796135Y-4749241D01*
X1799183Y-4754067D01*
X1803247Y-4758131D01*
X1808073Y-4761179D01*
X1813509Y-4763058D01*
G37*
G36*
X701649Y-4684471D02*
G01*
X701649Y-4632350D01*
X649630Y-4632350D01*
X651662Y-4636719D01*
X659434Y-4648962D01*
X668731Y-4660138D01*
X679297Y-4670094D01*
X691032Y-4678629D01*
G37*
G36*
X1209649Y-4684471D02*
G01*
X1209649Y-4632350D01*
X1157630Y-4632350D01*
X1159662Y-4636719D01*
X1167434Y-4648962D01*
X1176731Y-4660138D01*
X1187297Y-4670094D01*
X1199032Y-4678629D01*
G37*
G36*
X804367Y-4684471D02*
G01*
X814984Y-4678629D01*
X826719Y-4670094D01*
X837285Y-4660138D01*
X846531Y-4648962D01*
X854354Y-4636719D01*
X856386Y-4632350D01*
X804367Y-4632350D01*
G37*
G36*
X955649Y-4684471D02*
G01*
X955649Y-4632350D01*
X903630Y-4632350D01*
X905662Y-4636719D01*
X913434Y-4648962D01*
X922731Y-4660138D01*
X933297Y-4670094D01*
X945032Y-4678629D01*
G37*
G36*
X1058367Y-4684471D02*
G01*
X1068984Y-4678629D01*
X1080719Y-4670094D01*
X1091285Y-4660138D01*
X1100531Y-4648962D01*
X1108354Y-4636719D01*
X1110386Y-4632350D01*
X1058367Y-4632350D01*
G37*
G36*
X550367Y-4684471D02*
G01*
X560984Y-4678629D01*
X572719Y-4670094D01*
X583285Y-4660138D01*
X592531Y-4648962D01*
X600354Y-4636719D01*
X602386Y-4632350D01*
X550367Y-4632350D01*
G37*
G36*
X1312367Y-4684471D02*
G01*
X1322984Y-4678629D01*
X1334719Y-4670094D01*
X1345285Y-4660138D01*
X1354531Y-4648962D01*
X1362354Y-4636719D01*
X1364386Y-4632350D01*
X1312367Y-4632350D01*
G37*
G36*
X447649Y-4684471D02*
G01*
X447649Y-4632350D01*
X395630Y-4632350D01*
X397662Y-4636719D01*
X405434Y-4648962D01*
X414731Y-4660138D01*
X425297Y-4670094D01*
X437032Y-4678629D01*
G37*
G36*
X649630Y-4529632D02*
G01*
X701649Y-4529632D01*
X701649Y-4477512D01*
X691032Y-4483354D01*
X679297Y-4491888D01*
X668731Y-4501845D01*
X659434Y-4513021D01*
X651662Y-4525314D01*
G37*
G36*
X1058367Y-4529632D02*
G01*
X1110386Y-4529632D01*
X1108354Y-4525314D01*
X1100531Y-4513021D01*
X1091285Y-4501845D01*
X1080719Y-4491888D01*
X1068984Y-4483354D01*
X1058367Y-4477512D01*
G37*
G36*
X1157630Y-4529632D02*
G01*
X1209649Y-4529632D01*
X1209649Y-4477512D01*
X1199032Y-4483354D01*
X1187297Y-4491888D01*
X1176731Y-4501845D01*
X1167434Y-4513021D01*
X1159662Y-4525314D01*
G37*
G36*
X550367Y-4529632D02*
G01*
X602386Y-4529632D01*
X600354Y-4525314D01*
X592531Y-4513021D01*
X583285Y-4501845D01*
X572719Y-4491888D01*
X560984Y-4483354D01*
X550367Y-4477512D01*
G37*
G36*
X1312367Y-4529632D02*
G01*
X1364386Y-4529632D01*
X1362354Y-4525314D01*
X1354531Y-4513021D01*
X1345285Y-4501845D01*
X1334719Y-4491888D01*
X1322984Y-4483354D01*
X1312367Y-4477512D01*
G37*
G36*
X804367Y-4529632D02*
G01*
X856386Y-4529632D01*
X854354Y-4525314D01*
X846531Y-4513021D01*
X837285Y-4501845D01*
X826719Y-4491888D01*
X814984Y-4483354D01*
X804367Y-4477512D01*
G37*
G36*
X903630Y-4529632D02*
G01*
X955649Y-4529632D01*
X955649Y-4477512D01*
X945032Y-4483354D01*
X933297Y-4491888D01*
X922731Y-4501845D01*
X913434Y-4513021D01*
X905662Y-4525314D01*
G37*
G36*
X395630Y-4529632D02*
G01*
X447649Y-4529632D01*
X447649Y-4477512D01*
X437032Y-4483354D01*
X425297Y-4491888D01*
X414731Y-4501845D01*
X405434Y-4513021D01*
X397662Y-4525314D01*
G37*
G36*
X3741978Y-4328515D02*
G01*
X3756355Y-4327652D01*
X3770477Y-4324959D01*
X3784142Y-4320489D01*
X3797198Y-4314393D01*
X3809339Y-4306671D01*
X3820414Y-4297476D01*
X3830269Y-4287012D01*
X3838701Y-4275378D01*
X3845610Y-4262780D01*
X3850944Y-4249420D01*
X3854500Y-4235450D01*
X3856329Y-4221175D01*
X3856329Y-4206798D01*
X3854500Y-4192524D01*
X3850944Y-4178604D01*
X3845610Y-4165244D01*
X3838701Y-4152646D01*
X3830269Y-4141012D01*
X3820414Y-4130497D01*
X3809339Y-4121353D01*
X3797198Y-4113631D01*
X3784142Y-4107535D01*
X3770477Y-4103065D01*
X3756355Y-4100372D01*
X3741978Y-4099458D01*
X3727653Y-4100372D01*
X3713530Y-4103065D01*
X3699814Y-4107535D01*
X3686810Y-4113631D01*
X3674668Y-4121353D01*
X3663594Y-4130497D01*
X3653739Y-4141012D01*
X3645306Y-4152646D01*
X3638346Y-4165244D01*
X3633063Y-4178604D01*
X3629507Y-4192524D01*
X3627678Y-4206798D01*
X3627678Y-4221175D01*
X3629507Y-4235450D01*
X3633063Y-4249420D01*
X3638346Y-4262780D01*
X3645306Y-4275378D01*
X3653739Y-4287012D01*
X3663594Y-4297476D01*
X3674668Y-4306671D01*
X3686810Y-4314393D01*
X3699814Y-4320489D01*
X3713530Y-4324959D01*
X3727653Y-4327652D01*
G37*
G36*
X2167178Y-4316425D02*
G01*
X2167178Y-4264812D01*
X2115464Y-4264812D01*
X2121306Y-4275378D01*
X2129739Y-4287012D01*
X2139594Y-4297476D01*
X2150668Y-4306671D01*
X2162810Y-4314393D01*
G37*
G36*
X2268778Y-4316425D02*
G01*
X2273198Y-4314393D01*
X2285339Y-4306671D01*
X2296414Y-4297476D01*
X2306269Y-4287012D01*
X2314702Y-4275378D01*
X2320493Y-4264812D01*
X2268778Y-4264812D01*
G37*
G36*
X2268778Y-4163212D02*
G01*
X2320493Y-4163212D01*
X2314702Y-4152646D01*
X2306269Y-4141012D01*
X2296414Y-4130497D01*
X2285339Y-4121353D01*
X2273198Y-4113631D01*
X2268778Y-4111599D01*
G37*
G36*
X2115464Y-4163212D02*
G01*
X2167178Y-4163212D01*
X2167178Y-4111599D01*
X2162810Y-4113631D01*
X2150668Y-4121353D01*
X2139594Y-4130497D01*
X2129739Y-4141012D01*
X2121306Y-4152646D01*
G37*
G36*
X3741978Y-4074515D02*
G01*
X3756355Y-4073651D01*
X3770477Y-4070959D01*
X3784142Y-4066489D01*
X3797198Y-4060393D01*
X3809339Y-4052671D01*
X3820414Y-4043476D01*
X3830269Y-4033012D01*
X3838701Y-4021378D01*
X3845610Y-4008780D01*
X3850944Y-3995420D01*
X3854500Y-3981450D01*
X3856329Y-3967175D01*
X3856329Y-3952798D01*
X3854500Y-3938524D01*
X3850944Y-3924604D01*
X3845610Y-3911244D01*
X3838701Y-3898646D01*
X3830269Y-3887012D01*
X3820414Y-3876497D01*
X3809339Y-3867353D01*
X3797198Y-3859631D01*
X3784142Y-3853535D01*
X3770477Y-3849065D01*
X3756355Y-3846372D01*
X3741978Y-3845458D01*
X3727653Y-3846372D01*
X3713530Y-3849065D01*
X3699814Y-3853535D01*
X3686810Y-3859631D01*
X3674668Y-3867353D01*
X3663594Y-3876497D01*
X3653739Y-3887012D01*
X3645306Y-3898646D01*
X3638346Y-3911244D01*
X3633063Y-3924604D01*
X3629507Y-3938524D01*
X3627678Y-3952798D01*
X3627678Y-3967175D01*
X3629507Y-3981450D01*
X3633063Y-3995420D01*
X3638346Y-4008780D01*
X3645306Y-4021378D01*
X3653739Y-4033012D01*
X3663594Y-4043476D01*
X3674668Y-4052671D01*
X3686810Y-4060393D01*
X3699814Y-4066489D01*
X3713530Y-4070959D01*
X3727653Y-4073651D01*
G37*
G36*
X745744Y-3934409D02*
G01*
X760272Y-3934409D01*
X774649Y-3932580D01*
X788720Y-3928973D01*
X802233Y-3923639D01*
X814984Y-3916629D01*
X826719Y-3908094D01*
X837285Y-3898137D01*
X846531Y-3886962D01*
X854354Y-3874719D01*
X860501Y-3861562D01*
X865022Y-3847744D01*
X867714Y-3833469D01*
X868629Y-3818991D01*
X867714Y-3804513D01*
X865022Y-3790238D01*
X860501Y-3776421D01*
X854354Y-3763314D01*
X846531Y-3751021D01*
X837285Y-3739845D01*
X826719Y-3729888D01*
X814984Y-3721354D01*
X802233Y-3714394D01*
X788720Y-3709009D01*
X774649Y-3705402D01*
X760272Y-3703574D01*
X745744Y-3703574D01*
X731316Y-3705402D01*
X717245Y-3709009D01*
X703783Y-3714394D01*
X691032Y-3721354D01*
X679297Y-3729888D01*
X668731Y-3739845D01*
X659434Y-3751021D01*
X651662Y-3763314D01*
X645464Y-3776421D01*
X640994Y-3790238D01*
X638302Y-3804513D01*
X637387Y-3818991D01*
X638302Y-3833469D01*
X640994Y-3847744D01*
X645464Y-3861562D01*
X651662Y-3874719D01*
X659434Y-3886962D01*
X668731Y-3898137D01*
X679297Y-3908094D01*
X691032Y-3916629D01*
X703783Y-3923639D01*
X717245Y-3928973D01*
X731316Y-3932580D01*
G37*
G36*
X999744Y-3934409D02*
G01*
X1014272Y-3934409D01*
X1028649Y-3932580D01*
X1042720Y-3928973D01*
X1056233Y-3923639D01*
X1068984Y-3916629D01*
X1080719Y-3908094D01*
X1091285Y-3898137D01*
X1100531Y-3886962D01*
X1108354Y-3874719D01*
X1114501Y-3861562D01*
X1119022Y-3847744D01*
X1121714Y-3833469D01*
X1122629Y-3818991D01*
X1121714Y-3804513D01*
X1119022Y-3790238D01*
X1114501Y-3776421D01*
X1108354Y-3763314D01*
X1100531Y-3751021D01*
X1091285Y-3739845D01*
X1080719Y-3729888D01*
X1068984Y-3721354D01*
X1056233Y-3714394D01*
X1042720Y-3709009D01*
X1028649Y-3705402D01*
X1014272Y-3703574D01*
X999744Y-3703574D01*
X985316Y-3705402D01*
X971245Y-3709009D01*
X957783Y-3714394D01*
X945032Y-3721354D01*
X933297Y-3729888D01*
X922731Y-3739845D01*
X913434Y-3751021D01*
X905662Y-3763314D01*
X899464Y-3776421D01*
X894994Y-3790238D01*
X892302Y-3804513D01*
X891387Y-3818991D01*
X892302Y-3833469D01*
X894994Y-3847744D01*
X899464Y-3861562D01*
X905662Y-3874719D01*
X913434Y-3886962D01*
X922731Y-3898137D01*
X933297Y-3908094D01*
X945032Y-3916629D01*
X957783Y-3923639D01*
X971245Y-3928973D01*
X985316Y-3932580D01*
G37*
G36*
X1253744Y-3934409D02*
G01*
X1268272Y-3934409D01*
X1282649Y-3932580D01*
X1296720Y-3928973D01*
X1310233Y-3923639D01*
X1322984Y-3916629D01*
X1334719Y-3908094D01*
X1345285Y-3898137D01*
X1354531Y-3886962D01*
X1362354Y-3874719D01*
X1368501Y-3861562D01*
X1373022Y-3847744D01*
X1375714Y-3833469D01*
X1376629Y-3818991D01*
X1375714Y-3804513D01*
X1373022Y-3790238D01*
X1368501Y-3776421D01*
X1362354Y-3763314D01*
X1354531Y-3751021D01*
X1345285Y-3739845D01*
X1334719Y-3729888D01*
X1322984Y-3721354D01*
X1310233Y-3714394D01*
X1296720Y-3709009D01*
X1282649Y-3705402D01*
X1268272Y-3703574D01*
X1253744Y-3703574D01*
X1239316Y-3705402D01*
X1225245Y-3709009D01*
X1211783Y-3714394D01*
X1199032Y-3721354D01*
X1187297Y-3729888D01*
X1176731Y-3739845D01*
X1167434Y-3751021D01*
X1159662Y-3763314D01*
X1153464Y-3776421D01*
X1148994Y-3790238D01*
X1146302Y-3804513D01*
X1145387Y-3818991D01*
X1146302Y-3833469D01*
X1148994Y-3847744D01*
X1153464Y-3861562D01*
X1159662Y-3874719D01*
X1167434Y-3886962D01*
X1176731Y-3898137D01*
X1187297Y-3908094D01*
X1199032Y-3916629D01*
X1211783Y-3923639D01*
X1225245Y-3928973D01*
X1239316Y-3932580D01*
G37*
G36*
X491743Y-3934409D02*
G01*
X506272Y-3934409D01*
X520649Y-3932580D01*
X534720Y-3928973D01*
X548233Y-3923639D01*
X560984Y-3916629D01*
X572719Y-3908094D01*
X583285Y-3898137D01*
X592531Y-3886962D01*
X600354Y-3874719D01*
X606501Y-3861562D01*
X611022Y-3847744D01*
X613714Y-3833469D01*
X614629Y-3818991D01*
X613714Y-3804513D01*
X611022Y-3790238D01*
X606501Y-3776421D01*
X600354Y-3763314D01*
X592531Y-3751021D01*
X583285Y-3739845D01*
X572719Y-3729888D01*
X560984Y-3721354D01*
X548233Y-3714394D01*
X534720Y-3709009D01*
X520649Y-3705402D01*
X506272Y-3703574D01*
X491743Y-3703574D01*
X477316Y-3705402D01*
X463245Y-3709009D01*
X449783Y-3714394D01*
X437032Y-3721354D01*
X425297Y-3729888D01*
X414731Y-3739845D01*
X405434Y-3751021D01*
X397662Y-3763314D01*
X391464Y-3776421D01*
X386994Y-3790238D01*
X384302Y-3804513D01*
X383387Y-3818991D01*
X384302Y-3833469D01*
X386994Y-3847744D01*
X391464Y-3861562D01*
X397662Y-3874719D01*
X405434Y-3886962D01*
X414731Y-3898137D01*
X425297Y-3908094D01*
X437032Y-3916629D01*
X449783Y-3923639D01*
X463245Y-3928973D01*
X477316Y-3932580D01*
G37*
G36*
X3691178Y-3808425D02*
G01*
X3691178Y-3756812D01*
X3639464Y-3756812D01*
X3645306Y-3767378D01*
X3653739Y-3779012D01*
X3663594Y-3789476D01*
X3674668Y-3798671D01*
X3686810Y-3806393D01*
G37*
G36*
X3792778Y-3808425D02*
G01*
X3797198Y-3806393D01*
X3809339Y-3798671D01*
X3820414Y-3789476D01*
X3830269Y-3779012D01*
X3838701Y-3767378D01*
X3844493Y-3756812D01*
X3792778Y-3756812D01*
G37*
G36*
X3792778Y-3655212D02*
G01*
X3844493Y-3655212D01*
X3838701Y-3644646D01*
X3830269Y-3633012D01*
X3820414Y-3622497D01*
X3809339Y-3613353D01*
X3797198Y-3605631D01*
X3792778Y-3603599D01*
G37*
G36*
X3639464Y-3655212D02*
G01*
X3691178Y-3655212D01*
X3691178Y-3603599D01*
X3686810Y-3605631D01*
X3674668Y-3613353D01*
X3663594Y-3622497D01*
X3653739Y-3633012D01*
X3645306Y-3644646D01*
G37*
G36*
X2217978Y-3566515D02*
G01*
X2232355Y-3565651D01*
X2246477Y-3562959D01*
X2260142Y-3558489D01*
X2273198Y-3552393D01*
X2285339Y-3544671D01*
X2296414Y-3535476D01*
X2306269Y-3525012D01*
X2314702Y-3513378D01*
X2321610Y-3500780D01*
X2326944Y-3487420D01*
X2330500Y-3473450D01*
X2332329Y-3459175D01*
X2332329Y-3444798D01*
X2330500Y-3430524D01*
X2326944Y-3416604D01*
X2321610Y-3403244D01*
X2314702Y-3390646D01*
X2306269Y-3379012D01*
X2296414Y-3368497D01*
X2285339Y-3359353D01*
X2273198Y-3351631D01*
X2260142Y-3345535D01*
X2246477Y-3341065D01*
X2232355Y-3338372D01*
X2217978Y-3337458D01*
X2203653Y-3338372D01*
X2189530Y-3341065D01*
X2175814Y-3345535D01*
X2162810Y-3351631D01*
X2150668Y-3359353D01*
X2139594Y-3368497D01*
X2129739Y-3379012D01*
X2121306Y-3390646D01*
X2114346Y-3403244D01*
X2109063Y-3416604D01*
X2105507Y-3430524D01*
X2103678Y-3444798D01*
X2103678Y-3459175D01*
X2105507Y-3473450D01*
X2109063Y-3487420D01*
X2114346Y-3500780D01*
X2121306Y-3513378D01*
X2129739Y-3525012D01*
X2139594Y-3535476D01*
X2150668Y-3544671D01*
X2162810Y-3552393D01*
X2175814Y-3558489D01*
X2189530Y-3562959D01*
X2203653Y-3565651D01*
G37*
G36*
X3741978Y-3566515D02*
G01*
X3756355Y-3565651D01*
X3770477Y-3562959D01*
X3784142Y-3558489D01*
X3797198Y-3552393D01*
X3809339Y-3544671D01*
X3820414Y-3535476D01*
X3830269Y-3525012D01*
X3838701Y-3513378D01*
X3845610Y-3500780D01*
X3850944Y-3487420D01*
X3854500Y-3473450D01*
X3856329Y-3459175D01*
X3856329Y-3444798D01*
X3854500Y-3430524D01*
X3850944Y-3416604D01*
X3845610Y-3403244D01*
X3838701Y-3390646D01*
X3830269Y-3379012D01*
X3820414Y-3368497D01*
X3809339Y-3359353D01*
X3797198Y-3351631D01*
X3784142Y-3345535D01*
X3770477Y-3341065D01*
X3756355Y-3338372D01*
X3741978Y-3337458D01*
X3727653Y-3338372D01*
X3713530Y-3341065D01*
X3699814Y-3345535D01*
X3686810Y-3351631D01*
X3674668Y-3359353D01*
X3663594Y-3368497D01*
X3653739Y-3379012D01*
X3645306Y-3390646D01*
X3638346Y-3403244D01*
X3633063Y-3416604D01*
X3629507Y-3430524D01*
X3627678Y-3444798D01*
X3627678Y-3459175D01*
X3629507Y-3473450D01*
X3633063Y-3487420D01*
X3638346Y-3500780D01*
X3645306Y-3513378D01*
X3653739Y-3525012D01*
X3663594Y-3535476D01*
X3674668Y-3544671D01*
X3686810Y-3552393D01*
X3699814Y-3558489D01*
X3713530Y-3562959D01*
X3727653Y-3565651D01*
G37*
G36*
X2217978Y-3312515D02*
G01*
X2232355Y-3311651D01*
X2246477Y-3308959D01*
X2260142Y-3304489D01*
X2273198Y-3298393D01*
X2285339Y-3290671D01*
X2296414Y-3281476D01*
X2306269Y-3271012D01*
X2314702Y-3259378D01*
X2321610Y-3246780D01*
X2326944Y-3233420D01*
X2330500Y-3219450D01*
X2332329Y-3205175D01*
X2332329Y-3190798D01*
X2330500Y-3176524D01*
X2326944Y-3162604D01*
X2321610Y-3149244D01*
X2314702Y-3136646D01*
X2306269Y-3125012D01*
X2296414Y-3114497D01*
X2285339Y-3105353D01*
X2273198Y-3097631D01*
X2260142Y-3091535D01*
X2246477Y-3087065D01*
X2232355Y-3084372D01*
X2217978Y-3083458D01*
X2203653Y-3084372D01*
X2189530Y-3087065D01*
X2175814Y-3091535D01*
X2162810Y-3097631D01*
X2150668Y-3105353D01*
X2139594Y-3114497D01*
X2129739Y-3125012D01*
X2121306Y-3136646D01*
X2114346Y-3149244D01*
X2109063Y-3162604D01*
X2105507Y-3176524D01*
X2103678Y-3190798D01*
X2103678Y-3205175D01*
X2105507Y-3219450D01*
X2109063Y-3233420D01*
X2114346Y-3246780D01*
X2121306Y-3259378D01*
X2129739Y-3271012D01*
X2139594Y-3281476D01*
X2150668Y-3290671D01*
X2162810Y-3298393D01*
X2175814Y-3304489D01*
X2189530Y-3308959D01*
X2203653Y-3311651D01*
G37*
G36*
X3741978Y-3312515D02*
G01*
X3756355Y-3311651D01*
X3770477Y-3308959D01*
X3784142Y-3304489D01*
X3797198Y-3298393D01*
X3809339Y-3290671D01*
X3820414Y-3281476D01*
X3830269Y-3271012D01*
X3838701Y-3259378D01*
X3845610Y-3246780D01*
X3850944Y-3233420D01*
X3854500Y-3219450D01*
X3856329Y-3205175D01*
X3856329Y-3190798D01*
X3854500Y-3176524D01*
X3850944Y-3162604D01*
X3845610Y-3149244D01*
X3838701Y-3136646D01*
X3830269Y-3125012D01*
X3820414Y-3114497D01*
X3809339Y-3105353D01*
X3797198Y-3097631D01*
X3784142Y-3091535D01*
X3770477Y-3087065D01*
X3756355Y-3084372D01*
X3741978Y-3083458D01*
X3727653Y-3084372D01*
X3713530Y-3087065D01*
X3699814Y-3091535D01*
X3686810Y-3097631D01*
X3674668Y-3105353D01*
X3663594Y-3114497D01*
X3653739Y-3125012D01*
X3645306Y-3136646D01*
X3638346Y-3149244D01*
X3633063Y-3162604D01*
X3629507Y-3176524D01*
X3627678Y-3190798D01*
X3627678Y-3205175D01*
X3629507Y-3219450D01*
X3633063Y-3233420D01*
X3638346Y-3246780D01*
X3645306Y-3259378D01*
X3653739Y-3271012D01*
X3663594Y-3281476D01*
X3674668Y-3290671D01*
X3686810Y-3298393D01*
X3699814Y-3304489D01*
X3713530Y-3308959D01*
X3727653Y-3311651D01*
G37*
G36*
X1690014Y-3236112D02*
G01*
X1699768Y-3235248D01*
X1709216Y-3232759D01*
X1718056Y-3228594D01*
X1726082Y-3223006D01*
X1732991Y-3216097D01*
X1738630Y-3208070D01*
X1742236Y-3200298D01*
X1744268Y-3197402D01*
X1944166Y-2997504D01*
X1947468Y-2995269D01*
X1951329Y-2994507D01*
X2109317Y-2994507D01*
X2112873Y-2995168D01*
X2115972Y-2996996D01*
X2118207Y-2999790D01*
X2121306Y-3005378D01*
X2129739Y-3017012D01*
X2139594Y-3027476D01*
X2150668Y-3036671D01*
X2162810Y-3044393D01*
X2175814Y-3050489D01*
X2189530Y-3054959D01*
X2203653Y-3057652D01*
X2217978Y-3058515D01*
X2232355Y-3057652D01*
X2246477Y-3054959D01*
X2260142Y-3050489D01*
X2273198Y-3044393D01*
X2285339Y-3036671D01*
X2296414Y-3027476D01*
X2306269Y-3017012D01*
X2314702Y-3005378D01*
X2321610Y-2992780D01*
X2326944Y-2979420D01*
X2330500Y-2965450D01*
X2332329Y-2951175D01*
X2332329Y-2936798D01*
X2330500Y-2922524D01*
X2326944Y-2908604D01*
X2321610Y-2895244D01*
X2314702Y-2882646D01*
X2306269Y-2871012D01*
X2296414Y-2860497D01*
X2285339Y-2851353D01*
X2273198Y-2843631D01*
X2260142Y-2837535D01*
X2246477Y-2833065D01*
X2232355Y-2830372D01*
X2217978Y-2829458D01*
X2203653Y-2830372D01*
X2189530Y-2833065D01*
X2175814Y-2837535D01*
X2162810Y-2843631D01*
X2150668Y-2851353D01*
X2139594Y-2860497D01*
X2129739Y-2871012D01*
X2121306Y-2882646D01*
X2118360Y-2887929D01*
X2116124Y-2890723D01*
X2113026Y-2892552D01*
X2109470Y-2893212D01*
X1926386Y-2893212D01*
X1921764Y-2893415D01*
X1917344Y-2893974D01*
X1913077Y-2894939D01*
X1908860Y-2896260D01*
X1904746Y-2897936D01*
X1900834Y-2900019D01*
X1897125Y-2902356D01*
X1893620Y-2905048D01*
X1890166Y-2908198D01*
X1672640Y-3125774D01*
X1669745Y-3127756D01*
X1661972Y-3131413D01*
X1653946Y-3137001D01*
X1647037Y-3143910D01*
X1641398Y-3151936D01*
X1637283Y-3160826D01*
X1634744Y-3170275D01*
X1633880Y-3180029D01*
X1634744Y-3189732D01*
X1637283Y-3199180D01*
X1641398Y-3208070D01*
X1647037Y-3216097D01*
X1653946Y-3223006D01*
X1661972Y-3228594D01*
X1670812Y-3232759D01*
X1680260Y-3235248D01*
G37*
G36*
X540004Y-3215640D02*
G01*
X554482Y-3214725D01*
X568756Y-3211982D01*
X582574Y-3207512D01*
X595731Y-3201314D01*
X607974Y-3193542D01*
X619150Y-3184296D01*
X629107Y-3173730D01*
X637641Y-3161944D01*
X644652Y-3149244D01*
X649986Y-3135731D01*
X653592Y-3121660D01*
X655421Y-3107283D01*
X655421Y-3092754D01*
X653592Y-3078327D01*
X649986Y-3064256D01*
X644652Y-3050743D01*
X637641Y-3038043D01*
X629107Y-3026308D01*
X619150Y-3015691D01*
X607974Y-3006445D01*
X595731Y-2998673D01*
X582574Y-2992475D01*
X568756Y-2988005D01*
X554482Y-2985262D01*
X540004Y-2984347D01*
X525526Y-2985262D01*
X511251Y-2988005D01*
X497433Y-2992475D01*
X484276Y-2998673D01*
X472033Y-3006445D01*
X460857Y-3015691D01*
X450900Y-3026308D01*
X442366Y-3038043D01*
X435356Y-3050743D01*
X430022Y-3064256D01*
X426415Y-3078327D01*
X424586Y-3092754D01*
X424586Y-3107283D01*
X426415Y-3121660D01*
X430022Y-3135731D01*
X435356Y-3149244D01*
X442366Y-3161944D01*
X450900Y-3173730D01*
X460857Y-3184296D01*
X472033Y-3193542D01*
X484276Y-3201314D01*
X497433Y-3207512D01*
X511251Y-3211982D01*
X525526Y-3214725D01*
G37*
G36*
X760018Y-3156102D02*
G01*
X769721Y-3155238D01*
X779170Y-3152698D01*
X788060Y-3148584D01*
X796645Y-3142538D01*
X799388Y-3141218D01*
X802436Y-3140710D01*
X1259586Y-3140710D01*
X1268018Y-3139897D01*
X1275638Y-3137560D01*
X1282649Y-3133852D01*
X1289202Y-3128467D01*
X2063902Y-2353513D01*
X2067204Y-2351328D01*
X2071065Y-2350516D01*
X2118868Y-2350516D01*
X2123186Y-2351481D01*
X2126691Y-2354224D01*
X2128723Y-2358186D01*
X2128824Y-2362606D01*
X2127097Y-2366670D01*
X2121306Y-2374646D01*
X2114346Y-2387244D01*
X2109063Y-2400604D01*
X2105507Y-2414524D01*
X2103678Y-2428798D01*
X2103678Y-2443175D01*
X2105507Y-2457450D01*
X2109063Y-2471420D01*
X2114346Y-2484780D01*
X2121306Y-2497378D01*
X2129739Y-2509012D01*
X2139594Y-2519476D01*
X2150668Y-2528671D01*
X2162810Y-2536393D01*
X2175814Y-2542489D01*
X2189530Y-2546959D01*
X2203653Y-2549652D01*
X2217978Y-2550515D01*
X2232355Y-2549652D01*
X2246477Y-2546959D01*
X2260142Y-2542489D01*
X2273198Y-2536393D01*
X2285339Y-2528671D01*
X2296414Y-2519476D01*
X2306269Y-2509012D01*
X2314702Y-2497378D01*
X2321610Y-2484780D01*
X2326944Y-2471420D01*
X2330500Y-2457450D01*
X2332329Y-2443175D01*
X2332329Y-2428798D01*
X2330500Y-2414524D01*
X2326944Y-2400604D01*
X2321610Y-2387244D01*
X2314702Y-2374646D01*
X2308910Y-2366670D01*
X2307132Y-2362606D01*
X2307285Y-2358186D01*
X2309317Y-2354224D01*
X2312822Y-2351481D01*
X2317140Y-2350516D01*
X3409442Y-2350516D01*
X3417824Y-2349703D01*
X3425444Y-2347417D01*
X3432454Y-2343658D01*
X3439007Y-2338324D01*
X3551783Y-2225751D01*
X3555085Y-2223516D01*
X3558997Y-2222754D01*
X3628288Y-2222754D01*
X3632250Y-2223566D01*
X3635552Y-2225802D01*
X3637737Y-2229205D01*
X3638346Y-2230780D01*
X3645306Y-2243378D01*
X3653739Y-2255012D01*
X3663594Y-2265476D01*
X3674668Y-2274671D01*
X3686810Y-2282393D01*
X3699814Y-2288489D01*
X3713530Y-2292959D01*
X3727653Y-2295652D01*
X3741978Y-2296515D01*
X3756355Y-2295652D01*
X3770477Y-2292959D01*
X3784142Y-2288489D01*
X3797198Y-2282393D01*
X3809339Y-2274671D01*
X3820414Y-2265476D01*
X3830269Y-2255012D01*
X3838701Y-2243378D01*
X3845610Y-2230780D01*
X3850944Y-2217420D01*
X3854500Y-2203450D01*
X3856329Y-2189175D01*
X3856329Y-2174798D01*
X3854500Y-2160524D01*
X3850944Y-2146604D01*
X3845610Y-2133244D01*
X3838701Y-2120646D01*
X3830269Y-2109012D01*
X3820414Y-2098497D01*
X3809339Y-2089353D01*
X3797198Y-2081631D01*
X3784142Y-2075535D01*
X3770477Y-2071065D01*
X3756355Y-2068372D01*
X3741978Y-2067458D01*
X3727653Y-2068372D01*
X3713530Y-2071065D01*
X3699814Y-2075535D01*
X3686810Y-2081631D01*
X3674668Y-2089353D01*
X3663594Y-2098497D01*
X3653739Y-2109012D01*
X3645306Y-2120646D01*
X3638346Y-2133244D01*
X3637635Y-2135022D01*
X3635451Y-2138426D01*
X3632149Y-2140661D01*
X3628186Y-2141474D01*
X3538474Y-2141474D01*
X3530092Y-2142286D01*
X3522472Y-2144572D01*
X3515461Y-2148332D01*
X3508908Y-2153716D01*
X3396132Y-2266238D01*
X3392830Y-2268474D01*
X3388918Y-2269236D01*
X2315870Y-2269236D01*
X2311552Y-2268270D01*
X2308047Y-2265527D01*
X2306015Y-2261565D01*
X2305862Y-2257145D01*
X2307640Y-2253081D01*
X2314702Y-2243378D01*
X2321610Y-2230780D01*
X2326944Y-2217420D01*
X2330500Y-2203450D01*
X2332329Y-2189175D01*
X2332329Y-2174798D01*
X2330500Y-2160524D01*
X2326944Y-2146604D01*
X2321610Y-2133244D01*
X2314702Y-2120646D01*
X2306269Y-2109012D01*
X2296414Y-2098497D01*
X2285339Y-2089353D01*
X2273198Y-2081631D01*
X2260142Y-2075535D01*
X2246477Y-2071065D01*
X2232355Y-2068372D01*
X2217978Y-2067458D01*
X2203653Y-2068372D01*
X2189530Y-2071065D01*
X2175814Y-2075535D01*
X2162810Y-2081631D01*
X2150668Y-2089353D01*
X2139594Y-2098497D01*
X2129739Y-2109012D01*
X2121306Y-2120646D01*
X2114346Y-2133244D01*
X2109063Y-2146604D01*
X2105507Y-2160524D01*
X2103678Y-2174798D01*
X2103678Y-2189175D01*
X2105507Y-2203450D01*
X2109063Y-2217420D01*
X2114346Y-2230780D01*
X2121306Y-2243378D01*
X2128367Y-2253081D01*
X2130094Y-2257145D01*
X2129993Y-2261565D01*
X2127961Y-2265527D01*
X2124456Y-2268270D01*
X2120138Y-2269236D01*
X2050542Y-2269236D01*
X2042109Y-2270048D01*
X2034489Y-2272385D01*
X2027478Y-2276094D01*
X2020925Y-2281478D01*
X1246225Y-3056432D01*
X1242923Y-3058617D01*
X1239062Y-3059430D01*
X802640Y-3059430D01*
X799592Y-3058922D01*
X796798Y-3057550D01*
X788060Y-3051403D01*
X779170Y-3047288D01*
X769721Y-3044748D01*
X760018Y-3043885D01*
X750265Y-3044748D01*
X740816Y-3047288D01*
X731926Y-3051403D01*
X723950Y-3057042D01*
X717042Y-3063951D01*
X711403Y-3071926D01*
X707288Y-3080816D01*
X704748Y-3090265D01*
X703884Y-3100019D01*
X704748Y-3109722D01*
X707288Y-3119170D01*
X711403Y-3128060D01*
X717042Y-3136036D01*
X723950Y-3142945D01*
X731926Y-3148584D01*
X740816Y-3152698D01*
X750265Y-3155238D01*
G37*
G36*
X3741978Y-3058515D02*
G01*
X3756355Y-3057652D01*
X3770477Y-3054959D01*
X3784142Y-3050489D01*
X3797198Y-3044393D01*
X3809339Y-3036671D01*
X3820414Y-3027476D01*
X3830269Y-3017012D01*
X3838701Y-3005378D01*
X3845610Y-2992780D01*
X3850944Y-2979420D01*
X3854500Y-2965450D01*
X3856329Y-2951175D01*
X3856329Y-2936798D01*
X3854500Y-2922524D01*
X3850944Y-2908604D01*
X3845610Y-2895244D01*
X3838701Y-2882646D01*
X3830269Y-2871012D01*
X3820414Y-2860497D01*
X3809339Y-2851353D01*
X3797198Y-2843631D01*
X3784142Y-2837535D01*
X3770477Y-2833065D01*
X3756355Y-2830372D01*
X3741978Y-2829458D01*
X3727653Y-2830372D01*
X3713530Y-2833065D01*
X3699814Y-2837535D01*
X3686810Y-2843631D01*
X3674668Y-2851353D01*
X3663594Y-2860497D01*
X3653739Y-2871012D01*
X3645306Y-2882646D01*
X3638346Y-2895244D01*
X3633063Y-2908604D01*
X3629507Y-2922524D01*
X3627678Y-2936798D01*
X3627678Y-2951175D01*
X3629507Y-2965450D01*
X3633063Y-2979420D01*
X3638346Y-2992780D01*
X3645306Y-3005378D01*
X3653739Y-3017012D01*
X3663594Y-3027476D01*
X3674668Y-3036671D01*
X3686810Y-3044393D01*
X3699814Y-3050489D01*
X3713530Y-3054959D01*
X3727653Y-3057652D01*
G37*
G36*
X591362Y-2953359D02*
G01*
X595731Y-2951327D01*
X607974Y-2943555D01*
X619150Y-2934258D01*
X629107Y-2923692D01*
X637641Y-2911957D01*
X643483Y-2901340D01*
X591362Y-2901340D01*
G37*
G36*
X488645Y-2953359D02*
G01*
X488645Y-2901340D01*
X436524Y-2901340D01*
X442366Y-2911957D01*
X450900Y-2923692D01*
X460857Y-2934258D01*
X472033Y-2943555D01*
X484276Y-2951327D01*
G37*
G36*
X3741978Y-2804515D02*
G01*
X3756355Y-2803652D01*
X3770477Y-2800959D01*
X3784142Y-2796489D01*
X3797198Y-2790393D01*
X3809339Y-2782671D01*
X3820414Y-2773476D01*
X3830269Y-2763012D01*
X3838701Y-2751378D01*
X3845610Y-2738780D01*
X3850944Y-2725420D01*
X3854500Y-2711450D01*
X3856329Y-2697175D01*
X3856329Y-2682798D01*
X3854500Y-2668524D01*
X3850944Y-2654604D01*
X3845610Y-2641244D01*
X3838701Y-2628646D01*
X3830269Y-2617012D01*
X3820414Y-2606497D01*
X3809339Y-2597353D01*
X3797198Y-2589631D01*
X3784142Y-2583535D01*
X3770477Y-2579065D01*
X3756355Y-2576372D01*
X3741978Y-2575458D01*
X3727653Y-2576372D01*
X3713530Y-2579065D01*
X3699814Y-2583535D01*
X3686810Y-2589631D01*
X3674668Y-2597353D01*
X3663594Y-2606497D01*
X3653739Y-2617012D01*
X3645306Y-2628646D01*
X3638346Y-2641244D01*
X3633063Y-2654604D01*
X3629507Y-2668524D01*
X3627678Y-2682798D01*
X3627678Y-2697175D01*
X3629507Y-2711450D01*
X3633063Y-2725420D01*
X3638346Y-2738780D01*
X3645306Y-2751378D01*
X3653739Y-2763012D01*
X3663594Y-2773476D01*
X3674668Y-2782671D01*
X3686810Y-2790393D01*
X3699814Y-2796489D01*
X3713530Y-2800959D01*
X3727653Y-2803652D01*
G37*
G36*
X591362Y-2798622D02*
G01*
X643483Y-2798622D01*
X637641Y-2788005D01*
X629107Y-2776270D01*
X619150Y-2765704D01*
X607974Y-2756458D01*
X595731Y-2748635D01*
X591362Y-2746603D01*
G37*
G36*
X436524Y-2798622D02*
G01*
X488645Y-2798622D01*
X488645Y-2746603D01*
X484276Y-2748635D01*
X472033Y-2756458D01*
X460857Y-2765704D01*
X450900Y-2776270D01*
X442366Y-2788005D01*
G37*
G36*
X450596Y-2715666D02*
G01*
X629412Y-2715666D01*
X635711Y-2714955D01*
X641096Y-2713075D01*
X645972Y-2710027D01*
X649986Y-2705963D01*
X653034Y-2701086D01*
X654964Y-2695702D01*
X655675Y-2689453D01*
X655675Y-2510586D01*
X654964Y-2504287D01*
X653034Y-2498902D01*
X649986Y-2494026D01*
X645972Y-2490012D01*
X641096Y-2486964D01*
X635711Y-2485034D01*
X629412Y-2484374D01*
X450596Y-2484374D01*
X444296Y-2485034D01*
X438912Y-2486964D01*
X434035Y-2490012D01*
X429971Y-2494026D01*
X426923Y-2498902D01*
X425043Y-2504287D01*
X424332Y-2510586D01*
X424332Y-2689453D01*
X425043Y-2695702D01*
X426923Y-2701086D01*
X429971Y-2705963D01*
X434035Y-2710027D01*
X438912Y-2713075D01*
X444296Y-2714955D01*
G37*
G36*
X3741978Y-2550515D02*
G01*
X3756355Y-2549652D01*
X3770477Y-2546959D01*
X3784142Y-2542489D01*
X3797198Y-2536393D01*
X3809339Y-2528671D01*
X3820414Y-2519476D01*
X3830269Y-2509012D01*
X3838701Y-2497378D01*
X3845610Y-2484780D01*
X3850944Y-2471420D01*
X3854500Y-2457450D01*
X3856329Y-2443175D01*
X3856329Y-2428798D01*
X3854500Y-2414524D01*
X3850944Y-2400604D01*
X3845610Y-2387244D01*
X3838701Y-2374646D01*
X3830269Y-2363012D01*
X3820414Y-2352497D01*
X3809339Y-2343353D01*
X3797198Y-2335631D01*
X3784142Y-2329535D01*
X3770477Y-2325065D01*
X3756355Y-2322372D01*
X3741978Y-2321458D01*
X3727653Y-2322372D01*
X3713530Y-2325065D01*
X3699814Y-2329535D01*
X3686810Y-2335631D01*
X3674668Y-2343353D01*
X3663594Y-2352497D01*
X3653739Y-2363012D01*
X3645306Y-2374646D01*
X3638346Y-2387244D01*
X3633063Y-2400604D01*
X3629507Y-2414524D01*
X3627678Y-2428798D01*
X3627678Y-2443175D01*
X3629507Y-2457450D01*
X3633063Y-2471420D01*
X3638346Y-2484780D01*
X3645306Y-2497378D01*
X3653739Y-2509012D01*
X3663594Y-2519476D01*
X3674668Y-2528671D01*
X3686810Y-2536393D01*
X3699814Y-2542489D01*
X3713530Y-2546959D01*
X3727653Y-2549652D01*
G37*
G36*
X2217978Y-2042515D02*
G01*
X2232355Y-2041652D01*
X2246477Y-2038959D01*
X2260142Y-2034489D01*
X2273198Y-2028393D01*
X2285339Y-2020671D01*
X2296414Y-2011476D01*
X2306269Y-2001012D01*
X2314702Y-1989378D01*
X2321610Y-1976780D01*
X2326944Y-1963420D01*
X2330500Y-1949450D01*
X2332329Y-1935175D01*
X2332329Y-1920798D01*
X2330500Y-1906524D01*
X2326944Y-1892604D01*
X2321610Y-1879244D01*
X2314702Y-1866646D01*
X2306269Y-1855012D01*
X2296414Y-1844497D01*
X2285339Y-1835353D01*
X2273198Y-1827631D01*
X2260142Y-1821535D01*
X2246477Y-1817065D01*
X2232355Y-1814372D01*
X2217978Y-1813458D01*
X2203653Y-1814372D01*
X2189530Y-1817065D01*
X2175814Y-1821535D01*
X2162810Y-1827631D01*
X2150668Y-1835353D01*
X2139594Y-1844497D01*
X2129739Y-1855012D01*
X2121306Y-1866646D01*
X2114346Y-1879244D01*
X2109063Y-1892604D01*
X2105507Y-1906524D01*
X2103678Y-1920798D01*
X2103678Y-1935175D01*
X2105507Y-1949450D01*
X2109063Y-1963420D01*
X2114346Y-1976780D01*
X2121306Y-1989378D01*
X2129739Y-2001012D01*
X2139594Y-2011476D01*
X2150668Y-2020671D01*
X2162810Y-2028393D01*
X2175814Y-2034489D01*
X2189530Y-2038959D01*
X2203653Y-2041652D01*
G37*
G36*
X3741978Y-2042515D02*
G01*
X3756355Y-2041652D01*
X3770477Y-2038959D01*
X3784142Y-2034489D01*
X3797198Y-2028393D01*
X3809339Y-2020671D01*
X3820414Y-2011476D01*
X3830269Y-2001012D01*
X3838701Y-1989378D01*
X3845610Y-1976780D01*
X3850944Y-1963420D01*
X3854500Y-1949450D01*
X3856329Y-1935175D01*
X3856329Y-1920798D01*
X3854500Y-1906524D01*
X3850944Y-1892604D01*
X3845610Y-1879244D01*
X3838701Y-1866646D01*
X3830269Y-1855012D01*
X3820414Y-1844497D01*
X3809339Y-1835353D01*
X3797198Y-1827631D01*
X3784142Y-1821535D01*
X3770477Y-1817065D01*
X3756355Y-1814372D01*
X3741978Y-1813458D01*
X3727653Y-1814372D01*
X3713530Y-1817065D01*
X3699814Y-1821535D01*
X3686810Y-1827631D01*
X3674668Y-1835353D01*
X3663594Y-1844497D01*
X3653739Y-1855012D01*
X3645306Y-1866646D01*
X3641699Y-1873148D01*
X3639464Y-1875942D01*
X3636416Y-1877771D01*
X3632911Y-1878431D01*
X3565042Y-1878990D01*
X3561130Y-1878279D01*
X3557778Y-1876043D01*
X2352446Y-670712D01*
X2349042Y-667562D01*
X2345537Y-664870D01*
X2341778Y-662533D01*
X2337866Y-660450D01*
X2333802Y-658774D01*
X2329586Y-657453D01*
X2325268Y-656488D01*
X2320899Y-655929D01*
X2316276Y-655726D01*
X1881632Y-655726D01*
X1870862Y-652830D01*
X1867001Y-650798D01*
X1864309Y-647293D01*
X1863343Y-643026D01*
X1864309Y-638708D01*
X1867001Y-635203D01*
X1870862Y-633171D01*
X1876196Y-631748D01*
X1877618Y-631088D01*
X1881886Y-630174D01*
X2424328Y-630174D01*
X2428189Y-630936D01*
X2431491Y-633120D01*
X3504031Y-1705660D01*
X3507435Y-1708810D01*
X3510940Y-1711502D01*
X3514699Y-1713839D01*
X3518611Y-1715922D01*
X3522675Y-1717598D01*
X3526891Y-1718919D01*
X3531209Y-1719884D01*
X3535578Y-1720443D01*
X3540201Y-1720646D01*
X3631184Y-1720646D01*
X3634740Y-1721307D01*
X3637838Y-1723136D01*
X3640124Y-1725930D01*
X3645306Y-1735378D01*
X3653739Y-1747012D01*
X3663594Y-1757476D01*
X3674668Y-1766671D01*
X3686810Y-1774393D01*
X3699814Y-1780489D01*
X3713530Y-1784959D01*
X3727653Y-1787652D01*
X3741978Y-1788515D01*
X3756355Y-1787652D01*
X3770477Y-1784959D01*
X3784142Y-1780489D01*
X3797198Y-1774393D01*
X3809339Y-1766671D01*
X3820414Y-1757476D01*
X3830269Y-1747012D01*
X3838701Y-1735378D01*
X3845610Y-1722780D01*
X3850944Y-1709420D01*
X3854500Y-1695450D01*
X3856329Y-1681175D01*
X3856329Y-1666798D01*
X3854500Y-1652524D01*
X3850944Y-1638604D01*
X3845610Y-1625244D01*
X3838701Y-1612646D01*
X3830269Y-1601012D01*
X3820414Y-1590497D01*
X3809339Y-1581353D01*
X3797198Y-1573631D01*
X3784142Y-1567535D01*
X3770477Y-1563065D01*
X3756355Y-1560372D01*
X3741978Y-1559458D01*
X3727653Y-1560372D01*
X3713530Y-1563065D01*
X3699814Y-1567535D01*
X3686810Y-1573631D01*
X3674668Y-1581353D01*
X3663594Y-1590497D01*
X3653739Y-1601012D01*
X3642258Y-1616862D01*
X3639159Y-1618691D01*
X3635603Y-1619351D01*
X3565194Y-1619351D01*
X3561283Y-1618589D01*
X3558032Y-1616354D01*
X2485491Y-543864D01*
X2482037Y-540715D01*
X2478532Y-538022D01*
X2474823Y-535635D01*
X2470912Y-533603D01*
X2466848Y-531926D01*
X2462631Y-530606D01*
X2458313Y-529640D01*
X2453894Y-529031D01*
X2449271Y-528828D01*
X1881886Y-528828D01*
X1877618Y-527913D01*
X1876196Y-527253D01*
X1870862Y-525830D01*
X1867001Y-523798D01*
X1864309Y-520293D01*
X1863343Y-516026D01*
X1864309Y-511708D01*
X1867001Y-508203D01*
X1870862Y-506171D01*
X1876196Y-504748D01*
X1877618Y-504088D01*
X1881886Y-503174D01*
X2547315Y-503174D01*
X2551226Y-503935D01*
X2554478Y-506120D01*
X3504031Y-1455674D01*
X3507435Y-1458772D01*
X3510940Y-1461465D01*
X3514699Y-1463852D01*
X3518611Y-1465884D01*
X3522675Y-1467612D01*
X3526891Y-1468932D01*
X3531209Y-1469898D01*
X3535578Y-1470456D01*
X3540201Y-1470660D01*
X3633419Y-1470660D01*
X3636924Y-1471269D01*
X3640023Y-1473098D01*
X3642309Y-1475943D01*
X3645306Y-1481378D01*
X3653739Y-1493012D01*
X3663594Y-1503476D01*
X3674668Y-1512671D01*
X3686810Y-1520393D01*
X3699814Y-1526489D01*
X3713530Y-1530959D01*
X3727653Y-1533652D01*
X3741978Y-1534515D01*
X3756355Y-1533652D01*
X3770477Y-1530959D01*
X3784142Y-1526489D01*
X3797198Y-1520393D01*
X3809339Y-1512671D01*
X3820414Y-1503476D01*
X3830269Y-1493012D01*
X3838701Y-1481378D01*
X3845610Y-1468780D01*
X3850944Y-1455420D01*
X3854500Y-1441450D01*
X3856329Y-1427175D01*
X3856329Y-1412798D01*
X3854500Y-1398524D01*
X3850944Y-1384604D01*
X3845610Y-1371244D01*
X3838701Y-1358646D01*
X3830269Y-1347012D01*
X3820414Y-1336497D01*
X3809339Y-1327353D01*
X3797198Y-1319631D01*
X3784142Y-1313535D01*
X3770477Y-1309065D01*
X3756355Y-1306372D01*
X3741978Y-1305458D01*
X3727653Y-1306372D01*
X3713530Y-1309065D01*
X3699814Y-1313535D01*
X3686810Y-1319631D01*
X3674668Y-1327353D01*
X3663594Y-1336497D01*
X3653739Y-1347012D01*
X3645306Y-1358646D01*
X3642309Y-1364081D01*
X3640023Y-1366875D01*
X3636924Y-1368704D01*
X3633419Y-1369364D01*
X3565194Y-1369364D01*
X3561283Y-1368552D01*
X3558032Y-1366367D01*
X2608478Y-416864D01*
X2605074Y-413715D01*
X2601569Y-411022D01*
X2597810Y-408635D01*
X2593898Y-406603D01*
X2589834Y-404926D01*
X2585618Y-403606D01*
X2581300Y-402640D01*
X2576931Y-402031D01*
X2572258Y-401828D01*
X1881886Y-401828D01*
X1877618Y-400913D01*
X1876196Y-400253D01*
X1870862Y-398830D01*
X1867001Y-396798D01*
X1864309Y-393293D01*
X1863343Y-389026D01*
X1864309Y-384708D01*
X1867001Y-381203D01*
X1870862Y-379171D01*
X1876196Y-377748D01*
X1877618Y-377088D01*
X1881886Y-376174D01*
X2680309Y-376174D01*
X2684221Y-376936D01*
X2687523Y-379120D01*
X3514039Y-1205636D01*
X3517442Y-1208786D01*
X3520948Y-1211478D01*
X3524656Y-1213866D01*
X3528618Y-1215898D01*
X3532682Y-1217574D01*
X3536899Y-1218895D01*
X3541217Y-1219860D01*
X3545586Y-1220470D01*
X3550208Y-1220673D01*
X3635603Y-1220673D01*
X3639159Y-1221282D01*
X3642258Y-1223111D01*
X3653739Y-1239012D01*
X3663594Y-1249476D01*
X3674668Y-1258671D01*
X3686810Y-1266393D01*
X3699814Y-1272489D01*
X3713530Y-1276959D01*
X3727653Y-1279652D01*
X3741978Y-1280515D01*
X3756355Y-1279652D01*
X3770477Y-1276959D01*
X3784142Y-1272489D01*
X3797198Y-1266393D01*
X3809339Y-1258671D01*
X3820414Y-1249476D01*
X3830269Y-1239012D01*
X3838701Y-1227378D01*
X3845610Y-1214780D01*
X3850944Y-1201420D01*
X3854500Y-1187450D01*
X3856329Y-1173175D01*
X3856329Y-1158798D01*
X3854500Y-1144524D01*
X3850944Y-1130604D01*
X3845610Y-1117244D01*
X3838701Y-1104646D01*
X3830269Y-1093012D01*
X3820414Y-1082497D01*
X3809339Y-1073353D01*
X3797198Y-1065631D01*
X3784142Y-1059535D01*
X3770477Y-1055065D01*
X3756355Y-1052372D01*
X3741978Y-1051458D01*
X3727653Y-1052372D01*
X3713530Y-1055065D01*
X3699814Y-1059535D01*
X3686810Y-1065631D01*
X3674668Y-1073353D01*
X3663594Y-1082497D01*
X3653739Y-1093012D01*
X3645306Y-1104646D01*
X3640124Y-1114094D01*
X3637838Y-1116888D01*
X3634740Y-1118717D01*
X3631184Y-1119327D01*
X3575202Y-1119327D01*
X3571290Y-1118565D01*
X3567988Y-1116380D01*
X2741472Y-289864D01*
X2738069Y-286715D01*
X2734564Y-284022D01*
X2730804Y-281635D01*
X2726893Y-279603D01*
X2722829Y-277926D01*
X2718612Y-276606D01*
X2714294Y-275640D01*
X2709926Y-275031D01*
X2705303Y-274828D01*
X1881886Y-274828D01*
X1877618Y-273913D01*
X1876196Y-273253D01*
X1866849Y-270713D01*
X1856739Y-269849D01*
X1737614Y-269849D01*
X1727504Y-270713D01*
X1718157Y-273253D01*
X1709369Y-277317D01*
X1701444Y-282905D01*
X1694586Y-289763D01*
X1688998Y-297688D01*
X1684934Y-306476D01*
X1682394Y-315823D01*
X1681581Y-325526D01*
X1682394Y-335178D01*
X1684934Y-344525D01*
X1688998Y-353314D01*
X1694586Y-361238D01*
X1701444Y-368096D01*
X1709369Y-373684D01*
X1718157Y-377748D01*
X1723491Y-379171D01*
X1727403Y-381203D01*
X1730044Y-384708D01*
X1731010Y-389026D01*
X1730044Y-393293D01*
X1727403Y-396798D01*
X1723491Y-398830D01*
X1718157Y-400253D01*
X1709369Y-404317D01*
X1701444Y-409905D01*
X1694586Y-416763D01*
X1688998Y-424688D01*
X1684934Y-433476D01*
X1682394Y-442823D01*
X1681581Y-452526D01*
X1682394Y-462178D01*
X1684934Y-471525D01*
X1688998Y-480314D01*
X1694586Y-488238D01*
X1701444Y-495096D01*
X1709369Y-500684D01*
X1718157Y-504748D01*
X1723491Y-506171D01*
X1727403Y-508203D01*
X1730044Y-511708D01*
X1731010Y-516026D01*
X1730044Y-520293D01*
X1727403Y-523798D01*
X1723491Y-525830D01*
X1718157Y-527253D01*
X1709369Y-531317D01*
X1701444Y-536905D01*
X1694586Y-543763D01*
X1688998Y-551688D01*
X1684934Y-560476D01*
X1682394Y-569823D01*
X1681581Y-579526D01*
X1682394Y-589178D01*
X1684934Y-598525D01*
X1688998Y-607314D01*
X1694586Y-615238D01*
X1701444Y-622096D01*
X1709369Y-627684D01*
X1718157Y-631748D01*
X1723491Y-633171D01*
X1727403Y-635203D01*
X1730044Y-638708D01*
X1731010Y-643026D01*
X1730044Y-647293D01*
X1727403Y-650798D01*
X1723491Y-652830D01*
X1718157Y-654253D01*
X1709369Y-658317D01*
X1701444Y-663905D01*
X1694586Y-670763D01*
X1688998Y-678688D01*
X1684934Y-687476D01*
X1682394Y-696823D01*
X1681581Y-706526D01*
X1682394Y-716178D01*
X1684934Y-725525D01*
X1688998Y-734314D01*
X1694586Y-742238D01*
X1701444Y-749096D01*
X1709369Y-754684D01*
X1718157Y-758748D01*
X1723491Y-760171D01*
X1727403Y-762203D01*
X1730044Y-765708D01*
X1731010Y-770026D01*
X1730044Y-774293D01*
X1727403Y-777798D01*
X1723491Y-779830D01*
X1718157Y-781253D01*
X1709369Y-785317D01*
X1701444Y-790905D01*
X1694586Y-797763D01*
X1688998Y-805688D01*
X1684934Y-814476D01*
X1682394Y-823823D01*
X1681581Y-833526D01*
X1682394Y-843178D01*
X1684934Y-852525D01*
X1688998Y-861314D01*
X1694586Y-869238D01*
X1701444Y-876096D01*
X1709369Y-881684D01*
X1718157Y-885748D01*
X1723491Y-887171D01*
X1727403Y-889203D01*
X1730044Y-892708D01*
X1731010Y-897026D01*
X1730044Y-901293D01*
X1727403Y-904798D01*
X1723491Y-906830D01*
X1718157Y-908253D01*
X1709369Y-912317D01*
X1701444Y-917905D01*
X1694586Y-924763D01*
X1688998Y-932687D01*
X1684934Y-941476D01*
X1682394Y-950823D01*
X1681581Y-960526D01*
X1682394Y-970178D01*
X1684934Y-979525D01*
X1688998Y-988314D01*
X1694586Y-996238D01*
X1701444Y-1003096D01*
X1709369Y-1008684D01*
X1718157Y-1012748D01*
X1723491Y-1014171D01*
X1727403Y-1016203D01*
X1730044Y-1019708D01*
X1731010Y-1024026D01*
X1730044Y-1028293D01*
X1727403Y-1031798D01*
X1723491Y-1033830D01*
X1718157Y-1035253D01*
X1709369Y-1039317D01*
X1701444Y-1044905D01*
X1694586Y-1051763D01*
X1688998Y-1059688D01*
X1684934Y-1068476D01*
X1682394Y-1077823D01*
X1681581Y-1087526D01*
X1682394Y-1097178D01*
X1684934Y-1106525D01*
X1688998Y-1115314D01*
X1694586Y-1123238D01*
X1701444Y-1130096D01*
X1709369Y-1135684D01*
X1718157Y-1139748D01*
X1723491Y-1141171D01*
X1727403Y-1143203D01*
X1730044Y-1146708D01*
X1731010Y-1151026D01*
X1730044Y-1155293D01*
X1727403Y-1158798D01*
X1723491Y-1160830D01*
X1718157Y-1162253D01*
X1709369Y-1166317D01*
X1701444Y-1171905D01*
X1694586Y-1178763D01*
X1688998Y-1186688D01*
X1686001Y-1193139D01*
X1745843Y-1193139D01*
X1745843Y-1153312D01*
X1746605Y-1149451D01*
X1748789Y-1146149D01*
X1752092Y-1143914D01*
X1756003Y-1143152D01*
X1838350Y-1143152D01*
X1842262Y-1143914D01*
X1845564Y-1146149D01*
X1847748Y-1149451D01*
X1848510Y-1153312D01*
X1848510Y-1193139D01*
X1908352Y-1193139D01*
X1905355Y-1186688D01*
X1899767Y-1178763D01*
X1892909Y-1171905D01*
X1884984Y-1166317D01*
X1876196Y-1162253D01*
X1870862Y-1160830D01*
X1867001Y-1158798D01*
X1864309Y-1155293D01*
X1863343Y-1151026D01*
X1864309Y-1146708D01*
X1867001Y-1143203D01*
X1870862Y-1141171D01*
X1876196Y-1139748D01*
X1884984Y-1135684D01*
X1892909Y-1130096D01*
X1899767Y-1123238D01*
X1905355Y-1115314D01*
X1909419Y-1106525D01*
X1911959Y-1097178D01*
X1912772Y-1087526D01*
X1911959Y-1077823D01*
X1909419Y-1068476D01*
X1905355Y-1059688D01*
X1899767Y-1051763D01*
X1892909Y-1044905D01*
X1884984Y-1039317D01*
X1876196Y-1035253D01*
X1870862Y-1033830D01*
X1867001Y-1031798D01*
X1864309Y-1028293D01*
X1863343Y-1024026D01*
X1864309Y-1019708D01*
X1867001Y-1016203D01*
X1870862Y-1014171D01*
X1876196Y-1012748D01*
X1884984Y-1008684D01*
X1892909Y-1003096D01*
X1899767Y-996238D01*
X1905355Y-988314D01*
X1909419Y-979525D01*
X1911959Y-970178D01*
X1912772Y-960526D01*
X1911959Y-950823D01*
X1909419Y-941476D01*
X1905355Y-932687D01*
X1899767Y-924763D01*
X1892909Y-917905D01*
X1884984Y-912317D01*
X1876196Y-908253D01*
X1870862Y-906830D01*
X1867001Y-904798D01*
X1864309Y-901293D01*
X1863343Y-897026D01*
X1864309Y-892708D01*
X1867001Y-889203D01*
X1870862Y-887171D01*
X1876196Y-885748D01*
X1884984Y-881684D01*
X1892909Y-876096D01*
X1899767Y-869238D01*
X1905355Y-861314D01*
X1909419Y-852525D01*
X1911959Y-843178D01*
X1912772Y-833526D01*
X1911959Y-823823D01*
X1909419Y-814476D01*
X1905355Y-805688D01*
X1899767Y-797763D01*
X1892909Y-790905D01*
X1884984Y-785317D01*
X1876196Y-781253D01*
X1870862Y-779830D01*
X1867001Y-777798D01*
X1864309Y-774293D01*
X1863343Y-770026D01*
X1864309Y-765708D01*
X1867001Y-762203D01*
X1870862Y-760171D01*
X1876196Y-758748D01*
X1877872Y-757986D01*
X1882190Y-757021D01*
X2291283Y-757021D01*
X2295194Y-757783D01*
X2298496Y-760018D01*
X3504031Y-1965553D01*
X3507841Y-1969007D01*
X3510889Y-1971344D01*
X3515106Y-1973986D01*
X3518560Y-1975764D01*
X3523132Y-1977643D01*
X3526840Y-1978812D01*
X3531666Y-1979828D01*
X3535527Y-1980336D01*
X3540709Y-1980539D01*
X3633876Y-1979726D01*
X3637483Y-1980336D01*
X3640582Y-1982165D01*
X3642868Y-1985010D01*
X3645306Y-1989378D01*
X3653739Y-2001012D01*
X3663594Y-2011476D01*
X3674668Y-2020671D01*
X3686810Y-2028393D01*
X3699814Y-2034489D01*
X3713530Y-2038959D01*
X3727653Y-2041652D01*
G37*
G36*
X2217978Y-1788515D02*
G01*
X2232355Y-1787652D01*
X2246477Y-1784959D01*
X2260142Y-1780489D01*
X2273198Y-1774393D01*
X2285339Y-1766671D01*
X2296414Y-1757476D01*
X2306269Y-1747012D01*
X2314702Y-1735378D01*
X2321610Y-1722780D01*
X2326944Y-1709420D01*
X2330500Y-1695450D01*
X2332329Y-1681175D01*
X2332329Y-1666798D01*
X2330500Y-1652524D01*
X2326944Y-1638604D01*
X2321610Y-1625244D01*
X2314702Y-1612646D01*
X2306269Y-1601012D01*
X2296414Y-1590497D01*
X2285339Y-1581353D01*
X2273198Y-1573631D01*
X2260142Y-1567535D01*
X2246477Y-1563065D01*
X2232355Y-1560372D01*
X2217978Y-1559458D01*
X2203653Y-1560372D01*
X2189530Y-1563065D01*
X2175814Y-1567535D01*
X2162810Y-1573631D01*
X2150668Y-1581353D01*
X2139594Y-1590497D01*
X2129739Y-1601012D01*
X2121306Y-1612646D01*
X2114346Y-1625244D01*
X2109063Y-1638604D01*
X2105507Y-1652524D01*
X2103678Y-1666798D01*
X2103678Y-1681175D01*
X2105507Y-1695450D01*
X2109063Y-1709420D01*
X2114346Y-1722780D01*
X2121306Y-1735378D01*
X2129739Y-1747012D01*
X2139594Y-1757476D01*
X2150668Y-1766671D01*
X2162810Y-1774393D01*
X2175814Y-1780489D01*
X2189530Y-1784959D01*
X2203653Y-1787652D01*
G37*
G36*
X2217978Y-1534515D02*
G01*
X2232355Y-1533652D01*
X2246477Y-1530959D01*
X2260142Y-1526489D01*
X2273198Y-1520393D01*
X2285339Y-1512671D01*
X2296414Y-1503476D01*
X2306269Y-1493012D01*
X2314702Y-1481378D01*
X2321610Y-1468780D01*
X2326944Y-1455420D01*
X2330500Y-1441450D01*
X2332329Y-1427175D01*
X2332329Y-1412798D01*
X2330500Y-1398524D01*
X2326944Y-1384604D01*
X2321610Y-1371244D01*
X2314702Y-1358646D01*
X2306269Y-1347012D01*
X2296414Y-1336497D01*
X2285339Y-1327353D01*
X2273198Y-1319631D01*
X2260142Y-1313535D01*
X2246477Y-1309065D01*
X2232355Y-1306372D01*
X2217978Y-1305458D01*
X2203653Y-1306372D01*
X2189530Y-1309065D01*
X2175814Y-1313535D01*
X2162810Y-1319631D01*
X2150668Y-1327353D01*
X2139594Y-1336497D01*
X2129739Y-1347012D01*
X2121306Y-1358646D01*
X2114346Y-1371244D01*
X2109063Y-1384604D01*
X2105507Y-1398524D01*
X2103678Y-1412798D01*
X2103678Y-1427175D01*
X2105507Y-1441450D01*
X2109063Y-1455420D01*
X2114346Y-1468780D01*
X2121306Y-1481378D01*
X2129739Y-1493012D01*
X2139594Y-1503476D01*
X2150668Y-1512671D01*
X2162810Y-1520393D01*
X2175814Y-1526489D01*
X2189530Y-1530959D01*
X2203653Y-1533652D01*
G37*
G36*
X2217978Y-1280515D02*
G01*
X2232355Y-1279652D01*
X2246477Y-1276959D01*
X2260142Y-1272489D01*
X2273198Y-1266393D01*
X2285339Y-1258671D01*
X2296414Y-1249476D01*
X2306269Y-1239012D01*
X2314702Y-1227378D01*
X2321610Y-1214780D01*
X2326944Y-1201420D01*
X2330500Y-1187450D01*
X2332329Y-1173175D01*
X2332329Y-1158798D01*
X2330500Y-1144524D01*
X2326944Y-1130604D01*
X2321610Y-1117244D01*
X2314702Y-1104646D01*
X2306269Y-1093012D01*
X2296414Y-1082497D01*
X2285339Y-1073353D01*
X2273198Y-1065631D01*
X2260142Y-1059535D01*
X2246477Y-1055065D01*
X2232355Y-1052372D01*
X2217978Y-1051458D01*
X2203653Y-1052372D01*
X2189530Y-1055065D01*
X2175814Y-1059535D01*
X2162810Y-1065631D01*
X2150668Y-1073353D01*
X2139594Y-1082497D01*
X2129739Y-1093012D01*
X2121306Y-1104646D01*
X2114346Y-1117244D01*
X2109063Y-1130604D01*
X2105507Y-1144524D01*
X2103678Y-1158798D01*
X2103678Y-1173175D01*
X2105507Y-1187450D01*
X2109063Y-1201420D01*
X2114346Y-1214780D01*
X2121306Y-1227378D01*
X2129739Y-1239012D01*
X2139594Y-1249476D01*
X2150668Y-1258671D01*
X2162810Y-1266393D01*
X2175814Y-1272489D01*
X2189530Y-1276959D01*
X2203653Y-1279652D01*
G37*
G36*
X1848510Y-1270152D02*
G01*
X1856739Y-1270152D01*
X1866849Y-1269288D01*
X1876196Y-1266748D01*
X1884984Y-1262684D01*
X1892909Y-1257096D01*
X1899767Y-1250238D01*
X1905355Y-1242314D01*
X1908352Y-1235862D01*
X1848510Y-1235862D01*
G37*
G36*
X1737614Y-1270152D02*
G01*
X1745843Y-1270152D01*
X1745843Y-1235862D01*
X1686001Y-1235862D01*
X1688998Y-1242314D01*
X1694586Y-1250238D01*
X1701444Y-1257096D01*
X1709369Y-1262684D01*
X1718157Y-1266748D01*
X1727504Y-1269288D01*
G37*
G36*
X2217978Y-1026515D02*
G01*
X2232355Y-1025652D01*
X2246477Y-1022959D01*
X2260142Y-1018489D01*
X2273198Y-1012393D01*
X2285339Y-1004671D01*
X2296414Y-995476D01*
X2306269Y-985012D01*
X2314702Y-973378D01*
X2321610Y-960780D01*
X2326944Y-947419D01*
X2330500Y-933450D01*
X2332329Y-919175D01*
X2332329Y-904798D01*
X2330500Y-890524D01*
X2326944Y-876604D01*
X2321610Y-863244D01*
X2314702Y-850646D01*
X2306269Y-839012D01*
X2296414Y-828497D01*
X2285339Y-819353D01*
X2273198Y-811631D01*
X2260142Y-805535D01*
X2246477Y-801065D01*
X2232355Y-798372D01*
X2217978Y-797458D01*
X2203653Y-798372D01*
X2189530Y-801065D01*
X2175814Y-805535D01*
X2162810Y-811631D01*
X2150668Y-819353D01*
X2139594Y-828497D01*
X2129739Y-839012D01*
X2121306Y-850646D01*
X2114346Y-863244D01*
X2109063Y-876604D01*
X2105507Y-890524D01*
X2103678Y-904798D01*
X2103678Y-919175D01*
X2105507Y-933450D01*
X2109063Y-947419D01*
X2114346Y-960780D01*
X2121306Y-973378D01*
X2129739Y-985012D01*
X2139594Y-995476D01*
X2150668Y-1004671D01*
X2162810Y-1012393D01*
X2175814Y-1018489D01*
X2189530Y-1022959D01*
X2203653Y-1025652D01*
G37*
G36*
X3741978Y-1026515D02*
G01*
X3756355Y-1025652D01*
X3770477Y-1022959D01*
X3784142Y-1018489D01*
X3797198Y-1012393D01*
X3809339Y-1004671D01*
X3820414Y-995476D01*
X3830269Y-985012D01*
X3838701Y-973378D01*
X3845610Y-960780D01*
X3850944Y-947419D01*
X3854500Y-933450D01*
X3856329Y-919175D01*
X3856329Y-904798D01*
X3854500Y-890524D01*
X3850944Y-876604D01*
X3845610Y-863244D01*
X3838701Y-850646D01*
X3830269Y-839012D01*
X3820414Y-828497D01*
X3809339Y-819353D01*
X3797198Y-811631D01*
X3784142Y-805535D01*
X3770477Y-801065D01*
X3756355Y-798372D01*
X3741978Y-797458D01*
X3727653Y-798372D01*
X3713530Y-801065D01*
X3699814Y-805535D01*
X3686810Y-811631D01*
X3674668Y-819353D01*
X3663594Y-828497D01*
X3653739Y-839012D01*
X3645306Y-850646D01*
X3638346Y-863244D01*
X3633063Y-876604D01*
X3629507Y-890524D01*
X3627678Y-904798D01*
X3627678Y-919175D01*
X3629507Y-933450D01*
X3633063Y-947419D01*
X3638346Y-960780D01*
X3645306Y-973378D01*
X3653739Y-985012D01*
X3663594Y-995476D01*
X3674668Y-1004671D01*
X3686810Y-1012393D01*
X3699814Y-1018489D01*
X3713530Y-1022959D01*
X3727653Y-1025652D01*
G37*
G36*
X340004Y-867714D02*
G01*
X352196Y-866851D01*
X364134Y-864260D01*
X375564Y-859993D01*
X386283Y-854151D01*
X396087Y-846785D01*
X404723Y-838149D01*
X408838Y-832662D01*
X411886Y-829970D01*
X414070Y-829259D01*
X413766Y-826922D01*
X414985Y-823010D01*
X417880Y-817676D01*
X422148Y-806196D01*
X424738Y-794258D01*
X425653Y-782116D01*
X424738Y-769924D01*
X422148Y-757986D01*
X417880Y-746506D01*
X412038Y-735787D01*
X404723Y-726033D01*
X396087Y-717397D01*
X386283Y-710031D01*
X375564Y-704189D01*
X364134Y-699922D01*
X352196Y-697331D01*
X340004Y-696468D01*
X327812Y-697331D01*
X315874Y-699922D01*
X304444Y-704189D01*
X293725Y-710031D01*
X283921Y-717397D01*
X275285Y-726033D01*
X267970Y-735787D01*
X262128Y-746506D01*
X257860Y-757986D01*
X255270Y-769924D01*
X254355Y-782116D01*
X255270Y-794258D01*
X257860Y-806196D01*
X262128Y-817676D01*
X267970Y-828395D01*
X275285Y-838149D01*
X283921Y-846785D01*
X293725Y-854151D01*
X304444Y-859993D01*
X315874Y-864260D01*
X327812Y-866851D01*
G37*
G36*
X3690569Y-485393D02*
G01*
X3709415Y-485393D01*
X3728110Y-483514D01*
X3746500Y-479704D01*
X3764483Y-474065D01*
X3781755Y-466648D01*
X3798214Y-457555D01*
X3813606Y-446785D01*
X3827881Y-434543D01*
X3840835Y-420928D01*
X3852367Y-406044D01*
X3862324Y-390093D01*
X3870604Y-373227D01*
X3877106Y-355549D01*
X3881831Y-337362D01*
X3884676Y-318770D01*
X3885641Y-300024D01*
X3884676Y-281228D01*
X3881831Y-262636D01*
X3877106Y-244449D01*
X3870604Y-226771D01*
X3862324Y-209905D01*
X3852367Y-193954D01*
X3840835Y-179070D01*
X3827881Y-165455D01*
X3813606Y-153212D01*
X3798214Y-142443D01*
X3781755Y-133350D01*
X3764483Y-125933D01*
X3746500Y-120294D01*
X3728110Y-116484D01*
X3709415Y-114604D01*
X3690569Y-114604D01*
X3671874Y-116484D01*
X3653485Y-120294D01*
X3635501Y-125933D01*
X3618229Y-133350D01*
X3601770Y-142443D01*
X3586378Y-153212D01*
X3572103Y-165455D01*
X3559149Y-179070D01*
X3547618Y-193954D01*
X3537661Y-209905D01*
X3529380Y-226771D01*
X3522878Y-244449D01*
X3518154Y-262636D01*
X3515309Y-281228D01*
X3514344Y-300024D01*
X3515309Y-318770D01*
X3518154Y-337362D01*
X3522878Y-355549D01*
X3529380Y-373227D01*
X3537661Y-390093D01*
X3547618Y-406044D01*
X3559149Y-420928D01*
X3572103Y-434543D01*
X3586378Y-446785D01*
X3601770Y-457555D01*
X3618229Y-466648D01*
X3635501Y-474065D01*
X3653485Y-479704D01*
X3671874Y-483514D01*
G37*
G36*
X290576Y-485393D02*
G01*
X309422Y-485393D01*
X328117Y-483514D01*
X346506Y-479704D01*
X364490Y-474065D01*
X381762Y-466648D01*
X398221Y-457555D01*
X413613Y-446785D01*
X427888Y-434543D01*
X440842Y-420928D01*
X452374Y-406044D01*
X462330Y-390093D01*
X470611Y-373227D01*
X477113Y-355549D01*
X481838Y-337362D01*
X484682Y-318770D01*
X485648Y-300024D01*
X484682Y-281228D01*
X481838Y-262636D01*
X477113Y-244449D01*
X470611Y-226771D01*
X462330Y-209905D01*
X452374Y-193954D01*
X440842Y-179070D01*
X427888Y-165455D01*
X413613Y-153212D01*
X398221Y-142443D01*
X381762Y-133350D01*
X364490Y-125933D01*
X346506Y-120294D01*
X328117Y-116484D01*
X309422Y-114604D01*
X290576Y-114604D01*
X271881Y-116484D01*
X253492Y-120294D01*
X235508Y-125933D01*
X218236Y-133350D01*
X201777Y-142443D01*
X186385Y-153212D01*
X172110Y-165455D01*
X159156Y-179070D01*
X147624Y-193954D01*
X137668Y-209905D01*
X129387Y-226771D01*
X122885Y-244449D01*
X118160Y-262636D01*
X115316Y-281228D01*
X114350Y-300024D01*
X115316Y-318770D01*
X118160Y-337362D01*
X122885Y-355549D01*
X129387Y-373227D01*
X137668Y-390093D01*
X147624Y-406044D01*
X159156Y-420928D01*
X172110Y-434543D01*
X186385Y-446785D01*
X201777Y-457555D01*
X218236Y-466648D01*
X235508Y-474065D01*
X253492Y-479704D01*
X271881Y-483514D01*
G37*

%LPD*%
D24*
X2390140Y-6489954D02*
G01*
X2510002Y-6490002D01*
X2770002Y-6890004D01*
X2926079Y-6890004D01*
X1869998Y-3839997D02*
G01*
X1869998Y-4190009D01*
X3408685Y-5817994D02*
G01*
X3434003Y-5843313D01*
X3434003Y-6890004D01*
X3408679Y-5588000D02*
G01*
X2788920Y-5588000D01*
X2440025Y-5670016D02*
G01*
X2706898Y-5670016D01*
X2788914Y-5588000D01*
D11*
X3020059Y-4800092D02*
G01*
X3020059Y-5009895D01*
X2788920Y-5242813D01*
D12*
X2445004Y-4925568D02*
G01*
X2570568Y-4800003D01*
X2700002Y-4800003D01*
X2900011Y-4599993D01*
X3020011Y-4599993D01*
D11*
X1690014Y-3180003D02*
G01*
X1926160Y-2943857D01*
X2218009Y-2943857D01*
X1670009Y-4189999D02*
G01*
X1670006Y-4190001D01*
X1449999Y-4190001D01*
D24*
X2218004Y-3706012D02*
G01*
X2084021Y-3839994D01*
X1869993Y-3839994D01*
X3408685Y-5817994D02*
G01*
X3630797Y-5817994D01*
X3683000Y-5765800D01*
X3683000Y-4749800D01*
X3022600Y-4089400D01*
X2601391Y-4089400D01*
X2218004Y-3706012D01*
D11*
X1670009Y-4189999D02*
G01*
X1670001Y-4400001D01*
X1700001Y-4430001D01*
X1920001Y-4430001D01*
X2165631Y-4675631D01*
X2540000Y-4675631D01*
X1759204Y-5077713D02*
G01*
X1830070Y-5150104D01*
X2020061Y-5150104D01*
X2189988Y-5320029D01*
X2389987Y-5320009D02*
G01*
X2389987Y-5290708D01*
X2549895Y-5130800D01*
X1949195Y-4925568D02*
G01*
X2004568Y-4925568D01*
X2209800Y-5130800D01*
X2619898Y-5130800D01*
X2788920Y-5299821D01*
D12*
X2444998Y-4925565D02*
G01*
X2315964Y-5054600D01*
X2311400Y-5054600D01*
D11*
X2635001Y-4925565D02*
G01*
X2788920Y-5079484D01*
X2788920Y-5588000D01*
D24*
X2390013Y-6070015D02*
G01*
X3097733Y-6070015D01*
X3433998Y-6406281D01*
D11*
X1747179Y-579501D02*
G01*
X2449502Y-579501D01*
X3540003Y-1670001D01*
X3738001Y-1670001D01*
X3742001Y-1674002D01*
X1747179Y-452501D02*
G01*
X2572504Y-452501D01*
X3540003Y-1419999D01*
X3741999Y-1419999D01*
X1747179Y-325501D02*
G01*
X2705503Y-325501D01*
X3550003Y-1170000D01*
X3738003Y-1170000D01*
X3742001Y-1166002D01*
X1747265Y-706373D02*
G01*
X2316479Y-706373D01*
X3539997Y-1929892D01*
X3741927Y-1928113D01*
X1202822Y-706501D02*
G01*
X1063500Y-706501D01*
X1020000Y-750001D01*
X1020000Y-1540002D01*
X860000Y-1700001D01*
X543999Y-1700001D01*
X540001Y-1703999D01*
X1202822Y-325501D02*
G01*
X924501Y-325501D01*
X540001Y-710001D01*
X540001Y-941999D01*
X1202944Y-452373D02*
G01*
X977392Y-452373D01*
X769873Y-659892D01*
X769873Y-1109979D01*
X690118Y-1189989D01*
X546100Y-1189989D01*
X540004Y-1196086D01*
X1202944Y-579373D02*
G01*
X1010412Y-579373D01*
X899921Y-690118D01*
X899921Y-1379981D01*
X839978Y-1439926D01*
X549910Y-1439926D01*
X540004Y-1450086D01*
X1583004Y-5349011D02*
G01*
X1759204Y-5172811D01*
X1759204Y-4925565D01*
X2580002Y-5330002D02*
G01*
X2788920Y-5538919D01*
X2788920Y-5588000D01*
D22*
X1680994Y-7570012D02*
G01*
X2169007Y-7570012D01*
X2269007Y-7670012D01*
X1680971Y-7569962D02*
G01*
X1679955Y-7100062D01*
X1890013Y-6890004D01*
X2926079Y-6890004D01*
X1680580Y-7388684D02*
G01*
X1151900Y-6860004D01*
X489999Y-6860004D01*
X209999Y-6580004D01*
X209999Y-2288090D01*
X540004Y-1958086D01*
D25*
X1202689Y-1214373D02*
G01*
X1202689Y-1817115D01*
X1059942Y-1960118D01*
X540004Y-1958086D01*
D11*
X1854200Y-4675631D02*
G01*
X1665630Y-4675631D01*
X1289999Y-4300001D01*
X1289999Y-4070004D01*
X1520007Y-3839997D01*
X1669999Y-3839997D01*
X1670050Y-3839971D02*
G01*
X1549907Y-3720084D01*
X1549907Y-3139947D01*
X1999995Y-2690113D01*
X2217927Y-2690113D01*
D13*
X759968Y-3100070D02*
G01*
X1260094Y-3100070D01*
X2050034Y-2309876D01*
X3409950Y-2309876D01*
X3537965Y-2182113D01*
X3741927Y-2182113D01*
D26*
X1262816Y-1214501D02*
G01*
X1142817Y-1214501D01*
X1262816Y-1087501D02*
G01*
X1142817Y-1087501D01*
X1262816Y-960501D02*
G01*
X1142817Y-960501D01*
X1262816Y-833501D02*
G01*
X1142817Y-833501D01*
X1262816Y-706501D02*
G01*
X1142817Y-706501D01*
X1262816Y-579501D02*
G01*
X1142817Y-579501D01*
X1262816Y-452501D02*
G01*
X1142817Y-452501D01*
X1262816Y-325501D02*
G01*
X1142817Y-325501D01*
X1857176Y-1214501D02*
G01*
X1737177Y-1214501D01*
X1857176Y-1087501D02*
G01*
X1737177Y-1087501D01*
X1857176Y-960501D02*
G01*
X1737177Y-960501D01*
X1857176Y-833501D02*
G01*
X1737177Y-833501D01*
X1857176Y-706501D02*
G01*
X1737177Y-706501D01*
X1857176Y-579501D02*
G01*
X1737177Y-579501D01*
X1857176Y-452501D02*
G01*
X1737177Y-452501D01*
X1857176Y-325501D02*
G01*
X1737177Y-325501D01*
G36*
X2500010Y-5600004D02*
G01*
X2380010Y-5600004D01*
X2380010Y-5740003D01*
X2500010Y-5740003D01*
G37*
G36*
X2179990Y-5600004D02*
G01*
X2059990Y-5600004D01*
X2059990Y-5740003D01*
X2179990Y-5740003D01*
G37*
G36*
X2678920Y-5412999D02*
G01*
X2678920Y-5763000D01*
X2898919Y-5763000D01*
X2898919Y-5412999D01*
G37*
G36*
X3298680Y-5763000D02*
G01*
X3298680Y-5873000D01*
X3518679Y-5873000D01*
X3518679Y-5763000D01*
G37*
G36*
X3298680Y-5532998D02*
G01*
X3298680Y-5643001D01*
X3518679Y-5643001D01*
X3518679Y-5532998D01*
G37*
G36*
X3298680Y-5302999D02*
G01*
X3298680Y-5412999D01*
X3518679Y-5412999D01*
X3518679Y-5302999D01*
G37*
G36*
X2440000Y-6412501D02*
G01*
X2340000Y-6412501D01*
X2340000Y-6567502D01*
X2440000Y-6567502D01*
G37*
G36*
X2240000Y-6412501D02*
G01*
X2140000Y-6412501D01*
X2140000Y-6567502D01*
X2240000Y-6567502D01*
G37*
G36*
X2440000Y-5992502D02*
G01*
X2340000Y-5992502D01*
X2340000Y-6147503D01*
X2440000Y-6147503D01*
G37*
G36*
X2240000Y-5992502D02*
G01*
X2140000Y-5992502D01*
X2140000Y-6147503D01*
X2240000Y-6147503D01*
G37*
G36*
X2504998Y-4738131D02*
G01*
X2575001Y-4738131D01*
X2575001Y-4613132D01*
X2504998Y-4613132D01*
G37*
G36*
X2410002Y-4988067D02*
G01*
X2480005Y-4988067D01*
X2480005Y-4863068D01*
X2410002Y-4863068D01*
G37*
G36*
X2599994Y-4988067D02*
G01*
X2669997Y-4988067D01*
X2669997Y-4863068D01*
X2599994Y-4863068D01*
G37*
G36*
X1819198Y-4738131D02*
G01*
X1889201Y-4738131D01*
X1889201Y-4613132D01*
X1819198Y-4613132D01*
G37*
G36*
X1724202Y-4988067D02*
G01*
X1794205Y-4988067D01*
X1794205Y-4863068D01*
X1724202Y-4863068D01*
G37*
G36*
X1914194Y-4988067D02*
G01*
X1984197Y-4988067D01*
X1984197Y-4863068D01*
X1914194Y-4863068D01*
G37*
G36*
X2942501Y-4750003D02*
G01*
X2942501Y-4850003D01*
X3097502Y-4850003D01*
X3097502Y-4750003D01*
G37*
G36*
X2942501Y-4550003D02*
G01*
X2942501Y-4650003D01*
X3097502Y-4650003D01*
X3097502Y-4550003D01*
G37*
G36*
X1820001Y-4267502D02*
G01*
X1920001Y-4267502D01*
X1920001Y-4112501D01*
X1820001Y-4112501D01*
G37*
G36*
X1620001Y-4267502D02*
G01*
X1720001Y-4267502D01*
X1720001Y-4112501D01*
X1620001Y-4112501D01*
G37*
G36*
X2340000Y-5397502D02*
G01*
X2440000Y-5397502D01*
X2440000Y-5242501D01*
X2340000Y-5242501D01*
G37*
G36*
X2140000Y-5397502D02*
G01*
X2240000Y-5397502D01*
X2240000Y-5242501D01*
X2140000Y-5242501D01*
G37*
G36*
X1820001Y-3917502D02*
G01*
X1920001Y-3917502D01*
X1920001Y-3762502D01*
X1820001Y-3762502D01*
G37*
G36*
X1620001Y-3917502D02*
G01*
X1720001Y-3917502D01*
X1720001Y-3762502D01*
X1620001Y-3762502D01*
G37*
D16*
G01*
X499008Y-4580991D03*
G01*
X753008Y-4580991D03*
G01*
X499008Y-3818991D03*
G01*
X753008Y-3818991D03*
G01*
X1007008Y-4580991D03*
G01*
X1261008Y-4580991D03*
G01*
X1007008Y-3818991D03*
G01*
X1261008Y-3818991D03*
D17*
G01*
X540004Y-942086D03*
D16*
G01*
X540004Y-1196086D03*
G01*
X540004Y-1450086D03*
G01*
X540004Y-1704086D03*
G01*
X540004Y-1958086D03*
D17*
G01*
X1837004Y-5349011D03*
D16*
G01*
X1837004Y-5603011D03*
G01*
X1837004Y-5857011D03*
G01*
X1837004Y-6111011D03*
G01*
X1583004Y-6111011D03*
G01*
X1583004Y-5857011D03*
G01*
X1583004Y-5603011D03*
G01*
X1583004Y-5349011D03*
D18*
G01*
X3742004Y-4468012D03*
D19*
G01*
X3742004Y-4214012D03*
G01*
X3742004Y-3960012D03*
G01*
X3742004Y-3706012D03*
G01*
X3742004Y-3452012D03*
G01*
X3742004Y-3198012D03*
G01*
X3742004Y-2944012D03*
G01*
X3742004Y-2690012D03*
G01*
X3742004Y-2436012D03*
G01*
X3742004Y-2182012D03*
G01*
X3742004Y-1928012D03*
G01*
X3742004Y-1674012D03*
G01*
X3742004Y-1420012D03*
G01*
X3742004Y-1166012D03*
G01*
X3742004Y-912012D03*
G01*
X2218004Y-4468012D03*
G01*
X2218004Y-4214012D03*
G01*
X2218004Y-3960012D03*
G01*
X2218004Y-3706012D03*
G01*
X2218004Y-3452012D03*
G01*
X2218004Y-3198012D03*
G01*
X2218004Y-2944012D03*
G01*
X2218004Y-2690012D03*
G01*
X2218004Y-2436012D03*
G01*
X2218004Y-2182012D03*
G01*
X2218004Y-1928012D03*
G01*
X2218004Y-1674012D03*
G01*
X2218004Y-1420012D03*
G01*
X2218004Y-1166012D03*
G01*
X2218004Y-912012D03*
G36*
X2825925Y-6765036D02*
G01*
X3026077Y-6765036D01*
X3026077Y-7014971D01*
X2825925Y-7014971D01*
G37*
D17*
G01*
X540004Y-2599994D03*
D16*
G01*
X540004Y-2850006D03*
G01*
X540004Y-3100019D03*
D21*
G01*
X918997Y-7570012D03*
D22*
G01*
X1172997Y-7570012D03*
G01*
X1426997Y-7570012D03*
G01*
X1680997Y-7570012D03*
G36*
X2946003Y-7585003D02*
G01*
X3116005Y-7585003D01*
X3116005Y-7755006D01*
X2946003Y-7755006D01*
G37*
G01*
X2777007Y-7670012D03*
G01*
X2523007Y-7670012D03*
G01*
X2269007Y-7670012D03*
D14*
G01*
X1690014Y-3180003D03*
G01*
X1450009Y-4190009D03*
G01*
X2311400Y-5054600D03*
G01*
X2580004Y-5330012D03*
D15*
G01*
X759993Y-3099993D03*
D14*
G01*
X106959Y-106959D03*
G01*
X106959Y-614959D03*
G01*
X106959Y-1122959D03*
G01*
X106959Y-1630959D03*
G01*
X106959Y-2138959D03*
G01*
X106959Y-7218959D03*
G01*
X614959Y-106959D03*
G01*
X614959Y-2138959D03*
G01*
X614959Y-4170959D03*
G01*
X614959Y-5186959D03*
G01*
X614959Y-5694959D03*
G01*
X614959Y-6202959D03*
G01*
X614959Y-7218959D03*
G01*
X614959Y-7726959D03*
G01*
X1122959Y-106959D03*
G01*
X1122959Y-4170959D03*
G01*
X1122959Y-5186959D03*
G01*
X1122959Y-5694959D03*
G01*
X1122959Y-6202959D03*
G01*
X1630959Y-106959D03*
G01*
X1630959Y-614959D03*
G01*
X1630959Y-1122959D03*
G01*
X1630959Y-1630959D03*
G01*
X1630959Y-6710959D03*
G01*
X2138959Y-106959D03*
G01*
X2138959Y-6710959D03*
G01*
X2646959Y-106959D03*
G01*
X2646959Y-1630959D03*
G01*
X3154959Y-106959D03*
G01*
X3154959Y-614959D03*
G01*
X3154959Y-3662959D03*
G01*
X3154959Y-5186959D03*
G01*
X3154959Y-7218959D03*
G01*
X3662959Y-614959D03*
G01*
X3662959Y-6202959D03*
G01*
X106959Y-106959D03*
G01*
X106959Y-614959D03*
G01*
X106959Y-1122959D03*
G01*
X106959Y-1630959D03*
G01*
X106959Y-2138959D03*
G01*
X106959Y-7218959D03*
G01*
X614959Y-106959D03*
G01*
X614959Y-2138959D03*
G01*
X614959Y-4170959D03*
G01*
X614959Y-5186959D03*
G01*
X614959Y-5694959D03*
G01*
X614959Y-6202959D03*
G01*
X614959Y-7218959D03*
G01*
X614959Y-7726959D03*
G01*
X1122959Y-106959D03*
G01*
X1122959Y-4170959D03*
G01*
X1122959Y-5186959D03*
G01*
X1122959Y-5694959D03*
G01*
X1122959Y-6202959D03*
G01*
X1630959Y-106959D03*
G01*
X1630959Y-614959D03*
G01*
X1630959Y-1122959D03*
G01*
X1630959Y-1630959D03*
G01*
X1630959Y-6710959D03*
G01*
X2138959Y-106959D03*
G01*
X2138959Y-6710959D03*
G01*
X2646959Y-106959D03*
G01*
X2646959Y-1630959D03*
G01*
X3154959Y-106959D03*
G01*
X3154959Y-614959D03*
G01*
X3154959Y-3662959D03*
G01*
X3154959Y-5186959D03*
G01*
X3154959Y-7218959D03*
G01*
X3662959Y-614959D03*
G01*
X3662959Y-6202959D03*
G01*
X106959Y-106959D03*
G01*
X106959Y-614959D03*
G01*
X106959Y-1122959D03*
G01*
X106959Y-1630959D03*
G01*
X106959Y-2138959D03*
G01*
X106959Y-7218959D03*
G01*
X614959Y-106959D03*
G01*
X614959Y-2138959D03*
G01*
X614959Y-4170959D03*
G01*
X614959Y-5186959D03*
G01*
X614959Y-5694959D03*
G01*
X614959Y-6202959D03*
G01*
X614959Y-7218959D03*
G01*
X614959Y-7726959D03*
G01*
X1122959Y-106959D03*
G01*
X1122959Y-4170959D03*
G01*
X1122959Y-5186959D03*
G01*
X1122959Y-5694959D03*
G01*
X1122959Y-6202959D03*
G01*
X1630959Y-106959D03*
G01*
X1630959Y-614959D03*
G01*
X1630959Y-1122959D03*
G01*
X1630959Y-1630959D03*
G01*
X1630959Y-6710959D03*
G01*
X2138959Y-106959D03*
G01*
X2138959Y-6710959D03*
G01*
X2646959Y-106959D03*
G01*
X2646959Y-1630959D03*
G01*
X3154959Y-106959D03*
G01*
X3154959Y-614959D03*
G01*
X3154959Y-3662959D03*
G01*
X3154959Y-5186959D03*
G01*
X3154959Y-7218959D03*
G01*
X3662959Y-614959D03*
G01*
X3662959Y-6202959D03*
D23*
X3180003Y-6865005D02*
G01*
X3180003Y-6915005D01*
X3434003Y-6865005D02*
G01*
X3434003Y-6915005D01*
M02*
