M48
METRIC,LZ,000.000
;FILE_FORMAT=3:3
;TYPE=PLATED
;Layer: Drill PTH
;EasyEDA v6.4.19.5, 2021-06-14T13:18:40+02:00
;9e6975c7382942e3b78031909667385b,1658352ba3c644ceb65f55418ae09dd8,10
;Gerber Generator version 0.2
;Holesize 1 = 0.305 mm
T01C0.305
;Holesize 2 = 0.306 mm
T02C0.306
;Holesize 3 = 0.915 mm
T03C0.915
;Holesize 4 = 1.101 mm
T04C1.101
;Holesize 5 = 1.200 mm
T05C1.200
;Holesize 6 = 1.400 mm
T06C1.400
%
G05
G90
T01
X016900Y-031800
X014500Y-041900
X023114Y-050546
X025800Y-053300
X007600Y-031000
T02
X001070Y-001070
X001070Y-006150
X001070Y-011230
X001070Y-016310
X001070Y-021390
X001070Y-072190
X006150Y-001070
X006150Y-021390
X006150Y-041710
X006150Y-051870
X006150Y-056950
X006150Y-062030
X006150Y-072190
X006150Y-077270
X011230Y-001070
X011230Y-041710
X011230Y-051870
X011230Y-056950
X011230Y-062030
X016310Y-001070
X016310Y-006150
X016310Y-011230
X016310Y-016310
X016310Y-067110
X021390Y-001070
X021390Y-067110
X026470Y-001070
X026470Y-016310
X031550Y-001070
X031550Y-006150
X031550Y-036630
X031550Y-051870
X031550Y-072190
X036630Y-006150
X036630Y-062030
X001070Y-001070
X001070Y-006150
X001070Y-011230
X001070Y-016310
X001070Y-021390
X001070Y-072190
X006150Y-001070
X006150Y-021390
X006150Y-041710
X006150Y-051870
X006150Y-056950
X006150Y-062030
X006150Y-072190
X006150Y-077270
X011230Y-001070
X011230Y-041710
X011230Y-051870
X011230Y-056950
X011230Y-062030
X016310Y-001070
X016310Y-006150
X016310Y-011230
X016310Y-016310
X016310Y-067110
X021390Y-001070
X021390Y-067110
X026470Y-001070
X026470Y-016310
X031550Y-001070
X031550Y-006150
X031550Y-036630
X031550Y-051870
X031550Y-072190
X036630Y-006150
X036630Y-062030
X001070Y-001070
X001070Y-006150
X001070Y-011230
X001070Y-016310
X001070Y-021390
X001070Y-072190
X006150Y-001070
X006150Y-021390
X006150Y-041710
X006150Y-051870
X006150Y-056950
X006150Y-062030
X006150Y-072190
X006150Y-077270
X011230Y-001070
X011230Y-041710
X011230Y-051870
X011230Y-056950
X011230Y-062030
X016310Y-001070
X016310Y-006150
X016310Y-011230
X016310Y-016310
X016310Y-067110
X021390Y-001070
X021390Y-067110
X026470Y-001070
X026470Y-016310
X031550Y-001070
X031550Y-006150
X031550Y-036630
X031550Y-051870
X031550Y-072190
X036630Y-006150
X036630Y-062030
T03
X037420Y-044680
X037420Y-042140
X037420Y-039600
X037420Y-037060
X037420Y-034520
X037420Y-031980
X037420Y-029440
X037420Y-026900
X037420Y-024360
X037420Y-021820
X037420Y-019280
X037420Y-016740
X037420Y-014200
X037420Y-011660
X037420Y-009120
X022180Y-044680
X022180Y-042140
X022180Y-039600
X022180Y-037060
X022180Y-034520
X022180Y-031980
X022180Y-029440
X022180Y-026900
X022180Y-024360
X022180Y-021820
X022180Y-019280
X022180Y-016740
X022180Y-014200
X022180Y-011660
X022180Y-009120
T04
X005400Y-026000
X005400Y-028500
X005400Y-031000
X009190Y-075700
X011730Y-075700
X014270Y-075700
X016810Y-075700
X030310Y-076700
X027770Y-076700
X025230Y-076700
X022690Y-076700
T05
X004990Y-045810
X007530Y-045810
X004990Y-038190
X007530Y-038190
X010070Y-045810
X012610Y-045810
X010070Y-038190
X012610Y-038190
X005400Y-009421
X005400Y-011961
X005400Y-014501
X005400Y-017041
X005400Y-019581
X018370Y-053490
X018370Y-056030
X018370Y-058570
X018370Y-061110
X015830Y-061110
X015830Y-058570
X015830Y-056030
X015830Y-053490
T06
X031800Y-068900
X034340Y-068900
X029260Y-068900
M30
