G04 Layer: BottomPasteMaskLayer*
G04 EasyEDA v6.4.19.5, 2021-06-14T13:18:40+02:00*
G04 9e6975c7382942e3b78031909667385b,1658352ba3c644ceb65f55418ae09dd8,10*
G04 Gerber Generator version 0.2*
G04 Scale: 100 percent, Rotated: No, Reflected: No *
G04 Dimensions in millimeters *
G04 leading zeros omitted , absolute positions ,4 integer and 5 decimal *
%FSLAX45Y45*%
%MOMM*%

%ADD26C,0.6000*%

%LPD*%
D26*
X1262816Y-1214501D02*
G01*
X1142817Y-1214501D01*
X1262816Y-1087501D02*
G01*
X1142817Y-1087501D01*
X1262816Y-960501D02*
G01*
X1142817Y-960501D01*
X1262816Y-833501D02*
G01*
X1142817Y-833501D01*
X1262816Y-706501D02*
G01*
X1142817Y-706501D01*
X1262816Y-579501D02*
G01*
X1142817Y-579501D01*
X1262816Y-452501D02*
G01*
X1142817Y-452501D01*
X1262816Y-325501D02*
G01*
X1142817Y-325501D01*
X1857176Y-1214501D02*
G01*
X1737177Y-1214501D01*
X1857176Y-1087501D02*
G01*
X1737177Y-1087501D01*
X1857176Y-960501D02*
G01*
X1737177Y-960501D01*
X1857176Y-833501D02*
G01*
X1737177Y-833501D01*
X1857176Y-706501D02*
G01*
X1737177Y-706501D01*
X1857176Y-579501D02*
G01*
X1737177Y-579501D01*
X1857176Y-452501D02*
G01*
X1737177Y-452501D01*
X1857176Y-325501D02*
G01*
X1737177Y-325501D01*
G36*
X2500010Y-5600004D02*
G01*
X2380010Y-5600004D01*
X2380010Y-5740003D01*
X2500010Y-5740003D01*
G37*
G36*
X2179990Y-5600004D02*
G01*
X2059990Y-5600004D01*
X2059990Y-5740003D01*
X2179990Y-5740003D01*
G37*
G36*
X2678920Y-5412999D02*
G01*
X2678920Y-5763000D01*
X2898919Y-5763000D01*
X2898919Y-5412999D01*
G37*
G36*
X3298680Y-5763000D02*
G01*
X3298680Y-5873000D01*
X3518679Y-5873000D01*
X3518679Y-5763000D01*
G37*
G36*
X3298680Y-5532998D02*
G01*
X3298680Y-5643001D01*
X3518679Y-5643001D01*
X3518679Y-5532998D01*
G37*
G36*
X3298680Y-5302999D02*
G01*
X3298680Y-5412999D01*
X3518679Y-5412999D01*
X3518679Y-5302999D01*
G37*
G36*
X2440000Y-6412501D02*
G01*
X2340000Y-6412501D01*
X2340000Y-6567502D01*
X2440000Y-6567502D01*
G37*
G36*
X2240000Y-6412501D02*
G01*
X2140000Y-6412501D01*
X2140000Y-6567502D01*
X2240000Y-6567502D01*
G37*
G36*
X2440000Y-5992502D02*
G01*
X2340000Y-5992502D01*
X2340000Y-6147503D01*
X2440000Y-6147503D01*
G37*
G36*
X2240000Y-5992502D02*
G01*
X2140000Y-5992502D01*
X2140000Y-6147503D01*
X2240000Y-6147503D01*
G37*
G36*
X2504998Y-4738131D02*
G01*
X2575001Y-4738131D01*
X2575001Y-4613132D01*
X2504998Y-4613132D01*
G37*
G36*
X2410002Y-4988067D02*
G01*
X2480005Y-4988067D01*
X2480005Y-4863068D01*
X2410002Y-4863068D01*
G37*
G36*
X2599994Y-4988067D02*
G01*
X2669997Y-4988067D01*
X2669997Y-4863068D01*
X2599994Y-4863068D01*
G37*
G36*
X1819198Y-4738131D02*
G01*
X1889201Y-4738131D01*
X1889201Y-4613132D01*
X1819198Y-4613132D01*
G37*
G36*
X1724202Y-4988067D02*
G01*
X1794205Y-4988067D01*
X1794205Y-4863068D01*
X1724202Y-4863068D01*
G37*
G36*
X1914194Y-4988067D02*
G01*
X1984197Y-4988067D01*
X1984197Y-4863068D01*
X1914194Y-4863068D01*
G37*
G36*
X2942501Y-4750003D02*
G01*
X2942501Y-4850003D01*
X3097502Y-4850003D01*
X3097502Y-4750003D01*
G37*
G36*
X2942501Y-4550003D02*
G01*
X2942501Y-4650003D01*
X3097502Y-4650003D01*
X3097502Y-4550003D01*
G37*
G36*
X1820001Y-4267502D02*
G01*
X1920001Y-4267502D01*
X1920001Y-4112501D01*
X1820001Y-4112501D01*
G37*
G36*
X1620001Y-4267502D02*
G01*
X1720001Y-4267502D01*
X1720001Y-4112501D01*
X1620001Y-4112501D01*
G37*
G36*
X2340000Y-5397502D02*
G01*
X2440000Y-5397502D01*
X2440000Y-5242501D01*
X2340000Y-5242501D01*
G37*
G36*
X2140000Y-5397502D02*
G01*
X2240000Y-5397502D01*
X2240000Y-5242501D01*
X2140000Y-5242501D01*
G37*
G36*
X1820001Y-3917502D02*
G01*
X1920001Y-3917502D01*
X1920001Y-3762502D01*
X1820001Y-3762502D01*
G37*
G36*
X1620001Y-3917502D02*
G01*
X1720001Y-3917502D01*
X1720001Y-3762502D01*
X1620001Y-3762502D01*
G37*
M02*
