ISO-10303-21;
HEADER;
/* Generated by software containing ST-Developer
 * from STEP Tools, Inc. (www.steptools.com) 
 */

FILE_DESCRIPTION(
/* description */ (''),
/* implementation_level */ '2;1');

FILE_NAME(
/* name */ 
'D:/3D Printer/Projects/Split-Flap/3D-Design/Flaps/Flap_blank.step',
/* time_stamp */ '2022-02-22T00:25:40+01:00',
/* author */ (''),
/* organization */ (''),
/* preprocessor_version */ 'ST-DEVELOPER v18.1',
/* originating_system */ 'Autodesk Translation Framework v10.13.0.1454',

/* authorisation */ '');

FILE_SCHEMA (('AUTOMOTIVE_DESIGN { 1 0 10303 214 3 1 1 }'));
ENDSEC;

DATA;
#10=MECHANICAL_DESIGN_GEOMETRIC_PRESENTATION_REPRESENTATION('',(#13),#567);
#11=SHAPE_REPRESENTATION_RELATIONSHIP('SRR','None',#573,#12);
#12=ADVANCED_BREP_SHAPE_REPRESENTATION('',(#14),#566);
#13=STYLED_ITEM('',(#582),#14);
#14=MANIFOLD_SOLID_BREP('Masterflap',#359);
#15=FACE_OUTER_BOUND('',#33,.T.);
#16=FACE_OUTER_BOUND('',#34,.T.);
#17=FACE_OUTER_BOUND('',#35,.T.);
#18=FACE_OUTER_BOUND('',#36,.T.);
#19=FACE_OUTER_BOUND('',#37,.T.);
#20=FACE_OUTER_BOUND('',#38,.T.);
#21=FACE_OUTER_BOUND('',#39,.T.);
#22=FACE_OUTER_BOUND('',#40,.T.);
#23=FACE_OUTER_BOUND('',#41,.T.);
#24=FACE_OUTER_BOUND('',#42,.T.);
#25=FACE_OUTER_BOUND('',#43,.T.);
#26=FACE_OUTER_BOUND('',#44,.T.);
#27=FACE_OUTER_BOUND('',#45,.T.);
#28=FACE_OUTER_BOUND('',#46,.T.);
#29=FACE_OUTER_BOUND('',#47,.T.);
#30=FACE_OUTER_BOUND('',#48,.T.);
#31=FACE_OUTER_BOUND('',#49,.T.);
#32=FACE_OUTER_BOUND('',#50,.T.);
#33=EDGE_LOOP('',(#227,#228,#229,#230));
#34=EDGE_LOOP('',(#231,#232,#233,#234));
#35=EDGE_LOOP('',(#235,#236,#237,#238));
#36=EDGE_LOOP('',(#239,#240,#241,#242));
#37=EDGE_LOOP('',(#243,#244,#245,#246));
#38=EDGE_LOOP('',(#247,#248,#249,#250));
#39=EDGE_LOOP('',(#251,#252,#253,#254));
#40=EDGE_LOOP('',(#255,#256,#257,#258));
#41=EDGE_LOOP('',(#259,#260,#261,#262));
#42=EDGE_LOOP('',(#263,#264,#265,#266));
#43=EDGE_LOOP('',(#267,#268,#269,#270));
#44=EDGE_LOOP('',(#271,#272,#273,#274));
#45=EDGE_LOOP('',(#275,#276,#277,#278));
#46=EDGE_LOOP('',(#279,#280,#281,#282));
#47=EDGE_LOOP('',(#283,#284,#285,#286));
#48=EDGE_LOOP('',(#287,#288,#289,#290));
#49=EDGE_LOOP('',(#291,#292,#293,#294,#295,#296,#297,#298,#299,#300,#301,
#302,#303,#304,#305,#306));
#50=EDGE_LOOP('',(#307,#308,#309,#310,#311,#312,#313,#314,#315,#316,#317,
#318,#319,#320,#321,#322));
#51=LINE('',#469,#99);
#52=LINE('',#471,#100);
#53=LINE('',#473,#101);
#54=LINE('',#474,#102);
#55=LINE('',#477,#103);
#56=LINE('',#479,#104);
#57=LINE('',#480,#105);
#58=LINE('',#483,#106);
#59=LINE('',#485,#107);
#60=LINE('',#486,#108);
#61=LINE('',#489,#109);
#62=LINE('',#491,#110);
#63=LINE('',#492,#111);
#64=LINE('',#495,#112);
#65=LINE('',#497,#113);
#66=LINE('',#498,#114);
#67=LINE('',#501,#115);
#68=LINE('',#503,#116);
#69=LINE('',#504,#117);
#70=LINE('',#507,#118);
#71=LINE('',#509,#119);
#72=LINE('',#510,#120);
#73=LINE('',#513,#121);
#74=LINE('',#515,#122);
#75=LINE('',#516,#123);
#76=LINE('',#519,#124);
#77=LINE('',#521,#125);
#78=LINE('',#522,#126);
#79=LINE('',#525,#127);
#80=LINE('',#527,#128);
#81=LINE('',#528,#129);
#82=LINE('',#531,#130);
#83=LINE('',#533,#131);
#84=LINE('',#534,#132);
#85=LINE('',#537,#133);
#86=LINE('',#539,#134);
#87=LINE('',#540,#135);
#88=LINE('',#543,#136);
#89=LINE('',#545,#137);
#90=LINE('',#546,#138);
#91=LINE('',#549,#139);
#92=LINE('',#551,#140);
#93=LINE('',#552,#141);
#94=LINE('',#555,#142);
#95=LINE('',#557,#143);
#96=LINE('',#558,#144);
#97=LINE('',#560,#145);
#98=LINE('',#561,#146);
#99=VECTOR('',#383,10.);
#100=VECTOR('',#384,10.);
#101=VECTOR('',#385,10.);
#102=VECTOR('',#386,10.);
#103=VECTOR('',#389,10.);
#104=VECTOR('',#390,10.);
#105=VECTOR('',#391,10.);
#106=VECTOR('',#394,10.);
#107=VECTOR('',#395,10.);
#108=VECTOR('',#396,10.);
#109=VECTOR('',#399,10.);
#110=VECTOR('',#400,10.);
#111=VECTOR('',#401,10.);
#112=VECTOR('',#404,10.);
#113=VECTOR('',#405,10.);
#114=VECTOR('',#406,10.);
#115=VECTOR('',#409,10.);
#116=VECTOR('',#410,10.);
#117=VECTOR('',#411,10.);
#118=VECTOR('',#414,10.);
#119=VECTOR('',#415,10.);
#120=VECTOR('',#416,10.);
#121=VECTOR('',#419,10.);
#122=VECTOR('',#420,10.);
#123=VECTOR('',#421,10.);
#124=VECTOR('',#424,10.);
#125=VECTOR('',#425,10.);
#126=VECTOR('',#426,10.);
#127=VECTOR('',#429,10.);
#128=VECTOR('',#430,10.);
#129=VECTOR('',#431,10.);
#130=VECTOR('',#434,10.);
#131=VECTOR('',#435,10.);
#132=VECTOR('',#436,10.);
#133=VECTOR('',#439,10.);
#134=VECTOR('',#440,10.);
#135=VECTOR('',#441,10.);
#136=VECTOR('',#444,10.);
#137=VECTOR('',#445,10.);
#138=VECTOR('',#446,10.);
#139=VECTOR('',#449,10.);
#140=VECTOR('',#450,10.);
#141=VECTOR('',#451,10.);
#142=VECTOR('',#454,10.);
#143=VECTOR('',#455,10.);
#144=VECTOR('',#456,10.);
#145=VECTOR('',#459,10.);
#146=VECTOR('',#460,10.);
#147=VERTEX_POINT('',#467);
#148=VERTEX_POINT('',#468);
#149=VERTEX_POINT('',#470);
#150=VERTEX_POINT('',#472);
#151=VERTEX_POINT('',#476);
#152=VERTEX_POINT('',#478);
#153=VERTEX_POINT('',#482);
#154=VERTEX_POINT('',#484);
#155=VERTEX_POINT('',#488);
#156=VERTEX_POINT('',#490);
#157=VERTEX_POINT('',#494);
#158=VERTEX_POINT('',#496);
#159=VERTEX_POINT('',#500);
#160=VERTEX_POINT('',#502);
#161=VERTEX_POINT('',#506);
#162=VERTEX_POINT('',#508);
#163=VERTEX_POINT('',#512);
#164=VERTEX_POINT('',#514);
#165=VERTEX_POINT('',#518);
#166=VERTEX_POINT('',#520);
#167=VERTEX_POINT('',#524);
#168=VERTEX_POINT('',#526);
#169=VERTEX_POINT('',#530);
#170=VERTEX_POINT('',#532);
#171=VERTEX_POINT('',#536);
#172=VERTEX_POINT('',#538);
#173=VERTEX_POINT('',#542);
#174=VERTEX_POINT('',#544);
#175=VERTEX_POINT('',#548);
#176=VERTEX_POINT('',#550);
#177=VERTEX_POINT('',#554);
#178=VERTEX_POINT('',#556);
#179=EDGE_CURVE('',#147,#148,#51,.T.);
#180=EDGE_CURVE('',#147,#149,#52,.T.);
#181=EDGE_CURVE('',#150,#149,#53,.T.);
#182=EDGE_CURVE('',#148,#150,#54,.T.);
#183=EDGE_CURVE('',#148,#151,#55,.T.);
#184=EDGE_CURVE('',#152,#150,#56,.T.);
#185=EDGE_CURVE('',#151,#152,#57,.T.);
#186=EDGE_CURVE('',#151,#153,#58,.T.);
#187=EDGE_CURVE('',#154,#152,#59,.T.);
#188=EDGE_CURVE('',#153,#154,#60,.T.);
#189=EDGE_CURVE('',#155,#153,#61,.T.);
#190=EDGE_CURVE('',#156,#154,#62,.T.);
#191=EDGE_CURVE('',#155,#156,#63,.T.);
#192=EDGE_CURVE('',#157,#155,#64,.T.);
#193=EDGE_CURVE('',#158,#156,#65,.T.);
#194=EDGE_CURVE('',#157,#158,#66,.T.);
#195=EDGE_CURVE('',#159,#157,#67,.T.);
#196=EDGE_CURVE('',#160,#158,#68,.T.);
#197=EDGE_CURVE('',#159,#160,#69,.T.);
#198=EDGE_CURVE('',#161,#159,#70,.T.);
#199=EDGE_CURVE('',#162,#160,#71,.T.);
#200=EDGE_CURVE('',#161,#162,#72,.T.);
#201=EDGE_CURVE('',#161,#163,#73,.T.);
#202=EDGE_CURVE('',#164,#162,#74,.T.);
#203=EDGE_CURVE('',#163,#164,#75,.T.);
#204=EDGE_CURVE('',#163,#165,#76,.T.);
#205=EDGE_CURVE('',#166,#164,#77,.T.);
#206=EDGE_CURVE('',#165,#166,#78,.T.);
#207=EDGE_CURVE('',#165,#167,#79,.T.);
#208=EDGE_CURVE('',#168,#166,#80,.T.);
#209=EDGE_CURVE('',#167,#168,#81,.T.);
#210=EDGE_CURVE('',#169,#167,#82,.T.);
#211=EDGE_CURVE('',#170,#168,#83,.T.);
#212=EDGE_CURVE('',#169,#170,#84,.T.);
#213=EDGE_CURVE('',#169,#171,#85,.T.);
#214=EDGE_CURVE('',#172,#170,#86,.T.);
#215=EDGE_CURVE('',#171,#172,#87,.T.);
#216=EDGE_CURVE('',#171,#173,#88,.T.);
#217=EDGE_CURVE('',#174,#172,#89,.T.);
#218=EDGE_CURVE('',#173,#174,#90,.T.);
#219=EDGE_CURVE('',#175,#173,#91,.T.);
#220=EDGE_CURVE('',#176,#174,#92,.T.);
#221=EDGE_CURVE('',#175,#176,#93,.T.);
#222=EDGE_CURVE('',#177,#175,#94,.T.);
#223=EDGE_CURVE('',#178,#176,#95,.T.);
#224=EDGE_CURVE('',#177,#178,#96,.T.);
#225=EDGE_CURVE('',#147,#177,#97,.T.);
#226=EDGE_CURVE('',#149,#178,#98,.T.);
#227=ORIENTED_EDGE('',*,*,#179,.F.);
#228=ORIENTED_EDGE('',*,*,#180,.T.);
#229=ORIENTED_EDGE('',*,*,#181,.F.);
#230=ORIENTED_EDGE('',*,*,#182,.F.);
#231=ORIENTED_EDGE('',*,*,#183,.F.);
#232=ORIENTED_EDGE('',*,*,#182,.T.);
#233=ORIENTED_EDGE('',*,*,#184,.F.);
#234=ORIENTED_EDGE('',*,*,#185,.F.);
#235=ORIENTED_EDGE('',*,*,#186,.F.);
#236=ORIENTED_EDGE('',*,*,#185,.T.);
#237=ORIENTED_EDGE('',*,*,#187,.F.);
#238=ORIENTED_EDGE('',*,*,#188,.F.);
#239=ORIENTED_EDGE('',*,*,#189,.T.);
#240=ORIENTED_EDGE('',*,*,#188,.T.);
#241=ORIENTED_EDGE('',*,*,#190,.F.);
#242=ORIENTED_EDGE('',*,*,#191,.F.);
#243=ORIENTED_EDGE('',*,*,#192,.T.);
#244=ORIENTED_EDGE('',*,*,#191,.T.);
#245=ORIENTED_EDGE('',*,*,#193,.F.);
#246=ORIENTED_EDGE('',*,*,#194,.F.);
#247=ORIENTED_EDGE('',*,*,#195,.T.);
#248=ORIENTED_EDGE('',*,*,#194,.T.);
#249=ORIENTED_EDGE('',*,*,#196,.F.);
#250=ORIENTED_EDGE('',*,*,#197,.F.);
#251=ORIENTED_EDGE('',*,*,#198,.T.);
#252=ORIENTED_EDGE('',*,*,#197,.T.);
#253=ORIENTED_EDGE('',*,*,#199,.F.);
#254=ORIENTED_EDGE('',*,*,#200,.F.);
#255=ORIENTED_EDGE('',*,*,#201,.F.);
#256=ORIENTED_EDGE('',*,*,#200,.T.);
#257=ORIENTED_EDGE('',*,*,#202,.F.);
#258=ORIENTED_EDGE('',*,*,#203,.F.);
#259=ORIENTED_EDGE('',*,*,#204,.F.);
#260=ORIENTED_EDGE('',*,*,#203,.T.);
#261=ORIENTED_EDGE('',*,*,#205,.F.);
#262=ORIENTED_EDGE('',*,*,#206,.F.);
#263=ORIENTED_EDGE('',*,*,#207,.F.);
#264=ORIENTED_EDGE('',*,*,#206,.T.);
#265=ORIENTED_EDGE('',*,*,#208,.F.);
#266=ORIENTED_EDGE('',*,*,#209,.F.);
#267=ORIENTED_EDGE('',*,*,#210,.T.);
#268=ORIENTED_EDGE('',*,*,#209,.T.);
#269=ORIENTED_EDGE('',*,*,#211,.F.);
#270=ORIENTED_EDGE('',*,*,#212,.F.);
#271=ORIENTED_EDGE('',*,*,#213,.F.);
#272=ORIENTED_EDGE('',*,*,#212,.T.);
#273=ORIENTED_EDGE('',*,*,#214,.F.);
#274=ORIENTED_EDGE('',*,*,#215,.F.);
#275=ORIENTED_EDGE('',*,*,#216,.F.);
#276=ORIENTED_EDGE('',*,*,#215,.T.);
#277=ORIENTED_EDGE('',*,*,#217,.F.);
#278=ORIENTED_EDGE('',*,*,#218,.F.);
#279=ORIENTED_EDGE('',*,*,#219,.T.);
#280=ORIENTED_EDGE('',*,*,#218,.T.);
#281=ORIENTED_EDGE('',*,*,#220,.F.);
#282=ORIENTED_EDGE('',*,*,#221,.F.);
#283=ORIENTED_EDGE('',*,*,#222,.T.);
#284=ORIENTED_EDGE('',*,*,#221,.T.);
#285=ORIENTED_EDGE('',*,*,#223,.F.);
#286=ORIENTED_EDGE('',*,*,#224,.F.);
#287=ORIENTED_EDGE('',*,*,#225,.T.);
#288=ORIENTED_EDGE('',*,*,#224,.T.);
#289=ORIENTED_EDGE('',*,*,#226,.F.);
#290=ORIENTED_EDGE('',*,*,#180,.F.);
#291=ORIENTED_EDGE('',*,*,#226,.T.);
#292=ORIENTED_EDGE('',*,*,#223,.T.);
#293=ORIENTED_EDGE('',*,*,#220,.T.);
#294=ORIENTED_EDGE('',*,*,#217,.T.);
#295=ORIENTED_EDGE('',*,*,#214,.T.);
#296=ORIENTED_EDGE('',*,*,#211,.T.);
#297=ORIENTED_EDGE('',*,*,#208,.T.);
#298=ORIENTED_EDGE('',*,*,#205,.T.);
#299=ORIENTED_EDGE('',*,*,#202,.T.);
#300=ORIENTED_EDGE('',*,*,#199,.T.);
#301=ORIENTED_EDGE('',*,*,#196,.T.);
#302=ORIENTED_EDGE('',*,*,#193,.T.);
#303=ORIENTED_EDGE('',*,*,#190,.T.);
#304=ORIENTED_EDGE('',*,*,#187,.T.);
#305=ORIENTED_EDGE('',*,*,#184,.T.);
#306=ORIENTED_EDGE('',*,*,#181,.T.);
#307=ORIENTED_EDGE('',*,*,#225,.F.);
#308=ORIENTED_EDGE('',*,*,#179,.T.);
#309=ORIENTED_EDGE('',*,*,#183,.T.);
#310=ORIENTED_EDGE('',*,*,#186,.T.);
#311=ORIENTED_EDGE('',*,*,#189,.F.);
#312=ORIENTED_EDGE('',*,*,#192,.F.);
#313=ORIENTED_EDGE('',*,*,#195,.F.);
#314=ORIENTED_EDGE('',*,*,#198,.F.);
#315=ORIENTED_EDGE('',*,*,#201,.T.);
#316=ORIENTED_EDGE('',*,*,#204,.T.);
#317=ORIENTED_EDGE('',*,*,#207,.T.);
#318=ORIENTED_EDGE('',*,*,#210,.F.);
#319=ORIENTED_EDGE('',*,*,#213,.T.);
#320=ORIENTED_EDGE('',*,*,#216,.T.);
#321=ORIENTED_EDGE('',*,*,#219,.F.);
#322=ORIENTED_EDGE('',*,*,#222,.F.);
#323=PLANE('',#361);
#324=PLANE('',#362);
#325=PLANE('',#363);
#326=PLANE('',#364);
#327=PLANE('',#365);
#328=PLANE('',#366);
#329=PLANE('',#367);
#330=PLANE('',#368);
#331=PLANE('',#369);
#332=PLANE('',#370);
#333=PLANE('',#371);
#334=PLANE('',#372);
#335=PLANE('',#373);
#336=PLANE('',#374);
#337=PLANE('',#375);
#338=PLANE('',#376);
#339=PLANE('',#377);
#340=PLANE('',#378);
#341=ADVANCED_FACE('',(#15),#323,.T.);
#342=ADVANCED_FACE('',(#16),#324,.T.);
#343=ADVANCED_FACE('',(#17),#325,.T.);
#344=ADVANCED_FACE('',(#18),#326,.T.);
#345=ADVANCED_FACE('',(#19),#327,.T.);
#346=ADVANCED_FACE('',(#20),#328,.T.);
#347=ADVANCED_FACE('',(#21),#329,.T.);
#348=ADVANCED_FACE('',(#22),#330,.T.);
#349=ADVANCED_FACE('',(#23),#331,.T.);
#350=ADVANCED_FACE('',(#24),#332,.T.);
#351=ADVANCED_FACE('',(#25),#333,.T.);
#352=ADVANCED_FACE('',(#26),#334,.T.);
#353=ADVANCED_FACE('',(#27),#335,.T.);
#354=ADVANCED_FACE('',(#28),#336,.T.);
#355=ADVANCED_FACE('',(#29),#337,.T.);
#356=ADVANCED_FACE('',(#30),#338,.T.);
#357=ADVANCED_FACE('',(#31),#339,.T.);
#358=ADVANCED_FACE('',(#32),#340,.F.);
#359=CLOSED_SHELL('',(#341,#342,#343,#344,#345,#346,#347,#348,#349,#350,
#351,#352,#353,#354,#355,#356,#357,#358));
#360=AXIS2_PLACEMENT_3D('placement',#465,#379,#380);
#361=AXIS2_PLACEMENT_3D('',#466,#381,#382);
#362=AXIS2_PLACEMENT_3D('',#475,#387,#388);
#363=AXIS2_PLACEMENT_3D('',#481,#392,#393);
#364=AXIS2_PLACEMENT_3D('',#487,#397,#398);
#365=AXIS2_PLACEMENT_3D('',#493,#402,#403);
#366=AXIS2_PLACEMENT_3D('',#499,#407,#408);
#367=AXIS2_PLACEMENT_3D('',#505,#412,#413);
#368=AXIS2_PLACEMENT_3D('',#511,#417,#418);
#369=AXIS2_PLACEMENT_3D('',#517,#422,#423);
#370=AXIS2_PLACEMENT_3D('',#523,#427,#428);
#371=AXIS2_PLACEMENT_3D('',#529,#432,#433);
#372=AXIS2_PLACEMENT_3D('',#535,#437,#438);
#373=AXIS2_PLACEMENT_3D('',#541,#442,#443);
#374=AXIS2_PLACEMENT_3D('',#547,#447,#448);
#375=AXIS2_PLACEMENT_3D('',#553,#452,#453);
#376=AXIS2_PLACEMENT_3D('',#559,#457,#458);
#377=AXIS2_PLACEMENT_3D('',#562,#461,#462);
#378=AXIS2_PLACEMENT_3D('',#563,#463,#464);
#379=DIRECTION('axis',(0.,0.,1.));
#380=DIRECTION('refdir',(1.,0.,0.));
#381=DIRECTION('center_axis',(-1.,0.,0.));
#382=DIRECTION('ref_axis',(0.,-1.,0.));
#383=DIRECTION('',(0.,1.,0.));
#384=DIRECTION('',(0.,0.,1.));
#385=DIRECTION('',(0.,-1.,0.));
#386=DIRECTION('',(0.,0.,1.));
#387=DIRECTION('center_axis',(0.,-1.,0.));
#388=DIRECTION('ref_axis',(1.,0.,0.));
#389=DIRECTION('',(-1.,0.,0.));
#390=DIRECTION('',(1.,0.,0.));
#391=DIRECTION('',(0.,0.,1.));
#392=DIRECTION('center_axis',(-1.,-2.61228946970625E-16,0.));
#393=DIRECTION('ref_axis',(2.61228946970625E-16,-1.,0.));
#394=DIRECTION('',(-2.61228946970625E-16,1.,0.));
#395=DIRECTION('',(2.61228946970625E-16,-1.,0.));
#396=DIRECTION('',(0.,0.,1.));
#397=DIRECTION('center_axis',(0.,1.,0.));
#398=DIRECTION('ref_axis',(-1.,0.,0.));
#399=DIRECTION('',(-1.,0.,0.));
#400=DIRECTION('',(-1.,0.,0.));
#401=DIRECTION('',(0.,0.,1.));
#402=DIRECTION('center_axis',(1.,-1.56737368182375E-15,0.));
#403=DIRECTION('ref_axis',(1.56737368182375E-15,1.,0.));
#404=DIRECTION('',(1.56737368182375E-15,1.,0.));
#405=DIRECTION('',(1.56737368182375E-15,1.,0.));
#406=DIRECTION('',(0.,0.,1.));
#407=DIRECTION('center_axis',(0.,-1.,0.));
#408=DIRECTION('ref_axis',(1.,0.,0.));
#409=DIRECTION('',(1.,0.,0.));
#410=DIRECTION('',(1.,0.,0.));
#411=DIRECTION('',(0.,0.,1.));
#412=DIRECTION('center_axis',(1.,0.,0.));
#413=DIRECTION('ref_axis',(0.,1.,0.));
#414=DIRECTION('',(0.,1.,0.));
#415=DIRECTION('',(0.,1.,0.));
#416=DIRECTION('',(0.,0.,1.));
#417=DIRECTION('center_axis',(0.,1.,0.));
#418=DIRECTION('ref_axis',(-1.,0.,0.));
#419=DIRECTION('',(1.,0.,0.));
#420=DIRECTION('',(-1.,0.,0.));
#421=DIRECTION('',(0.,0.,1.));
#422=DIRECTION('center_axis',(1.,0.,0.));
#423=DIRECTION('ref_axis',(0.,1.,0.));
#424=DIRECTION('',(0.,-1.,0.));
#425=DIRECTION('',(0.,1.,0.));
#426=DIRECTION('',(0.,0.,1.));
#427=DIRECTION('center_axis',(0.,-1.,0.));
#428=DIRECTION('ref_axis',(1.,0.,0.));
#429=DIRECTION('',(-1.,0.,0.));
#430=DIRECTION('',(1.,0.,0.));
#431=DIRECTION('',(0.,0.,1.));
#432=DIRECTION('center_axis',(1.,0.,0.));
#433=DIRECTION('ref_axis',(0.,1.,0.));
#434=DIRECTION('',(0.,1.,0.));
#435=DIRECTION('',(0.,1.,0.));
#436=DIRECTION('',(0.,0.,1.));
#437=DIRECTION('center_axis',(0.,-1.,0.));
#438=DIRECTION('ref_axis',(1.,0.,0.));
#439=DIRECTION('',(-1.,0.,0.));
#440=DIRECTION('',(1.,0.,0.));
#441=DIRECTION('',(0.,0.,1.));
#442=DIRECTION('center_axis',(-1.,0.,0.));
#443=DIRECTION('ref_axis',(0.,-1.,0.));
#444=DIRECTION('',(0.,1.,0.));
#445=DIRECTION('',(0.,-1.,0.));
#446=DIRECTION('',(0.,0.,1.));
#447=DIRECTION('center_axis',(0.,-1.,0.));
#448=DIRECTION('ref_axis',(1.,0.,0.));
#449=DIRECTION('',(1.,0.,0.));
#450=DIRECTION('',(1.,0.,0.));
#451=DIRECTION('',(0.,0.,1.));
#452=DIRECTION('center_axis',(-1.,0.,0.));
#453=DIRECTION('ref_axis',(0.,-1.,0.));
#454=DIRECTION('',(0.,-1.,0.));
#455=DIRECTION('',(0.,-1.,0.));
#456=DIRECTION('',(0.,0.,1.));
#457=DIRECTION('center_axis',(0.,1.,0.));
#458=DIRECTION('ref_axis',(-1.,0.,0.));
#459=DIRECTION('',(-1.,0.,0.));
#460=DIRECTION('',(-1.,0.,0.));
#461=DIRECTION('center_axis',(0.,0.,1.));
#462=DIRECTION('ref_axis',(1.,0.,0.));
#463=DIRECTION('center_axis',(0.,0.,1.));
#464=DIRECTION('ref_axis',(1.,0.,0.));
#465=CARTESIAN_POINT('',(0.,0.,0.));
#466=CARTESIAN_POINT('Origin',(-19.5,18.,0.));
#467=CARTESIAN_POINT('',(-19.5,2.4,0.));
#468=CARTESIAN_POINT('',(-19.5,18.,0.));
#469=CARTESIAN_POINT('',(-19.5,2.4,0.));
#470=CARTESIAN_POINT('',(-19.5,2.4,1.));
#471=CARTESIAN_POINT('',(-19.5,2.4,0.));
#472=CARTESIAN_POINT('',(-19.5,18.,1.));
#473=CARTESIAN_POINT('',(-19.5,2.4,1.));
#474=CARTESIAN_POINT('',(-19.5,18.,0.));
#475=CARTESIAN_POINT('Origin',(-21.5,18.,0.));
#476=CARTESIAN_POINT('',(-21.5,18.,0.));
#477=CARTESIAN_POINT('',(-19.5,18.,0.));
#478=CARTESIAN_POINT('',(-21.5,18.,1.));
#479=CARTESIAN_POINT('',(-19.5,18.,1.));
#480=CARTESIAN_POINT('',(-21.5,18.,0.));
#481=CARTESIAN_POINT('Origin',(-21.5,35.,0.));
#482=CARTESIAN_POINT('',(-21.5,35.,0.));
#483=CARTESIAN_POINT('',(-21.5,18.,0.));
#484=CARTESIAN_POINT('',(-21.5,35.,1.));
#485=CARTESIAN_POINT('',(-21.5,18.,1.));
#486=CARTESIAN_POINT('',(-21.5,35.,0.));
#487=CARTESIAN_POINT('Origin',(21.5,35.,0.));
#488=CARTESIAN_POINT('',(21.5,35.,0.));
#489=CARTESIAN_POINT('',(21.5,35.,0.));
#490=CARTESIAN_POINT('',(21.5,35.,1.));
#491=CARTESIAN_POINT('',(21.5,35.,1.));
#492=CARTESIAN_POINT('',(21.5,35.,0.));
#493=CARTESIAN_POINT('Origin',(21.5,18.,0.));
#494=CARTESIAN_POINT('',(21.5,18.,0.));
#495=CARTESIAN_POINT('',(21.5,18.,0.));
#496=CARTESIAN_POINT('',(21.5,18.,1.));
#497=CARTESIAN_POINT('',(21.5,18.,1.));
#498=CARTESIAN_POINT('',(21.5,18.,0.));
#499=CARTESIAN_POINT('Origin',(19.5,18.,0.));
#500=CARTESIAN_POINT('',(19.5,18.,0.));
#501=CARTESIAN_POINT('',(19.5,18.,0.));
#502=CARTESIAN_POINT('',(19.5,18.,1.));
#503=CARTESIAN_POINT('',(19.5,18.,1.));
#504=CARTESIAN_POINT('',(19.5,18.,0.));
#505=CARTESIAN_POINT('Origin',(19.5,2.4,0.));
#506=CARTESIAN_POINT('',(19.5,2.4,0.));
#507=CARTESIAN_POINT('',(19.5,2.4,0.));
#508=CARTESIAN_POINT('',(19.5,2.4,1.));
#509=CARTESIAN_POINT('',(19.5,2.4,1.));
#510=CARTESIAN_POINT('',(19.5,2.4,0.));
#511=CARTESIAN_POINT('Origin',(21.5,2.4,0.));
#512=CARTESIAN_POINT('',(21.5,2.4,0.));
#513=CARTESIAN_POINT('',(19.5,2.4,0.));
#514=CARTESIAN_POINT('',(21.5,2.4,1.));
#515=CARTESIAN_POINT('',(19.5,2.4,1.));
#516=CARTESIAN_POINT('',(21.5,2.4,0.));
#517=CARTESIAN_POINT('Origin',(21.5,1.2,0.));
#518=CARTESIAN_POINT('',(21.5,1.2,0.));
#519=CARTESIAN_POINT('',(21.5,2.4,0.));
#520=CARTESIAN_POINT('',(21.5,1.2,1.));
#521=CARTESIAN_POINT('',(21.5,2.4,1.));
#522=CARTESIAN_POINT('',(21.5,1.2,0.));
#523=CARTESIAN_POINT('Origin',(19.5,1.2,0.));
#524=CARTESIAN_POINT('',(19.5,1.2,0.));
#525=CARTESIAN_POINT('',(21.5,1.2,0.));
#526=CARTESIAN_POINT('',(19.5,1.2,1.));
#527=CARTESIAN_POINT('',(21.5,1.2,1.));
#528=CARTESIAN_POINT('',(19.5,1.2,0.));
#529=CARTESIAN_POINT('Origin',(19.5,0.,0.));
#530=CARTESIAN_POINT('',(19.5,0.,0.));
#531=CARTESIAN_POINT('',(19.5,0.,0.));
#532=CARTESIAN_POINT('',(19.5,0.,1.));
#533=CARTESIAN_POINT('',(19.5,0.,1.));
#534=CARTESIAN_POINT('',(19.5,0.,0.));
#535=CARTESIAN_POINT('Origin',(-19.5,0.,0.));
#536=CARTESIAN_POINT('',(-19.5,0.,0.));
#537=CARTESIAN_POINT('',(0.,0.,0.));
#538=CARTESIAN_POINT('',(-19.5,0.,1.));
#539=CARTESIAN_POINT('',(0.,0.,1.));
#540=CARTESIAN_POINT('',(-19.5,0.,0.));
#541=CARTESIAN_POINT('Origin',(-19.5,1.2,0.));
#542=CARTESIAN_POINT('',(-19.5,1.2,0.));
#543=CARTESIAN_POINT('',(-19.5,0.,0.));
#544=CARTESIAN_POINT('',(-19.5,1.2,1.));
#545=CARTESIAN_POINT('',(-19.5,0.,1.));
#546=CARTESIAN_POINT('',(-19.5,1.2,0.));
#547=CARTESIAN_POINT('Origin',(-21.5,1.2,0.));
#548=CARTESIAN_POINT('',(-21.5,1.2,0.));
#549=CARTESIAN_POINT('',(-21.5,1.2,0.));
#550=CARTESIAN_POINT('',(-21.5,1.2,1.));
#551=CARTESIAN_POINT('',(-21.5,1.2,1.));
#552=CARTESIAN_POINT('',(-21.5,1.2,0.));
#553=CARTESIAN_POINT('Origin',(-21.5,2.4,0.));
#554=CARTESIAN_POINT('',(-21.5,2.4,0.));
#555=CARTESIAN_POINT('',(-21.5,2.4,0.));
#556=CARTESIAN_POINT('',(-21.5,2.4,1.));
#557=CARTESIAN_POINT('',(-21.5,2.4,1.));
#558=CARTESIAN_POINT('',(-21.5,2.4,0.));
#559=CARTESIAN_POINT('Origin',(-19.5,2.4,0.));
#560=CARTESIAN_POINT('',(-19.5,2.4,0.));
#561=CARTESIAN_POINT('',(-19.5,2.4,1.));
#562=CARTESIAN_POINT('Origin',(1.33226762955019E-14,17.5,1.));
#563=CARTESIAN_POINT('Origin',(1.33226762955019E-14,17.5,0.));
#564=UNCERTAINTY_MEASURE_WITH_UNIT(LENGTH_MEASURE(0.01),#568,
'DISTANCE_ACCURACY_VALUE',
'Maximum model space distance between geometric entities at asserted c
onnectivities');
#565=UNCERTAINTY_MEASURE_WITH_UNIT(LENGTH_MEASURE(0.01),#568,
'DISTANCE_ACCURACY_VALUE',
'Maximum model space distance between geometric entities at asserted c
onnectivities');
#566=(
GEOMETRIC_REPRESENTATION_CONTEXT(3)
GLOBAL_UNCERTAINTY_ASSIGNED_CONTEXT((#564))
GLOBAL_UNIT_ASSIGNED_CONTEXT((#568,#569,#570))
REPRESENTATION_CONTEXT('','3D')
);
#567=(
GEOMETRIC_REPRESENTATION_CONTEXT(3)
GLOBAL_UNCERTAINTY_ASSIGNED_CONTEXT((#565))
GLOBAL_UNIT_ASSIGNED_CONTEXT((#568,#569,#570))
REPRESENTATION_CONTEXT('','3D')
);
#568=(
LENGTH_UNIT()
NAMED_UNIT(*)
SI_UNIT(.MILLI.,.METRE.)
);
#569=(
NAMED_UNIT(*)
PLANE_ANGLE_UNIT()
SI_UNIT($,.RADIAN.)
);
#570=(
NAMED_UNIT(*)
SI_UNIT($,.STERADIAN.)
SOLID_ANGLE_UNIT()
);
#571=SHAPE_DEFINITION_REPRESENTATION(#572,#573);
#572=PRODUCT_DEFINITION_SHAPE('',$,#575);
#573=SHAPE_REPRESENTATION('',(#360),#566);
#574=PRODUCT_DEFINITION_CONTEXT('part definition',#579,'design');
#575=PRODUCT_DEFINITION('NewFlaps','NewFlaps',#576,#574);
#576=PRODUCT_DEFINITION_FORMATION('',$,#581);
#577=PRODUCT_RELATED_PRODUCT_CATEGORY('NewFlaps','NewFlaps',(#581));
#578=APPLICATION_PROTOCOL_DEFINITION('international standard',
'automotive_design',2009,#579);
#579=APPLICATION_CONTEXT(
'Core Data for Automotive Mechanical Design Process');
#580=PRODUCT_CONTEXT('part definition',#579,'mechanical');
#581=PRODUCT('NewFlaps','NewFlaps',$,(#580));
#582=PRESENTATION_STYLE_ASSIGNMENT((#583));
#583=SURFACE_STYLE_USAGE(.BOTH.,#584);
#584=SURFACE_SIDE_STYLE('',(#585));
#585=SURFACE_STYLE_FILL_AREA(#586);
#586=FILL_AREA_STYLE('Steel - Satin',(#587));
#587=FILL_AREA_STYLE_COLOUR('Steel - Satin',#588);
#588=COLOUR_RGB('Steel - Satin',0.627450980392157,0.627450980392157,0.627450980392157);
ENDSEC;
END-ISO-10303-21;
